M48
;Layer_Color=9474304
;FILE_FORMAT=4:4
METRIC
;TYPE=PLATED
T1F00S00C0.3302
T2F00S00C0.3556
T3F00S00C0.5080
T4F00S00C0.9000
T6F00S00C1.1000
T7F00S00C1.1500
T8F00S00C1.3000
T9F00S00C2.6000
;TYPE=NON_PLATED
T10F00S00C3.7500
%
T01
X00020685Y00011426
X00046085
X00071485
X00096885
X00122285
X00147685
X00173085
X00198485
X00223885
X00249285
X00274685
X00300085
X00325485
X00350885
X00376285
X00388985Y00036826
X00363585
X00338185
X00312785
X00287385
X00261985
X00236585
X00211185
X00185785
X00198485Y00062226
X00249285
X00236585Y00087626
X00249285Y00113026
X00274685
X00300085
X00325485
X00338185Y00138426
X00312785
X00287385
Y00087626
X00312785
X00325485Y00062226
X00300085
X00376285
Y00113026
X00223885
X00236585Y00138426
X00211185
X00173085Y00113026
X00134985Y00087626
X00147685Y00062226
X00096885
X00109585Y00036826
X00084185
X00058785
X00033385
X00046085Y00062226
X00020685
X00033385Y00087626
X00046085Y00113026
X00020685
X00033385Y00138426
X00058785
X00084185Y00087626
X00414385
X00439785
X00427085Y00113026
X00401685
X00427085Y00062226
X00439785Y00036826
X00465185
X00490585
X00515985
X00541385
X00566785
X00592185
X00617585
X00642985
X00668385
X00693785
X00719185
X00744585
X00769985
X00795385
X00782685Y00062226
X00795385Y00087626
X00782685Y00113026
X00757285
X00744585Y00138426
X00719185
X00693785
X00668385
Y00087626
X00681085Y00062226
X00731885
Y00011426
X00757285
X00782685
X00706485
X00681085
X00655685
X00630285
X00604885
X00579485
X00554085
X00528685
X00503285
X00477885
X00452485
X00427085
X00401685
X00414385Y00036826
X00490585Y00087626
X00541385
X00566785
X00554085Y00062226
X00566785Y00138426
X00541385
X00515985
X00630285Y00113026
X00833485
X00846185Y00138426
X00896985
X00922385
Y00087626
X00896985
X00909685Y00062226
X00884285
X00858885
X00833485
X00808085
X00820785Y00036826
X00846185
X00871585
X00896985
X00922385
X00909685Y00011426
X00884285
X00858885
X00833485
X00808085
X00884285Y00113026
X00909685Y00163826
X00858885
X00833485
X00808085
X00820785Y00189226
X00846185
X00858885Y00214626
X00871585Y00240026
X00896985
X00922385
X00909685Y00265426
X00884285
X00858885
X00833485
X00808085
X00820785Y00240026
X00846185
X00896985Y00290826
X00922385
X00909685Y00316226
X00922385Y00341626
X00909685Y00468626
X00884285
X00858885
X00871585Y00494026
X00896985
X00922385
X00909685Y00519426
X00884285
X00858885
X00833485
X00808085
X00820785Y00544826
X00846185
X00871585
X00896985
X00922385
X00846185Y00494026
X00795385
X00798120Y00466772
Y00455000
X00795385Y00443226
X00782685Y00417826
X00795385Y00392426
X00757285Y00367026
X00744585Y00341626
X00693785
X00668385
X00681085Y00367026
X00693785Y00392426
X00706485Y00417826
X00699060Y00457120
X00704140Y00467280
X00655685Y00468626
X00642985Y00494026
X00655685Y00519426
X00681085
X00642985Y00544826
X00541385
X00515985
X00528685Y00519426
X00541385Y00494026
X00515985
X00528685Y00468626
X00541385Y00443226
X00515985
X00490585
X00503285Y00417826
X00528685
X00554085
X00579485Y00367026
Y00316226
X00554085
X00528685
X00541385Y00341626
X00515985
X00503285Y00367026
X00477885Y00417826
X00442520Y00416480
X00442520Y00393620
X00417120Y00419020
X00427085Y00468626
X00401685
Y00519426
X00452485
X00439785Y00544826
X00401685Y00367026
X00414385Y00341626
X00427085Y00265426
X00452485
X00477885
X00503285
X00528685
X00554085
X00566785Y00240026
X00541385
X00515985
X00490585
X00465185
X00477885Y00214626
X00503285
X00528685
X00554085
X00579485
X00566785Y00189226
X00541385
X00515985
X00490585
X00465185
X00452485Y00214626
X00427085
X00401685
X00414385Y00240026
X00401685Y00265426
X00465185Y00290826
X00490585
X00515985
X00541385
X00592185
X00617585
X00642985
X00668385
X00693785
X00706485Y00316226
X00681085
X00655685
X00630285
Y00265426
X00655685
X00681085
X00693785Y00240026
X00668385
X00642985
X00617585
X00630285Y00214626
X00655685
X00681085
X00693785Y00189226
X00668385
X00642985
X00617585
X00681085Y00163826
X00706485
X00744585Y00189226
X00769985
X00795385
X00782685Y00214626
X00795385Y00240026
X00769985
X00744585
X00757285Y00265426
X00782685
Y00163826
X00554085
X00528685
X00401685
X00414385Y00189226
X00604885Y00265426
X00640640Y00419020
X00648260Y00427990
X00757285Y00519426
X00795385Y00544826
X00312785
Y00494026
X00261985
X00236585
X00249285Y00519426
X00261985Y00544826
X00236585
X00223885Y00468626
X00211185Y00443226
X00185785
X00198485Y00417826
X00223885
X00211185Y00392426
X00185785
X00160385
X00137720Y00399530
X00147685Y00367026
X00173085
X00198485
X00223885
X00236585Y00341626
X00211185
X00185785
X00160385
X00173085Y00316226
X00198485
X00223885
X00249285
X00236585Y00290826
X00211185
X00185785
X00160385
Y00189226
X00122285Y00163826
X00071485Y00214626
X00058785Y00240026
X00033385
X00046085Y00265426
X00071485
X00058785Y00290826
X00033385
X00046085Y00316226
X00071485
X00058785Y00341626
X00033385
X00046085Y00367026
X00071485
X00058785Y00392426
X00033385
X00046085Y00417826
X00071485
X00058785Y00443226
X00033385
X00046085Y00468626
X00071485
X00058785Y00494026
X00033385
X00046085Y00519426
X00071485
X00058785Y00544826
X00033385
X00020685Y00519426
Y00468626
Y00417826
Y00367026
Y00316226
Y00265426
Y00214626
Y00163826
X00298919Y00162960
X00358430Y00162480
X00388985Y00189226
Y00240026
Y00290826
X00376285Y00316226
X00350885
X00363585Y00341626
X00338185
X00350885Y00367026
X00325485
X00338185Y00392426
X00312785
X00325485Y00417826
X00350885
X00338185Y00443226
X00261985
Y00392426
X00173085Y00417826
X00147685Y00468626
X00160385Y00494026
X00185785
X00122285Y00519426
X00249285Y00265426
Y00214626
X00338380Y00228520
X00312980Y00258303
X00325485Y00570226
X00350885
X00376285
X00388985Y00595626
X00363585
Y00646426
X00388985
Y00748026
X00363585
X00338185
X00312785
X00325485Y00773426
X00350885
X00376285
X00388985Y00798826
X00363585
X00338185
X00312785
X00287385
X00261985
X00274685Y00773426
X00300085
X00249285
X00261985Y00748026
X00236585
Y00697226
X00211185
X00160385
X00147685Y00671826
X00134985Y00646426
X00160580Y00624760
X00173280Y00637460
X00191060Y00612060
X00223885Y00621026
X00236585Y00646426
X00249285Y00570226
X00170740Y00574430
X00171210Y00561730
X00122285Y00570226
X00071485
X00046085
X00020685
X00033385Y00595626
X00058785
X00071485Y00621026
X00046085
X00020685
X00033385Y00646426
X00058785
X00071485Y00671826
X00046085
X00020685
X00033385Y00697226
X00058785
X00084185
X00096885Y00722626
X00071485
X00046085
X00020685
X00033385Y00748026
X00058785
X00084185
X00096885Y00773426
X00071485
X00046085
X00020685
X00033385Y00798826
X00058785
X00084185
X00096885Y00824226
X00071485
X00046085
X00020685
X00033385Y00849626
X00058785
X00084185
X00096885Y00875026
X00071485
X00046085
X00020685
X00084185Y00900426
X00096885Y00925826
X00122285
X00173085
X00198485
X00223885
X00249285
X00223885Y00875026
X00198485
X00173085
X00185785Y00900426
X00160385
X00147685Y00773426
X00160385Y00748026
X00134985
X00211185Y00798826
X00414385
X00439785
X00452485Y00773426
X00477885
X00503285
X00528685
X00554085
X00579485
X00604885
X00630285
X00655685
X00681085
X00706485
X00719185Y00798826
X00744585
X00769985
X00795385
X00782685Y00824226
X00757285
X00731885
X00706485
X00719185Y00849626
X00744585
X00769985
X00795385
X00782685Y00875026
X00757285
X00731885
X00706485
X00681085
X00655685
X00668385Y00900426
X00693785
X00719185
X00744585
X00769985
X00795385
X00782685Y00925826
X00757285
X00731885
X00706485
X00681085
X00693785Y00849626
X00668385
X00655685Y00824226
X00630285
X00604885
X00579485
X00554085
X00528685
X00503285
X00477885
X00490585Y00798826
X00515985
X00541385
X00566785
X00592185
X00617585
X00642985
X00668385
Y00748026
X00693785
X00706485Y00722626
X00681085
X00655685
X00630285
X00604885
X00617585Y00748026
X00642985
X00592185
X00566785
X00541385
X00515985
X00490585
X00439785
X00414385
X00427085Y00773426
X00401685
X00427085Y00875026
X00452485
X00477885
X00503285
X00515985Y00849626
X00541385
X00566785
X00592185
X00617585
X00604885Y00875026
X00579485
X00554085
Y00671826
X00566785Y00646426
X00592185
X00617585
X00642985
X00630285Y00671826
X00731885
X00757285
X00782685
X00795385Y00697226
X00769985
X00744585
X00757285Y00722626
X00782685
X00795385Y00748026
X00769985
X00744585
X00757285Y00773426
X00782685
X00795385Y00646426
X00769985
X00744585
X00757285Y00621026
X00782685
X00795385Y00595626
X00769985
X00630285Y00570226
X00604885
X00579485
X00554085
X00528685
X00503285
X00401685
Y00621026
X00452485Y00671826
X00477885
X00808085
X00833485
X00858885
X00884285
X00909685
X00922385Y00697226
X00896985
X00871585
X00846185
X00820785
X00833485Y00722626
X00858885
X00884285
X00909685
X00922385Y00748026
X00896985
X00871585
X00846185
X00820785
X00833485Y00773426
X00858885
X00884285
X00909685
X00922385Y00798826
X00896985
X00871585
X00846185
X00820785
X00833485Y00824226
X00858885
X00884285
X00909685
X00922385Y00849626
X00896985
X00871585
X00846185
X00820785
X00833485Y00875026
X00858885
X00884285
X00909685
X00846185Y00900426
X00820785
X00833485Y00925826
X00858885
X00808085
Y00875026
Y00824226
Y00773426
Y00722626
X00820785Y00646426
X00846185
X00871585
X00896985
X00922385
X00909685Y00621026
X00884285
X00858885
X00833485
X00808085
X00820785Y00595626
X00846185
X00871585
X00896985
X00922385
X00909685Y00570226
X00884285
X00858885
X00833485
X00808085
T02
X00851000Y00311000
X00840303Y00337740
X00888643Y00331743
X00696675Y00441960
X00685629Y00441686
X00456431Y00441584
X00463880Y00460676
X00318060Y00342820
X00296339Y00248840
X00140260Y00279320
X00160580Y00317420
X00339789Y00637460
X00437110Y00591740
X00663500Y00589200
T03
X00823520Y00401240
X00846380Y00436800
X00724460Y00421560
X00605080Y00441960
X00593789Y00406320
X00572060Y00424100
X00565350Y00485060
X00597460Y00485275
X00613129Y00517080
X00375909Y00517509
X00358430Y00485060
X00326590Y00485275
X00366240Y00441960
X00381560Y00375840
X00302820Y00330120
X00274880
X00252020Y00588280
X00309419Y00596820
X00135180Y00579040
X00113459Y00600499
T04
X00577460Y00665400
X00597460
X00659220Y00675540
X00684220
X00709220
Y00642540
X00684220
X00659220
T06
X00263589Y00709580
X00288989
X00314389
X00339789
X00365189
X00390589
Y00912780
X00365189
X00339789
X00314389
X00288989
X00263589
X00415989
X00441389
X00466789
X00492189
X00517589
X00542989
X00568389
X00593789
X00619189
X00644589
X00542989Y00709580
X00517589
X00492189
X00466789
X00441389
X00415989
T07
X00440059Y00155000
X00465459
X00490859
X00595059
X00620459
X00645859
Y00335000
X00620459
X00595059
X00490859
X00465459
X00440059
X00358430Y00286940
Y00261540
Y00236140
X00314389Y00665400
X00288989
X00263589
X00238189
X00150420Y00797480
Y00822880
Y00848280
Y00873680
X00526340Y00673020
Y00647620
T08
X00065199Y00070640
X00115999
X00166799
X00217599
X00268399
X00347139
X00397939
X00461439
X00512239
X00590979
X00641779
X00705279
X00756079
T09
X00225489Y00722280
Y00900080
T10
X00890000Y00195000
X00050000Y00185000
Y00910000
X00890000
M30
