G04*
G04 #@! TF.GenerationSoftware,Altium Limited,Altium Designer,19.0.12 (326)*
G04*
G04 Layer_Color=65535*
%FSAX44Y44*%
%MOMM*%
G71*
G01*
G75*
%ADD10C,0.6000*%
%ADD11C,0.2500*%
%ADD12C,0.2000*%
%ADD13C,0.1000*%
%ADD14C,0.0787*%
%ADD15C,0.3810*%
%ADD16C,0.0165*%
%ADD17C,0.1500*%
%ADD18C,0.1270*%
%ADD19C,0.1524*%
%ADD20C,0.0991*%
%ADD21C,0.1575*%
%ADD22C,0.2540*%
%ADD23C,0.2032*%
%ADD24C,0.1778*%
%ADD25C,0.3000*%
%ADD26R,3.5594X0.5963*%
%ADD27R,3.5731X0.6000*%
%ADD28R,1.7800X8.8000*%
D10*
X00853669Y00326880D02*
G03*
X00853669Y00326880I-00003000J00000000D01*
G01*
X00180639Y00583030D02*
G03*
X00180639Y00583030I-00003000J00000000D01*
G01*
X00666379Y00452500D02*
G03*
X00666379Y00452500I-00003000J00000000D01*
G01*
X00429159D02*
G03*
X00429159Y00452500I-00003000J00000000D01*
G01*
X00311809Y00260040D02*
G03*
X00311809Y00260040I-00003000J00000000D01*
G01*
D11*
X00872419Y00315380D02*
G03*
X00872419Y00315380I-00001250J00000000D01*
G01*
X00157639Y00595630D02*
G03*
X00157639Y00595630I-00001250J00000000D01*
G01*
X00681010Y00582140D02*
G03*
X00681010Y00582140I-00001000J00000000D01*
G01*
X00686879Y00442750D02*
G03*
X00686879Y00442750I-00001250J00000000D01*
G01*
X00444790Y00581580D02*
G03*
X00444790Y00581580I-00001000J00000000D01*
G01*
X00449659Y00442750D02*
G03*
X00449659Y00442750I-00001250J00000000D01*
G01*
X00800360Y00141398D02*
G03*
X00800360Y00141398I-00001250J00000000D01*
G01*
X00298559Y00239540D02*
G03*
X00298559Y00239540I-00001250J00000000D01*
G01*
X00373700Y00154460D02*
G03*
X00373700Y00154460I-00001250J00000000D01*
G01*
X00287340D02*
G03*
X00287340Y00154460I-00001250J00000000D01*
G01*
X00178120Y00207980D02*
G03*
X00178120Y00207980I-00001250J00000000D01*
G01*
D12*
X00708093Y00900080D02*
G03*
X00682693Y00925480I-00025401J-00000001D01*
G01*
X00225493D02*
G03*
X00200093Y00900080I00000001J-00025401D01*
G01*
X00225493Y00925353D02*
G03*
X00225493Y00925607I00000000J00000127D01*
G01*
D02*
G03*
X00225493Y00925353I00000000J-00000127D01*
G01*
X00200093Y00722280D02*
G03*
X00225493Y00696880I00025401J00000001D01*
G01*
X00200220Y00722280D02*
G03*
X00199966Y00722280I-00000127J00000000D01*
G01*
D02*
G03*
X00200220Y00722280I00000127J00000000D01*
G01*
X00682693Y00696880D02*
G03*
X00708093Y00722280I-00000001J00025401D01*
G01*
X00707966D02*
G03*
X00708220Y00722280I00000127J00000000D01*
G01*
D02*
G03*
X00707966Y00722280I-00000127J00000000D01*
G01*
X00160580Y00205660D02*
X00163120Y00208200D01*
X00137720Y00205660D02*
X00160580D01*
X00131370Y00199310D02*
X00137720Y00205660D01*
X00113336Y00199310D02*
X00131370D01*
X00837669Y00347880D02*
X00860669D01*
X00837669Y00316880D02*
X00860669D01*
X00837669D02*
Y00347880D01*
X00860669Y00316880D02*
Y00347880D01*
X00111399Y00363630D02*
Y00381410D01*
X00177693Y00487836D02*
X00252877D01*
Y00468024D02*
Y00487836D01*
X00253131Y00349660D02*
Y00363884D01*
X00177693Y00349660D02*
X00253131D01*
X00140152Y00490030D02*
X00175639D01*
X00139908Y00484030D02*
X00175639D01*
X00140045Y00348030D02*
X00175639D01*
X00140289Y00354030D02*
X00175639D01*
X00217439Y00383530D02*
Y00471530D01*
X00175639Y00484030D02*
Y00490030D01*
Y00348100D02*
Y00353993D01*
X00199639Y00383530D02*
Y00471496D01*
X00217426Y00471483D01*
X00199611Y00383530D02*
X00217398D01*
X00111399Y00471580D02*
Y00479200D01*
X00225493Y00925480D02*
X00682693D01*
X00200093Y00722280D02*
Y00900080D01*
X00225493Y00696880D02*
X00682693D01*
X00708093Y00722280D02*
Y00900080D01*
X00695220Y00677039D02*
X00698220D01*
X00670220D02*
X00673220D01*
X00670220Y00641040D02*
X00673220D01*
X00695220D02*
X00698220D01*
X00639220Y00677039D02*
X00648220D01*
X00639220Y00641040D02*
X00648220D01*
X00720222Y00677039D02*
X00729218D01*
X00720222Y00641038D02*
X00729218D01*
Y00677039D01*
X00639218Y00641038D02*
X00639220Y00677039D01*
X00557902Y00637460D02*
Y00682418D01*
X00617338D01*
X00557902Y00637460D02*
X00617338D01*
Y00682418D01*
X00167639Y00505030D02*
X00199639D01*
X00167639Y00593030D02*
X00199639D01*
Y00505030D02*
Y00593030D01*
X00167639Y00505030D02*
Y00593030D01*
X00678500Y00559900D02*
Y00569900D01*
X00670500Y00559900D02*
X00678500D01*
X00648500D02*
Y00569900D01*
Y00559900D02*
X00656500D01*
X00673379Y00442500D02*
Y00517500D01*
X00625379Y00442500D02*
Y00517500D01*
Y00442500D02*
X00673379D01*
X00625379Y00517500D02*
X00673379D01*
X00442280Y00559340D02*
Y00569340D01*
X00434280Y00559340D02*
X00442280D01*
X00412280D02*
Y00569340D01*
Y00559340D02*
X00420280D01*
X00388159Y00517500D02*
X00436159D01*
X00388159Y00442500D02*
X00436159D01*
X00388159D02*
Y00517500D01*
X00436159Y00442500D02*
Y00517500D01*
X00861620Y00406320D02*
X00876860D01*
Y00444420D01*
X00861620D02*
X00876860D01*
X00861620Y00406320D02*
Y00444420D01*
X00841599Y00294560D02*
Y00309800D01*
Y00294560D02*
X00879699D01*
Y00309800D01*
X00841599D02*
X00879699D01*
X00841599Y00271700D02*
Y00286940D01*
Y00271700D02*
X00879699D01*
Y00286940D01*
X00841599D02*
X00879699D01*
X00723559Y00233250D02*
Y00250875D01*
X00744184Y00271500D01*
X00723559Y00189125D02*
X00744184Y00168500D01*
X00723559Y00189125D02*
Y00206750D01*
X00744184Y00271500D02*
X00826559D01*
Y00233250D02*
Y00271500D01*
Y00168500D02*
Y00206750D01*
X00744184Y00168500D02*
X00826559D01*
X00826110Y00133648D02*
X00828360D01*
X00826110Y00085648D02*
X00828360D01*
X00798360Y00133648D02*
X00800610D01*
X00798360Y00085648D02*
X00800610D01*
X00828360D02*
Y00133648D01*
X00798360Y00085648D02*
Y00133648D01*
X00782749Y00028730D02*
Y00112550D01*
X00677339Y00028730D02*
X00782749D01*
X00677339D02*
Y00112550D01*
X00782749D01*
X00730679Y00033810D02*
Y00049685D01*
X00725599Y00045875D02*
X00730679Y00050955D01*
X00735759Y00045875D01*
X00668449Y00028730D02*
Y00112550D01*
X00563039Y00028730D02*
X00668449D01*
X00563039D02*
Y00112550D01*
X00668449D01*
X00616379Y00033810D02*
Y00049685D01*
X00611299Y00045875D02*
X00616379Y00050955D01*
X00621459Y00045875D01*
X00538909Y00028730D02*
Y00112550D01*
X00433499Y00028730D02*
X00538909D01*
X00433499D02*
Y00112550D01*
X00538909D01*
X00486839Y00033810D02*
Y00049685D01*
X00481759Y00045875D02*
X00486839Y00050955D01*
X00491919Y00045875D01*
X00424609Y00028730D02*
Y00112550D01*
X00319199Y00028730D02*
X00424609D01*
X00319199D02*
Y00112550D01*
X00424609D01*
X00372539Y00033810D02*
Y00049685D01*
X00367459Y00045875D02*
X00372539Y00050955D01*
X00377619Y00045875D01*
X00293799Y00028730D02*
Y00112550D01*
X00037259Y00028730D02*
X00293799D01*
X00037259D02*
Y00112550D01*
X00293799D01*
X00244269Y00050320D02*
X00249349Y00045240D01*
X00239189D02*
X00244269Y00050320D01*
Y00033810D02*
Y00050320D01*
X00090599Y00033810D02*
Y00049685D01*
X00085519Y00045875D02*
X00090599Y00050955D01*
X00095679Y00045875D01*
X00329809Y00250040D02*
Y00273040D01*
X00298809Y00250040D02*
Y00273040D01*
X00329809D01*
X00298809Y00250040D02*
X00329809D01*
X00354200Y00156960D02*
X00363200D01*
X00354200Y00187960D02*
X00363200D01*
Y00156960D02*
Y00187960D01*
X00354200Y00156960D02*
Y00187960D01*
X00333359Y00208200D02*
Y00223440D01*
X00295259D02*
X00333359D01*
X00295259Y00208200D02*
Y00223440D01*
Y00208200D02*
X00333359D01*
X00267840Y00156960D02*
X00276840D01*
X00267840Y00187960D02*
X00276840D01*
Y00156960D02*
Y00187960D01*
X00267840Y00156960D02*
Y00187960D01*
X00203760Y00182800D02*
X00213920D01*
X00203760Y00177720D02*
X00213920D01*
X00203760D02*
X00208840Y00182800D01*
X00213920Y00177720D01*
X00158620Y00210480D02*
X00167620D01*
X00158620Y00241480D02*
X00167620D01*
Y00210480D02*
Y00241480D01*
X00158620Y00210480D02*
Y00241480D01*
D13*
X00909864Y00406320D02*
G03*
X00909864Y00406320I-00001000J00000000D01*
G01*
X00201720Y00199310D02*
G03*
X00201720Y00199310I-00000500J00000000D01*
G01*
X00716840Y00691816D02*
X00732080D01*
X00716840D02*
Y00725344D01*
X00732080D01*
Y00691816D02*
Y00725344D01*
X00282155Y00627300D02*
Y00642540D01*
X00315683D01*
Y00627300D02*
Y00642540D01*
X00282155Y00627300D02*
X00315683D01*
X00282155Y00605983D02*
Y00621223D01*
X00315683D01*
Y00605983D02*
Y00621223D01*
X00282155Y00605983D02*
X00315683D01*
X00242275Y00563282D02*
Y00594778D01*
X00225003D02*
X00242275D01*
X00225003Y00563282D02*
Y00594778D01*
Y00563282D02*
X00242275D01*
X00661976Y00525700D02*
Y00540940D01*
X00695504D01*
Y00525700D02*
Y00540940D01*
X00661976Y00525700D02*
X00695504D01*
X00686360Y00583104D02*
X00701600D01*
Y00549576D02*
Y00583104D01*
X00686360Y00549576D02*
X00701600D01*
X00686360D02*
Y00583104D01*
X00708712Y00494204D02*
X00740208D01*
Y00511476D01*
X00708712D02*
X00740208D01*
X00708712Y00494204D02*
Y00511476D01*
X00709311Y00461364D02*
X00740807D01*
Y00478636D01*
X00709311D02*
X00740807D01*
X00709311Y00461364D02*
Y00478636D01*
X00661976Y00420370D02*
Y00435610D01*
X00695504D01*
Y00420370D02*
Y00435610D01*
X00661976Y00420370D02*
X00695504D01*
X00661976Y00398700D02*
Y00413940D01*
X00695504D01*
Y00398700D02*
Y00413940D01*
X00661976Y00398700D02*
X00695504D01*
X00637084Y00420370D02*
Y00435610D01*
X00603556Y00420370D02*
X00637084D01*
X00603556D02*
Y00435610D01*
X00637084D01*
Y00398700D02*
Y00413940D01*
X00603556Y00398700D02*
X00637084D01*
X00603556D02*
Y00413940D01*
X00637084D01*
X00622860Y00526716D02*
X00638100D01*
X00622860D02*
Y00560244D01*
X00638100D01*
Y00526716D02*
Y00560244D01*
X00602200D02*
X00617440D01*
Y00526716D02*
Y00560244D01*
X00602200Y00526716D02*
X00617440D01*
X00602200D02*
Y00560244D01*
X00557615Y00542380D02*
Y00557620D01*
X00591143D01*
Y00542380D02*
Y00557620D01*
X00557615Y00542380D02*
X00591143D01*
X00558852Y00511476D02*
X00590348D01*
X00558852Y00494204D02*
Y00511476D01*
Y00494204D02*
X00590348D01*
Y00511476D01*
X00558852Y00478886D02*
X00590348D01*
X00558852Y00461614D02*
Y00478886D01*
Y00461614D02*
X00590348D01*
Y00478886D01*
X00450140Y00583104D02*
X00465380D01*
Y00549576D02*
Y00583104D01*
X00450140Y00549576D02*
X00465380D01*
X00450140D02*
Y00583104D01*
X00424625Y00525700D02*
Y00540940D01*
X00458153D01*
Y00525700D02*
Y00540940D01*
X00424625Y00525700D02*
X00458153D01*
X00384019Y00525736D02*
X00399259D01*
X00384019D02*
Y00559264D01*
X00399259D01*
Y00525736D02*
Y00559264D01*
X00363780D02*
X00379020D01*
Y00525736D02*
Y00559264D01*
X00363780Y00525736D02*
X00379020D01*
X00363780D02*
Y00559264D01*
X00472492Y00494114D02*
X00503988D01*
Y00511386D01*
X00472492D02*
X00503988D01*
X00472492Y00494114D02*
Y00511386D01*
Y00461364D02*
X00503988D01*
Y00478636D01*
X00472492D02*
X00503988D01*
X00472492Y00461364D02*
Y00478636D01*
X00425675Y00420370D02*
Y00435610D01*
X00459203D01*
Y00420370D02*
Y00435610D01*
X00425675Y00420370D02*
X00459203D01*
X00425675Y00398700D02*
Y00413940D01*
X00459203D01*
Y00398700D02*
Y00413940D01*
X00425675Y00398700D02*
X00459203D01*
X00398324Y00420370D02*
Y00435610D01*
X00364796Y00420370D02*
X00398324D01*
X00364796D02*
Y00435610D01*
X00398324D01*
Y00398700D02*
Y00413940D01*
X00364796Y00398700D02*
X00398324D01*
X00364796D02*
Y00413940D01*
X00398324D01*
X00320092Y00478886D02*
X00351588D01*
X00320092Y00461614D02*
Y00478886D01*
Y00461614D02*
X00351588D01*
Y00478886D01*
X00320092Y00508936D02*
X00351588D01*
X00320092Y00491664D02*
Y00508936D01*
Y00491664D02*
X00351588D01*
Y00508936D01*
X00319076Y00540940D02*
Y00556180D01*
X00352604D01*
Y00540940D02*
Y00556180D01*
X00319076Y00540940D02*
X00352604D01*
X00906324Y00428672D02*
Y00460168D01*
Y00428672D02*
X00923596D01*
Y00460168D01*
X00906324D02*
X00923596D01*
X00883464Y00428572D02*
Y00460068D01*
Y00428572D02*
X00900736D01*
Y00460068D01*
X00883464D02*
X00900736D01*
X00887220Y00398860D02*
Y00418860D01*
X00912220Y00398860D02*
Y00418860D01*
X00882956Y00352980D02*
Y00368220D01*
X00916484D01*
Y00352980D02*
Y00368220D01*
X00882956Y00352980D02*
X00916484D01*
X00882956Y00373640D02*
Y00388880D01*
X00916484D01*
Y00373640D02*
Y00388880D01*
X00882956Y00373640D02*
X00916484D01*
X00861620Y00353996D02*
X00876860D01*
X00861620D02*
Y00387524D01*
X00876860D01*
Y00353996D02*
Y00387524D01*
X00841599Y00353996D02*
X00856839D01*
X00841599D02*
Y00387524D01*
X00856839D01*
Y00353996D02*
Y00387524D01*
X00820980Y00353996D02*
X00836220D01*
X00820980D02*
Y00387524D01*
X00836220D01*
Y00353996D02*
Y00387524D01*
X00777292Y00364156D02*
X00808788D01*
X00777292Y00346884D02*
Y00364156D01*
Y00346884D02*
X00808788D01*
Y00364156D01*
X00808695Y00309252D02*
Y00340748D01*
X00791423D02*
X00808695D01*
X00791423Y00309252D02*
Y00340748D01*
Y00309252D02*
X00808695D01*
X00786823Y00307380D02*
Y00322620D01*
X00753295Y00307380D02*
X00786823D01*
X00753295D02*
Y00322620D01*
X00786823D01*
Y00327380D02*
Y00342620D01*
X00753295Y00327380D02*
X00786823D01*
X00753295D02*
Y00342620D01*
X00786823D01*
X00111812Y00318744D02*
X00143308D01*
Y00336016D01*
X00111812D02*
X00143308D01*
X00111812Y00318744D02*
Y00336016D01*
X00524816Y00358060D02*
Y00373300D01*
X00558344D01*
Y00358060D02*
Y00373300D01*
X00524816Y00358060D02*
X00558344D01*
X00298561Y00318436D02*
X00330057D01*
X00298561Y00301164D02*
Y00318436D01*
Y00301164D02*
X00330057D01*
Y00318436D01*
X00342952Y00213636D02*
X00374448D01*
X00342952Y00196364D02*
Y00213636D01*
Y00196364D02*
X00374448D01*
Y00213636D01*
X00315520Y00155696D02*
X00330760D01*
X00315520D02*
Y00189224D01*
X00330760D01*
Y00155696D02*
Y00189224D01*
X00289104Y00233600D02*
Y00248840D01*
X00255576Y00233600D02*
X00289104D01*
X00255576D02*
Y00248840D01*
X00289104D01*
Y00253920D02*
Y00269160D01*
X00255576Y00253920D02*
X00289104D01*
X00255576D02*
Y00269160D01*
X00289104D01*
Y00274240D02*
Y00289480D01*
X00255576Y00274240D02*
X00289104D01*
X00255576D02*
Y00289480D01*
X00289104D01*
X00256592Y00213636D02*
X00288088D01*
X00256592Y00196364D02*
Y00213636D01*
Y00196364D02*
X00288088D01*
Y00213636D01*
X00193600Y00268144D02*
X00208840D01*
Y00234616D02*
Y00268144D01*
X00193600Y00234616D02*
X00208840D01*
X00193600D02*
Y00268144D01*
X00217984Y00235632D02*
Y00267128D01*
Y00235632D02*
X00235256D01*
Y00267128D01*
X00217984D02*
X00235256D01*
X00229160Y00155876D02*
X00244400D01*
X00229160D02*
Y00189404D01*
X00244400D01*
Y00155876D02*
Y00189404D01*
X00153976Y00253920D02*
Y00269160D01*
X00187504D01*
Y00253920D02*
Y00269160D01*
X00153976Y00253920D02*
X00187504D01*
X00113336D02*
Y00269160D01*
X00146864D01*
Y00253920D02*
Y00269160D01*
X00113336Y00253920D02*
X00146864D01*
D14*
X00423722Y00189131D02*
G03*
X00422934Y00189131I-00000394J00000000D01*
G01*
D02*
G03*
X00423722Y00189131I00000394J00000000D01*
G01*
X00415949D02*
G03*
X00415162Y00189131I-00000394J00000000D01*
G01*
D02*
G03*
X00415949Y00189131I00000394J00000000D01*
G01*
X00434136Y00181359D02*
G03*
X00433348Y00181359I-00000394J00000000D01*
G01*
D02*
G03*
X00434136Y00181359I00000394J00000000D01*
G01*
X00433348Y00186718D02*
G03*
X00434136Y00186718I00000394J00000000D01*
G01*
X00444575Y00181359D02*
G03*
X00443788Y00181359I-00000394J00000000D01*
G01*
D02*
G03*
X00444575Y00181359I00000394J00000000D01*
G01*
X00443788Y00186718D02*
G03*
X00444575Y00186718I00000394J00000000D01*
G01*
X00434136D02*
G03*
X00433348Y00186718I-00000394J00000000D01*
G01*
X00444575D02*
G03*
X00443788Y00186718I-00000394J00000000D01*
G01*
X00455472Y00178920D02*
G03*
X00454684Y00178920I-00000394J00000000D01*
G01*
D02*
G03*
X00455472Y00178920I00000394J00000000D01*
G01*
Y00183797D02*
G03*
X00454684Y00183797I-00000394J00000000D01*
G01*
D02*
G03*
X00455472Y00183797I00000394J00000000D01*
G01*
X00472210Y00178920D02*
G03*
X00471423Y00178920I-00000394J00000000D01*
G01*
D02*
G03*
X00472210Y00178920I00000394J00000000D01*
G01*
X00475360Y00184280D02*
G03*
X00474573Y00184280I-00000394J00000000D01*
G01*
D02*
G03*
X00475360Y00184280I00000394J00000000D01*
G01*
X00468807D02*
G03*
X00468019Y00184280I-00000394J00000000D01*
G01*
D02*
G03*
X00468807Y00184280I00000394J00000000D01*
G01*
X00479729D02*
G03*
X00478941Y00184280I-00000394J00000000D01*
G01*
D02*
G03*
X00479729Y00184280I00000394J00000000D01*
G01*
X00475360Y00189131D02*
G03*
X00474573Y00189131I-00000394J00000000D01*
G01*
D02*
G03*
X00475360Y00189131I00000394J00000000D01*
G01*
X00492911Y00178057D02*
G03*
X00492124Y00178057I-00000394J00000000D01*
G01*
D02*
G03*
X00492911Y00178057I00000394J00000000D01*
G01*
X00502843D02*
G03*
X00502055Y00178057I-00000394J00000000D01*
G01*
D02*
G03*
X00502843Y00178057I00000394J00000000D01*
G01*
X00492911Y00182908D02*
G03*
X00492124Y00182908I-00000394J00000000D01*
G01*
D02*
G03*
X00492911Y00182908I00000394J00000000D01*
G01*
X00502843Y00183391D02*
G03*
X00502055Y00183391I-00000394J00000000D01*
G01*
D02*
G03*
X00502843Y00183391I00000394J00000000D01*
G01*
X00509650Y00178057D02*
G03*
X00508863Y00178057I-00000394J00000000D01*
G01*
D02*
G03*
X00509650Y00178057I00000394J00000000D01*
G01*
X00512800Y00183391D02*
G03*
X00512012Y00183391I-00000394J00000000D01*
G01*
D02*
G03*
X00512800Y00183391I00000394J00000000D01*
G01*
X00517168D02*
G03*
X00516381Y00183391I-00000394J00000000D01*
G01*
D02*
G03*
X00517168Y00183391I00000394J00000000D01*
G01*
X00512800Y00188267D02*
G03*
X00512012Y00188267I-00000394J00000000D01*
G01*
D02*
G03*
X00512800Y00188267I00000394J00000000D01*
G01*
X00465403Y00178920D02*
G03*
X00464616Y00178920I-00000394J00000000D01*
G01*
D02*
G03*
X00465403Y00178920I00000394J00000000D01*
G01*
Y00184280D02*
G03*
X00464616Y00184280I-00000394J00000000D01*
G01*
D02*
G03*
X00465403Y00184280I00000394J00000000D01*
G01*
X00506246Y00183391D02*
G03*
X00505459Y00183391I-00000394J00000000D01*
G01*
D02*
G03*
X00506246Y00183391I00000394J00000000D01*
G01*
X00452373Y00251056D02*
G03*
X00451586Y00251056I-00000394J00000000D01*
G01*
D02*
G03*
X00452373Y00251056I00000394J00000000D01*
G01*
X00457910Y00245697D02*
G03*
X00458698Y00245697I00000394J00000000D01*
G01*
X00461822Y00255908D02*
G03*
X00461034Y00255908I-00000394J00000000D01*
G01*
D02*
G03*
X00461822Y00255908I00000394J00000000D01*
G01*
X00456259Y00251056D02*
G03*
X00455472Y00251056I-00000394J00000000D01*
G01*
D02*
G03*
X00456259Y00251056I00000394J00000000D01*
G01*
X00458698Y00255908D02*
G03*
X00457910Y00255908I-00000394J00000000D01*
G01*
D02*
G03*
X00458698Y00255908I00000394J00000000D01*
G01*
Y00245697D02*
G03*
X00457910Y00245697I-00000394J00000000D01*
G01*
X00467842D02*
G03*
X00468629Y00245697I00000394J00000000D01*
G01*
D02*
G03*
X00467842Y00245697I-00000394J00000000D01*
G01*
X00474700Y00255908D02*
G03*
X00473912Y00255908I-00000394J00000000D01*
G01*
D02*
G03*
X00474700Y00255908I00000394J00000000D01*
G01*
X00430630Y00304930D02*
G03*
X00429842Y00304930I-00000394J00000000D01*
G01*
D02*
G03*
X00430630Y00304930I00000394J00000000D01*
G01*
X00426718Y00312702D02*
G03*
X00427506Y00312702I00000394J00000000D01*
G01*
X00440587Y00315140D02*
G03*
X00439799Y00315140I-00000394J00000000D01*
G01*
D02*
G03*
X00440587Y00315140I00000394J00000000D01*
G01*
X00437437D02*
G03*
X00436650Y00315140I-00000394J00000000D01*
G01*
D02*
G03*
X00437437Y00315140I00000394J00000000D01*
G01*
X00427506Y00312702D02*
G03*
X00426718Y00312702I-00000394J00000000D01*
G01*
X00455700Y00306555D02*
G03*
X00454912Y00306555I-00000394J00000000D01*
G01*
D02*
G03*
X00455700Y00306555I00000394J00000000D01*
G01*
X00462507Y00313845D02*
G03*
X00461720Y00313845I-00000394J00000000D01*
G01*
D02*
G03*
X00462507Y00313845I00000394J00000000D01*
G01*
X00477036Y00308511D02*
G03*
X00476248Y00308511I-00000394J00000000D01*
G01*
D02*
G03*
X00477036Y00308511I00000394J00000000D01*
G01*
X00475588Y00305107D02*
G03*
X00474800Y00305107I-00000394J00000000D01*
G01*
D02*
G03*
X00475588Y00305107I00000394J00000000D01*
G01*
X00481912Y00308511D02*
G03*
X00481125Y00308511I-00000394J00000000D01*
G01*
D02*
G03*
X00481912Y00308511I00000394J00000000D01*
G01*
X00483360Y00305107D02*
G03*
X00482573Y00305107I-00000394J00000000D01*
G01*
D02*
G03*
X00483360Y00305107I00000394J00000000D01*
G01*
X00492962Y00306377D02*
G03*
X00492200Y00306377I-00000381J00000000D01*
G01*
D02*
G03*
X00492962Y00306377I00000381J00000000D01*
G01*
X00499769Y00313667D02*
G03*
X00499007Y00313667I-00000381J00000000D01*
G01*
D02*
G03*
X00499769Y00313667I00000381J00000000D01*
G01*
X00510208Y00307368D02*
G03*
X00509421Y00307368I-00000394J00000000D01*
G01*
D02*
G03*
X00510208Y00307368I00000394J00000000D01*
G01*
X00509421Y00312702D02*
G03*
X00510208Y00312702I00000394J00000000D01*
G01*
X00513332Y00315140D02*
G03*
X00512570Y00315140I-00000381J00000000D01*
G01*
D02*
G03*
X00513332Y00315140I00000381J00000000D01*
G01*
X00510208Y00312702D02*
G03*
X00509421Y00312702I-00000394J00000000D01*
G01*
X00519174Y00304930D02*
G03*
X00518387Y00304930I-00000394J00000000D01*
G01*
D02*
G03*
X00519174Y00304930I00000394J00000000D01*
G01*
X00425067Y00308816D02*
G03*
X00424280Y00308816I-00000394J00000000D01*
G01*
D02*
G03*
X00425067Y00308816I00000394J00000000D01*
G01*
X00465631Y00315318D02*
G03*
X00464869Y00315318I-00000381J00000000D01*
G01*
D02*
G03*
X00465631Y00315318I00000381J00000000D01*
G01*
X00617909D02*
G03*
X00618671Y00315318I00000381J00000000D01*
G01*
D02*
G03*
X00617909Y00315318I-00000381J00000000D01*
G01*
X00577320Y00308816D02*
G03*
X00578107Y00308816I00000394J00000000D01*
G01*
D02*
G03*
X00577320Y00308816I-00000394J00000000D01*
G01*
X00671427Y00304930D02*
G03*
X00672214Y00304930I00000394J00000000D01*
G01*
D02*
G03*
X00671427Y00304930I-00000394J00000000D01*
G01*
X00663248Y00312702D02*
G03*
X00662461Y00312702I-00000394J00000000D01*
G01*
X00665610Y00315140D02*
G03*
X00666372Y00315140I00000381J00000000D01*
G01*
D02*
G03*
X00665610Y00315140I-00000381J00000000D01*
G01*
X00662461Y00312702D02*
G03*
X00663248Y00312702I00000394J00000000D01*
G01*
X00662461Y00307368D02*
G03*
X00663248Y00307368I00000394J00000000D01*
G01*
D02*
G03*
X00662461Y00307368I-00000394J00000000D01*
G01*
X00652047Y00313667D02*
G03*
X00652809Y00313667I00000381J00000000D01*
G01*
D02*
G03*
X00652047Y00313667I-00000381J00000000D01*
G01*
X00645240Y00306377D02*
G03*
X00646002Y00306377I00000381J00000000D01*
G01*
D02*
G03*
X00645240Y00306377I-00000381J00000000D01*
G01*
X00635613Y00305107D02*
G03*
X00636400Y00305107I00000394J00000000D01*
G01*
D02*
G03*
X00635613Y00305107I-00000394J00000000D01*
G01*
X00634165Y00308511D02*
G03*
X00634953Y00308511I00000394J00000000D01*
G01*
D02*
G03*
X00634165Y00308511I-00000394J00000000D01*
G01*
X00627841Y00305107D02*
G03*
X00628628Y00305107I00000394J00000000D01*
G01*
D02*
G03*
X00627841Y00305107I-00000394J00000000D01*
G01*
X00629288Y00308511D02*
G03*
X00630076Y00308511I00000394J00000000D01*
G01*
D02*
G03*
X00629288Y00308511I-00000394J00000000D01*
G01*
X00614760Y00313845D02*
G03*
X00615547Y00313845I00000394J00000000D01*
G01*
D02*
G03*
X00614760Y00313845I-00000394J00000000D01*
G01*
X00607952Y00306555D02*
G03*
X00608740Y00306555I00000394J00000000D01*
G01*
D02*
G03*
X00607952Y00306555I-00000394J00000000D01*
G01*
X00580546Y00312702D02*
G03*
X00579758Y00312702I-00000394J00000000D01*
G01*
X00589690Y00315140D02*
G03*
X00590477Y00315140I00000394J00000000D01*
G01*
D02*
G03*
X00589690Y00315140I-00000394J00000000D01*
G01*
X00592839D02*
G03*
X00593627Y00315140I00000394J00000000D01*
G01*
D02*
G03*
X00592839Y00315140I-00000394J00000000D01*
G01*
X00579758Y00312702D02*
G03*
X00580546Y00312702I00000394J00000000D01*
G01*
X00582883Y00304930D02*
G03*
X00583670Y00304930I00000394J00000000D01*
G01*
D02*
G03*
X00582883Y00304930I-00000394J00000000D01*
G01*
X00626952Y00255908D02*
G03*
X00627740Y00255908I00000394J00000000D01*
G01*
D02*
G03*
X00626952Y00255908I-00000394J00000000D01*
G01*
X00621669Y00245697D02*
G03*
X00620882Y00245697I-00000394J00000000D01*
G01*
D02*
G03*
X00621669Y00245697I00000394J00000000D01*
G01*
X00611738D02*
G03*
X00610950Y00245697I-00000394J00000000D01*
G01*
Y00255908D02*
G03*
X00611738Y00255908I00000394J00000000D01*
G01*
D02*
G03*
X00610950Y00255908I-00000394J00000000D01*
G01*
X00608512Y00251056D02*
G03*
X00609299Y00251056I00000394J00000000D01*
G01*
D02*
G03*
X00608512Y00251056I-00000394J00000000D01*
G01*
X00614074Y00255908D02*
G03*
X00614862Y00255908I00000394J00000000D01*
G01*
D02*
G03*
X00614074Y00255908I-00000394J00000000D01*
G01*
X00610950Y00245697D02*
G03*
X00611738Y00245697I00000394J00000000D01*
G01*
X00604626Y00251056D02*
G03*
X00605413Y00251056I00000394J00000000D01*
G01*
D02*
G03*
X00604626Y00251056I-00000394J00000000D01*
G01*
X00658499Y00183391D02*
G03*
X00659286Y00183391I00000394J00000000D01*
G01*
D02*
G03*
X00658499Y00183391I-00000394J00000000D01*
G01*
X00617656Y00184280D02*
G03*
X00618443Y00184280I00000394J00000000D01*
G01*
D02*
G03*
X00617656Y00184280I-00000394J00000000D01*
G01*
Y00178920D02*
G03*
X00618443Y00178920I00000394J00000000D01*
G01*
D02*
G03*
X00617656Y00178920I-00000394J00000000D01*
G01*
X00665052Y00188267D02*
G03*
X00665840Y00188267I00000394J00000000D01*
G01*
D02*
G03*
X00665052Y00188267I-00000394J00000000D01*
G01*
X00669421Y00183391D02*
G03*
X00670208Y00183391I00000394J00000000D01*
G01*
D02*
G03*
X00669421Y00183391I-00000394J00000000D01*
G01*
X00665052D02*
G03*
X00665840Y00183391I00000394J00000000D01*
G01*
D02*
G03*
X00665052Y00183391I-00000394J00000000D01*
G01*
X00661903Y00178057D02*
G03*
X00662690Y00178057I00000394J00000000D01*
G01*
D02*
G03*
X00661903Y00178057I-00000394J00000000D01*
G01*
X00655095Y00183391D02*
G03*
X00655883Y00183391I00000394J00000000D01*
G01*
D02*
G03*
X00655095Y00183391I-00000394J00000000D01*
G01*
X00645164Y00182908D02*
G03*
X00645951Y00182908I00000394J00000000D01*
G01*
D02*
G03*
X00645164Y00182908I-00000394J00000000D01*
G01*
X00655095Y00178057D02*
G03*
X00655883Y00178057I00000394J00000000D01*
G01*
D02*
G03*
X00655095Y00178057I-00000394J00000000D01*
G01*
X00645164D02*
G03*
X00645951Y00178057I00000394J00000000D01*
G01*
D02*
G03*
X00645164Y00178057I-00000394J00000000D01*
G01*
X00627613Y00189131D02*
G03*
X00628400Y00189131I00000394J00000000D01*
G01*
D02*
G03*
X00627613Y00189131I-00000394J00000000D01*
G01*
X00631981Y00184280D02*
G03*
X00632769Y00184280I00000394J00000000D01*
G01*
D02*
G03*
X00631981Y00184280I-00000394J00000000D01*
G01*
X00621059D02*
G03*
X00621847Y00184280I00000394J00000000D01*
G01*
D02*
G03*
X00621059Y00184280I-00000394J00000000D01*
G01*
X00627613D02*
G03*
X00628400Y00184280I00000394J00000000D01*
G01*
D02*
G03*
X00627613Y00184280I-00000394J00000000D01*
G01*
X00624463Y00178920D02*
G03*
X00625250Y00178920I00000394J00000000D01*
G01*
D02*
G03*
X00624463Y00178920I-00000394J00000000D01*
G01*
X00607724Y00183797D02*
G03*
X00608512Y00183797I00000394J00000000D01*
G01*
D02*
G03*
X00607724Y00183797I-00000394J00000000D01*
G01*
Y00178920D02*
G03*
X00608512Y00178920I00000394J00000000D01*
G01*
D02*
G03*
X00607724Y00178920I-00000394J00000000D01*
G01*
X00597615Y00186718D02*
G03*
X00596828Y00186718I-00000394J00000000D01*
G01*
X00587176D02*
G03*
X00586388Y00186718I-00000394J00000000D01*
G01*
X00596828D02*
G03*
X00597615Y00186718I00000394J00000000D01*
G01*
X00596828Y00181359D02*
G03*
X00597615Y00181359I00000394J00000000D01*
G01*
D02*
G03*
X00596828Y00181359I-00000394J00000000D01*
G01*
X00586388Y00186718D02*
G03*
X00587176Y00186718I00000394J00000000D01*
G01*
X00586388Y00181359D02*
G03*
X00587176Y00181359I00000394J00000000D01*
G01*
D02*
G03*
X00586388Y00181359I-00000394J00000000D01*
G01*
X00568202Y00189131D02*
G03*
X00568989Y00189131I00000394J00000000D01*
G01*
D02*
G03*
X00568202Y00189131I-00000394J00000000D01*
G01*
X00575974D02*
G03*
X00576762Y00189131I00000394J00000000D01*
G01*
D02*
G03*
X00575974Y00189131I-00000394J00000000D01*
G01*
D15*
X00026000Y00004000D02*
Y00114000D01*
X00788000Y00004000D02*
Y00114000D01*
X00549000Y00004000D02*
Y00114000D01*
X00305000Y00004000D02*
Y00114000D01*
D16*
X00770312Y00843765D02*
X00777081D01*
X00809275Y00826265D02*
X00827601D01*
X00809440Y00826099D02*
X00827766D01*
X00809770Y00825934D02*
X00827931D01*
X00809936Y00825769D02*
X00828262D01*
X00810266Y00825604D02*
X00828427D01*
X00810431Y00825439D02*
X00828592D01*
X00810596Y00825274D02*
X00828922D01*
X00810926Y00825109D02*
X00829087D01*
X00811091Y00824944D02*
X00829252D01*
X00844772Y00708053D02*
X00845267D01*
X00844772Y00707888D02*
X00845267D01*
X00844772Y00707723D02*
X00845102D01*
X00844772Y00707558D02*
X00844937D01*
X00844772Y00712511D02*
X00849559D01*
X00844772Y00712346D02*
X00849394D01*
X00844772Y00712180D02*
X00849229D01*
X00844772Y00712015D02*
X00849064D01*
X00844772Y00711850D02*
X00848899D01*
X00844772Y00711685D02*
X00848734D01*
X00844772Y00711520D02*
X00848569D01*
X00844772Y00711355D02*
X00848404D01*
X00844772Y00711190D02*
X00848239D01*
X00844772Y00711025D02*
X00848074D01*
X00844772Y00710860D02*
X00847908D01*
X00844772Y00710695D02*
X00847743D01*
X00844772Y00710529D02*
X00847578D01*
X00844772Y00710364D02*
X00847413D01*
X00844772Y00710199D02*
X00847248D01*
X00844772Y00710034D02*
X00847083D01*
X00844772Y00709869D02*
X00846918D01*
X00844772Y00709704D02*
X00846753D01*
X00844772Y00709539D02*
X00846588D01*
X00844772Y00709374D02*
X00846423D01*
X00844772Y00709209D02*
X00846257D01*
X00844772Y00709044D02*
X00846092D01*
X00844772Y00708878D02*
X00846092D01*
X00844772Y00708713D02*
X00845927D01*
X00844772Y00708548D02*
X00845762D01*
X00844772Y00708383D02*
X00845597D01*
X00829747Y00765343D02*
X00834700D01*
X00830738Y00765178D02*
X00834700D01*
X00831729Y00765013D02*
X00834700D01*
X00832884Y00764847D02*
X00834866D01*
X00834370Y00764682D02*
X00834866D01*
X00829582Y00806453D02*
X00846423D01*
X00829747Y00806288D02*
X00846588D01*
X00829747Y00806122D02*
X00846753D01*
X00829913Y00805957D02*
X00846753D01*
X00830078Y00805792D02*
X00846918D01*
X00830243Y00805627D02*
X00847083D01*
X00830243Y00805462D02*
X00847083D01*
X00830408Y00805297D02*
X00847248D01*
X00830573Y00805132D02*
X00847413D01*
X00830573Y00804967D02*
X00847413D01*
X00830738Y00804802D02*
X00847578D01*
X00830903Y00804637D02*
X00847743D01*
X00830903Y00804471D02*
X00847743D01*
X00831068Y00804306D02*
X00847908D01*
X00831233Y00804141D02*
X00848074D01*
X00831233Y00803976D02*
X00848074D01*
X00831398Y00803811D02*
X00848239D01*
X00831564Y00803646D02*
X00848239D01*
X00831564Y00803481D02*
X00848404D01*
X00831729Y00803316D02*
X00848569D01*
X00831894Y00803151D02*
X00848569D01*
X00831894Y00802986D02*
X00848734D01*
X00832059Y00802820D02*
X00848734D01*
X00832224Y00802655D02*
X00848899D01*
X00832224Y00802490D02*
X00849064D01*
X00832389Y00802325D02*
X00849064D01*
X00832554Y00802160D02*
X00849229D01*
X00832554Y00801995D02*
X00849229D01*
X00832719Y00801830D02*
X00849394D01*
X00832719Y00801665D02*
X00849559D01*
X00832884Y00801500D02*
X00849559D01*
X00864584Y00786145D02*
X00869867D01*
X00864418Y00785980D02*
X00869702D01*
X00864418Y00785815D02*
X00869702D01*
X00864418Y00785650D02*
X00869537D01*
X00864253Y00785485D02*
X00869371D01*
X00864253Y00785320D02*
X00869206D01*
X00864253Y00785155D02*
X00869206D01*
X00864088Y00784990D02*
X00869041D01*
X00864088Y00784825D02*
X00868876D01*
X00864088Y00784659D02*
X00868711D01*
X00864088Y00784494D02*
X00868711D01*
X00863923Y00784329D02*
X00868546D01*
X00863923Y00784164D02*
X00868381D01*
X00863923Y00783999D02*
X00868216D01*
X00863923Y00783834D02*
X00868216D01*
X00863758Y00783669D02*
X00868051D01*
X00863758Y00783504D02*
X00867886D01*
X00863758Y00783339D02*
X00867720D01*
X00863758Y00783174D02*
X00867720D01*
X00863593Y00783008D02*
X00867555D01*
X00863593Y00782843D02*
X00867390D01*
X00863593Y00782678D02*
X00867390D01*
X00863593Y00782513D02*
X00867225D01*
X00863428Y00782348D02*
X00867060D01*
X00863428Y00782183D02*
X00867060D01*
X00863428Y00782018D02*
X00866895D01*
X00863428Y00781853D02*
X00866730D01*
X00863428Y00781688D02*
X00866730D01*
X00863263Y00781523D02*
X00866565D01*
X00863263Y00781357D02*
X00866400D01*
X00863263Y00781192D02*
X00866400D01*
X00863263Y00781027D02*
X00866235D01*
X00863263Y00780862D02*
X00866235D01*
X00863098Y00780697D02*
X00866069D01*
X00863098Y00780532D02*
X00865904D01*
X00863098Y00780367D02*
X00865904D01*
X00863098Y00780202D02*
X00865739D01*
X00863098Y00780037D02*
X00865739D01*
X00863098Y00779872D02*
X00865574D01*
X00862933Y00779706D02*
X00865409D01*
X00862933Y00779541D02*
X00865409D01*
X00862933Y00779376D02*
X00865244D01*
X00862933Y00779211D02*
X00865244D01*
X00862933Y00779046D02*
X00865079D01*
X00862933Y00778881D02*
X00864914D01*
X00862933Y00778716D02*
X00864914D01*
X00862767Y00778551D02*
X00864749D01*
X00862767Y00778386D02*
X00864749D01*
X00862767Y00778221D02*
X00864584D01*
X00862767Y00778055D02*
X00864584D01*
X00862767Y00777890D02*
X00864418D01*
X00862767Y00777725D02*
X00864418D01*
X00862767Y00777560D02*
X00864253D01*
X00862767Y00777395D02*
X00864253D01*
X00862767Y00777230D02*
X00864088D01*
X00862602Y00777065D02*
X00864088D01*
X00862602Y00776900D02*
X00863923D01*
X00862602Y00776735D02*
X00863923D01*
X00862602Y00776570D02*
X00863758D01*
X00862602Y00776404D02*
X00863593D01*
X00862602Y00776239D02*
X00863593D01*
X00862602Y00776074D02*
X00863593D01*
X00862602Y00775909D02*
X00863428D01*
X00862602Y00775744D02*
X00863428D01*
X00862602Y00775579D02*
X00863263D01*
X00862602Y00775414D02*
X00863263D01*
X00862602Y00775249D02*
X00863098D01*
X00862437Y00775084D02*
X00863098D01*
X00862437Y00774919D02*
X00862933D01*
X00862437Y00774753D02*
X00862933D01*
X00862437Y00774588D02*
X00862767D01*
X00862437Y00774423D02*
X00862767D01*
X00862437Y00774258D02*
X00862602D01*
X00862437Y00774093D02*
X00862602D01*
X00870857Y00775414D02*
X00890009D01*
X00870692Y00775249D02*
X00889844D01*
X00870692Y00775084D02*
X00889679D01*
X00870527Y00774919D02*
X00889514D01*
X00870527Y00774753D02*
X00889184D01*
X00870362Y00774588D02*
X00889018D01*
X00870362Y00774423D02*
X00888688D01*
X00870197Y00774258D02*
X00888523D01*
X00870197Y00774093D02*
X00888193D01*
X00873334Y00800674D02*
X00890009D01*
X00873169Y00800509D02*
X00889514D01*
X00873004Y00800344D02*
X00889018D01*
X00872839Y00800179D02*
X00888688D01*
X00872673Y00800014D02*
X00888193D01*
X00872508Y00799849D02*
X00887863D01*
X00872343Y00799684D02*
X00887367D01*
X00872178Y00799518D02*
X00887037D01*
X00872013Y00799353D02*
X00886707D01*
X00871848Y00799188D02*
X00886377D01*
X00871683Y00799023D02*
X00885882D01*
X00871518Y00798858D02*
X00885551D01*
X00871353Y00798693D02*
X00885221D01*
X00871188Y00798528D02*
X00884891D01*
X00871188Y00798363D02*
X00884561D01*
X00871022Y00798198D02*
X00884230D01*
X00870857Y00798033D02*
X00884065D01*
X00870692Y00797867D02*
X00883735D01*
X00870527Y00797702D02*
X00883405D01*
X00870362Y00797537D02*
X00883075D01*
X00870362Y00797372D02*
X00882910D01*
X00870197Y00797207D02*
X00882579D01*
X00901071Y00802490D02*
X00908170D01*
X00900906Y00802325D02*
X00908170D01*
X00900575Y00802160D02*
X00908005D01*
X00900080Y00801995D02*
X00907840D01*
X00899750Y00801830D02*
X00907840D01*
X00899255Y00801665D02*
X00907675D01*
X00898759Y00801500D02*
X00907510D01*
X00898429Y00801335D02*
X00907510D01*
X00898099Y00801169D02*
X00907345D01*
X00897604Y00801004D02*
X00907179D01*
X00897273Y00800839D02*
X00907179D01*
X00896943Y00800674D02*
X00907014D01*
X00896448Y00800509D02*
X00906849D01*
X00896118Y00800344D02*
X00906849D01*
X00895788Y00800179D02*
X00906684D01*
X00895457Y00800014D02*
X00906684D01*
X00895127Y00799849D02*
X00906519D01*
X00894797Y00799684D02*
X00906354D01*
X00894467Y00799518D02*
X00906354D01*
X00894137Y00799353D02*
X00906189D01*
X00893806Y00799188D02*
X00906189D01*
X00893476Y00799023D02*
X00906024D01*
X00893311Y00798858D02*
X00905859D01*
X00892981Y00798693D02*
X00905859D01*
X00892651Y00798528D02*
X00905694D01*
X00892320Y00798363D02*
X00905694D01*
X00892155Y00798198D02*
X00905528D01*
X00891825Y00798033D02*
X00905528D01*
X00891495Y00797867D02*
X00905363D01*
X00891330Y00797702D02*
X00905363D01*
X00891000Y00797537D02*
X00905198D01*
X00890835Y00797372D02*
X00905033D01*
X00890504Y00797207D02*
X00905033D01*
X00897273Y00810910D02*
X00903877D01*
X00895457Y00810745D02*
X00905528D01*
X00894302Y00810580D02*
X00906849D01*
X00893146Y00810415D02*
X00907840D01*
X00892320Y00810250D02*
X00908830D01*
X00891495Y00810085D02*
X00909656D01*
X00890835Y00809920D02*
X00910316D01*
X00844772Y00708218D02*
X00845432D01*
X00766514Y00829897D02*
X00796397D01*
X00766679Y00829732D02*
X00796562D01*
X00766844Y00829567D02*
X00796893D01*
X00767010Y00829401D02*
X00797058D01*
X00767010Y00829236D02*
X00797388D01*
X00767175Y00829071D02*
X00797553D01*
X00767340Y00828906D02*
X00797883D01*
X00767505Y00828741D02*
X00798048D01*
X00767505Y00828576D02*
X00798213D01*
X00767670Y00828411D02*
X00798544D01*
X00767835Y00828246D02*
X00798709D01*
X00767175Y00843600D02*
X00780218D01*
X00765028Y00843435D02*
X00782199D01*
X00763377Y00843270D02*
X00783850D01*
X00761891Y00843105D02*
X00785336D01*
X00760736Y00842940D02*
X00786491D01*
X00759415Y00842775D02*
X00787647D01*
X00758424Y00842609D02*
X00788803D01*
X00757434Y00842444D02*
X00789793D01*
X00756443Y00842279D02*
X00790619D01*
X00755618Y00842114D02*
X00791444D01*
X00754792Y00841949D02*
X00792435D01*
X00753967Y00841784D02*
X00793095D01*
X00753141Y00841619D02*
X00793921D01*
X00752481Y00841454D02*
X00794581D01*
X00752811Y00841289D02*
X00795407D01*
X00753141Y00841124D02*
X00796067D01*
X00753471Y00840958D02*
X00796728D01*
X00753801Y00840793D02*
X00797388D01*
X00754132Y00840628D02*
X00797883D01*
X00754462Y00840463D02*
X00798544D01*
X00761231Y00835675D02*
X00784345D01*
X00761396Y00835510D02*
X00784675D01*
X00761561Y00835345D02*
X00785005D01*
X00761726Y00835180D02*
X00785501D01*
X00761891Y00835015D02*
X00785996D01*
X00762057Y00834850D02*
X00786491D01*
X00762222Y00834685D02*
X00786987D01*
X00762387Y00834520D02*
X00787482D01*
X00762552Y00834354D02*
X00787812D01*
X00762717Y00834189D02*
X00788307D01*
X00762882Y00834024D02*
X00788638D01*
X00763047Y00833859D02*
X00789133D01*
X00763212Y00833694D02*
X00789463D01*
X00763377Y00833529D02*
X00789793D01*
X00763542Y00833364D02*
X00790124D01*
X00763708Y00833199D02*
X00790619D01*
X00763873Y00833034D02*
X00790949D01*
X00764038Y00832869D02*
X00791279D01*
X00764203Y00832703D02*
X00791609D01*
X00764368Y00832538D02*
X00791940D01*
X00764533Y00832373D02*
X00792270D01*
X00764533Y00832208D02*
X00792600D01*
X00764698Y00832043D02*
X00792765D01*
X00764863Y00831878D02*
X00793095D01*
X00765028Y00831713D02*
X00793426D01*
X00765193Y00831548D02*
X00793756D01*
X00765359Y00831383D02*
X00794086D01*
X00765524Y00831218D02*
X00794251D01*
X00765524Y00831052D02*
X00794581D01*
X00765689Y00830887D02*
X00794911D01*
X00765854Y00830722D02*
X00795077D01*
X00766019Y00830557D02*
X00795407D01*
X00766184Y00830392D02*
X00795572D01*
X00766349Y00830227D02*
X00795902D01*
X00844772Y00728360D02*
X00860126D01*
X00844772Y00728195D02*
X00860126D01*
X00844772Y00728030D02*
X00860126D01*
X00844772Y00727865D02*
X00860126D01*
X00844772Y00727700D02*
X00860126D01*
X00844772Y00727535D02*
X00860126D01*
X00844772Y00727370D02*
X00860126D01*
X00844772Y00727205D02*
X00860126D01*
X00844772Y00727039D02*
X00860126D01*
X00844772Y00726874D02*
X00860126D01*
X00844772Y00726709D02*
X00860126D01*
X00844772Y00726544D02*
X00860126D01*
X00844772Y00726379D02*
X00860126D01*
X00844772Y00726214D02*
X00860126D01*
X00844772Y00726049D02*
X00860126D01*
X00844772Y00725884D02*
X00860126D01*
X00844772Y00725719D02*
X00860126D01*
X00844772Y00725554D02*
X00860126D01*
X00844772Y00725388D02*
X00860126D01*
X00844772Y00725223D02*
X00860126D01*
X00844772Y00725058D02*
X00860126D01*
X00844772Y00724893D02*
X00860126D01*
X00844772Y00724728D02*
X00860126D01*
X00844772Y00724563D02*
X00860126D01*
X00844772Y00724398D02*
X00860126D01*
X00844772Y00724233D02*
X00860126D01*
X00844772Y00724068D02*
X00860126D01*
X00844772Y00723903D02*
X00860126D01*
X00844772Y00723737D02*
X00860126D01*
X00844772Y00723572D02*
X00860126D01*
X00844772Y00723407D02*
X00860126D01*
X00844772Y00723242D02*
X00860126D01*
X00844772Y00723077D02*
X00860126D01*
X00844772Y00722912D02*
X00860126D01*
X00844772Y00722747D02*
X00860126D01*
X00844772Y00722582D02*
X00860126D01*
X00844772Y00722417D02*
X00860126D01*
X00844772Y00722252D02*
X00860126D01*
X00844772Y00722086D02*
X00860126D01*
X00844772Y00721921D02*
X00860126D01*
X00844772Y00721756D02*
X00860126D01*
X00844772Y00721591D02*
X00860126D01*
X00844772Y00721426D02*
X00860126D01*
X00844772Y00721261D02*
X00860126D01*
X00844772Y00721096D02*
X00860126D01*
X00844772Y00720931D02*
X00860126D01*
X00844772Y00720766D02*
X00860126D01*
X00844772Y00720601D02*
X00860126D01*
X00844772Y00720435D02*
X00860126D01*
X00844772Y00720270D02*
X00860126D01*
X00844772Y00720105D02*
X00860126D01*
X00844772Y00719940D02*
X00860126D01*
X00844772Y00719775D02*
X00860126D01*
X00844772Y00719610D02*
X00860126D01*
X00844772Y00719445D02*
X00860126D01*
X00844772Y00719280D02*
X00860126D01*
X00844772Y00719115D02*
X00860126D01*
X00844772Y00718950D02*
X00860126D01*
X00844772Y00718784D02*
X00859631D01*
X00844772Y00718619D02*
X00859300D01*
X00844772Y00718454D02*
X00858970D01*
X00844772Y00718289D02*
X00858475D01*
X00844772Y00718124D02*
X00858145D01*
X00844772Y00717959D02*
X00857814D01*
X00844772Y00717794D02*
X00857484D01*
X00844772Y00717629D02*
X00857154D01*
X00844772Y00717464D02*
X00856824D01*
X00844772Y00717299D02*
X00856494D01*
X00844772Y00717133D02*
X00856163D01*
X00844772Y00716968D02*
X00855833D01*
X00844772Y00716803D02*
X00855668D01*
X00844772Y00716638D02*
X00855338D01*
X00844772Y00716473D02*
X00855008D01*
X00844772Y00716308D02*
X00854678D01*
X00844772Y00716143D02*
X00854512D01*
X00844772Y00715978D02*
X00854182D01*
X00844772Y00715813D02*
X00854017D01*
X00844772Y00715648D02*
X00853687D01*
X00844772Y00715482D02*
X00853522D01*
X00844772Y00715317D02*
X00853192D01*
X00844772Y00715152D02*
X00853027D01*
X00844772Y00714987D02*
X00852696D01*
X00844772Y00714822D02*
X00852531D01*
X00844772Y00714657D02*
X00852201D01*
X00844772Y00714492D02*
X00852036D01*
X00844772Y00714327D02*
X00851871D01*
X00844772Y00714162D02*
X00851541D01*
X00844772Y00713997D02*
X00851376D01*
X00844772Y00713831D02*
X00851210D01*
X00844772Y00713666D02*
X00850880D01*
X00844772Y00713501D02*
X00850715D01*
X00844772Y00713336D02*
X00850550D01*
X00844772Y00713171D02*
X00850385D01*
X00844772Y00713006D02*
X00850220D01*
X00844772Y00712841D02*
X00849890D01*
X00844772Y00712676D02*
X00849725D01*
X00844772Y00748668D02*
X00860126D01*
X00844772Y00748503D02*
X00860126D01*
X00844772Y00748337D02*
X00860126D01*
X00844772Y00748172D02*
X00860126D01*
X00844772Y00748007D02*
X00860126D01*
X00844772Y00747842D02*
X00860126D01*
X00844772Y00747677D02*
X00860126D01*
X00844772Y00747512D02*
X00860126D01*
X00844772Y00747347D02*
X00860126D01*
X00844772Y00747182D02*
X00860126D01*
X00844772Y00747017D02*
X00860126D01*
X00844772Y00746852D02*
X00860126D01*
X00844772Y00746686D02*
X00860126D01*
X00844772Y00746521D02*
X00860126D01*
X00844772Y00746356D02*
X00860126D01*
X00844772Y00746191D02*
X00860126D01*
X00844772Y00746026D02*
X00860126D01*
X00844772Y00745861D02*
X00860126D01*
X00844772Y00745696D02*
X00860126D01*
X00844772Y00745531D02*
X00860126D01*
X00844772Y00745366D02*
X00860126D01*
X00844772Y00745201D02*
X00860126D01*
X00844772Y00745035D02*
X00860126D01*
X00844772Y00744870D02*
X00860126D01*
X00844772Y00744705D02*
X00860126D01*
X00844772Y00744540D02*
X00860126D01*
X00844772Y00744375D02*
X00860126D01*
X00844772Y00744210D02*
X00860126D01*
X00844772Y00744045D02*
X00860126D01*
X00844772Y00743880D02*
X00860126D01*
X00844772Y00743715D02*
X00860126D01*
X00844772Y00743549D02*
X00860126D01*
X00844772Y00743384D02*
X00860126D01*
X00844772Y00743219D02*
X00860126D01*
X00844772Y00743054D02*
X00860126D01*
X00844772Y00742889D02*
X00860126D01*
X00844772Y00742724D02*
X00860126D01*
X00844772Y00742559D02*
X00860126D01*
X00844772Y00742394D02*
X00860126D01*
X00844772Y00742229D02*
X00860126D01*
X00844772Y00742064D02*
X00860126D01*
X00844772Y00741898D02*
X00860126D01*
X00844772Y00741733D02*
X00860126D01*
X00844772Y00741568D02*
X00860126D01*
X00844772Y00741403D02*
X00860126D01*
X00844772Y00741238D02*
X00860126D01*
X00844772Y00741073D02*
X00860126D01*
X00844772Y00740908D02*
X00860126D01*
X00844772Y00740743D02*
X00860126D01*
X00844772Y00740578D02*
X00860126D01*
X00844772Y00740413D02*
X00860126D01*
X00844772Y00740247D02*
X00860126D01*
X00844772Y00740082D02*
X00860126D01*
X00844772Y00739917D02*
X00860126D01*
X00844772Y00739752D02*
X00860126D01*
X00844772Y00739587D02*
X00860126D01*
X00844772Y00739422D02*
X00860126D01*
X00844772Y00739257D02*
X00860126D01*
X00844772Y00739092D02*
X00860126D01*
X00844772Y00738927D02*
X00860126D01*
X00844772Y00738762D02*
X00860126D01*
X00844772Y00738596D02*
X00860126D01*
X00844772Y00738431D02*
X00860126D01*
X00844772Y00738266D02*
X00860126D01*
X00844772Y00738101D02*
X00860126D01*
X00844772Y00737936D02*
X00860126D01*
X00844772Y00737771D02*
X00860126D01*
X00844772Y00737606D02*
X00860126D01*
X00844772Y00737441D02*
X00860126D01*
X00844772Y00737276D02*
X00860126D01*
X00844772Y00737111D02*
X00860126D01*
X00844772Y00736945D02*
X00860126D01*
X00844772Y00736780D02*
X00860126D01*
X00844772Y00736615D02*
X00860126D01*
X00844772Y00736450D02*
X00860126D01*
X00844772Y00736285D02*
X00860126D01*
X00844772Y00736120D02*
X00860126D01*
X00844772Y00735955D02*
X00860126D01*
X00844772Y00735790D02*
X00860126D01*
X00844772Y00735625D02*
X00860126D01*
X00844772Y00735460D02*
X00860126D01*
X00844772Y00735294D02*
X00860126D01*
X00844772Y00735129D02*
X00860126D01*
X00844772Y00734964D02*
X00860126D01*
X00844772Y00734799D02*
X00860126D01*
X00844772Y00734634D02*
X00860126D01*
X00844772Y00734469D02*
X00860126D01*
X00844772Y00734304D02*
X00860126D01*
X00844772Y00734139D02*
X00860126D01*
X00844772Y00733974D02*
X00860126D01*
X00844772Y00733809D02*
X00860126D01*
X00844772Y00733643D02*
X00860126D01*
X00844772Y00733478D02*
X00860126D01*
X00844772Y00733313D02*
X00860126D01*
X00844772Y00733148D02*
X00860126D01*
X00844772Y00732983D02*
X00860126D01*
X00844772Y00732818D02*
X00860126D01*
X00844772Y00732653D02*
X00860126D01*
X00844772Y00732488D02*
X00860126D01*
X00844772Y00732323D02*
X00860126D01*
X00844772Y00732158D02*
X00860126D01*
X00844772Y00731992D02*
X00860126D01*
X00844772Y00731827D02*
X00860126D01*
X00844772Y00731662D02*
X00860126D01*
X00844772Y00731497D02*
X00860126D01*
X00844772Y00731332D02*
X00860126D01*
X00844772Y00731167D02*
X00860126D01*
X00844772Y00731002D02*
X00860126D01*
X00844772Y00730837D02*
X00860126D01*
X00844772Y00730672D02*
X00860126D01*
X00844772Y00730507D02*
X00860126D01*
X00844772Y00730341D02*
X00860126D01*
X00844772Y00730176D02*
X00860126D01*
X00844772Y00730011D02*
X00860126D01*
X00844772Y00729846D02*
X00860126D01*
X00844772Y00729681D02*
X00860126D01*
X00844772Y00729516D02*
X00860126D01*
X00844772Y00729351D02*
X00860126D01*
X00844772Y00729186D02*
X00860126D01*
X00844772Y00729021D02*
X00860126D01*
X00844772Y00728856D02*
X00860126D01*
X00844772Y00728690D02*
X00860126D01*
X00816870Y00768975D02*
X00833545D01*
X00844276D02*
X00859796D01*
X00817365Y00768810D02*
X00833545D01*
X00844276D02*
X00859796D01*
X00817695Y00768645D02*
X00833545D01*
X00844276D02*
X00859796D01*
X00818191Y00768480D02*
X00833710D01*
X00844276D02*
X00859796D01*
X00818686Y00768315D02*
X00833710D01*
X00844276D02*
X00859796D01*
X00819181Y00768149D02*
X00833710D01*
X00844441D02*
X00859961D01*
X00819511Y00767984D02*
X00833875D01*
X00844441D02*
X00859961D01*
X00820007Y00767819D02*
X00833875D01*
X00844441D02*
X00859961D01*
X00820502Y00767654D02*
X00833875D01*
X00844441D02*
X00859961D01*
X00820997Y00767489D02*
X00834040D01*
X00844441D02*
X00859961D01*
X00821658Y00767324D02*
X00834040D01*
X00844441D02*
X00859961D01*
X00822153Y00767159D02*
X00834040D01*
X00844441D02*
X00859961D01*
X00822648Y00766994D02*
X00834040D01*
X00844441D02*
X00859961D01*
X00823309Y00766829D02*
X00834205D01*
X00844441D02*
X00859961D01*
X00823804Y00766664D02*
X00834205D01*
X00844441D02*
X00859961D01*
X00824464Y00766498D02*
X00834205D01*
X00844441D02*
X00859961D01*
X00825125Y00766333D02*
X00834370D01*
X00844441D02*
X00859961D01*
X00825785Y00766168D02*
X00834370D01*
X00844606D02*
X00859961D01*
X00826445Y00766003D02*
X00834370D01*
X00844606D02*
X00859961D01*
X00827271Y00765838D02*
X00834535D01*
X00844606D02*
X00859961D01*
X00828096Y00765673D02*
X00834535D01*
X00844606D02*
X00859961D01*
X00828922Y00765508D02*
X00834535D01*
X00844606D02*
X00860126D01*
X00844606Y00765343D02*
X00860126D01*
X00844606Y00765178D02*
X00860126D01*
X00844606Y00765013D02*
X00860126D01*
X00844606Y00764847D02*
X00860126D01*
X00844606Y00764682D02*
X00860126D01*
X00844606Y00764517D02*
X00860126D01*
X00844606Y00764352D02*
X00860126D01*
X00844606Y00764187D02*
X00860126D01*
X00844606Y00764022D02*
X00860126D01*
X00844606Y00763857D02*
X00860126D01*
X00844606Y00763692D02*
X00860126D01*
X00844606Y00763527D02*
X00860126D01*
X00844772Y00763362D02*
X00860126D01*
X00844772Y00763196D02*
X00860126D01*
X00844772Y00763031D02*
X00860126D01*
X00844772Y00762866D02*
X00860126D01*
X00844772Y00762701D02*
X00860126D01*
X00844772Y00762536D02*
X00860126D01*
X00844772Y00762371D02*
X00860126D01*
X00844772Y00762206D02*
X00860126D01*
X00844772Y00762041D02*
X00860126D01*
X00844772Y00761876D02*
X00860126D01*
X00844772Y00761711D02*
X00860126D01*
X00844772Y00761545D02*
X00860126D01*
X00844772Y00761380D02*
X00860126D01*
X00844772Y00761215D02*
X00860126D01*
X00844772Y00761050D02*
X00860126D01*
X00844772Y00760885D02*
X00860126D01*
X00844772Y00760720D02*
X00860126D01*
X00844772Y00760555D02*
X00860126D01*
X00844772Y00760390D02*
X00860126D01*
X00844772Y00760225D02*
X00860126D01*
X00844772Y00760060D02*
X00860126D01*
X00844772Y00759894D02*
X00860126D01*
X00844772Y00759729D02*
X00860126D01*
X00844772Y00759564D02*
X00860126D01*
X00844772Y00759399D02*
X00860126D01*
X00844772Y00759234D02*
X00860126D01*
X00844772Y00759069D02*
X00860126D01*
X00844772Y00758904D02*
X00860126D01*
X00844772Y00758739D02*
X00860126D01*
X00844772Y00758574D02*
X00860126D01*
X00844772Y00758409D02*
X00860126D01*
X00844772Y00758243D02*
X00860126D01*
X00844772Y00758078D02*
X00860126D01*
X00844772Y00757913D02*
X00860126D01*
X00844772Y00757748D02*
X00860126D01*
X00844772Y00757583D02*
X00860126D01*
X00844772Y00757418D02*
X00860126D01*
X00844772Y00757253D02*
X00860126D01*
X00844772Y00757088D02*
X00860126D01*
X00844772Y00756923D02*
X00860126D01*
X00844772Y00756758D02*
X00860126D01*
X00844772Y00756592D02*
X00860126D01*
X00844772Y00756427D02*
X00860126D01*
X00844772Y00756262D02*
X00860126D01*
X00844772Y00756097D02*
X00860126D01*
X00844772Y00755932D02*
X00860126D01*
X00844772Y00755767D02*
X00860126D01*
X00844772Y00755602D02*
X00860126D01*
X00844772Y00755437D02*
X00860126D01*
X00844772Y00755272D02*
X00860126D01*
X00844772Y00755107D02*
X00860126D01*
X00844772Y00754941D02*
X00860126D01*
X00844772Y00754776D02*
X00860126D01*
X00844772Y00754611D02*
X00860126D01*
X00844772Y00754446D02*
X00860126D01*
X00844772Y00754281D02*
X00860126D01*
X00844772Y00754116D02*
X00860126D01*
X00844772Y00753951D02*
X00860126D01*
X00844772Y00753786D02*
X00860126D01*
X00844772Y00753621D02*
X00860126D01*
X00844772Y00753456D02*
X00860126D01*
X00844772Y00753290D02*
X00860126D01*
X00844772Y00753125D02*
X00860126D01*
X00844772Y00752960D02*
X00860126D01*
X00844772Y00752795D02*
X00860126D01*
X00844772Y00752630D02*
X00860126D01*
X00844772Y00752465D02*
X00860126D01*
X00844772Y00752300D02*
X00860126D01*
X00844772Y00752135D02*
X00860126D01*
X00844772Y00751970D02*
X00860126D01*
X00844772Y00751805D02*
X00860126D01*
X00844772Y00751639D02*
X00860126D01*
X00844772Y00751474D02*
X00860126D01*
X00844772Y00751309D02*
X00860126D01*
X00844772Y00751144D02*
X00860126D01*
X00844772Y00750979D02*
X00860126D01*
X00844772Y00750814D02*
X00860126D01*
X00844772Y00750649D02*
X00860126D01*
X00844772Y00750484D02*
X00860126D01*
X00844772Y00750319D02*
X00860126D01*
X00844772Y00750154D02*
X00860126D01*
X00844772Y00749988D02*
X00860126D01*
X00844772Y00749823D02*
X00860126D01*
X00844772Y00749658D02*
X00860126D01*
X00844772Y00749493D02*
X00860126D01*
X00844772Y00749328D02*
X00860126D01*
X00844772Y00749163D02*
X00860126D01*
X00844772Y00748998D02*
X00860126D01*
X00839158Y00789282D02*
X00855338D01*
X00865574D02*
X00872673D01*
X00839323Y00789117D02*
X00855338D01*
X00865574D02*
X00872508D01*
X00839323Y00788952D02*
X00855338D01*
X00865574D02*
X00872343D01*
X00839323Y00788787D02*
X00855503D01*
X00865409D02*
X00872178D01*
X00839488Y00788622D02*
X00855503D01*
X00865409D02*
X00872013D01*
X00839488Y00788457D02*
X00855503D01*
X00865244D02*
X00871848D01*
X00839653Y00788292D02*
X00855668D01*
X00865244D02*
X00871683D01*
X00839653Y00788127D02*
X00855668D01*
X00865244D02*
X00871683D01*
X00839653Y00787961D02*
X00855668D01*
X00865079D02*
X00871518D01*
X00839819Y00787796D02*
X00855833D01*
X00865079D02*
X00871353D01*
X00839819Y00787631D02*
X00855833D01*
X00865079D02*
X00871188D01*
X00839819Y00787466D02*
X00855833D01*
X00864914D02*
X00871022D01*
X00839984Y00787301D02*
X00855998D01*
X00864914D02*
X00870857D01*
X00839984Y00787136D02*
X00855998D01*
X00864914D02*
X00870692D01*
X00840149Y00786971D02*
X00855998D01*
X00864749D02*
X00870527D01*
X00840149Y00786806D02*
X00856163D01*
X00864749D02*
X00870527D01*
X00840149Y00786641D02*
X00856163D01*
X00864749D02*
X00870362D01*
X00840314Y00786476D02*
X00856163D01*
X00864584D02*
X00870197D01*
X00840314Y00786310D02*
X00856329D01*
X00864584D02*
X00870032D01*
X00840314Y00786145D02*
X00856329D01*
X00840479Y00785980D02*
X00856329D01*
X00840479Y00785815D02*
X00856494D01*
X00840479Y00785650D02*
X00856494D01*
X00840644Y00785485D02*
X00856494D01*
X00840644Y00785320D02*
X00856659D01*
X00840644Y00785155D02*
X00856659D01*
X00840809Y00784990D02*
X00856659D01*
X00840809Y00784825D02*
X00856659D01*
X00840809Y00784659D02*
X00856824D01*
X00840974Y00784494D02*
X00856824D01*
X00840974Y00784329D02*
X00856824D01*
X00840974Y00784164D02*
X00856989D01*
X00841139Y00783999D02*
X00856989D01*
X00841139Y00783834D02*
X00856989D01*
X00841139Y00783669D02*
X00857154D01*
X00841304Y00783504D02*
X00857154D01*
X00841304Y00783339D02*
X00857154D01*
X00841304Y00783174D02*
X00857154D01*
X00841470Y00783008D02*
X00857319D01*
X00841470Y00782843D02*
X00857319D01*
X00841470Y00782678D02*
X00857319D01*
X00841635Y00782513D02*
X00857319D01*
X00841635Y00782348D02*
X00857484D01*
X00841635Y00782183D02*
X00857484D01*
X00841635Y00782018D02*
X00857484D01*
X00841800Y00781853D02*
X00857649D01*
X00841800Y00781688D02*
X00857649D01*
X00841800Y00781523D02*
X00857649D01*
X00841965Y00781357D02*
X00857649D01*
X00841965Y00781192D02*
X00857814D01*
X00841965Y00781027D02*
X00857814D01*
X00841965Y00780862D02*
X00857814D01*
X00842130Y00780697D02*
X00857814D01*
X00842130Y00780532D02*
X00857980D01*
X00799039Y00780367D02*
X00829582D01*
X00842130D02*
X00857980D01*
X00799204Y00780202D02*
X00829582D01*
X00842130D02*
X00857980D01*
X00799369Y00780037D02*
X00829747D01*
X00842295D02*
X00857980D01*
X00799534Y00779872D02*
X00829747D01*
X00842295D02*
X00857980D01*
X00799699Y00779706D02*
X00829747D01*
X00842295D02*
X00858145D01*
X00799864Y00779541D02*
X00829913D01*
X00842295D02*
X00858145D01*
X00800030Y00779376D02*
X00829913D01*
X00842460D02*
X00858145D01*
X00800360Y00779211D02*
X00829913D01*
X00842460D02*
X00858145D01*
X00800525Y00779046D02*
X00830078D01*
X00842460D02*
X00858310D01*
X00800690Y00778881D02*
X00830078D01*
X00842460D02*
X00858310D01*
X00800855Y00778716D02*
X00830243D01*
X00842625D02*
X00858310D01*
X00801020Y00778551D02*
X00830243D01*
X00842625D02*
X00858310D01*
X00801185Y00778386D02*
X00830243D01*
X00842625D02*
X00858310D01*
X00801350Y00778221D02*
X00830408D01*
X00842625D02*
X00858475D01*
X00801681Y00778055D02*
X00830408D01*
X00842790D02*
X00858475D01*
X00801846Y00777890D02*
X00830408D01*
X00842790D02*
X00858475D01*
X00802011Y00777725D02*
X00830573D01*
X00842790D02*
X00858475D01*
X00802176Y00777560D02*
X00830573D01*
X00842790D02*
X00858475D01*
X00802341Y00777395D02*
X00830573D01*
X00842955D02*
X00858640D01*
X00802671Y00777230D02*
X00830738D01*
X00842955D02*
X00858640D01*
X00802836Y00777065D02*
X00830738D01*
X00842955D02*
X00858640D01*
X00803001Y00776900D02*
X00830903D01*
X00842955D02*
X00858640D01*
X00803166Y00776735D02*
X00830903D01*
X00842955D02*
X00858640D01*
X00803497Y00776570D02*
X00830903D01*
X00843121D02*
X00858805D01*
X00803662Y00776404D02*
X00831068D01*
X00843121D02*
X00858805D01*
X00803827Y00776239D02*
X00831068D01*
X00843121D02*
X00858805D01*
X00804157Y00776074D02*
X00831068D01*
X00843121D02*
X00858805D01*
X00804322Y00775909D02*
X00831233D01*
X00843121D02*
X00858805D01*
X00804487Y00775744D02*
X00831233D01*
X00843286D02*
X00858970D01*
X00804817Y00775579D02*
X00831233D01*
X00843286D02*
X00858970D01*
X00804983Y00775414D02*
X00831398D01*
X00843286D02*
X00858970D01*
X00805313Y00775249D02*
X00831398D01*
X00843286D02*
X00858970D01*
X00805478Y00775084D02*
X00831398D01*
X00843286D02*
X00858970D01*
X00805643Y00774919D02*
X00831564D01*
X00843451D02*
X00858970D01*
X00805973Y00774753D02*
X00831564D01*
X00843451D02*
X00859135D01*
X00806138Y00774588D02*
X00831564D01*
X00843451D02*
X00859135D01*
X00806468Y00774423D02*
X00831729D01*
X00843451D02*
X00859135D01*
X00806634Y00774258D02*
X00831729D01*
X00843451D02*
X00859135D01*
X00806964Y00774093D02*
X00831729D01*
X00843616D02*
X00859135D01*
X00807129Y00773928D02*
X00831894D01*
X00843616D02*
X00859135D01*
X00807459Y00773763D02*
X00831894D01*
X00843616D02*
X00859300D01*
X00807789Y00773598D02*
X00831894D01*
X00843616D02*
X00859300D01*
X00807954Y00773433D02*
X00832059D01*
X00843616D02*
X00859300D01*
X00808285Y00773268D02*
X00832059D01*
X00843616D02*
X00859300D01*
X00808615Y00773102D02*
X00832059D01*
X00843781D02*
X00859300D01*
X00808780Y00772937D02*
X00832224D01*
X00843781D02*
X00859300D01*
X00809110Y00772772D02*
X00832224D01*
X00843781D02*
X00859300D01*
X00809440Y00772607D02*
X00832224D01*
X00843781D02*
X00859465D01*
X00809605Y00772442D02*
X00832389D01*
X00843781D02*
X00859465D01*
X00809936Y00772277D02*
X00832389D01*
X00843781D02*
X00859465D01*
X00810266Y00772112D02*
X00832389D01*
X00843946D02*
X00859465D01*
X00810596Y00771947D02*
X00832554D01*
X00843946D02*
X00859465D01*
X00810926Y00771782D02*
X00832554D01*
X00843946D02*
X00859465D01*
X00811256Y00771617D02*
X00832554D01*
X00843946D02*
X00859465D01*
X00811421Y00771451D02*
X00832719D01*
X00843946D02*
X00859465D01*
X00811752Y00771286D02*
X00832719D01*
X00843946D02*
X00859631D01*
X00812082Y00771121D02*
X00832719D01*
X00843946D02*
X00859631D01*
X00812412Y00770956D02*
X00832884D01*
X00844111D02*
X00859631D01*
X00812742Y00770791D02*
X00832884D01*
X00844111D02*
X00859631D01*
X00813072Y00770626D02*
X00832884D01*
X00844111D02*
X00859631D01*
X00813568Y00770461D02*
X00833049D01*
X00844111D02*
X00859631D01*
X00868546D02*
X00879938D01*
X00813898Y00770296D02*
X00833049D01*
X00844111D02*
X00859631D01*
X00868381D02*
X00879277D01*
X00814228Y00770131D02*
X00833049D01*
X00844111D02*
X00859631D01*
X00868381D02*
X00878617D01*
X00814558Y00769966D02*
X00833215D01*
X00844111D02*
X00859631D01*
X00868216D02*
X00877626D01*
X00814889Y00769800D02*
X00833215D01*
X00844111D02*
X00859796D01*
X00868216D02*
X00876801D01*
X00815384Y00769635D02*
X00833215D01*
X00844276D02*
X00859796D01*
X00868216D02*
X00875480D01*
X00815714Y00769470D02*
X00833380D01*
X00844276D02*
X00859796D01*
X00868051D02*
X00873829D01*
X00816044Y00769305D02*
X00833380D01*
X00844276D02*
X00859796D01*
X00827106Y00809589D02*
X00844276D01*
X00827271Y00809424D02*
X00844441D01*
X00827436Y00809259D02*
X00844441D01*
X00827601Y00809094D02*
X00844606D01*
X00827766Y00808929D02*
X00844772D01*
X00827766Y00808764D02*
X00844937D01*
X00827931Y00808599D02*
X00844937D01*
X00828096Y00808434D02*
X00845102D01*
X00828262Y00808269D02*
X00845267D01*
X00828262Y00808104D02*
X00845267D01*
X00828427Y00807939D02*
X00845432D01*
X00828592Y00807773D02*
X00845597D01*
X00828757Y00807608D02*
X00845762D01*
X00828757Y00807443D02*
X00845762D01*
X00828922Y00807278D02*
X00845927D01*
X00829087Y00807113D02*
X00846092D01*
X00829252Y00806948D02*
X00846092D01*
X00829252Y00806783D02*
X00846257D01*
X00829417Y00806618D02*
X00846423D01*
X00833049Y00801335D02*
X00849725D01*
X00833049Y00801169D02*
X00849725D01*
X00833215Y00801004D02*
X00849890D01*
X00833380Y00800839D02*
X00849890D01*
X00833380Y00800674D02*
X00850055D01*
X00833545Y00800509D02*
X00850055D01*
X00833545Y00800344D02*
X00850220D01*
X00833710Y00800179D02*
X00850385D01*
X00833875Y00800014D02*
X00850385D01*
X00833875Y00799849D02*
X00850550D01*
X00834040Y00799684D02*
X00850550D01*
X00834040Y00799518D02*
X00850715D01*
X00834205Y00799353D02*
X00850715D01*
X00834370Y00799188D02*
X00850880D01*
X00834370Y00799023D02*
X00850880D01*
X00834535Y00798858D02*
X00851045D01*
X00834535Y00798693D02*
X00851045D01*
X00834700Y00798528D02*
X00851210D01*
X00834866Y00798363D02*
X00851210D01*
X00834866Y00798198D02*
X00851376D01*
X00835031Y00798033D02*
X00851376D01*
X00835031Y00797867D02*
X00851541D01*
X00835196Y00797702D02*
X00851541D01*
X00835196Y00797537D02*
X00851706D01*
X00835361Y00797372D02*
X00851706D01*
X00835361Y00797207D02*
X00851871D01*
X00835526Y00797042D02*
X00851871D01*
X00835691Y00796877D02*
X00852036D01*
X00835691Y00796712D02*
X00852036D01*
X00835856Y00796547D02*
X00852201D01*
X00835856Y00796382D02*
X00852201D01*
X00836021Y00796216D02*
X00852366D01*
X00836021Y00796051D02*
X00852366D01*
X00836186Y00795886D02*
X00852531D01*
X00836186Y00795721D02*
X00852531D01*
X00836351Y00795556D02*
X00852696D01*
X00869041D02*
X00879938D01*
X00836351Y00795391D02*
X00852696D01*
X00868876D02*
X00879773D01*
X00836517Y00795226D02*
X00852861D01*
X00868711D02*
X00879443D01*
X00836517Y00795061D02*
X00852861D01*
X00868711D02*
X00879277D01*
X00836682Y00794896D02*
X00853027D01*
X00868546D02*
X00879112D01*
X00836682Y00794731D02*
X00853027D01*
X00868381D02*
X00878782D01*
X00836847Y00794565D02*
X00853027D01*
X00868381D02*
X00878617D01*
X00836847Y00794400D02*
X00853192D01*
X00868216D02*
X00878452D01*
X00837012Y00794235D02*
X00853192D01*
X00868216D02*
X00878122D01*
X00837012Y00794070D02*
X00853357D01*
X00868051D02*
X00877957D01*
X00837177Y00793905D02*
X00853357D01*
X00867886D02*
X00877792D01*
X00837177Y00793740D02*
X00853522D01*
X00867886D02*
X00877626D01*
X00837342Y00793575D02*
X00853522D01*
X00867720D02*
X00877296D01*
X00837342Y00793410D02*
X00853687D01*
X00867720D02*
X00877131D01*
X00837507Y00793245D02*
X00853687D01*
X00867555D02*
X00876966D01*
X00837507Y00793080D02*
X00853687D01*
X00867390D02*
X00876801D01*
X00837672Y00792914D02*
X00853852D01*
X00867390D02*
X00876471D01*
X00837672Y00792749D02*
X00853852D01*
X00867225D02*
X00876306D01*
X00837837Y00792584D02*
X00854017D01*
X00867225D02*
X00876141D01*
X00837837Y00792419D02*
X00854017D01*
X00867060D02*
X00875975D01*
X00837837Y00792254D02*
X00854182D01*
X00867060D02*
X00875810D01*
X00838002Y00792089D02*
X00854182D01*
X00866895D02*
X00875645D01*
X00838002Y00791924D02*
X00854182D01*
X00866895D02*
X00875480D01*
X00838168Y00791759D02*
X00854347D01*
X00866730D02*
X00875150D01*
X00838168Y00791594D02*
X00854347D01*
X00866730D02*
X00874985D01*
X00838333Y00791429D02*
X00854512D01*
X00866565D02*
X00874820D01*
X00838333Y00791263D02*
X00854512D01*
X00866565D02*
X00874655D01*
X00838498Y00791098D02*
X00854512D01*
X00866400D02*
X00874490D01*
X00838498Y00790933D02*
X00854678D01*
X00866400D02*
X00874324D01*
X00838498Y00790768D02*
X00854678D01*
X00866235D02*
X00874159D01*
X00838663Y00790603D02*
X00854843D01*
X00866235D02*
X00873994D01*
X00838663Y00790438D02*
X00854843D01*
X00866069D02*
X00873829D01*
X00838828Y00790273D02*
X00854843D01*
X00866069D02*
X00873664D01*
X00838828Y00790108D02*
X00855008D01*
X00866069D02*
X00873499D01*
X00838993Y00789943D02*
X00855008D01*
X00865904D02*
X00873334D01*
X00838993Y00789778D02*
X00855008D01*
X00865904D02*
X00873169D01*
X00838993Y00789612D02*
X00855173D01*
X00865739D02*
X00873004D01*
X00803332Y00829897D02*
X00822318D01*
X00803662Y00829732D02*
X00822648D01*
X00803992Y00829567D02*
X00822813D01*
X00804322Y00829401D02*
X00823143D01*
X00804487Y00829236D02*
X00823309D01*
X00804817Y00829071D02*
X00823639D01*
X00805148Y00828906D02*
X00823804D01*
X00805313Y00828741D02*
X00824134D01*
X00805643Y00828576D02*
X00824299D01*
X00805973Y00828411D02*
X00824629D01*
X00806138Y00828246D02*
X00824794D01*
X00806468Y00828081D02*
X00825125D01*
X00806799Y00827916D02*
X00825290D01*
X00806964Y00827750D02*
X00825455D01*
X00807294Y00827585D02*
X00825785D01*
X00807459Y00827420D02*
X00825950D01*
X00807789Y00827255D02*
X00826280D01*
X00807954Y00827090D02*
X00826445D01*
X00808285Y00826925D02*
X00826611D01*
X00808450Y00826760D02*
X00826941D01*
X00808780Y00826595D02*
X00827106D01*
X00808945Y00826430D02*
X00827271D01*
X00811421Y00824779D02*
X00829417D01*
X00811587Y00824614D02*
X00829747D01*
X00811752Y00824448D02*
X00829913D01*
X00812082Y00824283D02*
X00830078D01*
X00812247Y00824118D02*
X00830243D01*
X00812412Y00823953D02*
X00830573D01*
X00812742Y00823788D02*
X00830738D01*
X00812907Y00823623D02*
X00830903D01*
X00813072Y00823458D02*
X00831068D01*
X00813238Y00823293D02*
X00831233D01*
X00813568Y00823128D02*
X00831564D01*
X00813733Y00822963D02*
X00831729D01*
X00813898Y00822797D02*
X00831894D01*
X00814063Y00822632D02*
X00832059D01*
X00814393Y00822467D02*
X00832224D01*
X00814558Y00822302D02*
X00832389D01*
X00814723Y00822137D02*
X00832719D01*
X00814889Y00821972D02*
X00832884D01*
X00815219Y00821807D02*
X00833049D01*
X00815384Y00821642D02*
X00833215D01*
X00815549Y00821477D02*
X00833380D01*
X00815714Y00821312D02*
X00833545D01*
X00815879Y00821146D02*
X00833710D01*
X00816209Y00820981D02*
X00833875D01*
X00816374Y00820816D02*
X00834040D01*
X00816540Y00820651D02*
X00834370D01*
X00816705Y00820486D02*
X00834535D01*
X00816870Y00820321D02*
X00834700D01*
X00817035Y00820156D02*
X00834866D01*
X00817200Y00819991D02*
X00835031D01*
X00817530Y00819826D02*
X00835196D01*
X00817695Y00819661D02*
X00835361D01*
X00817860Y00819495D02*
X00835526D01*
X00818025Y00819330D02*
X00835691D01*
X00818191Y00819165D02*
X00835856D01*
X00818356Y00819000D02*
X00836021D01*
X00818521Y00818835D02*
X00836186D01*
X00818686Y00818670D02*
X00836351D01*
X00818851Y00818505D02*
X00836517D01*
X00819016Y00818340D02*
X00836682D01*
X00819181Y00818175D02*
X00836847D01*
X00819511Y00818010D02*
X00837012D01*
X00819676Y00817844D02*
X00837177D01*
X00819842Y00817679D02*
X00837342D01*
X00820007Y00817514D02*
X00837507D01*
X00820172Y00817349D02*
X00837672D01*
X00820337Y00817184D02*
X00837837D01*
X00820502Y00817019D02*
X00838002D01*
X00820667Y00816854D02*
X00838168D01*
X00820832Y00816689D02*
X00838333D01*
X00820997Y00816524D02*
X00838498D01*
X00821162Y00816359D02*
X00838663D01*
X00821327Y00816193D02*
X00838828D01*
X00821492Y00816028D02*
X00838828D01*
X00821658Y00815863D02*
X00838993D01*
X00821823Y00815698D02*
X00839158D01*
X00821988Y00815533D02*
X00839323D01*
X00822153Y00815368D02*
X00839488D01*
X00822318Y00815203D02*
X00839653D01*
X00822483Y00815038D02*
X00839819D01*
X00822648Y00814873D02*
X00839984D01*
X00822648Y00814708D02*
X00840149D01*
X00822813Y00814542D02*
X00840314D01*
X00822978Y00814377D02*
X00840314D01*
X00823143Y00814212D02*
X00840479D01*
X00823309Y00814047D02*
X00840644D01*
X00823474Y00813882D02*
X00840809D01*
X00823639Y00813717D02*
X00840974D01*
X00823804Y00813552D02*
X00841139D01*
X00823969Y00813387D02*
X00841304D01*
X00824134Y00813222D02*
X00841304D01*
X00824299Y00813057D02*
X00841470D01*
X00824464Y00812891D02*
X00841635D01*
X00824464Y00812726D02*
X00841800D01*
X00824629Y00812561D02*
X00841965D01*
X00824794Y00812396D02*
X00842130D01*
X00824960Y00812231D02*
X00842130D01*
X00825125Y00812066D02*
X00842295D01*
X00825290Y00811901D02*
X00842460D01*
X00825455Y00811736D02*
X00842625D01*
X00825455Y00811571D02*
X00842790D01*
X00825620Y00811406D02*
X00842790D01*
X00825785Y00811240D02*
X00842955D01*
X00825950Y00811075D02*
X00843121D01*
X00826115Y00810910D02*
X00843286D01*
X00826280Y00810745D02*
X00843451D01*
X00826445Y00810580D02*
X00843451D01*
X00826445Y00810415D02*
X00843616D01*
X00826611Y00810250D02*
X00843781D01*
X00826776Y00810085D02*
X00843946D01*
X00826941Y00809920D02*
X00843946D01*
X00799204Y00832043D02*
X00818851D01*
X00799534Y00831878D02*
X00819016D01*
X00799864Y00831713D02*
X00819346D01*
X00800195Y00831548D02*
X00819676D01*
X00800525Y00831383D02*
X00819842D01*
X00800855Y00831218D02*
X00820172D01*
X00801185Y00831052D02*
X00820502D01*
X00801515Y00830887D02*
X00820667D01*
X00801846Y00830722D02*
X00820997D01*
X00802176Y00830557D02*
X00821327D01*
X00802506Y00830392D02*
X00821492D01*
X00802836Y00830227D02*
X00821823D01*
X00880928Y00789282D02*
X00900741D01*
X00880763Y00789117D02*
X00900741D01*
X00880598Y00788952D02*
X00900575D01*
X00880433Y00788787D02*
X00900575D01*
X00889514Y00809589D02*
X00911637D01*
X00888853Y00809424D02*
X00912298D01*
X00888358Y00809259D02*
X00912958D01*
X00887698Y00809094D02*
X00913453D01*
X00887202Y00808929D02*
X00913949D01*
X00886707Y00808764D02*
X00914444D01*
X00886212Y00808599D02*
X00914939D01*
X00885882Y00808434D02*
X00915104D01*
X00885386Y00808269D02*
X00914774D01*
X00884891Y00808104D02*
X00914444D01*
X00884561Y00807939D02*
X00914114D01*
X00884230Y00807773D02*
X00913783D01*
X00883735Y00807608D02*
X00913618D01*
X00883405Y00807443D02*
X00913288D01*
X00883075Y00807278D02*
X00912958D01*
X00882745Y00807113D02*
X00912793D01*
X00882414Y00806948D02*
X00912628D01*
X00882084Y00806783D02*
X00912298D01*
X00881754Y00806618D02*
X00912132D01*
X00881424Y00806453D02*
X00911967D01*
X00881094Y00806288D02*
X00911637D01*
X00880763Y00806122D02*
X00911472D01*
X00880433Y00805957D02*
X00911307D01*
X00890339Y00797042D02*
X00904868D01*
X00890009Y00796877D02*
X00904868D01*
X00889844Y00796712D02*
X00904703D01*
X00889679Y00796547D02*
X00904703D01*
X00889349Y00796382D02*
X00904538D01*
X00889184Y00796216D02*
X00904538D01*
X00888853Y00796051D02*
X00904373D01*
X00888688Y00795886D02*
X00904373D01*
X00888523Y00795721D02*
X00904208D01*
X00888193Y00795556D02*
X00904208D01*
X00888028Y00795391D02*
X00904043D01*
X00887698Y00795226D02*
X00904043D01*
X00887533Y00795061D02*
X00903877D01*
X00887367Y00794896D02*
X00903712D01*
X00887202Y00794731D02*
X00903712D01*
X00886872Y00794565D02*
X00903547D01*
X00886707Y00794400D02*
X00903547D01*
X00886542Y00794235D02*
X00903382D01*
X00886212Y00794070D02*
X00903382D01*
X00886047Y00793905D02*
X00903217D01*
X00885882Y00793740D02*
X00903217D01*
X00885716Y00793575D02*
X00903052D01*
X00885551Y00793410D02*
X00903052D01*
X00885221Y00793245D02*
X00902887D01*
X00885056Y00793080D02*
X00902887D01*
X00884891Y00792914D02*
X00902722D01*
X00884726Y00792749D02*
X00902557D01*
X00884561Y00792584D02*
X00902557D01*
X00884396Y00792419D02*
X00902392D01*
X00884065Y00792254D02*
X00902392D01*
X00883900Y00792089D02*
X00902226D01*
X00883735Y00791924D02*
X00902226D01*
X00883570Y00791759D02*
X00902061D01*
X00883405Y00791594D02*
X00902061D01*
X00883240Y00791429D02*
X00901896D01*
X00883075Y00791263D02*
X00901896D01*
X00882910Y00791098D02*
X00901731D01*
X00882745Y00790933D02*
X00901731D01*
X00882579Y00790768D02*
X00901566D01*
X00882249Y00790603D02*
X00901566D01*
X00882084Y00790438D02*
X00901401D01*
X00881919Y00790273D02*
X00901401D01*
X00881754Y00790108D02*
X00901236D01*
X00881589Y00789943D02*
X00901236D01*
X00881424Y00789778D02*
X00901071D01*
X00881259Y00789612D02*
X00900906D01*
X00766349Y00830062D02*
X00796067D01*
X00844772Y00748833D02*
X00860126D01*
X00844772Y00728525D02*
X00860126D01*
X00803001Y00830062D02*
X00821988D01*
X00827106Y00809755D02*
X00844111D01*
X00839158Y00789447D02*
X00855173D01*
X00865739D02*
X00872839D01*
X00816540Y00769140D02*
X00833380D01*
X00844276D02*
X00859796D01*
X00890174Y00809755D02*
X00910977D01*
X00881094Y00789447D02*
X00900906D01*
X00791279Y00789282D02*
X00825950D01*
X00791279Y00789117D02*
X00826115D01*
X00791444Y00788952D02*
X00826115D01*
X00791609Y00788787D02*
X00826280D01*
X00791775Y00788622D02*
X00826280D01*
X00791775Y00788457D02*
X00826445D01*
X00791940Y00788292D02*
X00826445D01*
X00792105Y00788127D02*
X00826445D01*
X00792270Y00787961D02*
X00826611D01*
X00792435Y00787796D02*
X00826611D01*
X00792435Y00787631D02*
X00826776D01*
X00792600Y00787466D02*
X00826776D01*
X00792765Y00787301D02*
X00826941D01*
X00792930Y00787136D02*
X00826941D01*
X00792930Y00786971D02*
X00826941D01*
X00793095Y00786806D02*
X00827106D01*
X00793260Y00786641D02*
X00827106D01*
X00793426Y00786476D02*
X00827271D01*
X00793591Y00786310D02*
X00827271D01*
X00793756Y00786145D02*
X00827271D01*
X00793756Y00785980D02*
X00827436D01*
X00793921Y00785815D02*
X00827436D01*
X00794086Y00785650D02*
X00827601D01*
X00794251Y00785485D02*
X00827601D01*
X00794416Y00785320D02*
X00827601D01*
X00794581Y00785155D02*
X00827766D01*
X00794581Y00784990D02*
X00827766D01*
X00794746Y00784825D02*
X00827931D01*
X00794911Y00784659D02*
X00827931D01*
X00795077Y00784494D02*
X00827931D01*
X00795242Y00784329D02*
X00828096D01*
X00795407Y00784164D02*
X00828096D01*
X00795572Y00783999D02*
X00828262D01*
X00795737Y00783834D02*
X00828262D01*
X00795902Y00783669D02*
X00828262D01*
X00795902Y00783504D02*
X00828427D01*
X00796067Y00783339D02*
X00828427D01*
X00796232Y00783174D02*
X00828592D01*
X00796397Y00783008D02*
X00828592D01*
X00796562Y00782843D02*
X00828592D01*
X00796728Y00782678D02*
X00828757D01*
X00796893Y00782513D02*
X00828757D01*
X00797058Y00782348D02*
X00828757D01*
X00797223Y00782183D02*
X00828922D01*
X00797388Y00782018D02*
X00828922D01*
X00797553Y00781853D02*
X00829087D01*
X00797718Y00781688D02*
X00829087D01*
X00797883Y00781523D02*
X00829087D01*
X00798048Y00781357D02*
X00829252D01*
X00798213Y00781192D02*
X00829252D01*
X00798379Y00781027D02*
X00829252D01*
X00798544Y00780862D02*
X00829417D01*
X00798709Y00780697D02*
X00829417D01*
X00798874Y00780532D02*
X00829582D01*
X00778897Y00809589D02*
X00815384D01*
X00779062Y00809424D02*
X00815549D01*
X00779062Y00809259D02*
X00815714D01*
X00779227Y00809094D02*
X00815714D01*
X00779227Y00808929D02*
X00815879D01*
X00779392Y00808764D02*
X00815879D01*
X00779557Y00808599D02*
X00816044D01*
X00779557Y00808434D02*
X00816209D01*
X00779722Y00808269D02*
X00816209D01*
X00779722Y00808104D02*
X00816374D01*
X00779887Y00807939D02*
X00816540D01*
X00779887Y00807773D02*
X00816540D01*
X00780052Y00807608D02*
X00816705D01*
X00780052Y00807443D02*
X00816705D01*
X00780218Y00807278D02*
X00816870D01*
X00780218Y00807113D02*
X00817035D01*
X00780383Y00806948D02*
X00817035D01*
X00780548Y00806783D02*
X00817200D01*
X00780548Y00806618D02*
X00817200D01*
X00780713Y00806453D02*
X00817365D01*
X00780713Y00806288D02*
X00817530D01*
X00780878Y00806122D02*
X00817530D01*
X00780878Y00805957D02*
X00817695D01*
X00781043Y00805792D02*
X00817695D01*
X00781043Y00805627D02*
X00817860D01*
X00781208Y00805462D02*
X00818025D01*
X00781208Y00805297D02*
X00818025D01*
X00781373Y00805132D02*
X00818191D01*
X00781538Y00804967D02*
X00818191D01*
X00781538Y00804802D02*
X00818356D01*
X00781703Y00804637D02*
X00818356D01*
X00781703Y00804471D02*
X00818521D01*
X00781869Y00804306D02*
X00818686D01*
X00781869Y00804141D02*
X00818686D01*
X00782034Y00803976D02*
X00818851D01*
X00782034Y00803811D02*
X00818851D01*
X00782199Y00803646D02*
X00819016D01*
X00782364Y00803481D02*
X00819016D01*
X00782364Y00803316D02*
X00819181D01*
X00782529Y00803151D02*
X00819346D01*
X00782529Y00802986D02*
X00819346D01*
X00782694Y00802820D02*
X00819511D01*
X00782694Y00802655D02*
X00819511D01*
X00782859Y00802490D02*
X00819676D01*
X00782859Y00802325D02*
X00819676D01*
X00783024Y00802160D02*
X00819842D01*
X00783189Y00801995D02*
X00819842D01*
X00783189Y00801830D02*
X00820007D01*
X00783354Y00801665D02*
X00820007D01*
X00783354Y00801500D02*
X00820172D01*
X00783520Y00801335D02*
X00820337D01*
X00783685Y00801169D02*
X00820337D01*
X00783685Y00801004D02*
X00820502D01*
X00783850Y00800839D02*
X00820502D01*
X00783850Y00800674D02*
X00820667D01*
X00784015Y00800509D02*
X00820667D01*
X00784015Y00800344D02*
X00820832D01*
X00784180Y00800179D02*
X00820832D01*
X00784345Y00800014D02*
X00820997D01*
X00784345Y00799849D02*
X00820997D01*
X00784510Y00799684D02*
X00821162D01*
X00784510Y00799518D02*
X00821162D01*
X00784675Y00799353D02*
X00821327D01*
X00784675Y00799188D02*
X00821327D01*
X00784840Y00799023D02*
X00821492D01*
X00785005Y00798858D02*
X00821492D01*
X00785005Y00798693D02*
X00821658D01*
X00785171Y00798528D02*
X00821658D01*
X00785171Y00798363D02*
X00821823D01*
X00785336Y00798198D02*
X00821823D01*
X00785501Y00798033D02*
X00821988D01*
X00785501Y00797867D02*
X00821988D01*
X00785666Y00797702D02*
X00822153D01*
X00785666Y00797537D02*
X00822153D01*
X00785831Y00797372D02*
X00822318D01*
X00785996Y00797207D02*
X00822318D01*
X00785996Y00797042D02*
X00822483D01*
X00786161Y00796877D02*
X00822483D01*
X00786161Y00796712D02*
X00822648D01*
X00786326Y00796547D02*
X00822648D01*
X00786491Y00796382D02*
X00822813D01*
X00786491Y00796216D02*
X00822813D01*
X00786656Y00796051D02*
X00822978D01*
X00786822Y00795886D02*
X00822978D01*
X00786822Y00795721D02*
X00823143D01*
X00786987Y00795556D02*
X00823143D01*
X00786987Y00795391D02*
X00823309D01*
X00787152Y00795226D02*
X00823309D01*
X00787317Y00795061D02*
X00823474D01*
X00787317Y00794896D02*
X00823474D01*
X00787482Y00794731D02*
X00823639D01*
X00787647Y00794565D02*
X00823639D01*
X00787647Y00794400D02*
X00823804D01*
X00787812Y00794235D02*
X00823804D01*
X00787977Y00794070D02*
X00823969D01*
X00787977Y00793905D02*
X00823969D01*
X00788142Y00793740D02*
X00823969D01*
X00788307Y00793575D02*
X00824134D01*
X00788307Y00793410D02*
X00824134D01*
X00788473Y00793245D02*
X00824299D01*
X00788638Y00793080D02*
X00824299D01*
X00788638Y00792914D02*
X00824464D01*
X00788803Y00792749D02*
X00824464D01*
X00788968Y00792584D02*
X00824629D01*
X00788968Y00792419D02*
X00824629D01*
X00789133Y00792254D02*
X00824794D01*
X00789298Y00792089D02*
X00824794D01*
X00789298Y00791924D02*
X00824794D01*
X00789463Y00791759D02*
X00824960D01*
X00789628Y00791594D02*
X00824960D01*
X00789628Y00791429D02*
X00825125D01*
X00789793Y00791263D02*
X00825125D01*
X00789958Y00791098D02*
X00825290D01*
X00789958Y00790933D02*
X00825290D01*
X00790124Y00790768D02*
X00825455D01*
X00790289Y00790603D02*
X00825455D01*
X00790454Y00790438D02*
X00825455D01*
X00790454Y00790273D02*
X00825620D01*
X00790619Y00790108D02*
X00825620D01*
X00790784Y00789943D02*
X00825785D01*
X00790784Y00789778D02*
X00825785D01*
X00790949Y00789612D02*
X00825950D01*
X00768000Y00828081D02*
X00799039D01*
X00768000Y00827916D02*
X00799204D01*
X00768165Y00827750D02*
X00799369D01*
X00768330Y00827585D02*
X00799534D01*
X00768330Y00827420D02*
X00799864D01*
X00768495Y00827255D02*
X00800030D01*
X00768661Y00827090D02*
X00800195D01*
X00768826Y00826925D02*
X00800360D01*
X00768826Y00826760D02*
X00800690D01*
X00768991Y00826595D02*
X00800855D01*
X00769156Y00826430D02*
X00801020D01*
X00769156Y00826265D02*
X00801185D01*
X00769321Y00826099D02*
X00801350D01*
X00769486Y00825934D02*
X00801681D01*
X00769486Y00825769D02*
X00801846D01*
X00769651Y00825604D02*
X00802011D01*
X00769816Y00825439D02*
X00802176D01*
X00769816Y00825274D02*
X00802341D01*
X00769981Y00825109D02*
X00802506D01*
X00770146Y00824944D02*
X00802671D01*
X00770146Y00824779D02*
X00803001D01*
X00770312Y00824614D02*
X00803166D01*
X00770477Y00824448D02*
X00803332D01*
X00770477Y00824283D02*
X00803497D01*
X00770642Y00824118D02*
X00803662D01*
X00770807Y00823953D02*
X00803827D01*
X00770807Y00823788D02*
X00803992D01*
X00770972Y00823623D02*
X00804157D01*
X00771137Y00823458D02*
X00804322D01*
X00771137Y00823293D02*
X00804487D01*
X00771302Y00823128D02*
X00804652D01*
X00771302Y00822963D02*
X00804817D01*
X00771467Y00822797D02*
X00804983D01*
X00771632Y00822632D02*
X00805148D01*
X00771632Y00822467D02*
X00805313D01*
X00771797Y00822302D02*
X00805478D01*
X00771797Y00822137D02*
X00805643D01*
X00771963Y00821972D02*
X00805808D01*
X00772128Y00821807D02*
X00805973D01*
X00772128Y00821642D02*
X00806138D01*
X00772293Y00821477D02*
X00806303D01*
X00772293Y00821312D02*
X00806468D01*
X00772458Y00821146D02*
X00806634D01*
X00772623Y00820981D02*
X00806799D01*
X00772623Y00820816D02*
X00806964D01*
X00772788Y00820651D02*
X00807129D01*
X00772788Y00820486D02*
X00807129D01*
X00772953Y00820321D02*
X00807294D01*
X00773118Y00820156D02*
X00807459D01*
X00773118Y00819991D02*
X00807624D01*
X00773283Y00819826D02*
X00807789D01*
X00773283Y00819661D02*
X00807954D01*
X00773448Y00819495D02*
X00808119D01*
X00773614Y00819330D02*
X00808285D01*
X00773614Y00819165D02*
X00808450D01*
X00773779Y00819000D02*
X00808450D01*
X00773779Y00818835D02*
X00808615D01*
X00773944Y00818670D02*
X00808780D01*
X00773944Y00818505D02*
X00808945D01*
X00774109Y00818340D02*
X00809110D01*
X00774274Y00818175D02*
X00809275D01*
X00774274Y00818010D02*
X00809275D01*
X00774439Y00817844D02*
X00809440D01*
X00774439Y00817679D02*
X00809605D01*
X00774604Y00817514D02*
X00809770D01*
X00774604Y00817349D02*
X00809936D01*
X00774769Y00817184D02*
X00809936D01*
X00774934Y00817019D02*
X00810101D01*
X00774934Y00816854D02*
X00810266D01*
X00775099Y00816689D02*
X00810431D01*
X00775099Y00816524D02*
X00810596D01*
X00775265Y00816359D02*
X00810596D01*
X00775265Y00816193D02*
X00810761D01*
X00775430Y00816028D02*
X00810926D01*
X00775595Y00815863D02*
X00811091D01*
X00775595Y00815698D02*
X00811256D01*
X00775760Y00815533D02*
X00811256D01*
X00775760Y00815368D02*
X00811421D01*
X00775925Y00815203D02*
X00811587D01*
X00775925Y00815038D02*
X00811752D01*
X00776090Y00814873D02*
X00811752D01*
X00776090Y00814708D02*
X00811917D01*
X00776255Y00814542D02*
X00812082D01*
X00776255Y00814377D02*
X00812082D01*
X00776420Y00814212D02*
X00812247D01*
X00776585Y00814047D02*
X00812412D01*
X00776585Y00813882D02*
X00812577D01*
X00776750Y00813717D02*
X00812577D01*
X00776750Y00813552D02*
X00812742D01*
X00776916Y00813387D02*
X00812907D01*
X00776916Y00813222D02*
X00812907D01*
X00777081Y00813057D02*
X00813072D01*
X00777081Y00812891D02*
X00813238D01*
X00777246Y00812726D02*
X00813403D01*
X00777411Y00812561D02*
X00813403D01*
X00777411Y00812396D02*
X00813568D01*
X00777576Y00812231D02*
X00813733D01*
X00777576Y00812066D02*
X00813733D01*
X00777741Y00811901D02*
X00813898D01*
X00777741Y00811736D02*
X00814063D01*
X00777906Y00811571D02*
X00814063D01*
X00777906Y00811406D02*
X00814228D01*
X00778071Y00811240D02*
X00814393D01*
X00778071Y00811075D02*
X00814393D01*
X00778236Y00810910D02*
X00814558D01*
X00778401Y00810745D02*
X00814723D01*
X00778401Y00810580D02*
X00814723D01*
X00778567Y00810415D02*
X00814889D01*
X00778567Y00810250D02*
X00815054D01*
X00778732Y00810085D02*
X00815054D01*
X00778732Y00809920D02*
X00815219D01*
X00754792Y00840298D02*
X00799204D01*
X00755122Y00840133D02*
X00799699D01*
X00755287Y00839968D02*
X00800195D01*
X00755618Y00839803D02*
X00800855D01*
X00755948Y00839638D02*
X00801350D01*
X00756113Y00839473D02*
X00801846D01*
X00756443Y00839307D02*
X00802341D01*
X00756608Y00839142D02*
X00802836D01*
X00756938Y00838977D02*
X00803332D01*
X00757104Y00838812D02*
X00803827D01*
X00757434Y00838647D02*
X00804322D01*
X00757599Y00838482D02*
X00804817D01*
X00757929Y00838317D02*
X00805313D01*
X00758094Y00838152D02*
X00805643D01*
X00758424Y00837987D02*
X00806138D01*
X00758589Y00837822D02*
X00806634D01*
X00758755Y00837656D02*
X00806964D01*
X00758920Y00837491D02*
X00807459D01*
X00759250Y00837326D02*
X00807789D01*
X00759415Y00837161D02*
X00808285D01*
X00759580Y00836996D02*
X00808615D01*
X00759745Y00836831D02*
X00809110D01*
X00760075Y00836666D02*
X00809440D01*
X00760240Y00836501D02*
X00809770D01*
X00760406Y00836336D02*
X00810266D01*
X00760571Y00836171D02*
X00810596D01*
X00760736Y00836005D02*
X00810926D01*
X00760901Y00835840D02*
X00811256D01*
X00785996Y00835675D02*
X00811587D01*
X00787482Y00835510D02*
X00812082D01*
X00788638Y00835345D02*
X00812412D01*
X00789463Y00835180D02*
X00812742D01*
X00790289Y00835015D02*
X00813072D01*
X00791114Y00834850D02*
X00813403D01*
X00791775Y00834685D02*
X00813733D01*
X00792270Y00834520D02*
X00814063D01*
X00792930Y00834354D02*
X00814393D01*
X00793426Y00834189D02*
X00814723D01*
X00794086Y00834024D02*
X00815054D01*
X00794581Y00833859D02*
X00815384D01*
X00795077Y00833694D02*
X00815714D01*
X00795407Y00833529D02*
X00816044D01*
X00795902Y00833364D02*
X00816374D01*
X00796397Y00833199D02*
X00816705D01*
X00796728Y00833034D02*
X00817035D01*
X00797223Y00832869D02*
X00817365D01*
X00797553Y00832703D02*
X00817530D01*
X00798048Y00832538D02*
X00817860D01*
X00798379Y00832373D02*
X00818191D01*
X00798709Y00832208D02*
X00818521D01*
X00880268Y00788622D02*
X00900410D01*
X00880103Y00788457D02*
X00900410D01*
X00880103Y00788292D02*
X00900245D01*
X00879938Y00788127D02*
X00900080D01*
X00879773Y00787961D02*
X00900080D01*
X00879608Y00787796D02*
X00899915D01*
X00879443Y00787631D02*
X00899915D01*
X00879277Y00787466D02*
X00899750D01*
X00879112Y00787301D02*
X00899750D01*
X00878947Y00787136D02*
X00899585D01*
X00878782Y00786971D02*
X00899420D01*
X00878617Y00786806D02*
X00899420D01*
X00878452Y00786641D02*
X00899255D01*
X00878452Y00786476D02*
X00899255D01*
X00878287Y00786310D02*
X00899090D01*
X00878122Y00786145D02*
X00899090D01*
X00877957Y00785980D02*
X00898924D01*
X00877792Y00785815D02*
X00898759D01*
X00877626Y00785650D02*
X00898759D01*
X00877461Y00785485D02*
X00898594D01*
X00877461Y00785320D02*
X00898429D01*
X00877296Y00785155D02*
X00898429D01*
X00877131Y00784990D02*
X00898264D01*
X00876966Y00784825D02*
X00898264D01*
X00876801Y00784659D02*
X00898099D01*
X00876801Y00784494D02*
X00897934D01*
X00876636Y00784329D02*
X00897934D01*
X00876471Y00784164D02*
X00897769D01*
X00876306Y00783999D02*
X00897604D01*
X00876141Y00783834D02*
X00897604D01*
X00876141Y00783669D02*
X00897439D01*
X00875975Y00783504D02*
X00897273D01*
X00875810Y00783339D02*
X00897273D01*
X00875645Y00783174D02*
X00897108D01*
X00875645Y00783008D02*
X00896943D01*
X00875480Y00782843D02*
X00896943D01*
X00875315Y00782678D02*
X00896778D01*
X00875150Y00782513D02*
X00896613D01*
X00875150Y00782348D02*
X00896613D01*
X00874985Y00782183D02*
X00896448D01*
X00874820Y00782018D02*
X00896283D01*
X00874820Y00781853D02*
X00896118D01*
X00874655Y00781688D02*
X00896118D01*
X00874490Y00781523D02*
X00895953D01*
X00874490Y00781357D02*
X00895788D01*
X00874324Y00781192D02*
X00895622D01*
X00874159Y00781027D02*
X00895622D01*
X00873994Y00780862D02*
X00895457D01*
X00873994Y00780697D02*
X00895292D01*
X00873829Y00780532D02*
X00895127D01*
X00873664Y00780367D02*
X00894962D01*
X00873664Y00780202D02*
X00894962D01*
X00873499Y00780037D02*
X00894797D01*
X00873334Y00779872D02*
X00894632D01*
X00873334Y00779706D02*
X00894467D01*
X00873169Y00779541D02*
X00894302D01*
X00873169Y00779376D02*
X00894137D01*
X00873004Y00779211D02*
X00894137D01*
X00872839Y00779046D02*
X00893971D01*
X00872839Y00778881D02*
X00893806D01*
X00872673Y00778716D02*
X00893641D01*
X00872508Y00778551D02*
X00893476D01*
X00872508Y00778386D02*
X00893311D01*
X00872343Y00778221D02*
X00893146D01*
X00872343Y00778055D02*
X00892981D01*
X00872178Y00777890D02*
X00892816D01*
X00872013Y00777725D02*
X00892651D01*
X00872013Y00777560D02*
X00892486D01*
X00871848Y00777395D02*
X00892320D01*
X00871848Y00777230D02*
X00892155D01*
X00871683Y00777065D02*
X00891990D01*
X00871683Y00776900D02*
X00891825D01*
X00871518Y00776735D02*
X00891660D01*
X00871353Y00776570D02*
X00891495D01*
X00871353Y00776404D02*
X00891330D01*
X00871188Y00776239D02*
X00891165D01*
X00871188Y00776074D02*
X00890835D01*
X00871022Y00775909D02*
X00890669D01*
X00871022Y00775744D02*
X00890504D01*
X00870857Y00775579D02*
X00890339D01*
X00870032Y00773928D02*
X00888028D01*
X00870032Y00773763D02*
X00887698D01*
X00869867Y00773598D02*
X00887533D01*
X00869867Y00773433D02*
X00887202D01*
X00869702Y00773268D02*
X00886872D01*
X00869702Y00773102D02*
X00886707D01*
X00869537Y00772937D02*
X00886377D01*
X00869537Y00772772D02*
X00886047D01*
X00869371Y00772607D02*
X00885716D01*
X00869371Y00772442D02*
X00885386D01*
X00869206Y00772277D02*
X00885056D01*
X00869206Y00772112D02*
X00884726D01*
X00869041Y00771947D02*
X00884396D01*
X00869041Y00771782D02*
X00883900D01*
X00869041Y00771617D02*
X00883570D01*
X00868876Y00771451D02*
X00883075D01*
X00868876Y00771286D02*
X00882745D01*
X00868711Y00771121D02*
X00882249D01*
X00868711Y00770956D02*
X00881754D01*
X00868711Y00770791D02*
X00881094D01*
X00868546Y00770626D02*
X00880598D01*
X00880103Y00805792D02*
X00911142D01*
X00879938Y00805627D02*
X00910977D01*
X00879608Y00805462D02*
X00910812D01*
X00879277Y00805297D02*
X00910647D01*
X00879112Y00805132D02*
X00910481D01*
X00878782Y00804967D02*
X00910316D01*
X00878452Y00804802D02*
X00910151D01*
X00878287Y00804637D02*
X00909986D01*
X00877957Y00804471D02*
X00909821D01*
X00877792Y00804306D02*
X00909656D01*
X00877461Y00804141D02*
X00909491D01*
X00877296Y00803976D02*
X00909326D01*
X00877131Y00803811D02*
X00909326D01*
X00876801Y00803646D02*
X00909161D01*
X00876636Y00803481D02*
X00908996D01*
X00876471Y00803316D02*
X00908830D01*
X00876141Y00803151D02*
X00908665D01*
X00875975Y00802986D02*
X00908665D01*
X00875810Y00802820D02*
X00908500D01*
X00875480Y00802655D02*
X00908335D01*
X00875315Y00802490D02*
X00898594D01*
X00875150Y00802325D02*
X00896943D01*
X00874985Y00802160D02*
X00895953D01*
X00874820Y00801995D02*
X00894962D01*
X00874490Y00801830D02*
X00894137D01*
X00874324Y00801665D02*
X00893476D01*
X00874159Y00801500D02*
X00892816D01*
X00873994Y00801335D02*
X00892155D01*
X00873829Y00801169D02*
X00891495D01*
X00873664Y00801004D02*
X00891000D01*
X00873499Y00800839D02*
X00890504D01*
X00870032Y00797042D02*
X00882249D01*
X00869867Y00796877D02*
X00882084D01*
X00869867Y00796712D02*
X00881754D01*
X00869702Y00796547D02*
X00881424D01*
X00869537Y00796382D02*
X00881259D01*
X00869371Y00796216D02*
X00880928D01*
X00869371Y00796051D02*
X00880763D01*
X00869206Y00795886D02*
X00880433D01*
X00869041Y00795721D02*
X00880268D01*
X00778897Y00809755D02*
X00815384D01*
X00791114Y00789447D02*
X00825950D01*
D17*
X00576698Y00683942D02*
X00578730Y00685974D01*
X00574666D02*
X00578730D01*
X00574666D02*
X00576698Y00683942D01*
X00746223Y00519078D02*
Y00541176D01*
X00702535Y00519078D02*
X00746223D01*
X00702535D02*
Y00541176D01*
X00746223D01*
X00746903Y00434078D02*
Y00456176D01*
X00703215Y00434078D02*
X00746903D01*
X00703215D02*
Y00456176D01*
X00746903D01*
X00552756Y00517064D02*
Y00539162D01*
X00596444D01*
Y00517064D02*
Y00539162D01*
X00552756Y00517064D02*
X00596444D01*
X00552535Y00433824D02*
Y00455922D01*
X00596223D01*
Y00433824D02*
Y00455922D01*
X00552535Y00433824D02*
X00596223D01*
X00510084Y00517318D02*
Y00539416D01*
X00466396Y00517318D02*
X00510084D01*
X00466396D02*
Y00539416D01*
X00510084D01*
Y00434078D02*
Y00456176D01*
X00466396Y00434078D02*
X00510084D01*
X00466396D02*
Y00456176D01*
X00510084D01*
X00313996Y00435784D02*
Y00457882D01*
X00357684D01*
Y00435784D02*
Y00457882D01*
X00313996Y00435784D02*
X00357684D01*
X00313996Y00514524D02*
Y00536622D01*
X00357684D01*
Y00514524D02*
Y00536622D01*
X00313996Y00514524D02*
X00357684D01*
X00814884Y00369998D02*
Y00392096D01*
X00771196Y00369998D02*
X00814884D01*
X00771196D02*
Y00392096D01*
X00814884D01*
X00703041Y00367164D02*
X00737077D01*
Y00282836D02*
Y00367164D01*
X00703041Y00282836D02*
X00737077D01*
X00703041D02*
Y00367164D01*
X00235764Y00207438D02*
Y00229536D01*
X00192076Y00207438D02*
X00235764D01*
X00192076D02*
Y00229536D01*
X00235764D01*
X00215840Y00193760D02*
X00217340D01*
X00215840Y00166760D02*
X00217340D01*
X00200340Y00193760D02*
X00201840D01*
X00200340Y00166760D02*
X00201840D01*
X00217340D02*
Y00193760D01*
X00200340Y00166760D02*
Y00193760D01*
X00113844Y00250364D02*
X00135942D01*
Y00206676D02*
Y00250364D01*
X00113844Y00206676D02*
X00135942D01*
X00113844D02*
Y00250364D01*
X00729339Y00198328D02*
X00736004D01*
X00732672Y00201661D02*
Y00194996D01*
D18*
X00540310Y00672724D02*
X00542850Y00670184D01*
Y00675264D01*
X00540310Y00672724D02*
X00542850Y00675264D01*
X00311553Y00648890D02*
X00314093Y00651430D01*
X00311553Y00648890D02*
X00316633D01*
X00314093Y00651430D02*
X00316633Y00648890D01*
X00595355Y00168970D02*
X00597895Y00171510D01*
X00592815D02*
X00597895D01*
X00592815D02*
X00595355Y00168970D01*
Y00348970D02*
X00597895Y00351510D01*
X00592815D02*
X00597895D01*
X00592815D02*
X00595355Y00348970D01*
X00440355D02*
X00442895Y00351510D01*
X00437815D02*
X00442895D01*
X00437815D02*
X00440355Y00348970D01*
Y00168970D02*
X00442895Y00171510D01*
X00437815D02*
X00442895D01*
X00437815D02*
X00440355Y00168970D01*
X00847745Y00139711D02*
X00856889D01*
X00889909Y00139457D02*
X00898037D01*
X00847745Y00028365D02*
Y00139711D01*
X00898037Y00028459D02*
Y00095261D01*
Y00129551D02*
Y00139457D01*
X00847999Y00028459D02*
X00898037D01*
X00847745Y00028365D02*
X00847999Y00028459D01*
X00372400Y00286644D02*
X00374940Y00284104D01*
Y00289184D01*
X00372400Y00286644D02*
X00374940Y00289184D01*
X00164390Y00873384D02*
X00166930Y00875924D01*
Y00870844D02*
Y00875924D01*
X00164390Y00873384D02*
X00166930Y00870844D01*
D19*
X00513640Y00685720D02*
X00539040D01*
X00513640Y00633650D02*
Y00685720D01*
Y00633650D02*
X00539040D01*
Y00685720D01*
X00327089Y00652700D02*
Y00678100D01*
X00224219D02*
X00327089D01*
X00224219Y00652700D02*
Y00678100D01*
Y00652700D02*
X00327089D01*
X00579819Y00142300D02*
Y00167700D01*
Y00142300D02*
X00661099D01*
Y00167700D01*
X00579819D02*
X00661099D01*
X00579819Y00322300D02*
Y00347700D01*
Y00322300D02*
X00661099D01*
Y00347700D01*
X00579819D02*
X00661099D01*
X00424819Y00322300D02*
Y00347700D01*
Y00322300D02*
X00506099D01*
Y00347700D01*
X00424819D02*
X00506099D01*
X00424819Y00142300D02*
Y00167700D01*
Y00142300D02*
X00506099D01*
Y00167700D01*
X00424819D02*
X00506099D01*
X00345730Y00299640D02*
X00371130D01*
X00345730Y00222172D02*
Y00299640D01*
Y00222172D02*
X00371130D01*
Y00299640D01*
X00163120Y00783510D02*
Y00886380D01*
X00137720Y00783510D02*
X00163120D01*
X00137720D02*
Y00886380D01*
X00163120D01*
D20*
X00536065Y00146541D02*
Y00348293D01*
X00396060D02*
X00536065D01*
X00396060Y00146541D02*
Y00348293D01*
Y00146541D02*
X00536065D01*
X00549101D02*
X00689105D01*
X00549101D02*
Y00348293D01*
X00689105D01*
Y00146541D02*
Y00348293D01*
D21*
X00431316Y00178920D02*
X00432282Y00179428D01*
X00429386Y00178920D02*
X00431316D01*
X00428395Y00179428D02*
X00429386Y00178920D01*
X00441756D02*
X00442721Y00179428D01*
X00439800Y00178920D02*
X00441756D01*
X00438835Y00179428D02*
X00439800Y00178920D01*
X00426465Y00182806D02*
X00426948Y00181359D01*
X00426465Y00182806D02*
Y00185245D01*
X00436879Y00182806D02*
X00437362Y00181359D01*
X00436879Y00182806D02*
Y00185245D01*
X00428395Y00188648D02*
X00429386Y00189131D01*
X00431316D01*
X00432282Y00188648D01*
X00438835D02*
X00439800Y00189131D01*
X00441756D01*
X00442721Y00188648D01*
X00426465Y00185245D02*
X00426948Y00186718D01*
X00427430Y00187683D01*
X00428395Y00188648D01*
X00432282D02*
X00433272Y00187683D01*
X00433755Y00186718D01*
X00437362D02*
X00437870Y00187683D01*
X00438835Y00188648D01*
X00442721D02*
X00443686Y00187683D01*
X00444169Y00186718D01*
X00436879Y00185245D02*
X00437362Y00186718D01*
X00461390Y00184762D02*
X00461873Y00185727D01*
X00460907Y00184280D02*
X00461390Y00184762D01*
X00459460Y00183797D02*
X00460907Y00184280D01*
X00455065Y00183797D02*
X00459460D01*
Y00189131D02*
X00460907Y00188648D01*
X00461390Y00188166D01*
X00455065Y00189131D02*
X00459460D01*
X00461390Y00188166D02*
X00461873Y00187201D01*
Y00185727D02*
Y00187201D01*
X00479348Y00178920D02*
X00480796Y00179428D01*
X00474954Y00178920D02*
X00479348D01*
X00471347Y00185245D02*
X00471829Y00186210D01*
X00470839Y00184762D02*
X00471347Y00185245D01*
X00469391Y00184280D02*
X00470839Y00184762D01*
X00481278Y00185245D02*
X00481761Y00186210D01*
X00480796Y00184762D02*
X00481278Y00185245D01*
X00479348Y00184280D02*
X00480796Y00184762D01*
X00479348Y00184280D02*
X00480796Y00183797D01*
X00481278Y00183314D01*
X00481761Y00182324D01*
X00474954Y00184280D02*
X00479348D01*
X00469391Y00189131D02*
X00470839Y00188648D01*
X00471347Y00188166D01*
X00479348Y00189131D02*
X00480796Y00188648D01*
X00481278Y00188166D01*
X00474954Y00189131D02*
X00479348D01*
X00471347Y00188166D02*
X00471829Y00187201D01*
Y00186210D02*
Y00187201D01*
X00481278Y00188166D02*
X00481761Y00187201D01*
Y00186210D02*
Y00187201D01*
X00499312Y00184864D02*
Y00186312D01*
X00498830Y00183899D02*
X00499312Y00184864D01*
X00498347Y00183391D02*
X00498830Y00183899D01*
X00496899Y00182908D02*
X00498347Y00183391D01*
X00492505Y00182908D02*
X00496899D01*
X00492505Y00188267D02*
X00496899D01*
X00498347Y00187785D02*
X00498830Y00187277D01*
X00499312Y00186312D01*
X00496899Y00188267D02*
X00498347Y00187785D01*
X00518235Y00178539D02*
X00518718Y00179022D01*
X00516787Y00178057D02*
X00518235Y00178539D01*
X00512393Y00178057D02*
X00516787D01*
X00509269Y00185346D02*
Y00186312D01*
X00508786Y00184381D02*
X00509269Y00185346D01*
X00508278Y00183899D02*
X00508786Y00184381D01*
X00519200Y00185346D02*
Y00186312D01*
X00518718Y00184381D02*
X00519200Y00185346D01*
X00518235Y00183899D02*
X00518718Y00184381D01*
X00518235Y00182908D02*
X00518718Y00182425D01*
X00519200Y00181460D01*
X00512393Y00183391D02*
X00516787D01*
X00518235Y00183899D01*
X00516787Y00183391D02*
X00518235Y00182908D01*
X00512393Y00188267D02*
X00516787D01*
X00508278Y00187785D02*
X00508786Y00187277D01*
X00509269Y00186312D01*
X00518235Y00187785D02*
X00518718Y00187277D01*
X00519200Y00186312D01*
X00516787Y00188267D02*
X00518235Y00187785D01*
X00419429Y00178920D02*
X00423315Y00189131D01*
X00415543D02*
X00419429Y00178920D01*
X00433272Y00180393D02*
X00433755Y00181359D01*
X00432282Y00179428D02*
X00433272Y00180393D01*
X00427430D02*
X00428395Y00179428D01*
X00426948Y00181359D02*
X00427430Y00180393D01*
X00443686D02*
X00444169Y00181359D01*
X00442721Y00179428D02*
X00443686Y00180393D01*
X00437870D02*
X00438835Y00179428D01*
X00437362Y00181359D02*
X00437870Y00180393D01*
X00455065Y00178920D02*
Y00189131D01*
X00468426Y00184280D02*
X00471829Y00178920D01*
X00481761Y00180876D02*
Y00182324D01*
X00481278Y00179911D02*
X00481761Y00180876D01*
X00480796Y00179428D02*
X00481278Y00179911D01*
X00474954Y00178920D02*
Y00189131D01*
X00492505Y00178057D02*
Y00188267D01*
X00502462Y00178057D02*
Y00188267D01*
X00519200Y00179987D02*
Y00181460D01*
X00518718Y00179022D02*
X00519200Y00179987D01*
X00512393Y00178057D02*
Y00188267D01*
X00506831Y00183391D02*
X00508278Y00183899D01*
X00506831Y00188267D02*
X00508278Y00187785D01*
X00465022Y00184280D02*
X00469391D01*
X00502462Y00183391D02*
X00506831D01*
X00465022Y00189131D02*
X00469391D01*
X00502462Y00188267D02*
X00506831D01*
X00505865Y00183391D02*
X00509269Y00178057D01*
X00465022Y00178920D02*
Y00189131D01*
X00451992Y00245697D02*
Y00255908D01*
Y00251056D02*
X00455878D01*
X00451992Y00255908D02*
X00458291D01*
X00451992Y00245697D02*
X00458291D01*
X00471372Y00249583D02*
X00471855Y00248135D01*
X00471372Y00249583D02*
Y00252021D01*
X00471855Y00253495D01*
X00472363Y00254460D01*
X00471855Y00248135D02*
X00472363Y00247170D01*
X00476249Y00255908D02*
X00477214Y00255425D01*
X00478179Y00254460D01*
X00478662Y00253495D01*
X00479145Y00252021D01*
Y00249583D02*
Y00252021D01*
X00478662Y00248135D02*
X00479145Y00249583D01*
X00478179Y00247170D02*
X00478662Y00248135D01*
X00477214Y00246205D02*
X00478179Y00247170D01*
X00476249Y00245697D02*
X00477214Y00246205D01*
X00474293Y00255908D02*
X00476249D01*
X00472363Y00254460D02*
X00473328Y00255425D01*
X00474293Y00255908D01*
Y00245697D02*
X00476249D01*
X00473328Y00246205D02*
X00474293Y00245697D01*
X00472363Y00247170D02*
X00473328Y00246205D01*
X00461441Y00255908D02*
X00468248D01*
X00461441Y00245697D02*
X00468248D01*
X00461441D02*
X00468248Y00255908D01*
X00420800Y00306377D02*
X00421765Y00305412D01*
X00420292Y00307368D02*
X00420800Y00306377D01*
X00419809Y00308816D02*
X00420292Y00307368D01*
X00419809Y00308816D02*
Y00311254D01*
X00420292Y00312702D01*
X00420800Y00313667D01*
X00421765Y00314658D01*
Y00305412D02*
X00422730Y00304930D01*
X00421765Y00314658D02*
X00422730Y00315140D01*
X00427099Y00307368D02*
Y00308816D01*
X00426617Y00306377D02*
X00427099Y00307368D01*
X00425652Y00305412D02*
X00426617Y00306377D01*
X00430249Y00304930D02*
Y00315140D01*
X00425652Y00314658D02*
X00426617Y00313667D01*
X00427099Y00312702D01*
X00440180Y00304930D02*
Y00315140D01*
X00437056Y00304930D02*
Y00315140D01*
X00430249D02*
X00437056Y00304930D01*
X00440180D02*
X00443584D01*
X00440180Y00315140D02*
X00443584D01*
X00446987Y00308816D02*
Y00311254D01*
X00446505Y00307368D02*
X00446987Y00308816D01*
X00446022Y00306377D02*
X00446505Y00307368D01*
X00455293Y00306555D02*
X00456284Y00305590D01*
X00459688Y00305107D02*
X00461135Y00305590D01*
X00462100Y00306555D01*
Y00308028D01*
X00461618Y00308994D02*
X00462100Y00308028D01*
X00461135Y00309476D02*
X00461618Y00308994D01*
X00460170Y00309959D02*
X00461135Y00309476D01*
X00456284Y00305590D02*
X00457732Y00305107D01*
X00459688D01*
X00456284Y00311432D02*
X00457249Y00310949D01*
X00455801Y00311915D02*
X00456284Y00311432D01*
X00457249Y00310949D02*
X00460170Y00309959D01*
X00459688Y00315318D02*
X00461135Y00314836D01*
X00456284D02*
X00457732Y00315318D01*
X00459688D01*
X00446022Y00313667D02*
X00446505Y00312702D01*
X00446987Y00311254D01*
X00455293Y00312880D02*
X00455801Y00311915D01*
X00455293Y00312880D02*
Y00313845D01*
X00456284Y00314836D01*
X00461135D02*
X00462100Y00313845D01*
X00471575Y00307546D02*
X00472057Y00308994D01*
X00471092Y00306555D02*
X00471575Y00307546D01*
X00470102Y00305590D02*
X00471092Y00306555D01*
X00468654Y00305107D02*
X00470102Y00305590D01*
X00476655Y00308511D02*
X00481506D01*
X00472057Y00308994D02*
Y00311432D01*
X00468654Y00315318D02*
X00470102Y00314836D01*
X00471092Y00313845D01*
X00471575Y00312880D01*
X00472057Y00311432D01*
X00475182Y00305107D02*
X00479068Y00315318D01*
X00482979Y00305107D01*
X00495019Y00304930D02*
X00496949D01*
X00498423Y00305412D01*
X00497432Y00309781D02*
X00498423Y00309298D01*
X00492580Y00306377D02*
X00493571Y00305412D01*
X00495019Y00304930D01*
X00494536Y00310772D02*
X00497432Y00309781D01*
X00493571Y00311254D02*
X00494536Y00310772D01*
X00493063Y00311737D02*
X00493571Y00311254D01*
X00495019Y00315140D02*
X00496949D01*
X00498423Y00314658D01*
X00493571D02*
X00495019Y00315140D01*
X00492580Y00312702D02*
X00493063Y00311737D01*
X00492580Y00312702D02*
Y00313667D01*
X00493571Y00314658D01*
X00498423Y00305412D02*
X00499388Y00306377D01*
Y00307851D01*
X00498905Y00308816D02*
X00499388Y00307851D01*
X00498423Y00309298D02*
X00498905Y00308816D01*
X00498423Y00314658D02*
X00499388Y00313667D01*
X00503503Y00306377D02*
X00504468Y00305412D01*
X00503020Y00307368D02*
X00503503Y00306377D01*
X00502537Y00308816D02*
X00503020Y00307368D01*
X00502537Y00308816D02*
Y00311254D01*
X00503020Y00312702D02*
X00503503Y00313667D01*
X00504468Y00314658D01*
X00502537Y00311254D02*
X00503020Y00312702D01*
X00509319Y00306377D02*
X00509802Y00307368D01*
X00508354Y00305412D02*
X00509319Y00306377D01*
X00507389Y00304930D02*
X00508354Y00305412D01*
X00507389Y00315140D02*
X00508354Y00314658D01*
X00509319Y00313667D01*
X00509802Y00312702D01*
X00512951Y00304930D02*
Y00315140D01*
Y00304930D02*
X00518768D01*
X00424686Y00308816D02*
X00427099D01*
X00424686Y00304930D02*
X00425652Y00305412D01*
X00424686Y00315140D02*
X00425652Y00314658D01*
X00422730Y00304930D02*
X00424686D01*
X00422730Y00315140D02*
X00424686D01*
X00445057Y00305412D02*
X00446022Y00306377D01*
X00465250Y00305107D02*
X00468654D01*
X00465250Y00315318D02*
X00468654D01*
X00445057Y00314658D02*
X00446022Y00313667D01*
X00465250Y00305107D02*
Y00315318D01*
X00443584Y00304930D02*
X00445057Y00305412D01*
X00443584Y00315140D02*
X00445057Y00314658D01*
X00505433Y00304930D02*
X00507389D01*
X00504468Y00305412D02*
X00505433Y00304930D01*
X00504468Y00314658D02*
X00505433Y00315140D01*
X00507389D01*
X00658473D02*
X00660429D01*
X00657508Y00314658D02*
X00658473Y00315140D01*
X00657508Y00305412D02*
X00658473Y00304930D01*
X00660429D01*
X00596624Y00315140D02*
X00598097Y00314658D01*
X00596624Y00304930D02*
X00598097Y00305412D01*
X00618290Y00305107D02*
Y00315318D01*
X00598097Y00314658D02*
X00599062Y00313667D01*
X00618290Y00315318D02*
X00621694D01*
X00618290Y00305107D02*
X00621694D01*
X00598097Y00305412D02*
X00599062Y00306377D01*
X00575771Y00315140D02*
X00577726D01*
X00575771Y00304930D02*
X00577726D01*
Y00315140D02*
X00578692Y00314658D01*
X00577726Y00304930D02*
X00578692Y00305412D01*
X00577726Y00308816D02*
X00580139D01*
X00665991Y00304930D02*
X00671808D01*
X00665991D02*
Y00315140D01*
X00662359Y00313667D02*
X00662842Y00312702D01*
X00661394Y00314658D02*
X00662359Y00313667D01*
X00660429Y00315140D02*
X00661394Y00314658D01*
X00660429Y00304930D02*
X00661394Y00305412D01*
X00662359Y00306377D01*
X00662842Y00307368D01*
X00655577Y00311254D02*
X00656060Y00312702D01*
X00656543Y00313667D02*
X00657508Y00314658D01*
X00656060Y00312702D02*
X00656543Y00313667D01*
X00655577Y00308816D02*
Y00311254D01*
Y00308816D02*
X00656060Y00307368D01*
X00656543Y00306377D01*
X00657508Y00305412D01*
X00651463Y00314658D02*
X00652428Y00313667D01*
X00651463Y00309298D02*
X00651945Y00308816D01*
X00652428Y00307851D01*
Y00306377D02*
Y00307851D01*
X00651463Y00305412D02*
X00652428Y00306377D01*
X00645621Y00313667D02*
X00646611Y00314658D01*
X00645621Y00312702D02*
Y00313667D01*
Y00312702D02*
X00646103Y00311737D01*
X00646611Y00314658D02*
X00648059Y00315140D01*
X00649989D02*
X00651463Y00314658D01*
X00648059Y00315140D02*
X00649989D01*
X00646103Y00311737D02*
X00646611Y00311254D01*
X00647576Y00310772D01*
X00650472Y00309781D01*
X00646611Y00305412D02*
X00648059Y00304930D01*
X00645621Y00306377D02*
X00646611Y00305412D01*
X00650472Y00309781D02*
X00651463Y00309298D01*
X00649989Y00304930D02*
X00651463Y00305412D01*
X00648059Y00304930D02*
X00649989D01*
X00632108Y00315318D02*
X00636019Y00305107D01*
X00628222D02*
X00632108Y00315318D01*
X00624615Y00312880D02*
X00625097Y00311432D01*
X00624132Y00313845D02*
X00624615Y00312880D01*
X00623142Y00314836D02*
X00624132Y00313845D01*
X00621694Y00315318D02*
X00623142Y00314836D01*
X00625097Y00308994D02*
Y00311432D01*
X00629695Y00308511D02*
X00634546D01*
X00621694Y00305107D02*
X00623142Y00305590D01*
X00624132Y00306555D01*
X00624615Y00307546D01*
X00625097Y00308994D01*
X00614175Y00314836D02*
X00615141Y00313845D01*
X00608333D02*
X00609324Y00314836D01*
X00608333Y00312880D02*
Y00313845D01*
Y00312880D02*
X00608841Y00311915D01*
X00599545Y00312702D02*
X00600028Y00311254D01*
X00599062Y00313667D02*
X00599545Y00312702D01*
X00610772Y00315318D02*
X00612728D01*
X00609324Y00314836D02*
X00610772Y00315318D01*
X00612728D02*
X00614175Y00314836D01*
X00610289Y00310949D02*
X00613210Y00309959D01*
X00608841Y00311915D02*
X00609324Y00311432D01*
X00610289Y00310949D01*
X00610772Y00305107D02*
X00612728D01*
X00609324Y00305590D02*
X00610772Y00305107D01*
X00613210Y00309959D02*
X00614175Y00309476D01*
X00614658Y00308994D01*
X00615141Y00308028D01*
Y00306555D02*
Y00308028D01*
X00614175Y00305590D02*
X00615141Y00306555D01*
X00612728Y00305107D02*
X00614175Y00305590D01*
X00608333Y00306555D02*
X00609324Y00305590D01*
X00599062Y00306377D02*
X00599545Y00307368D01*
X00600028Y00308816D01*
Y00311254D01*
X00593220Y00315140D02*
X00596624D01*
X00593220Y00304930D02*
X00596624D01*
X00583289Y00315140D02*
X00590096Y00304930D01*
Y00315140D01*
X00593220Y00304930D02*
Y00315140D01*
X00579657Y00313667D02*
X00580139Y00312702D01*
X00578692Y00314658D02*
X00579657Y00313667D01*
X00583289Y00304930D02*
Y00315140D01*
X00578692Y00305412D02*
X00579657Y00306377D01*
X00580139Y00307368D01*
Y00308816D01*
X00574805Y00314658D02*
X00575771Y00315140D01*
X00574805Y00305412D02*
X00575771Y00304930D01*
X00573840Y00313667D02*
X00574805Y00314658D01*
X00573332Y00312702D02*
X00573840Y00313667D01*
X00572850Y00311254D02*
X00573332Y00312702D01*
X00572850Y00308816D02*
Y00311254D01*
Y00308816D02*
X00573332Y00307368D01*
X00573840Y00306377D01*
X00574805Y00305412D01*
X00614481Y00245697D02*
X00621288Y00255908D01*
X00614481Y00245697D02*
X00621288D01*
X00614481Y00255908D02*
X00621288D01*
X00625403Y00247170D02*
X00626368Y00246205D01*
X00627333Y00245697D01*
X00629289D01*
X00626368Y00255425D02*
X00627333Y00255908D01*
X00625403Y00254460D02*
X00626368Y00255425D01*
X00627333Y00255908D02*
X00629289D01*
Y00245697D02*
X00630254Y00246205D01*
X00631219Y00247170D01*
X00631702Y00248135D01*
X00632185Y00249583D01*
Y00252021D01*
X00631702Y00253495D02*
X00632185Y00252021D01*
X00631219Y00254460D02*
X00631702Y00253495D01*
X00630254Y00255425D02*
X00631219Y00254460D01*
X00629289Y00255908D02*
X00630254Y00255425D01*
X00624895Y00248135D02*
X00625403Y00247170D01*
X00624895Y00253495D02*
X00625403Y00254460D01*
X00624412Y00252021D02*
X00624895Y00253495D01*
X00624412Y00249583D02*
Y00252021D01*
Y00249583D02*
X00624895Y00248135D01*
X00605032Y00245697D02*
X00611331D01*
X00605032Y00255908D02*
X00611331D01*
X00605032Y00251056D02*
X00608918D01*
X00605032Y00245697D02*
Y00255908D01*
X00618062Y00178920D02*
Y00189131D01*
X00658905Y00183391D02*
X00662309Y00178057D01*
X00655502Y00188267D02*
X00659871D01*
X00618062Y00189131D02*
X00622431D01*
X00655502Y00183391D02*
X00659871D01*
X00618062Y00184280D02*
X00622431D01*
X00659871Y00188267D02*
X00661318Y00187785D01*
X00659871Y00183391D02*
X00661318Y00183899D01*
X00665433Y00178057D02*
Y00188267D01*
X00671758Y00179022D02*
X00672240Y00179987D01*
Y00181460D01*
X00655502Y00178057D02*
Y00188267D01*
X00645545Y00178057D02*
Y00188267D01*
X00627994Y00178920D02*
Y00189131D01*
X00633836Y00179428D02*
X00634318Y00179911D01*
X00634801Y00180876D01*
Y00182324D01*
X00621466Y00184280D02*
X00624869Y00178920D01*
X00608105D02*
Y00189131D01*
X00590402Y00181359D02*
X00590910Y00180393D01*
X00591875Y00179428D01*
X00595761D02*
X00596726Y00180393D01*
X00597209Y00181359D01*
X00579988D02*
X00580470Y00180393D01*
X00581435Y00179428D01*
X00585322D02*
X00586312Y00180393D01*
X00586795Y00181359D01*
X00568583Y00189131D02*
X00572469Y00178920D01*
X00576355Y00189131D01*
X00669827Y00188267D02*
X00671275Y00187785D01*
X00671758Y00187277D02*
X00672240Y00186312D01*
X00671275Y00187785D02*
X00671758Y00187277D01*
X00661826D02*
X00662309Y00186312D01*
X00661318Y00187785D02*
X00661826Y00187277D01*
X00665433Y00188267D02*
X00669827D01*
Y00183391D02*
X00671275Y00182908D01*
X00669827Y00183391D02*
X00671275Y00183899D01*
X00665433Y00183391D02*
X00669827D01*
X00671758Y00182425D02*
X00672240Y00181460D01*
X00671275Y00182908D02*
X00671758Y00182425D01*
X00671275Y00183899D02*
X00671758Y00184381D01*
X00672240Y00185346D01*
Y00186312D01*
X00661318Y00183899D02*
X00661826Y00184381D01*
X00662309Y00185346D01*
Y00186312D01*
X00665433Y00178057D02*
X00669827D01*
X00671275Y00178539D01*
X00671758Y00179022D01*
X00649939Y00188267D02*
X00651387Y00187785D01*
X00651870Y00187277D02*
X00652352Y00186312D01*
X00651387Y00187785D02*
X00651870Y00187277D01*
X00645545Y00188267D02*
X00649939D01*
X00645545Y00182908D02*
X00649939D01*
X00651387Y00183391D01*
X00651870Y00183899D01*
X00652352Y00184864D01*
Y00186312D01*
X00634801Y00186210D02*
Y00187201D01*
X00634318Y00188166D02*
X00634801Y00187201D01*
X00624869Y00186210D02*
Y00187201D01*
X00624387Y00188166D02*
X00624869Y00187201D01*
X00627994Y00189131D02*
X00632388D01*
X00633836Y00188648D02*
X00634318Y00188166D01*
X00632388Y00189131D02*
X00633836Y00188648D01*
X00623879D02*
X00624387Y00188166D01*
X00622431Y00189131D02*
X00623879Y00188648D01*
X00627994Y00184280D02*
X00632388D01*
X00634318Y00183314D02*
X00634801Y00182324D01*
X00633836Y00183797D02*
X00634318Y00183314D01*
X00632388Y00184280D02*
X00633836Y00183797D01*
X00632388Y00184280D02*
X00633836Y00184762D01*
X00634318Y00185245D01*
X00634801Y00186210D01*
X00622431Y00184280D02*
X00623879Y00184762D01*
X00624387Y00185245D01*
X00624869Y00186210D01*
X00627994Y00178920D02*
X00632388D01*
X00633836Y00179428D01*
X00614913Y00185727D02*
Y00187201D01*
X00614430Y00188166D02*
X00614913Y00187201D01*
X00608105Y00189131D02*
X00612500D01*
X00613947Y00188648D02*
X00614430Y00188166D01*
X00612500Y00189131D02*
X00613947Y00188648D01*
X00608105Y00183797D02*
X00612500D01*
X00613947Y00184280D01*
X00614430Y00184762D01*
X00614913Y00185727D01*
X00589919Y00185245D02*
X00590402Y00186718D01*
X00596726Y00187683D02*
X00597209Y00186718D01*
X00595761Y00188648D02*
X00596726Y00187683D01*
X00590910D02*
X00591875Y00188648D01*
X00590402Y00186718D02*
X00590910Y00187683D01*
X00586312D02*
X00586795Y00186718D01*
X00585322Y00188648D02*
X00586312Y00187683D01*
X00580470D02*
X00581435Y00188648D01*
X00579988Y00186718D02*
X00580470Y00187683D01*
X00579505Y00185245D02*
X00579988Y00186718D01*
X00594796Y00189131D02*
X00595761Y00188648D01*
X00592840Y00189131D02*
X00594796D01*
X00591875Y00188648D02*
X00592840Y00189131D01*
X00584356D02*
X00585322Y00188648D01*
X00582426Y00189131D02*
X00584356D01*
X00581435Y00188648D02*
X00582426Y00189131D01*
X00589919Y00182806D02*
Y00185245D01*
Y00182806D02*
X00590402Y00181359D01*
X00579505Y00182806D02*
Y00185245D01*
Y00182806D02*
X00579988Y00181359D01*
X00591875Y00179428D02*
X00592840Y00178920D01*
X00594796D01*
X00595761Y00179428D01*
X00581435D02*
X00582426Y00178920D01*
X00584356D01*
X00585322Y00179428D01*
D22*
X00024712Y00520016D02*
X00023019Y00518324D01*
Y00514938D01*
X00024712Y00513245D01*
X00026405D01*
X00028098Y00514938D01*
Y00518324D01*
X00029790Y00520016D01*
X00031483D01*
X00033176Y00518324D01*
Y00514938D01*
X00031483Y00513245D01*
X00033176Y00528480D02*
Y00525095D01*
X00031483Y00523402D01*
X00028098D01*
X00026405Y00525095D01*
Y00528480D01*
X00028098Y00530173D01*
X00029790D01*
Y00523402D01*
X00033176Y00533559D02*
X00026405D01*
Y00538637D01*
X00028098Y00540330D01*
X00033176D01*
Y00543715D02*
Y00548794D01*
X00031483Y00550487D01*
X00029790Y00548794D01*
Y00545408D01*
X00028098Y00543715D01*
X00026405Y00545408D01*
Y00550487D01*
X00033176Y00555565D02*
Y00558951D01*
X00031483Y00560643D01*
X00028098D01*
X00026405Y00558951D01*
Y00555565D01*
X00028098Y00553872D01*
X00031483D01*
X00033176Y00555565D01*
X00026405Y00564029D02*
X00033176D01*
X00029790D01*
X00028098Y00565722D01*
X00026405Y00567415D01*
Y00569107D01*
X00023019Y00584342D02*
X00033176D01*
Y00589421D01*
X00031483Y00591114D01*
X00029790D01*
X00028098Y00589421D01*
Y00584342D01*
Y00589421D01*
X00026405Y00591114D01*
X00024712D01*
X00023019Y00589421D01*
Y00584342D01*
X00033176Y00596192D02*
Y00599577D01*
X00031483Y00601270D01*
X00028098D01*
X00026405Y00599577D01*
Y00596192D01*
X00028098Y00594499D01*
X00031483D01*
X00033176Y00596192D01*
X00026405Y00606349D02*
Y00609734D01*
X00028098Y00611427D01*
X00033176D01*
Y00606349D01*
X00031483Y00604656D01*
X00029790Y00606349D01*
Y00611427D01*
X00026405Y00614813D02*
X00033176D01*
X00029790D01*
X00028098Y00616505D01*
X00026405Y00618198D01*
Y00619891D01*
X00023019Y00631740D02*
X00033176D01*
Y00626662D01*
X00031483Y00624969D01*
X00028098D01*
X00026405Y00626662D01*
Y00631740D01*
X00044689Y00599577D02*
X00051460Y00602963D01*
X00044689Y00606348D01*
X00042996Y00609734D02*
X00041303Y00611427D01*
Y00614813D01*
X00042996Y00616505D01*
X00049767D01*
X00051460Y00614813D01*
Y00611427D01*
X00049767Y00609734D01*
X00042996D01*
X00051460Y00619891D02*
X00049767D01*
Y00621584D01*
X00051460D01*
Y00619891D01*
Y00628355D02*
Y00631740D01*
Y00630048D01*
X00041303D01*
X00042996Y00628355D01*
X00736157Y00008000D02*
X00726000D01*
X00736157Y00018157D01*
Y00020696D01*
X00733617Y00023235D01*
X00728539D01*
X00726000Y00020696D01*
X00614074Y00008000D02*
X00619153D01*
X00616614D01*
Y00023235D01*
X00614074Y00020696D01*
X00755618Y00700696D02*
Y00688000D01*
Y00694348D01*
X00757734Y00696464D01*
X00761965D01*
X00764081Y00694348D01*
Y00688000D01*
X00770429Y00698580D02*
Y00696464D01*
X00768314D01*
X00772545D01*
X00770429D01*
Y00690116D01*
X00772545Y00688000D01*
X00781009Y00698580D02*
Y00696464D01*
X00778893D01*
X00783125D01*
X00781009D01*
Y00690116D01*
X00783125Y00688000D01*
X00789473Y00683768D02*
Y00696464D01*
X00795821D01*
X00797937Y00694348D01*
Y00690116D01*
X00795821Y00688000D01*
X00789473D01*
X00802169D02*
X00808517D01*
X00810633Y00690116D01*
X00808517Y00692232D01*
X00804285D01*
X00802169Y00694348D01*
X00804285Y00696464D01*
X00810633D01*
X00814865D02*
X00816981D01*
Y00694348D01*
X00814865D01*
Y00696464D01*
Y00690116D02*
X00816981D01*
Y00688000D01*
X00814865D01*
Y00690116D01*
X00825445Y00688000D02*
X00833909Y00696464D01*
X00838141Y00688000D02*
X00846605Y00696464D01*
X00850837Y00688000D02*
X00855069D01*
X00852953D01*
Y00700696D01*
X00850837D01*
X00867765Y00688000D02*
X00863533D01*
X00861417Y00690116D01*
Y00694348D01*
X00863533Y00696464D01*
X00867765D01*
X00869881Y00694348D01*
Y00692232D01*
X00861417D01*
X00876228Y00696464D02*
X00880461D01*
X00882577Y00694348D01*
Y00688000D01*
X00876228D01*
X00874113Y00690116D01*
X00876228Y00692232D01*
X00882577D01*
X00888924Y00688000D02*
Y00698580D01*
Y00694348D01*
X00886808D01*
X00891040D01*
X00888924D01*
Y00698580D01*
X00891040Y00700696D01*
X00897388Y00688000D02*
Y00690116D01*
X00899504D01*
Y00688000D01*
X00897388D01*
X00910084Y00696464D02*
X00914316D01*
X00916432Y00694348D01*
Y00688000D01*
X00910084D01*
X00907968Y00690116D01*
X00910084Y00692232D01*
X00916432D01*
X00920664Y00688000D02*
X00924896D01*
X00922780D01*
Y00696464D01*
X00920664D01*
D23*
X00683000Y00011000D02*
Y00019887D01*
X00687444D01*
X00688925Y00018406D01*
Y00015444D01*
X00687444Y00013962D01*
X00683000D01*
X00691887Y00011000D02*
Y00019887D01*
X00696331D01*
X00697812Y00018406D01*
Y00015444D01*
X00696331Y00013962D01*
X00691887D01*
X00694849D02*
X00697812Y00011000D01*
X00700774Y00019887D02*
Y00011000D01*
X00705218D01*
X00706699Y00012481D01*
Y00013962D01*
X00705218Y00015444D01*
X00700774D01*
X00705218D01*
X00706699Y00016925D01*
Y00018406D01*
X00705218Y00019887D01*
X00700774D01*
X00709661Y00015444D02*
X00715586D01*
X00712624Y00018406D02*
Y00012481D01*
X00749000Y00011000D02*
Y00019887D01*
X00753444D01*
X00754925Y00018406D01*
Y00015444D01*
X00753444Y00013962D01*
X00749000D01*
X00757887Y00011000D02*
Y00019887D01*
X00762331D01*
X00763812Y00018406D01*
Y00015444D01*
X00762331Y00013962D01*
X00757887D01*
X00760850D02*
X00763812Y00011000D01*
X00766774Y00019887D02*
Y00011000D01*
X00771218D01*
X00772699Y00012481D01*
Y00013962D01*
X00771218Y00015444D01*
X00766774D01*
X00771218D01*
X00772699Y00016925D01*
Y00018406D01*
X00771218Y00019887D01*
X00766774D01*
X00775661Y00015444D02*
X00781586D01*
X00631702Y00011000D02*
Y00019887D01*
X00636146D01*
X00637627Y00018406D01*
Y00015444D01*
X00636146Y00013962D01*
X00631702D01*
X00640589Y00011000D02*
Y00019887D01*
X00645033D01*
X00646514Y00018406D01*
Y00015444D01*
X00645033Y00013962D01*
X00640589D01*
X00643551D02*
X00646514Y00011000D01*
X00649476Y00019887D02*
Y00011000D01*
X00653920D01*
X00655401Y00012481D01*
Y00013962D01*
X00653920Y00015444D01*
X00649476D01*
X00653920D01*
X00655401Y00016925D01*
Y00018406D01*
X00653920Y00019887D01*
X00649476D01*
X00658363Y00015444D02*
X00664288D01*
X00439800D02*
X00445725D01*
X00442762Y00018406D02*
Y00012481D01*
X00448687Y00011000D02*
X00451650D01*
X00450168D01*
Y00019887D01*
X00448687Y00018406D01*
X00462018Y00019887D02*
X00459055Y00018406D01*
X00456093Y00015444D01*
Y00012481D01*
X00457574Y00011000D01*
X00460537D01*
X00462018Y00012481D01*
Y00013962D01*
X00460537Y00015444D01*
X00456093D01*
X00464980Y00019887D02*
Y00013962D01*
X00467943Y00011000D01*
X00470905Y00013962D01*
Y00019887D01*
X00328000Y00015444D02*
X00333925D01*
X00330962Y00018406D02*
Y00012481D01*
X00336887Y00011000D02*
X00339850D01*
X00338368D01*
Y00019887D01*
X00336887Y00018406D01*
X00350218Y00019887D02*
X00347255Y00018406D01*
X00344293Y00015444D01*
Y00012481D01*
X00345774Y00011000D01*
X00348737D01*
X00350218Y00012481D01*
Y00013962D01*
X00348737Y00015444D01*
X00344293D01*
X00353180Y00019887D02*
Y00013962D01*
X00356143Y00011000D01*
X00359105Y00013962D01*
Y00019887D01*
X00573000Y00011000D02*
Y00019887D01*
X00577444D01*
X00578925Y00018406D01*
Y00015444D01*
X00577444Y00013962D01*
X00573000D01*
X00581887Y00011000D02*
Y00019887D01*
X00586331D01*
X00587812Y00018406D01*
Y00015444D01*
X00586331Y00013962D01*
X00581887D01*
X00584850D02*
X00587812Y00011000D01*
X00590774Y00019887D02*
Y00011000D01*
X00595218D01*
X00596699Y00012481D01*
Y00013962D01*
X00595218Y00015444D01*
X00590774D01*
X00595218D01*
X00596699Y00016925D01*
Y00018406D01*
X00595218Y00019887D01*
X00590774D01*
X00599661Y00015444D02*
X00605586D01*
X00602624Y00018406D02*
Y00012481D01*
X00840000Y00011000D02*
Y00019887D01*
X00844444D01*
X00845925Y00018406D01*
Y00015444D01*
X00844444Y00013962D01*
X00840000D01*
X00853331Y00019887D02*
X00850368D01*
X00848887Y00018406D01*
Y00012481D01*
X00850368Y00011000D01*
X00853331D01*
X00854812Y00012481D01*
Y00018406D01*
X00853331Y00019887D01*
X00857774D02*
Y00011000D01*
X00860737Y00013962D01*
X00863699Y00011000D01*
Y00019887D01*
X00872586D02*
X00866661D01*
Y00011000D01*
X00872586D01*
X00866661Y00015444D02*
X00869624D01*
X00875548Y00011000D02*
Y00019887D01*
X00879992D01*
X00881473Y00018406D01*
Y00015444D01*
X00879992Y00013962D01*
X00875548D01*
X00878511D02*
X00881473Y00011000D01*
X00893323Y00019887D02*
X00896285D01*
X00894804D01*
Y00011000D01*
X00893323D01*
X00896285D01*
X00900729D02*
Y00019887D01*
X00906654Y00011000D01*
Y00019887D01*
X00393925Y00018406D02*
X00392444Y00019887D01*
X00389481D01*
X00388000Y00018406D01*
Y00012481D01*
X00389481Y00011000D01*
X00392444D01*
X00393925Y00012481D01*
Y00015444D01*
X00390962D01*
X00396887Y00011000D02*
Y00019887D01*
X00402812Y00011000D01*
Y00019887D01*
X00405774D02*
Y00011000D01*
X00410218D01*
X00411699Y00012481D01*
Y00018406D01*
X00410218Y00019887D01*
X00405774D01*
X00509925Y00018406D02*
X00508444Y00019887D01*
X00505481D01*
X00504000Y00018406D01*
Y00012481D01*
X00505481Y00011000D01*
X00508444D01*
X00509925Y00012481D01*
Y00015444D01*
X00506962D01*
X00512887Y00011000D02*
Y00019887D01*
X00518812Y00011000D01*
Y00019887D01*
X00521774D02*
Y00011000D01*
X00526218D01*
X00527699Y00012481D01*
Y00018406D01*
X00526218Y00019887D01*
X00521774D01*
X00263925Y00018406D02*
X00262444Y00019887D01*
X00259481D01*
X00258000Y00018406D01*
Y00012481D01*
X00259481Y00011000D01*
X00262444D01*
X00263925Y00012481D01*
Y00015444D01*
X00260962D01*
X00266887Y00011000D02*
Y00019887D01*
X00272812Y00011000D01*
Y00019887D01*
X00275774D02*
Y00011000D01*
X00280218D01*
X00281699Y00012481D01*
Y00018406D01*
X00280218Y00019887D01*
X00275774D01*
X00213000D02*
Y00011000D01*
X00217444D01*
X00218925Y00012481D01*
Y00018406D01*
X00217444Y00019887D01*
X00213000D01*
X00221887Y00018406D02*
X00223368Y00019887D01*
X00226331D01*
X00227812Y00018406D01*
Y00016925D01*
X00226331Y00015444D01*
X00227812Y00013962D01*
Y00012481D01*
X00226331Y00011000D01*
X00223368D01*
X00221887Y00012481D01*
Y00013962D01*
X00223368Y00015444D01*
X00221887Y00016925D01*
Y00018406D01*
X00223368Y00015444D02*
X00226331D01*
X00162000Y00011000D02*
Y00016925D01*
X00164962Y00019887D01*
X00167925Y00016925D01*
Y00011000D01*
Y00015444D01*
X00162000D01*
X00170887Y00011000D02*
X00173850D01*
X00172368D01*
Y00019887D01*
X00170887Y00018406D01*
X00108000Y00011000D02*
Y00016925D01*
X00110962Y00019887D01*
X00113925Y00016925D01*
Y00011000D01*
Y00015444D01*
X00108000D01*
X00116887Y00018406D02*
X00118368Y00019887D01*
X00121331D01*
X00122812Y00018406D01*
Y00012481D01*
X00121331Y00011000D01*
X00118368D01*
X00116887Y00012481D01*
Y00018406D01*
X00041000Y00015444D02*
X00046925D01*
X00043962Y00018406D02*
Y00012481D01*
X00049887Y00018406D02*
X00051368Y00019887D01*
X00054331D01*
X00055812Y00018406D01*
Y00016925D01*
X00054331Y00015444D01*
X00052849D01*
X00054331D01*
X00055812Y00013962D01*
Y00012481D01*
X00054331Y00011000D01*
X00051368D01*
X00049887Y00012481D01*
X00058774Y00011000D02*
Y00012481D01*
X00060255D01*
Y00011000D01*
X00058774D01*
X00066180Y00018406D02*
X00067661Y00019887D01*
X00070624D01*
X00072105Y00018406D01*
Y00016925D01*
X00070624Y00015444D01*
X00069143D01*
X00070624D01*
X00072105Y00013962D01*
Y00012481D01*
X00070624Y00011000D01*
X00067661D01*
X00066180Y00012481D01*
X00075067Y00019887D02*
Y00013962D01*
X00078030Y00011000D01*
X00080992Y00013962D01*
Y00019887D01*
X00833680Y00303637D02*
Y00309985D01*
X00832410Y00311254D01*
X00829871D01*
X00828602Y00309985D01*
Y00303637D01*
X00826062Y00304906D02*
X00824793Y00303637D01*
X00822253D01*
X00820984Y00304906D01*
Y00306176D01*
X00822253Y00307445D01*
X00820984Y00308715D01*
Y00309985D01*
X00822253Y00311254D01*
X00824793D01*
X00826062Y00309985D01*
Y00308715D01*
X00824793Y00307445D01*
X00826062Y00306176D01*
Y00304906D01*
X00824793Y00307445D02*
X00822253D01*
X00116128Y00507918D02*
X00113589D01*
X00114859D01*
Y00501570D01*
X00113589Y00500300D01*
X00112319D01*
X00111050Y00501570D01*
X00118667Y00500300D02*
X00121207D01*
X00119937D01*
Y00507918D01*
X00118667Y00506648D01*
X00125015Y00507918D02*
X00130094D01*
Y00506648D01*
X00125015Y00501570D01*
Y00500300D01*
X00719380Y00909240D02*
X00726997D01*
X00724458Y00906701D01*
X00726997Y00904162D01*
X00719380D01*
Y00901622D02*
Y00899083D01*
Y00900353D01*
X00726997D01*
X00725728Y00901622D01*
X00742240Y00697150D02*
X00734622D01*
Y00700959D01*
X00735892Y00702228D01*
X00738431D01*
X00739701Y00700959D01*
Y00697150D01*
Y00699689D02*
X00742240Y00702228D01*
X00735892Y00704768D02*
X00734622Y00706037D01*
Y00708576D01*
X00735892Y00709846D01*
X00737161D01*
X00738431Y00708576D01*
Y00707307D01*
Y00708576D01*
X00739701Y00709846D01*
X00740970D01*
X00742240Y00708576D01*
Y00706037D01*
X00740970Y00704768D01*
X00735892Y00712385D02*
X00734622Y00713655D01*
Y00716194D01*
X00735892Y00717463D01*
X00737161D01*
X00738431Y00716194D01*
X00739701Y00717463D01*
X00740970D01*
X00742240Y00716194D01*
Y00713655D01*
X00740970Y00712385D01*
X00739701D01*
X00738431Y00713655D01*
X00737161Y00712385D01*
X00735892D01*
X00738431Y00713655D02*
Y00716194D01*
X00739698Y00676828D02*
X00738429Y00678098D01*
X00735890D01*
X00734620Y00676828D01*
Y00675558D01*
X00735890Y00674289D01*
X00738429D01*
X00739698Y00673019D01*
Y00671750D01*
X00738429Y00670480D01*
X00735890D01*
X00734620Y00671750D01*
X00742237Y00670480D02*
X00744777D01*
X00743507D01*
Y00678098D01*
X00742237Y00676828D01*
X00620322Y00655238D02*
Y00652699D01*
Y00653969D01*
X00626670D01*
X00627940Y00652699D01*
Y00651430D01*
X00626670Y00650160D01*
X00627940Y00657777D02*
Y00660317D01*
Y00659047D01*
X00620322D01*
X00621592Y00657777D01*
X00627940Y00667934D02*
X00620322D01*
X00624131Y00664126D01*
Y00669204D01*
X00522528Y00629837D02*
X00519989D01*
X00521259D01*
Y00623490D01*
X00519989Y00622220D01*
X00518719D01*
X00517450Y00623490D01*
X00525067Y00622220D02*
X00527607D01*
X00526337D01*
Y00629837D01*
X00525067Y00628568D01*
X00531415Y00622220D02*
X00533955D01*
X00532685D01*
Y00629837D01*
X00531415Y00628568D01*
X00207568Y00667937D02*
X00205029D01*
X00206299D01*
Y00661590D01*
X00205029Y00660320D01*
X00203759D01*
X00202490Y00661590D01*
X00210107Y00660320D02*
X00212647D01*
X00211377D01*
Y00667937D01*
X00210107Y00666668D01*
X00221534Y00667937D02*
X00216455D01*
Y00664129D01*
X00218995Y00665398D01*
X00220264D01*
X00221534Y00664129D01*
Y00661590D01*
X00220264Y00660320D01*
X00217725D01*
X00216455Y00661590D01*
X00258370Y00631110D02*
Y00638727D01*
X00262179D01*
X00263448Y00637458D01*
Y00634919D01*
X00262179Y00633649D01*
X00258370D01*
X00260909D02*
X00263448Y00631110D01*
X00271066D02*
X00265987D01*
X00271066Y00636188D01*
Y00637458D01*
X00269796Y00638727D01*
X00267257D01*
X00265987Y00637458D01*
X00273605D02*
X00274874Y00638727D01*
X00277414D01*
X00278683Y00637458D01*
Y00636188D01*
X00277414Y00634919D01*
X00278683Y00633649D01*
Y00632380D01*
X00277414Y00631110D01*
X00274874D01*
X00273605Y00632380D01*
Y00633649D01*
X00274874Y00634919D01*
X00273605Y00636188D01*
Y00637458D01*
X00274874Y00634919D02*
X00277414D01*
X00258370Y00609520D02*
Y00617137D01*
X00262179D01*
X00263448Y00615868D01*
Y00613329D01*
X00262179Y00612059D01*
X00258370D01*
X00260909D02*
X00263448Y00609520D01*
X00271066D02*
X00265987D01*
X00271066Y00614598D01*
Y00615868D01*
X00269796Y00617137D01*
X00267257D01*
X00265987Y00615868D01*
X00273605Y00610790D02*
X00274874Y00609520D01*
X00277414D01*
X00278683Y00610790D01*
Y00615868D01*
X00277414Y00617137D01*
X00274874D01*
X00273605Y00615868D01*
Y00614598D01*
X00274874Y00613329D01*
X00278683D01*
X00246942Y00573958D02*
X00245672Y00572689D01*
Y00570150D01*
X00246942Y00568880D01*
X00252020D01*
X00253290Y00570150D01*
Y00572689D01*
X00252020Y00573958D01*
X00253290Y00581576D02*
Y00576497D01*
X00248211Y00581576D01*
X00246942D01*
X00245672Y00580306D01*
Y00577767D01*
X00246942Y00576497D01*
X00245672Y00589193D02*
Y00584115D01*
X00249481D01*
X00248211Y00586654D01*
Y00587924D01*
X00249481Y00589193D01*
X00252020D01*
X00253290Y00587924D01*
Y00585385D01*
X00252020Y00584115D01*
X00177693Y00605708D02*
Y00599360D01*
X00178963Y00598090D01*
X00181502D01*
X00182772Y00599360D01*
Y00605708D01*
X00185311D02*
X00190389D01*
Y00604438D01*
X00185311Y00599360D01*
Y00598090D01*
X00646611Y00529510D02*
Y00537127D01*
X00650420D01*
X00651690Y00535858D01*
Y00533319D01*
X00650420Y00532049D01*
X00646611D01*
X00649150D02*
X00651690Y00529510D01*
X00654229Y00537127D02*
X00659307D01*
Y00535858D01*
X00654229Y00530780D01*
Y00529510D01*
X00664768Y00590470D02*
Y00595548D01*
X00663499Y00596818D01*
X00660959D01*
X00659690Y00595548D01*
Y00590470D01*
X00660959Y00589200D01*
X00663499D01*
X00662229Y00591739D02*
X00664768Y00589200D01*
X00663499D02*
X00664768Y00590470D01*
X00667307Y00589200D02*
X00669847D01*
X00668577D01*
Y00596818D01*
X00667307Y00595548D01*
X00711760Y00561260D02*
X00704142D01*
Y00565069D01*
X00705412Y00566338D01*
X00707951D01*
X00709221Y00565069D01*
Y00561260D01*
Y00563799D02*
X00711760Y00566338D01*
Y00568877D02*
Y00571417D01*
Y00570147D01*
X00704142D01*
X00705412Y00568877D01*
X00754938Y00532048D02*
X00753669Y00533317D01*
X00751130D01*
X00749860Y00532048D01*
Y00526970D01*
X00751130Y00525700D01*
X00753669D01*
X00754938Y00526970D01*
X00757477Y00525700D02*
X00760017D01*
X00758747D01*
Y00533317D01*
X00757477Y00532048D01*
X00747318Y00505378D02*
X00746049Y00506647D01*
X00743510D01*
X00742240Y00505378D01*
Y00500300D01*
X00743510Y00499030D01*
X00746049D01*
X00747318Y00500300D01*
X00754936Y00499030D02*
X00749857D01*
X00754936Y00504108D01*
Y00505378D01*
X00753666Y00506647D01*
X00751127D01*
X00749857Y00505378D01*
X00748588Y00472358D02*
X00747319Y00473628D01*
X00744780D01*
X00743510Y00472358D01*
Y00467280D01*
X00744780Y00466010D01*
X00747319D01*
X00748588Y00467280D01*
X00756206Y00473628D02*
X00753667Y00472358D01*
X00751127Y00469819D01*
Y00467280D01*
X00752397Y00466010D01*
X00754936D01*
X00756206Y00467280D01*
Y00468549D01*
X00754936Y00469819D01*
X00751127D01*
X00754938Y00445688D02*
X00753669Y00446958D01*
X00751130D01*
X00749860Y00445688D01*
Y00440610D01*
X00751130Y00439340D01*
X00753669D01*
X00754938Y00440610D01*
X00762556Y00446958D02*
X00757477D01*
Y00443149D01*
X00760017Y00444418D01*
X00761286D01*
X00762556Y00443149D01*
Y00440610D01*
X00761286Y00439340D01*
X00758747D01*
X00757477Y00440610D01*
X00698220Y00421636D02*
Y00429253D01*
X00702029D01*
X00703298Y00427984D01*
Y00425445D01*
X00702029Y00424175D01*
X00698220D01*
X00700759D02*
X00703298Y00421636D01*
X00709646D02*
Y00429253D01*
X00705837Y00425445D01*
X00710916D01*
X00698220Y00402510D02*
Y00410127D01*
X00702029D01*
X00703298Y00408858D01*
Y00406319D01*
X00702029Y00405049D01*
X00698220D01*
X00700759D02*
X00703298Y00402510D01*
X00705837Y00408858D02*
X00707107Y00410127D01*
X00709646D01*
X00710916Y00408858D01*
Y00407588D01*
X00709646Y00406319D01*
X00708377D01*
X00709646D01*
X00710916Y00405049D01*
Y00403780D01*
X00709646Y00402510D01*
X00707107D01*
X00705837Y00403780D01*
X00580950Y00421636D02*
Y00429253D01*
X00584759D01*
X00586028Y00427984D01*
Y00425445D01*
X00584759Y00424175D01*
X00580950D01*
X00583489D02*
X00586028Y00421636D01*
X00593646D02*
X00588567D01*
X00593646Y00426714D01*
Y00427984D01*
X00592376Y00429253D01*
X00589837D01*
X00588567Y00427984D01*
X00601263Y00421636D02*
X00596185D01*
X00601263Y00426714D01*
Y00427984D01*
X00599994Y00429253D01*
X00597454D01*
X00596185Y00427984D01*
X00580950Y00402510D02*
Y00410127D01*
X00584759D01*
X00586028Y00408858D01*
Y00406319D01*
X00584759Y00405049D01*
X00580950D01*
X00583489D02*
X00586028Y00402510D01*
X00593646D02*
X00588567D01*
X00593646Y00407588D01*
Y00408858D01*
X00592376Y00410127D01*
X00589837D01*
X00588567Y00408858D01*
X00596185D02*
X00597454Y00410127D01*
X00599994D01*
X00601263Y00408858D01*
Y00403780D01*
X00599994Y00402510D01*
X00597454D01*
X00596185Y00403780D01*
Y00408858D01*
X00652809Y00430452D02*
Y00436800D01*
X00651539Y00438070D01*
X00649000D01*
X00647730Y00436800D01*
Y00430452D01*
X00645191Y00438070D02*
X00642652D01*
X00643922D01*
Y00430452D01*
X00645191Y00431722D01*
X00634290Y00563800D02*
X00626672D01*
Y00567609D01*
X00627942Y00568878D01*
X00630481D01*
X00631751Y00567609D01*
Y00563800D01*
Y00566339D02*
X00634290Y00568878D01*
Y00571418D02*
Y00573957D01*
Y00572687D01*
X00626672D01*
X00627942Y00571418D01*
Y00577766D02*
X00626672Y00579035D01*
Y00581574D01*
X00627942Y00582844D01*
X00629212D01*
X00630481Y00581574D01*
Y00580305D01*
Y00581574D01*
X00631751Y00582844D01*
X00633020D01*
X00634290Y00581574D01*
Y00579035D01*
X00633020Y00577766D01*
X00613970Y00563800D02*
X00606352D01*
Y00567609D01*
X00607622Y00568878D01*
X00610161D01*
X00611431Y00567609D01*
Y00563800D01*
Y00566339D02*
X00613970Y00568878D01*
Y00571418D02*
Y00573957D01*
Y00572687D01*
X00606352D01*
X00607622Y00571418D01*
X00613970Y00582844D02*
Y00577766D01*
X00608891Y00582844D01*
X00607622D01*
X00606352Y00581574D01*
Y00579035D01*
X00607622Y00577766D01*
X00535230Y00546020D02*
Y00553638D01*
X00539039D01*
X00540308Y00552368D01*
Y00549829D01*
X00539039Y00548559D01*
X00535230D01*
X00537769D02*
X00540308Y00546020D01*
X00542847D02*
X00545387D01*
X00544117D01*
Y00553638D01*
X00542847Y00552368D01*
X00553004Y00546020D02*
Y00553638D01*
X00549195Y00549829D01*
X00554274D01*
X00536498Y00530778D02*
X00535229Y00532048D01*
X00532690D01*
X00531420Y00530778D01*
Y00525700D01*
X00532690Y00524430D01*
X00535229D01*
X00536498Y00525700D01*
X00539037Y00524430D02*
X00541577D01*
X00540307D01*
Y00532048D01*
X00539037Y00530778D01*
X00550464Y00524430D02*
X00545385D01*
X00550464Y00529508D01*
Y00530778D01*
X00549194Y00532048D01*
X00546655D01*
X00545385Y00530778D01*
X00541578Y00505378D02*
X00540309Y00506647D01*
X00537770D01*
X00536500Y00505378D01*
Y00500300D01*
X00537770Y00499030D01*
X00540309D01*
X00541578Y00500300D01*
X00544117Y00499030D02*
X00546657D01*
X00545387D01*
Y00506647D01*
X00544117Y00505378D01*
X00550465D02*
X00551735Y00506647D01*
X00554274D01*
X00555544Y00505378D01*
Y00504108D01*
X00554274Y00502839D01*
X00553004D01*
X00554274D01*
X00555544Y00501569D01*
Y00500300D01*
X00554274Y00499030D01*
X00551735D01*
X00550465Y00500300D01*
X00541578Y00472358D02*
X00540309Y00473628D01*
X00537770D01*
X00536500Y00472358D01*
Y00467280D01*
X00537770Y00466010D01*
X00540309D01*
X00541578Y00467280D01*
X00544117Y00466010D02*
X00546657D01*
X00545387D01*
Y00473628D01*
X00544117Y00472358D01*
X00550465Y00473628D02*
X00555544D01*
Y00472358D01*
X00550465Y00467280D01*
Y00466010D01*
X00536498Y00446958D02*
X00535229Y00448228D01*
X00532690D01*
X00531420Y00446958D01*
Y00441880D01*
X00532690Y00440610D01*
X00535229D01*
X00536498Y00441880D01*
X00539037Y00440610D02*
X00541577D01*
X00540307D01*
Y00448228D01*
X00539037Y00446958D01*
X00550464Y00448228D02*
X00547924Y00446958D01*
X00545385Y00444419D01*
Y00441880D01*
X00546655Y00440610D01*
X00549194D01*
X00550464Y00441880D01*
Y00443149D01*
X00549194Y00444419D01*
X00545385D01*
X00476248Y00560244D02*
X00468631D01*
Y00564053D01*
X00469900Y00565322D01*
X00472440D01*
X00473709Y00564053D01*
Y00560244D01*
Y00562783D02*
X00476248Y00565322D01*
Y00572940D02*
Y00567862D01*
X00471170Y00572940D01*
X00469900D01*
X00468631Y00571670D01*
Y00569131D01*
X00469900Y00567862D01*
X00408230Y00529510D02*
Y00537127D01*
X00412039D01*
X00413308Y00535858D01*
Y00533319D01*
X00412039Y00532049D01*
X00408230D01*
X00410769D02*
X00413308Y00529510D01*
X00415847Y00535858D02*
X00417117Y00537127D01*
X00419656D01*
X00420926Y00535858D01*
Y00534588D01*
X00419656Y00533319D01*
X00420926Y00532049D01*
Y00530780D01*
X00419656Y00529510D01*
X00417117D01*
X00415847Y00530780D01*
Y00532049D01*
X00417117Y00533319D01*
X00415847Y00534588D01*
Y00535858D01*
X00417117Y00533319D02*
X00419656D01*
X00425358Y00589200D02*
Y00594278D01*
X00424088Y00595547D01*
X00421549D01*
X00420280Y00594278D01*
Y00589200D01*
X00421549Y00587930D01*
X00424088D01*
X00422819Y00590469D02*
X00425358Y00587930D01*
X00424088D02*
X00425358Y00589200D01*
X00432976Y00587930D02*
X00427897D01*
X00432976Y00593008D01*
Y00594278D01*
X00431706Y00595547D01*
X00429167D01*
X00427897Y00594278D01*
X00395530Y00562530D02*
X00387912D01*
Y00566339D01*
X00389182Y00567608D01*
X00391721D01*
X00392991Y00566339D01*
Y00562530D01*
Y00565069D02*
X00395530Y00567608D01*
Y00570148D02*
Y00572687D01*
Y00571417D01*
X00387912D01*
X00389182Y00570148D01*
X00387912Y00581574D02*
X00389182Y00579035D01*
X00391721Y00576496D01*
X00394260D01*
X00395530Y00577765D01*
Y00580304D01*
X00394260Y00581574D01*
X00392991D01*
X00391721Y00580304D01*
Y00576496D01*
X00375210Y00562530D02*
X00367592D01*
Y00566339D01*
X00368862Y00567608D01*
X00371401D01*
X00372671Y00566339D01*
Y00562530D01*
Y00565069D02*
X00375210Y00567608D01*
Y00570148D02*
Y00572687D01*
Y00571417D01*
X00367592D01*
X00368862Y00570148D01*
X00367592Y00581574D02*
Y00576496D01*
X00371401D01*
X00370131Y00579035D01*
Y00580304D01*
X00371401Y00581574D01*
X00373940D01*
X00375210Y00580304D01*
Y00577765D01*
X00373940Y00576496D01*
X00417120Y00429183D02*
Y00435530D01*
X00415850Y00436800D01*
X00413311D01*
X00412042Y00435530D01*
Y00429183D01*
X00404424Y00436800D02*
X00409502D01*
X00404424Y00431722D01*
Y00430452D01*
X00405694Y00429183D01*
X00408233D01*
X00409502Y00430452D01*
X00518030Y00530778D02*
X00516760Y00532048D01*
X00514221D01*
X00512951Y00530778D01*
Y00525700D01*
X00514221Y00524430D01*
X00516760D01*
X00518030Y00525700D01*
X00520569Y00532048D02*
X00525647D01*
Y00530778D01*
X00520569Y00525700D01*
Y00524430D01*
X00512368Y00505378D02*
X00511099Y00506647D01*
X00508559D01*
X00507290Y00505378D01*
Y00500300D01*
X00508559Y00499030D01*
X00511099D01*
X00512368Y00500300D01*
X00514907Y00505378D02*
X00516177Y00506647D01*
X00518716D01*
X00519986Y00505378D01*
Y00504108D01*
X00518716Y00502839D01*
X00519986Y00501569D01*
Y00500300D01*
X00518716Y00499030D01*
X00516177D01*
X00514907Y00500300D01*
Y00501569D01*
X00516177Y00502839D01*
X00514907Y00504108D01*
Y00505378D01*
X00516177Y00502839D02*
X00518716D01*
X00512368Y00472358D02*
X00511099Y00473628D01*
X00508559D01*
X00507290Y00472358D01*
Y00467280D01*
X00508559Y00466010D01*
X00511099D01*
X00512368Y00467280D01*
X00518716Y00466010D02*
Y00473628D01*
X00514907Y00469819D01*
X00519986D01*
X00517472Y00446958D02*
X00516202Y00448228D01*
X00513663D01*
X00512393Y00446958D01*
Y00441880D01*
X00513663Y00440610D01*
X00516202D01*
X00517472Y00441880D01*
X00520011Y00446958D02*
X00521280Y00448228D01*
X00523820D01*
X00525089Y00446958D01*
Y00445688D01*
X00523820Y00444419D01*
X00522550D01*
X00523820D01*
X00525089Y00443149D01*
Y00441880D01*
X00523820Y00440610D01*
X00521280D01*
X00520011Y00441880D01*
X00462840Y00421560D02*
Y00429178D01*
X00466649D01*
X00467918Y00427908D01*
Y00425369D01*
X00466649Y00424099D01*
X00462840D01*
X00465379D02*
X00467918Y00421560D01*
X00475536Y00429178D02*
X00472997Y00427908D01*
X00470457Y00425369D01*
Y00422830D01*
X00471727Y00421560D01*
X00474266D01*
X00475536Y00422830D01*
Y00424099D01*
X00474266Y00425369D01*
X00470457D01*
X00462840Y00399970D02*
Y00407588D01*
X00466649D01*
X00467918Y00406318D01*
Y00403779D01*
X00466649Y00402509D01*
X00462840D01*
X00465379D02*
X00467918Y00399970D01*
X00475536Y00407588D02*
X00470457D01*
Y00403779D01*
X00472997Y00405048D01*
X00474266D01*
X00475536Y00403779D01*
Y00401240D01*
X00474266Y00399970D01*
X00471727D01*
X00470457Y00401240D01*
X00340920Y00421560D02*
Y00429178D01*
X00344729D01*
X00345998Y00427908D01*
Y00425369D01*
X00344729Y00424099D01*
X00340920D01*
X00343459D02*
X00345998Y00421560D01*
X00353616D02*
X00348537D01*
X00353616Y00426638D01*
Y00427908D01*
X00352346Y00429178D01*
X00349807D01*
X00348537Y00427908D01*
X00356155D02*
X00357425Y00429178D01*
X00359964D01*
X00361233Y00427908D01*
Y00426638D01*
X00359964Y00425369D01*
X00358694D01*
X00359964D01*
X00361233Y00424099D01*
Y00422830D01*
X00359964Y00421560D01*
X00357425D01*
X00356155Y00422830D01*
X00343460Y00399970D02*
Y00407588D01*
X00347269D01*
X00348538Y00406318D01*
Y00403779D01*
X00347269Y00402509D01*
X00343460D01*
X00345999D02*
X00348538Y00399970D01*
X00356156D02*
X00351077D01*
X00356156Y00405048D01*
Y00406318D01*
X00354886Y00407588D01*
X00352347D01*
X00351077Y00406318D01*
X00358695Y00399970D02*
X00361234D01*
X00359964D01*
Y00407588D01*
X00358695Y00406318D01*
X00296468Y00450768D02*
X00295199Y00452038D01*
X00292659D01*
X00291390Y00450768D01*
Y00445690D01*
X00292659Y00444420D01*
X00295199D01*
X00296468Y00445690D01*
X00299007Y00444420D02*
X00301547D01*
X00300277D01*
Y00452038D01*
X00299007Y00450768D01*
X00305355D02*
X00306625Y00452038D01*
X00309164D01*
X00310434Y00450768D01*
Y00449498D01*
X00309164Y00448229D01*
X00310434Y00446959D01*
Y00445690D01*
X00309164Y00444420D01*
X00306625D01*
X00305355Y00445690D01*
Y00446959D01*
X00306625Y00448229D01*
X00305355Y00449498D01*
Y00450768D01*
X00306625Y00448229D02*
X00309164D01*
X00302818Y00473628D02*
X00301549Y00474897D01*
X00299009D01*
X00297740Y00473628D01*
Y00468550D01*
X00299009Y00467280D01*
X00301549D01*
X00302818Y00468550D01*
X00305357Y00467280D02*
X00307897D01*
X00306627D01*
Y00474897D01*
X00305357Y00473628D01*
X00311705Y00468550D02*
X00312975Y00467280D01*
X00315514D01*
X00316784Y00468550D01*
Y00473628D01*
X00315514Y00474897D01*
X00312975D01*
X00311705Y00473628D01*
Y00472358D01*
X00312975Y00471089D01*
X00316784D01*
X00302818Y00502838D02*
X00301549Y00504108D01*
X00299009D01*
X00297740Y00502838D01*
Y00497760D01*
X00299009Y00496490D01*
X00301549D01*
X00302818Y00497760D01*
X00305357Y00496490D02*
X00307897D01*
X00306627D01*
Y00504108D01*
X00305357Y00502838D01*
X00316784Y00504108D02*
X00311705D01*
Y00500299D01*
X00314244Y00501568D01*
X00315514D01*
X00316784Y00500299D01*
Y00497760D01*
X00315514Y00496490D01*
X00312975D01*
X00311705Y00497760D01*
X00296468Y00528238D02*
X00295199Y00529507D01*
X00292659D01*
X00291390Y00528238D01*
Y00523160D01*
X00292659Y00521890D01*
X00295199D01*
X00296468Y00523160D01*
X00299007Y00521890D02*
X00301547D01*
X00300277D01*
Y00529507D01*
X00299007Y00528238D01*
X00309164Y00521890D02*
Y00529507D01*
X00305355Y00525699D01*
X00310434D01*
X00296470Y00544750D02*
Y00552368D01*
X00300279D01*
X00301548Y00551098D01*
Y00548559D01*
X00300279Y00547289D01*
X00296470D01*
X00299009D02*
X00301548Y00544750D01*
X00304087D02*
X00306627D01*
X00305357D01*
Y00552368D01*
X00304087Y00551098D01*
X00310435Y00552368D02*
X00315514D01*
Y00551098D01*
X00310435Y00546020D01*
Y00544750D01*
X00912422Y00468548D02*
X00911152Y00467279D01*
Y00464740D01*
X00912422Y00463470D01*
X00917500D01*
X00918770Y00464740D01*
Y00467279D01*
X00917500Y00468548D01*
X00918770Y00476166D02*
Y00471087D01*
X00913691Y00476166D01*
X00912422D01*
X00911152Y00474896D01*
Y00472357D01*
X00912422Y00471087D01*
Y00478705D02*
X00911152Y00479975D01*
Y00482514D01*
X00912422Y00483783D01*
X00913691D01*
X00914961Y00482514D01*
X00916231Y00483783D01*
X00917500D01*
X00918770Y00482514D01*
Y00479975D01*
X00917500Y00478705D01*
X00916231D01*
X00914961Y00479975D01*
X00913691Y00478705D01*
X00912422D01*
X00914961Y00479975D02*
Y00482514D01*
X00889562Y00468548D02*
X00888292Y00467279D01*
Y00464740D01*
X00889562Y00463470D01*
X00894640D01*
X00895910Y00464740D01*
Y00467279D01*
X00894640Y00468548D01*
X00889562Y00471087D02*
X00888292Y00472357D01*
Y00474896D01*
X00889562Y00476166D01*
X00890832D01*
X00892101Y00474896D01*
Y00473627D01*
Y00474896D01*
X00893371Y00476166D01*
X00894640D01*
X00895910Y00474896D01*
Y00472357D01*
X00894640Y00471087D01*
X00889562Y00478705D02*
X00888292Y00479975D01*
Y00482514D01*
X00889562Y00483783D01*
X00894640D01*
X00895910Y00482514D01*
Y00479975D01*
X00894640Y00478705D01*
X00889562D01*
X00864801Y00453308D02*
Y00450769D01*
Y00452039D01*
X00871149D01*
X00872419Y00450769D01*
Y00449500D01*
X00871149Y00448230D01*
X00872419Y00455848D02*
Y00458387D01*
Y00457117D01*
X00864801D01*
X00866071Y00455848D01*
Y00462196D02*
X00864801Y00463465D01*
Y00466004D01*
X00866071Y00467274D01*
X00867340D01*
X00868610Y00466004D01*
X00869880Y00467274D01*
X00871149D01*
X00872419Y00466004D01*
Y00463465D01*
X00871149Y00462196D01*
X00869880D01*
X00868610Y00463465D01*
X00867340Y00462196D01*
X00866071D01*
X00868610Y00463465D02*
Y00466004D01*
X00923847Y00415210D02*
X00917499D01*
X00916230Y00413940D01*
Y00411401D01*
X00917499Y00410132D01*
X00923847D01*
X00917499Y00407593D02*
X00916230Y00406323D01*
Y00403784D01*
X00917499Y00402514D01*
X00922578D01*
X00923847Y00403784D01*
Y00406323D01*
X00922578Y00407593D01*
X00921308D01*
X00920039Y00406323D01*
Y00402514D01*
X00890830Y00341550D02*
Y00349168D01*
X00894639D01*
X00895908Y00347898D01*
Y00345359D01*
X00894639Y00344089D01*
X00890830D01*
X00893369D02*
X00895908Y00341550D01*
X00898447Y00347898D02*
X00899717Y00349168D01*
X00902256D01*
X00903526Y00347898D01*
Y00346628D01*
X00902256Y00345359D01*
X00900987D01*
X00902256D01*
X00903526Y00344089D01*
Y00342820D01*
X00902256Y00341550D01*
X00899717D01*
X00898447Y00342820D01*
X00906065Y00341550D02*
X00908604D01*
X00907335D01*
Y00349168D01*
X00906065Y00347898D01*
X00927660Y00373300D02*
X00920042D01*
Y00377109D01*
X00921312Y00378378D01*
X00923851D01*
X00925121Y00377109D01*
Y00373300D01*
Y00375839D02*
X00927660Y00378378D01*
X00921312Y00380918D02*
X00920042Y00382187D01*
Y00384726D01*
X00921312Y00385996D01*
X00922581D01*
X00923851Y00384726D01*
Y00383457D01*
Y00384726D01*
X00925121Y00385996D01*
X00926390D01*
X00927660Y00384726D01*
Y00382187D01*
X00926390Y00380918D01*
X00927660Y00392344D02*
X00920042D01*
X00923851Y00388535D01*
Y00393613D01*
X00860350Y00391080D02*
Y00398698D01*
X00864159D01*
X00865428Y00397428D01*
Y00394889D01*
X00864159Y00393619D01*
X00860350D01*
X00862889D02*
X00865428Y00391080D01*
X00867967Y00397428D02*
X00869237Y00398698D01*
X00871776D01*
X00873046Y00397428D01*
Y00396158D01*
X00871776Y00394889D01*
X00870507D01*
X00871776D01*
X00873046Y00393619D01*
Y00392350D01*
X00871776Y00391080D01*
X00869237D01*
X00867967Y00392350D01*
X00880663Y00398698D02*
X00878124Y00397428D01*
X00875585Y00394889D01*
Y00392350D01*
X00876854Y00391080D01*
X00879394D01*
X00880663Y00392350D01*
Y00393619D01*
X00879394Y00394889D01*
X00875585D01*
X00852730Y00391080D02*
X00845112D01*
Y00394889D01*
X00846382Y00396158D01*
X00848921D01*
X00850191Y00394889D01*
Y00391080D01*
Y00393619D02*
X00852730Y00396158D01*
X00846382Y00398698D02*
X00845112Y00399967D01*
Y00402506D01*
X00846382Y00403776D01*
X00847652D01*
X00848921Y00402506D01*
Y00401237D01*
Y00402506D01*
X00850191Y00403776D01*
X00851460D01*
X00852730Y00402506D01*
Y00399967D01*
X00851460Y00398698D01*
X00845112Y00411393D02*
Y00406315D01*
X00848921D01*
X00847652Y00408854D01*
Y00410124D01*
X00848921Y00411393D01*
X00851460D01*
X00852730Y00410124D01*
Y00407585D01*
X00851460Y00406315D01*
X00832410Y00391080D02*
X00824792D01*
Y00394889D01*
X00826062Y00396158D01*
X00828601D01*
X00829871Y00394889D01*
Y00391080D01*
Y00393619D02*
X00832410Y00396158D01*
X00826062Y00398698D02*
X00824792Y00399967D01*
Y00402506D01*
X00826062Y00403776D01*
X00827331D01*
X00828601Y00402506D01*
Y00401237D01*
Y00402506D01*
X00829871Y00403776D01*
X00831140D01*
X00832410Y00402506D01*
Y00399967D01*
X00831140Y00398698D01*
X00824792Y00406315D02*
Y00411393D01*
X00826062D01*
X00831140Y00406315D01*
X00832410D01*
X00752348Y00384728D02*
X00751078Y00385998D01*
X00748539D01*
X00747270Y00384728D01*
Y00379650D01*
X00748539Y00378380D01*
X00751078D01*
X00752348Y00379650D01*
X00759966Y00378380D02*
X00754887D01*
X00759966Y00383458D01*
Y00384728D01*
X00758696Y00385998D01*
X00756157D01*
X00754887Y00384728D01*
X00767583Y00385998D02*
X00765044Y00384728D01*
X00762505Y00382189D01*
Y00379650D01*
X00763774Y00378380D01*
X00766313D01*
X00767583Y00379650D01*
Y00380919D01*
X00766313Y00382189D01*
X00762505D01*
X00758748Y00358058D02*
X00757479Y00359328D01*
X00754939D01*
X00753670Y00358058D01*
Y00352980D01*
X00754939Y00351710D01*
X00757479D01*
X00758748Y00352980D01*
X00766366Y00351710D02*
X00761287D01*
X00766366Y00356788D01*
Y00358058D01*
X00765096Y00359328D01*
X00762557D01*
X00761287Y00358058D01*
X00768905Y00359328D02*
X00773983D01*
Y00358058D01*
X00768905Y00352980D01*
Y00351710D01*
X00797652Y00291078D02*
X00796383Y00289809D01*
Y00287270D01*
X00797652Y00286000D01*
X00802730D01*
X00804000Y00287270D01*
Y00289809D01*
X00802730Y00291078D01*
X00804000Y00298696D02*
Y00293617D01*
X00798922Y00298696D01*
X00797652D01*
X00796383Y00297426D01*
Y00294887D01*
X00797652Y00293617D01*
X00804000Y00305044D02*
X00796383D01*
X00800191Y00301235D01*
Y00306313D01*
X00761290Y00295830D02*
Y00303447D01*
X00765099D01*
X00766368Y00302178D01*
Y00299639D01*
X00765099Y00298369D01*
X00761290D01*
X00763829D02*
X00766368Y00295830D01*
X00768907Y00302178D02*
X00770177Y00303447D01*
X00772716D01*
X00773986Y00302178D01*
Y00300908D01*
X00772716Y00299639D01*
X00771447D01*
X00772716D01*
X00773986Y00298369D01*
Y00297100D01*
X00772716Y00295830D01*
X00770177D01*
X00768907Y00297100D01*
X00781603Y00295830D02*
X00776525D01*
X00781603Y00300908D01*
Y00302178D01*
X00780334Y00303447D01*
X00777794D01*
X00776525Y00302178D01*
X00749860Y00325040D02*
X00742242D01*
Y00328849D01*
X00743512Y00330118D01*
X00746051D01*
X00747321Y00328849D01*
Y00325040D01*
Y00327579D02*
X00749860Y00330118D01*
X00743512Y00332658D02*
X00742242Y00333927D01*
Y00336466D01*
X00743512Y00337736D01*
X00744781D01*
X00746051Y00336466D01*
Y00335197D01*
Y00336466D01*
X00747321Y00337736D01*
X00748590D01*
X00749860Y00336466D01*
Y00333927D01*
X00748590Y00332658D01*
X00743512Y00340275D02*
X00742242Y00341545D01*
Y00344084D01*
X00743512Y00345353D01*
X00744781D01*
X00746051Y00344084D01*
Y00342814D01*
Y00344084D01*
X00747321Y00345353D01*
X00748590D01*
X00749860Y00344084D01*
Y00341545D01*
X00748590Y00340275D01*
X00709311Y00370760D02*
Y00378377D01*
X00713120D01*
X00714390Y00377108D01*
Y00374569D01*
X00713120Y00373299D01*
X00709311D01*
X00711851D02*
X00714390Y00370760D01*
X00716929Y00377108D02*
X00718198Y00378377D01*
X00720738D01*
X00722007Y00377108D01*
Y00375838D01*
X00720738Y00374569D01*
X00719468D01*
X00720738D01*
X00722007Y00373299D01*
Y00372030D01*
X00720738Y00370760D01*
X00718198D01*
X00716929Y00372030D01*
X00724546Y00377108D02*
X00725816Y00378377D01*
X00728355D01*
X00729625Y00377108D01*
Y00372030D01*
X00728355Y00370760D01*
X00725816D01*
X00724546Y00372030D01*
Y00377108D01*
X00888542Y00307257D02*
X00886003D01*
X00887272D01*
Y00300910D01*
X00886003Y00299640D01*
X00884733D01*
X00883464Y00300910D01*
X00891081Y00299640D02*
X00893620D01*
X00892351D01*
Y00307257D01*
X00891081Y00305988D01*
X00897429Y00300910D02*
X00898699Y00299640D01*
X00901238D01*
X00902507Y00300910D01*
Y00305988D01*
X00901238Y00307257D01*
X00898699D01*
X00897429Y00305988D01*
Y00304718D01*
X00898699Y00303449D01*
X00902507D01*
X00888542Y00281857D02*
X00886003D01*
X00887272D01*
Y00275510D01*
X00886003Y00274240D01*
X00884733D01*
X00883464Y00275510D01*
X00896160Y00274240D02*
X00891081D01*
X00896160Y00279318D01*
Y00280588D01*
X00894890Y00281857D01*
X00892351D01*
X00891081Y00280588D01*
X00898699D02*
X00899968Y00281857D01*
X00902507D01*
X00903777Y00280588D01*
Y00275510D01*
X00902507Y00274240D01*
X00899968D01*
X00898699Y00275510D01*
Y00280588D01*
X00838762Y00174048D02*
X00837492Y00172779D01*
Y00170240D01*
X00838762Y00168970D01*
X00843840D01*
X00845110Y00170240D01*
Y00172779D01*
X00843840Y00174048D01*
X00845110Y00181666D02*
Y00176588D01*
X00840032Y00181666D01*
X00838762D01*
X00837492Y00180396D01*
Y00177857D01*
X00838762Y00176588D01*
Y00184205D02*
X00837492Y00185475D01*
Y00188014D01*
X00838762Y00189283D01*
X00840032D01*
X00841301Y00188014D01*
Y00186744D01*
Y00188014D01*
X00842571Y00189283D01*
X00843840D01*
X00845110Y00188014D01*
Y00185475D01*
X00843840Y00184205D01*
X00122478Y00313608D02*
X00121209Y00314877D01*
X00118670D01*
X00117400Y00313608D01*
Y00308530D01*
X00118670Y00307260D01*
X00121209D01*
X00122478Y00308530D01*
X00130096Y00307260D02*
X00125017D01*
X00130096Y00312338D01*
Y00313608D01*
X00128826Y00314877D01*
X00126287D01*
X00125017Y00313608D01*
X00132635Y00308530D02*
X00133904Y00307260D01*
X00136444D01*
X00137713Y00308530D01*
Y00313608D01*
X00136444Y00314877D01*
X00133904D01*
X00132635Y00313608D01*
Y00312338D01*
X00133904Y00311069D01*
X00137713D01*
X00531420Y00375840D02*
Y00383457D01*
X00535229D01*
X00536498Y00382188D01*
Y00379649D01*
X00535229Y00378379D01*
X00531420D01*
X00533959D02*
X00536498Y00375840D01*
X00544116D02*
X00539037D01*
X00544116Y00380918D01*
Y00382188D01*
X00542846Y00383457D01*
X00540307D01*
X00539037Y00382188D01*
X00550464Y00375840D02*
Y00383457D01*
X00546655Y00379649D01*
X00551733D01*
X00564438Y00162078D02*
X00561899D01*
X00563169D01*
Y00155730D01*
X00561899Y00154460D01*
X00560630D01*
X00559360Y00155730D01*
X00566977Y00162078D02*
X00572056D01*
Y00160808D01*
X00566977Y00155730D01*
Y00154460D01*
X00566978Y00340277D02*
X00564439D01*
X00565709D01*
Y00333930D01*
X00564439Y00332660D01*
X00563170D01*
X00561900Y00333930D01*
X00574596Y00340277D02*
X00569517D01*
Y00336469D01*
X00572057Y00337738D01*
X00573326D01*
X00574596Y00336469D01*
Y00333930D01*
X00573326Y00332660D01*
X00570787D01*
X00569517Y00333930D01*
X00412038Y00340277D02*
X00409499D01*
X00410769D01*
Y00333930D01*
X00409499Y00332660D01*
X00408229D01*
X00406960Y00333930D01*
X00419656Y00340277D02*
X00417117Y00339008D01*
X00414577Y00336469D01*
Y00333930D01*
X00415847Y00332660D01*
X00418386D01*
X00419656Y00333930D01*
Y00335199D01*
X00418386Y00336469D01*
X00414577D01*
X00412038Y00163493D02*
X00409499D01*
X00410769D01*
Y00157146D01*
X00409499Y00155876D01*
X00408229D01*
X00406960Y00157146D01*
X00414577Y00162224D02*
X00415847Y00163493D01*
X00418386D01*
X00419656Y00162224D01*
Y00160954D01*
X00418386Y00159685D01*
X00419656Y00158415D01*
Y00157146D01*
X00418386Y00155876D01*
X00415847D01*
X00414577Y00157146D01*
Y00158415D01*
X00415847Y00159685D01*
X00414577Y00160954D01*
Y00162224D01*
X00415847Y00159685D02*
X00418386D01*
X00785422Y00119300D02*
X00793040D01*
Y00123109D01*
X00791770Y00124378D01*
X00786692D01*
X00785422Y00123109D01*
Y00119300D01*
X00793040Y00131996D02*
Y00126917D01*
X00787962Y00131996D01*
X00786692D01*
X00785422Y00130726D01*
Y00128187D01*
X00786692Y00126917D01*
X00831138Y00045637D02*
X00828599D01*
X00829869D01*
Y00039290D01*
X00828599Y00038020D01*
X00827329D01*
X00826060Y00039290D01*
X00833677Y00038020D02*
X00836217D01*
X00834947D01*
Y00045637D01*
X00833677Y00044368D01*
X00845104Y00045637D02*
X00842564Y00044368D01*
X00840025Y00041829D01*
Y00039290D01*
X00841295Y00038020D01*
X00843834D01*
X00845104Y00039290D01*
Y00040559D01*
X00843834Y00041829D01*
X00840025D01*
X00683516Y00126917D02*
X00680976D01*
X00682246D01*
Y00120570D01*
X00680976Y00119300D01*
X00679707D01*
X00678437Y00120570D01*
X00686055D02*
X00687325Y00119300D01*
X00689864D01*
X00691133Y00120570D01*
Y00125648D01*
X00689864Y00126917D01*
X00687325D01*
X00686055Y00125648D01*
Y00124378D01*
X00687325Y00123109D01*
X00691133D01*
X00568627Y00126917D02*
X00566087D01*
X00567357D01*
Y00120570D01*
X00566087Y00119300D01*
X00564818D01*
X00563548Y00120570D01*
X00571166Y00119300D02*
X00573705D01*
X00572435D01*
Y00126917D01*
X00571166Y00125648D01*
X00577514D02*
X00578783Y00126917D01*
X00581322D01*
X00582592Y00125648D01*
Y00120570D01*
X00581322Y00119300D01*
X00578783D01*
X00577514Y00120570D01*
Y00125648D01*
X00438578Y00126917D02*
X00436039D01*
X00437308D01*
Y00120570D01*
X00436039Y00119300D01*
X00434769D01*
X00433499Y00120570D01*
X00446195Y00119300D02*
X00441117D01*
X00446195Y00124378D01*
Y00125648D01*
X00444926Y00126917D01*
X00442387D01*
X00441117Y00125648D01*
X00324278Y00126917D02*
X00321739D01*
X00323008D01*
Y00120570D01*
X00321739Y00119300D01*
X00320469D01*
X00319199Y00120570D01*
X00326817Y00119300D02*
X00329356D01*
X00328087D01*
Y00126917D01*
X00326817Y00125648D01*
X00043738Y00126917D02*
X00041199D01*
X00042469D01*
Y00120570D01*
X00041199Y00119300D01*
X00039929D01*
X00038660Y00120570D01*
X00046277Y00119300D02*
X00048817D01*
X00047547D01*
Y00126917D01*
X00046277Y00125648D01*
X00057704Y00119300D02*
X00052625D01*
X00057704Y00124378D01*
Y00125648D01*
X00056434Y00126917D01*
X00053895D01*
X00052625Y00125648D01*
X00307898Y00328648D02*
X00306629Y00329917D01*
X00304090D01*
X00302820Y00328648D01*
Y00323570D01*
X00304090Y00322300D01*
X00306629D01*
X00307898Y00323570D01*
X00315516Y00322300D02*
X00310437D01*
X00315516Y00327378D01*
Y00328648D01*
X00314246Y00329917D01*
X00311707D01*
X00310437Y00328648D01*
X00318055D02*
X00319324Y00329917D01*
X00321864D01*
X00323133Y00328648D01*
Y00323570D01*
X00321864Y00322300D01*
X00319324D01*
X00318055Y00323570D01*
Y00328648D01*
X00333302Y00254460D02*
X00339650D01*
X00340920Y00255729D01*
Y00258269D01*
X00339650Y00259538D01*
X00333302D01*
Y00267156D02*
X00334572Y00264617D01*
X00337111Y00262077D01*
X00339650D01*
X00340920Y00263347D01*
Y00265886D01*
X00339650Y00267156D01*
X00338381D01*
X00337111Y00265886D01*
Y00262077D01*
X00356158Y00312337D02*
X00353619D01*
X00354889D01*
Y00305990D01*
X00353619Y00304720D01*
X00352350D01*
X00351080Y00305990D01*
X00358697Y00311068D02*
X00359967Y00312337D01*
X00362506D01*
X00363776Y00311068D01*
Y00309798D01*
X00362506Y00308529D01*
X00361237D01*
X00362506D01*
X00363776Y00307259D01*
Y00305990D01*
X00362506Y00304720D01*
X00359967D01*
X00358697Y00305990D01*
X00377752Y00201442D02*
X00376482Y00200173D01*
Y00197634D01*
X00377752Y00196364D01*
X00382830D01*
X00384100Y00197634D01*
Y00200173D01*
X00382830Y00201442D01*
X00384100Y00203981D02*
Y00206521D01*
Y00205251D01*
X00376482D01*
X00377752Y00203981D01*
X00384100Y00210329D02*
Y00212869D01*
Y00211599D01*
X00376482D01*
X00377752Y00210329D01*
X00363200Y00142163D02*
Y00148510D01*
X00361930Y00149780D01*
X00359391D01*
X00358121Y00148510D01*
Y00142163D01*
X00351773Y00149780D02*
Y00142163D01*
X00355582Y00145971D01*
X00350504D01*
X00311809Y00165020D02*
X00304192D01*
Y00168829D01*
X00305461Y00170098D01*
X00308001D01*
X00309270Y00168829D01*
Y00165020D01*
Y00167559D02*
X00311809Y00170098D01*
Y00172638D02*
Y00175177D01*
Y00173907D01*
X00304192D01*
X00305461Y00172638D01*
Y00178986D02*
X00304192Y00180255D01*
Y00182794D01*
X00305461Y00184064D01*
X00310540D01*
X00311809Y00182794D01*
Y00180255D01*
X00310540Y00178986D01*
X00305461D01*
X00297738Y00203118D02*
X00295199D01*
X00296469D01*
Y00196770D01*
X00295199Y00195500D01*
X00293930D01*
X00292660Y00196770D01*
X00304086Y00195500D02*
Y00203118D01*
X00300277Y00199309D01*
X00305356D01*
X00252020Y00233600D02*
X00244402D01*
Y00237409D01*
X00245672Y00238678D01*
X00248211D01*
X00249481Y00237409D01*
Y00233600D01*
Y00236139D02*
X00252020Y00238678D01*
Y00246296D02*
Y00241217D01*
X00246942Y00246296D01*
X00245672D01*
X00244402Y00245026D01*
Y00242487D01*
X00245672Y00241217D01*
X00244402Y00253913D02*
Y00248835D01*
X00248211D01*
X00246942Y00251374D01*
Y00252644D01*
X00248211Y00253913D01*
X00250750D01*
X00252020Y00252644D01*
Y00250105D01*
X00250750Y00248835D01*
X00252020Y00260040D02*
X00244402D01*
Y00263849D01*
X00245672Y00265118D01*
X00248211D01*
X00249481Y00263849D01*
Y00260040D01*
Y00262579D02*
X00252020Y00265118D01*
Y00272736D02*
Y00267658D01*
X00246942Y00272736D01*
X00245672D01*
X00244402Y00271466D01*
Y00268927D01*
X00245672Y00267658D01*
X00244402Y00275275D02*
Y00280353D01*
X00245672D01*
X00250750Y00275275D01*
X00252020D01*
X00262180Y00292020D02*
Y00299638D01*
X00265989D01*
X00267258Y00298368D01*
Y00295829D01*
X00265989Y00294559D01*
X00262180D01*
X00264719D02*
X00267258Y00292020D01*
X00274876D02*
X00269797D01*
X00274876Y00297098D01*
Y00298368D01*
X00273606Y00299638D01*
X00271067D01*
X00269797Y00298368D01*
X00282493Y00299638D02*
X00279954Y00298368D01*
X00277415Y00295829D01*
Y00293290D01*
X00278685Y00292020D01*
X00281224D01*
X00282493Y00293290D01*
Y00294559D01*
X00281224Y00295829D01*
X00277415D01*
X00268588Y00222168D02*
X00267318Y00223438D01*
X00264779D01*
X00263509Y00222168D01*
Y00217090D01*
X00264779Y00215820D01*
X00267318D01*
X00268588Y00217090D01*
X00271127Y00215820D02*
X00273666D01*
X00272396D01*
Y00223438D01*
X00271127Y00222168D01*
X00277475D02*
X00278744Y00223438D01*
X00281283D01*
X00282553Y00222168D01*
Y00217090D01*
X00281283Y00215820D01*
X00278744D01*
X00277475Y00217090D01*
Y00222168D01*
X00277420Y00142163D02*
Y00148510D01*
X00276150Y00149780D01*
X00273611D01*
X00272341Y00148510D01*
Y00142163D01*
X00269802Y00143432D02*
X00268533Y00142163D01*
X00265993D01*
X00264724Y00143432D01*
Y00144702D01*
X00265993Y00145971D01*
X00267263D01*
X00265993D01*
X00264724Y00147241D01*
Y00148510D01*
X00265993Y00149780D01*
X00268533D01*
X00269802Y00148510D01*
X00206300Y00271700D02*
X00198682D01*
Y00275509D01*
X00199952Y00276778D01*
X00202491D01*
X00203761Y00275509D01*
Y00271700D01*
Y00274239D02*
X00206300Y00276778D01*
Y00279317D02*
Y00281857D01*
Y00280587D01*
X00198682D01*
X00199952Y00279317D01*
Y00285665D02*
X00198682Y00286935D01*
Y00289474D01*
X00199952Y00290744D01*
X00201222D01*
X00202491Y00289474D01*
X00203761Y00290744D01*
X00205030D01*
X00206300Y00289474D01*
Y00286935D01*
X00205030Y00285665D01*
X00203761D01*
X00202491Y00286935D01*
X00201222Y00285665D01*
X00199952D01*
X00202491Y00286935D02*
Y00289474D01*
X00222812Y00276778D02*
X00221542Y00275509D01*
Y00272970D01*
X00222812Y00271700D01*
X00227890D01*
X00229160Y00272970D01*
Y00275509D01*
X00227890Y00276778D01*
X00229160Y00284396D02*
Y00279317D01*
X00224081Y00284396D01*
X00222812D01*
X00221542Y00283126D01*
Y00280587D01*
X00222812Y00279317D01*
X00229160Y00286935D02*
Y00289474D01*
Y00288205D01*
X00221542D01*
X00222812Y00286935D01*
X00240592Y00213058D02*
X00239322Y00211789D01*
Y00209250D01*
X00240592Y00207980D01*
X00245670D01*
X00246940Y00209250D01*
Y00211789D01*
X00245670Y00213058D01*
X00246940Y00220676D02*
Y00215597D01*
X00241861Y00220676D01*
X00240592D01*
X00239322Y00219406D01*
Y00216867D01*
X00240592Y00215597D01*
X00246940Y00228293D02*
Y00223215D01*
X00241861Y00228293D01*
X00240592D01*
X00239322Y00227024D01*
Y00224485D01*
X00240592Y00223215D01*
X00231700Y00144700D02*
Y00152317D01*
X00235509D01*
X00236778Y00151048D01*
Y00148509D01*
X00235509Y00147239D01*
X00231700D01*
X00234239D02*
X00236778Y00144700D01*
X00239317Y00145970D02*
X00240587Y00144700D01*
X00243126D01*
X00244396Y00145970D01*
Y00151048D01*
X00243126Y00152317D01*
X00240587D01*
X00239317Y00151048D01*
Y00149778D01*
X00240587Y00148509D01*
X00244396D01*
X00203760Y00154159D02*
Y00146541D01*
X00207568D01*
X00208838Y00147811D01*
Y00152889D01*
X00207568Y00154159D01*
X00203760D01*
X00211377Y00146541D02*
X00213916D01*
X00212647D01*
Y00154159D01*
X00211377Y00152889D01*
X00158040Y00144698D02*
Y00137080D01*
X00163118D01*
X00165657D02*
X00168197D01*
X00166927D01*
Y00144698D01*
X00165657Y00143428D01*
X00126290Y00189153D02*
Y00195500D01*
X00125020Y00196770D01*
X00122481D01*
X00121212Y00195500D01*
Y00189153D01*
X00113594D02*
X00118672D01*
Y00192961D01*
X00116133Y00191692D01*
X00114864D01*
X00113594Y00192961D01*
Y00195500D01*
X00114864Y00196770D01*
X00117403D01*
X00118672Y00195500D01*
X00160580Y00273040D02*
Y00280658D01*
X00164389D01*
X00165658Y00279388D01*
Y00276849D01*
X00164389Y00275579D01*
X00160580D01*
X00163119D02*
X00165658Y00273040D01*
X00168197D02*
X00170737D01*
X00169467D01*
Y00280658D01*
X00168197Y00279388D01*
X00174545Y00274310D02*
X00175815Y00273040D01*
X00178354D01*
X00179624Y00274310D01*
Y00279388D01*
X00178354Y00280658D01*
X00175815D01*
X00174545Y00279388D01*
Y00278118D01*
X00175815Y00276849D01*
X00179624D01*
X00122480Y00273040D02*
Y00280658D01*
X00126289D01*
X00127558Y00279388D01*
Y00276849D01*
X00126289Y00275579D01*
X00122480D01*
X00125019D02*
X00127558Y00273040D01*
X00130097D02*
X00132637D01*
X00131367D01*
Y00280658D01*
X00130097Y00279388D01*
X00136445Y00273040D02*
X00138984D01*
X00137715D01*
Y00280658D01*
X00136445Y00279388D01*
X00103432Y00228518D02*
X00102162Y00227249D01*
Y00224710D01*
X00103432Y00223440D01*
X00108510D01*
X00109780Y00224710D01*
Y00227249D01*
X00108510Y00228518D01*
Y00231057D02*
X00109780Y00232327D01*
Y00234866D01*
X00108510Y00236136D01*
X00103432D01*
X00102162Y00234866D01*
Y00232327D01*
X00103432Y00231057D01*
X00104701D01*
X00105971Y00232327D01*
Y00236136D01*
X00144128Y00901947D02*
X00141588D01*
X00142858D01*
Y00895599D01*
X00141588Y00894330D01*
X00140319D01*
X00139049Y00895599D01*
X00146667Y00894330D02*
X00149206D01*
X00147936D01*
Y00901947D01*
X00146667Y00900678D01*
X00153015D02*
X00154284Y00901947D01*
X00156824D01*
X00158093Y00900678D01*
Y00899408D01*
X00156824Y00898139D01*
X00155554D01*
X00156824D01*
X00158093Y00896869D01*
Y00895599D01*
X00156824Y00894330D01*
X00154284D01*
X00153015Y00895599D01*
D24*
X00651394Y00624348D02*
X00649278D01*
X00648220Y00623290D01*
Y00619058D01*
X00649278Y00618000D01*
X00651394D01*
X00652452Y00619058D01*
Y00623290D01*
X00651394Y00624348D01*
X00654568Y00618000D02*
Y00624348D01*
X00658800Y00618000D01*
Y00624348D01*
X00667264D02*
Y00618000D01*
X00670438D01*
X00671496Y00619058D01*
Y00623290D01*
X00670438Y00624348D01*
X00667264D01*
X00677844D02*
X00673612D01*
Y00618000D01*
X00677844D01*
X00673612Y00621174D02*
X00675728D01*
X00679960Y00624348D02*
Y00618000D01*
X00683134D01*
X00684192Y00619058D01*
Y00620116D01*
X00683134Y00621174D01*
X00679960D01*
X00683134D01*
X00684192Y00622232D01*
Y00623290D01*
X00683134Y00624348D01*
X00679960D01*
X00686308D02*
Y00619058D01*
X00687365Y00618000D01*
X00689482D01*
X00690539Y00619058D01*
Y00624348D01*
X00696887Y00623290D02*
X00695829Y00624348D01*
X00693713D01*
X00692655Y00623290D01*
Y00619058D01*
X00693713Y00618000D01*
X00695829D01*
X00696887Y00619058D01*
Y00621174D01*
X00694771D01*
X00708525Y00624348D02*
X00706409D01*
X00705351Y00623290D01*
Y00619058D01*
X00706409Y00618000D01*
X00708525D01*
X00709583Y00619058D01*
Y00623290D01*
X00708525Y00624348D01*
X00715931D02*
X00711699D01*
Y00621174D01*
X00713815D01*
X00711699D01*
Y00618000D01*
X00722279Y00624348D02*
X00718047D01*
Y00621174D01*
X00720163D01*
X00718047D01*
Y00618000D01*
X00118522Y00799290D02*
X00117464Y00800348D01*
X00115348D01*
X00114290Y00799290D01*
Y00795058D01*
X00115348Y00794000D01*
X00117464D01*
X00118522Y00795058D01*
Y00797174D01*
X00116406D01*
X00120638Y00794000D02*
Y00800348D01*
X00124870Y00794000D01*
Y00800348D01*
X00126986D02*
Y00794000D01*
X00130160D01*
X00131218Y00795058D01*
Y00799290D01*
X00130160Y00800348D01*
X00126986D01*
X00120638Y00851577D02*
X00124870D01*
X00122754D01*
Y00845229D01*
X00126986Y00851577D02*
X00131218Y00845229D01*
Y00851577D02*
X00126986Y00845229D01*
X00120638Y00819615D02*
Y00825963D01*
X00123812D01*
X00124870Y00824905D01*
Y00822789D01*
X00123812Y00821731D01*
X00120638D01*
X00122754D02*
X00124870Y00819615D01*
X00126986Y00825963D02*
X00131218Y00819615D01*
Y00825963D02*
X00126986Y00819615D01*
X00109000Y00876134D02*
X00110058Y00877192D01*
X00112174D01*
X00113232Y00876134D01*
Y00875076D01*
X00112174Y00874018D01*
X00111116D01*
X00112174D01*
X00113232Y00872960D01*
Y00871902D01*
X00112174Y00870844D01*
X00110058D01*
X00109000Y00871902D01*
X00115348Y00870844D02*
Y00871902D01*
X00116406D01*
Y00870844D01*
X00115348D01*
X00120638Y00876134D02*
X00121696Y00877192D01*
X00123812D01*
X00124870Y00876134D01*
Y00875076D01*
X00123812Y00874018D01*
X00122754D01*
X00123812D01*
X00124870Y00872960D01*
Y00871902D01*
X00123812Y00870844D01*
X00121696D01*
X00120638Y00871902D01*
X00126986Y00877192D02*
Y00872960D01*
X00129102Y00870844D01*
X00131218Y00872960D01*
Y00877192D01*
X00567000Y00628174D02*
X00571232D01*
X00569116Y00630290D02*
Y00626058D01*
X00579696Y00631348D02*
Y00625000D01*
X00582870D01*
X00583928Y00626058D01*
Y00627116D01*
X00582870Y00628174D01*
X00579696D01*
X00582870D01*
X00583928Y00629232D01*
Y00630290D01*
X00582870Y00631348D01*
X00579696D01*
X00586044Y00625000D02*
Y00629232D01*
X00588160Y00631348D01*
X00590276Y00629232D01*
Y00625000D01*
Y00628174D01*
X00586044D01*
X00592392Y00631348D02*
X00596624D01*
X00594508D01*
Y00625000D01*
X00605088Y00628174D02*
X00609320D01*
X00500652Y00648232D02*
Y00644000D01*
X00507000D01*
Y00648232D01*
X00503826Y00644000D02*
Y00646116D01*
X00507000Y00650348D02*
X00500652D01*
X00507000Y00654580D01*
X00500652D01*
X00507000Y00656696D02*
X00502768Y00660928D01*
X00500652Y00663044D02*
X00507000D01*
Y00666218D01*
X00505942Y00667276D01*
X00501710D01*
X00500652Y00666218D01*
Y00663044D01*
Y00669392D02*
Y00671508D01*
Y00670450D01*
X00507000D01*
Y00669392D01*
Y00671508D01*
X00501710Y00678914D02*
X00500652Y00677856D01*
Y00675740D01*
X00501710Y00674682D01*
X00502768D01*
X00503826Y00675740D01*
Y00677856D01*
X00504884Y00678914D01*
X00505942D01*
X00507000Y00677856D01*
Y00675740D01*
X00505942Y00674682D01*
X00304000Y00688290D02*
X00305058Y00689348D01*
X00307174D01*
X00308232Y00688290D01*
Y00687232D01*
X00307174Y00686174D01*
X00306116D01*
X00307174D01*
X00308232Y00685116D01*
Y00684058D01*
X00307174Y00683000D01*
X00305058D01*
X00304000Y00684058D01*
X00310348Y00683000D02*
Y00684058D01*
X00311406D01*
Y00683000D01*
X00310348D01*
X00315638Y00688290D02*
X00316696Y00689348D01*
X00318812D01*
X00319870Y00688290D01*
Y00687232D01*
X00318812Y00686174D01*
X00317754D01*
X00318812D01*
X00319870Y00685116D01*
Y00684058D01*
X00318812Y00683000D01*
X00316696D01*
X00315638Y00684058D01*
X00321986Y00689348D02*
Y00685116D01*
X00324102Y00683000D01*
X00326218Y00685116D01*
Y00689348D01*
X00285232Y00688290D02*
X00284174Y00689348D01*
X00282058D01*
X00281000Y00688290D01*
Y00687232D01*
X00282058Y00686174D01*
X00284174D01*
X00285232Y00685116D01*
Y00684058D01*
X00284174Y00683000D01*
X00282058D01*
X00281000Y00684058D01*
X00291580Y00688290D02*
X00290522Y00689348D01*
X00288406D01*
X00287348Y00688290D01*
Y00684058D01*
X00288406Y00683000D01*
X00290522D01*
X00291580Y00684058D01*
X00293696Y00689348D02*
Y00683000D01*
X00297928D01*
X00260232Y00688290D02*
X00259174Y00689348D01*
X00257058D01*
X00256000Y00688290D01*
Y00687232D01*
X00257058Y00686174D01*
X00259174D01*
X00260232Y00685116D01*
Y00684058D01*
X00259174Y00683000D01*
X00257058D01*
X00256000Y00684058D01*
X00262348Y00689348D02*
Y00683000D01*
X00265522D01*
X00266580Y00684058D01*
Y00688290D01*
X00265522Y00689348D01*
X00262348D01*
X00268696Y00683000D02*
Y00687232D01*
X00270812Y00689348D01*
X00272928Y00687232D01*
Y00683000D01*
Y00686174D01*
X00268696D01*
X00233232Y00688290D02*
X00232174Y00689348D01*
X00230058D01*
X00229000Y00688290D01*
Y00684058D01*
X00230058Y00683000D01*
X00232174D01*
X00233232Y00684058D01*
Y00686174D01*
X00231116D01*
X00235348Y00683000D02*
Y00689348D01*
X00239580Y00683000D01*
Y00689348D01*
X00241696D02*
Y00683000D01*
X00244870D01*
X00245928Y00684058D01*
Y00688290D01*
X00244870Y00689348D01*
X00241696D01*
X00378710Y00229232D02*
X00377652Y00228174D01*
Y00226058D01*
X00378710Y00225000D01*
X00382942D01*
X00384000Y00226058D01*
Y00228174D01*
X00382942Y00229232D01*
X00380826D01*
Y00227116D01*
X00384000Y00231348D02*
X00377652D01*
X00384000Y00235580D01*
X00377652D01*
Y00237696D02*
X00384000D01*
Y00240870D01*
X00382942Y00241928D01*
X00378710D01*
X00377652Y00240870D01*
Y00237696D01*
X00384000Y00248000D02*
X00379768D01*
X00377652Y00250116D01*
X00379768Y00252232D01*
X00384000D01*
X00380826D01*
Y00248000D01*
X00377652Y00254348D02*
Y00256464D01*
Y00255406D01*
X00384000D01*
Y00254348D01*
Y00256464D01*
Y00259638D02*
X00377652D01*
X00384000Y00263870D01*
X00377652D01*
X00378710Y00265986D02*
X00377652Y00267044D01*
Y00269160D01*
X00378710Y00270218D01*
X00379768D01*
X00380826Y00269160D01*
Y00268102D01*
Y00269160D01*
X00381884Y00270218D01*
X00382942D01*
X00384000Y00269160D01*
Y00267044D01*
X00382942Y00265986D01*
X00384000Y00278000D02*
X00379768D01*
X00377652Y00280116D01*
X00379768Y00282232D01*
X00384000D01*
X00380826D01*
Y00278000D01*
X00377652Y00284348D02*
Y00286464D01*
Y00285406D01*
X00384000D01*
Y00284348D01*
Y00286464D01*
Y00289638D02*
X00377652D01*
X00384000Y00293870D01*
X00377652D01*
X00384000Y00300218D02*
Y00295986D01*
X00379768Y00300218D01*
X00378710D01*
X00377652Y00299160D01*
Y00297044D01*
X00378710Y00295986D01*
D25*
X00333439Y00795940D02*
Y00825930D01*
X00348434D01*
X00353433Y00820932D01*
Y00810935D01*
X00348434Y00805937D01*
X00333439D01*
X00363430Y00795940D02*
Y00815934D01*
X00373426Y00825930D01*
X00383423Y00815934D01*
Y00795940D01*
Y00810935D01*
X00363430D01*
X00393420Y00795940D02*
Y00825930D01*
X00408415D01*
X00413414Y00820932D01*
Y00810935D01*
X00408415Y00805937D01*
X00393420D01*
X00403417D02*
X00413414Y00795940D01*
X00423410Y00825930D02*
X00443404D01*
X00433407D01*
Y00795940D01*
X00453400Y00825930D02*
X00463397D01*
X00458399D01*
Y00795940D01*
X00453400D01*
X00463397D01*
X00498386Y00820932D02*
X00493388Y00825930D01*
X00483391D01*
X00478392Y00820932D01*
Y00800938D01*
X00483391Y00795940D01*
X00493388D01*
X00498386Y00800938D01*
X00508383Y00825930D02*
Y00795940D01*
X00528376D01*
X00558367Y00825930D02*
X00538373D01*
Y00795940D01*
X00558367D01*
X00538373Y00810935D02*
X00548370D01*
D26*
X00157843Y00351011D02*
D03*
D27*
X00157774Y00487030D02*
D03*
D28*
X00208539Y00427530D02*
D03*
M02*
