G04*
G04 #@! TF.GenerationSoftware,Altium Limited,Altium Designer,19.0.12 (326)*
G04*
G04 Layer_Color=8388736*
%FSAX44Y44*%
%MOMM*%
G71*
G01*
G75*
%ADD54R,0.2540X0.5080*%
%ADD55R,0.5080X0.2540*%
%ADD56O,1.5500X0.4000*%
%ADD57R,1.3524X1.3524*%
%ADD58R,2.7524X1.6524*%
%ADD59R,2.7524X1.1524*%
%ADD60R,1.5524X2.8524*%
%ADD61R,2.1524X0.8524*%
G04:AMPARAMS|DCode=62|XSize=1.0524mm|YSize=1.3524mm|CornerRadius=0.1887mm|HoleSize=0mm|Usage=FLASHONLY|Rotation=270.000|XOffset=0mm|YOffset=0mm|HoleType=Round|Shape=RoundedRectangle|*
%AMROUNDEDRECTD62*
21,1,1.0524,0.9750,0,0,270.0*
21,1,0.6750,1.3524,0,0,270.0*
1,1,0.3774,-0.4875,-0.3375*
1,1,0.3774,-0.4875,0.3375*
1,1,0.3774,0.4875,0.3375*
1,1,0.3774,0.4875,-0.3375*
%
%ADD62ROUNDEDRECTD62*%
G04:AMPARAMS|DCode=63|XSize=1.0524mm|YSize=1.3524mm|CornerRadius=0.1887mm|HoleSize=0mm|Usage=FLASHONLY|Rotation=180.000|XOffset=0mm|YOffset=0mm|HoleType=Round|Shape=RoundedRectangle|*
%AMROUNDEDRECTD63*
21,1,1.0524,0.9750,0,0,180.0*
21,1,0.6750,1.3524,0,0,180.0*
1,1,0.3774,-0.3375,0.4875*
1,1,0.3774,0.3375,0.4875*
1,1,0.3774,0.3375,-0.4875*
1,1,0.3774,-0.3375,-0.4875*
%
%ADD63ROUNDEDRECTD63*%
G04:AMPARAMS|DCode=64|XSize=1.1024mm|YSize=1.5524mm|CornerRadius=0.195mm|HoleSize=0mm|Usage=FLASHONLY|Rotation=270.000|XOffset=0mm|YOffset=0mm|HoleType=Round|Shape=RoundedRectangle|*
%AMROUNDEDRECTD64*
21,1,1.1024,1.1625,0,0,270.0*
21,1,0.7125,1.5524,0,0,270.0*
1,1,0.3899,-0.5813,-0.3563*
1,1,0.3899,-0.5813,0.3563*
1,1,0.3899,0.5813,0.3563*
1,1,0.3899,0.5813,-0.3563*
%
%ADD64ROUNDEDRECTD64*%
%ADD65O,1.6024X0.7524*%
%ADD66R,0.7524X1.1024*%
G04:AMPARAMS|DCode=67|XSize=1.1524mm|YSize=1.9524mm|CornerRadius=0.2012mm|HoleSize=0mm|Usage=FLASHONLY|Rotation=0.000|XOffset=0mm|YOffset=0mm|HoleType=Round|Shape=RoundedRectangle|*
%AMROUNDEDRECTD67*
21,1,1.1524,1.5500,0,0,0.0*
21,1,0.7500,1.9524,0,0,0.0*
1,1,0.4024,0.3750,-0.7750*
1,1,0.4024,-0.3750,-0.7750*
1,1,0.4024,-0.3750,0.7750*
1,1,0.4024,0.3750,0.7750*
%
%ADD67ROUNDEDRECTD67*%
G04:AMPARAMS|DCode=68|XSize=1.1024mm|YSize=1.5524mm|CornerRadius=0.195mm|HoleSize=0mm|Usage=FLASHONLY|Rotation=180.000|XOffset=0mm|YOffset=0mm|HoleType=Round|Shape=RoundedRectangle|*
%AMROUNDEDRECTD68*
21,1,1.1024,1.1625,0,0,180.0*
21,1,0.7125,1.5524,0,0,180.0*
1,1,0.3899,-0.3563,0.5813*
1,1,0.3899,0.3563,0.5813*
1,1,0.3899,0.3563,-0.5813*
1,1,0.3899,-0.3563,-0.5813*
%
%ADD68ROUNDEDRECTD68*%
%ADD69O,1.7500X0.5000*%
G04:AMPARAMS|DCode=70|XSize=1.1524mm|YSize=1.1524mm|CornerRadius=0.2262mm|HoleSize=0mm|Usage=FLASHONLY|Rotation=90.000|XOffset=0mm|YOffset=0mm|HoleType=Round|Shape=RoundedRectangle|*
%AMROUNDEDRECTD70*
21,1,1.1524,0.7000,0,0,90.0*
21,1,0.7000,1.1524,0,0,90.0*
1,1,0.4524,0.3500,0.3500*
1,1,0.4524,0.3500,-0.3500*
1,1,0.4524,-0.3500,-0.3500*
1,1,0.4524,-0.3500,0.3500*
%
%ADD70ROUNDEDRECTD70*%
%ADD71R,0.5024X0.6524*%
G04:AMPARAMS|DCode=72|XSize=1.9524mm|YSize=3.1524mm|CornerRadius=0.3012mm|HoleSize=0mm|Usage=FLASHONLY|Rotation=90.000|XOffset=0mm|YOffset=0mm|HoleType=Round|Shape=RoundedRectangle|*
%AMROUNDEDRECTD72*
21,1,1.9524,2.5500,0,0,90.0*
21,1,1.3500,3.1524,0,0,90.0*
1,1,0.6024,1.2750,0.6750*
1,1,0.6024,1.2750,-0.6750*
1,1,0.6024,-1.2750,-0.6750*
1,1,0.6024,-1.2750,0.6750*
%
%ADD72ROUNDEDRECTD72*%
G04:AMPARAMS|DCode=73|XSize=1.1524mm|YSize=1.1524mm|CornerRadius=0.2262mm|HoleSize=0mm|Usage=FLASHONLY|Rotation=0.000|XOffset=0mm|YOffset=0mm|HoleType=Round|Shape=RoundedRectangle|*
%AMROUNDEDRECTD73*
21,1,1.1524,0.7000,0,0,0.0*
21,1,0.7000,1.1524,0,0,0.0*
1,1,0.4524,0.3500,-0.3500*
1,1,0.4524,-0.3500,-0.3500*
1,1,0.4524,-0.3500,0.3500*
1,1,0.4524,0.3500,0.3500*
%
%ADD73ROUNDEDRECTD73*%
%ADD74R,4.4524X2.2024*%
%ADD75R,1.9024X2.8024*%
%ADD76R,0.4000X1.5500*%
%ADD77R,1.2024X0.7524*%
%ADD78R,1.0024X1.3524*%
%ADD79R,1.7024X4.6524*%
G04:AMPARAMS|DCode=80|XSize=1.1524mm|YSize=1.9524mm|CornerRadius=0.2012mm|HoleSize=0mm|Usage=FLASHONLY|Rotation=90.000|XOffset=0mm|YOffset=0mm|HoleType=Round|Shape=RoundedRectangle|*
%AMROUNDEDRECTD80*
21,1,1.1524,1.5500,0,0,90.0*
21,1,0.7500,1.9524,0,0,90.0*
1,1,0.4024,0.7750,0.3750*
1,1,0.4024,0.7750,-0.3750*
1,1,0.4024,-0.7750,-0.3750*
1,1,0.4024,-0.7750,0.3750*
%
%ADD80ROUNDEDRECTD80*%
%ADD81C,1.5240*%
%ADD82C,3.6524*%
%ADD83O,1.8524X2.6524*%
%ADD84C,1.8524*%
%ADD85R,1.7524X1.7524*%
%ADD86C,1.7524*%
%ADD87O,2.5524X1.8524*%
%ADD88R,2.5524X1.8524*%
%ADD89O,1.8524X2.5524*%
%ADD90R,1.8524X2.5524*%
G04:AMPARAMS|DCode=91|XSize=2.1524mm|YSize=2.7524mm|CornerRadius=0.5762mm|HoleSize=0mm|Usage=FLASHONLY|Rotation=180.000|XOffset=0mm|YOffset=0mm|HoleType=Round|Shape=RoundedRectangle|*
%AMROUNDEDRECTD91*
21,1,2.1524,1.6000,0,0,180.0*
21,1,1.0000,2.7524,0,0,180.0*
1,1,1.1524,-0.5000,0.8000*
1,1,1.1524,0.5000,0.8000*
1,1,1.1524,0.5000,-0.8000*
1,1,1.1524,-0.5000,-0.8000*
%
%ADD91ROUNDEDRECTD91*%
G04:AMPARAMS|DCode=92|XSize=2.6524mm|YSize=2.1524mm|CornerRadius=0.5762mm|HoleSize=0mm|Usage=FLASHONLY|Rotation=180.000|XOffset=0mm|YOffset=0mm|HoleType=Round|Shape=RoundedRectangle|*
%AMROUNDEDRECTD92*
21,1,2.6524,1.0000,0,0,180.0*
21,1,1.5000,2.1524,0,0,180.0*
1,1,1.1524,-0.7500,0.5000*
1,1,1.1524,0.7500,0.5000*
1,1,1.1524,0.7500,-0.5000*
1,1,1.1524,-0.7500,-0.5000*
%
%ADD92ROUNDEDRECTD92*%
%ADD93R,2.1524X3.6524*%
%ADD94O,2.1524X3.6524*%
%ADD95C,5.6524*%
%ADD96C,0.9144*%
D54*
X00869240Y00418371D02*
D03*
D55*
X00853649Y00302180D02*
D03*
X00853649Y00279321D02*
D03*
X00321309Y00215820D02*
D03*
D56*
X00827169Y00342380D02*
D03*
Y00337380D02*
D03*
Y00332380D02*
D03*
Y00327380D02*
D03*
Y00322380D02*
D03*
X00871169Y00342380D02*
D03*
Y00337380D02*
D03*
Y00332380D02*
D03*
Y00327380D02*
D03*
Y00322380D02*
D03*
D57*
X00247639Y00372020D02*
D03*
D58*
X00124639Y00353030D02*
D03*
D59*
Y00486530D02*
D03*
D60*
X00246639Y00451530D02*
D03*
Y00402530D02*
D03*
D61*
X00119639Y00465530D02*
D03*
Y00454530D02*
D03*
Y00443530D02*
D03*
Y00432530D02*
D03*
Y00421530D02*
D03*
Y00410530D02*
D03*
Y00399530D02*
D03*
Y00388530D02*
D03*
D62*
X00724460Y00719080D02*
D03*
Y00698080D02*
D03*
X00693980Y00555840D02*
D03*
Y00576840D02*
D03*
X00630480Y00553980D02*
D03*
Y00532980D02*
D03*
X00609820D02*
D03*
Y00553980D02*
D03*
X00457760Y00555840D02*
D03*
Y00576840D02*
D03*
X00391639Y00553000D02*
D03*
Y00532000D02*
D03*
X00371400D02*
D03*
Y00553000D02*
D03*
X00869240Y00381260D02*
D03*
Y00360260D02*
D03*
X00849219Y00381260D02*
D03*
Y00360260D02*
D03*
X00828600Y00381260D02*
D03*
Y00360260D02*
D03*
X00323140Y00182960D02*
D03*
Y00161960D02*
D03*
X00201220Y00240880D02*
D03*
Y00261880D02*
D03*
X00236780Y00183140D02*
D03*
Y00162140D02*
D03*
D63*
X00309419Y00634920D02*
D03*
X00288419D02*
D03*
X00309419Y00613603D02*
D03*
X00288419D02*
D03*
X00689240Y00533320D02*
D03*
X00668240D02*
D03*
X00689240Y00427990D02*
D03*
X00668240D02*
D03*
X00689240Y00406320D02*
D03*
X00668240D02*
D03*
X00609820Y00427990D02*
D03*
X00630820D02*
D03*
X00609820Y00406320D02*
D03*
X00630820D02*
D03*
X00584879Y00550000D02*
D03*
X00563879D02*
D03*
X00451889Y00533320D02*
D03*
X00430889D02*
D03*
X00452939Y00427990D02*
D03*
X00431939D02*
D03*
X00452939Y00406320D02*
D03*
X00431939D02*
D03*
X00371060Y00427990D02*
D03*
X00392060D02*
D03*
X00371060Y00406320D02*
D03*
X00392060D02*
D03*
X00346340Y00548560D02*
D03*
X00325340D02*
D03*
X00910220Y00360600D02*
D03*
X00889220D02*
D03*
X00910220Y00381260D02*
D03*
X00889220D02*
D03*
X00759559Y00315000D02*
D03*
X00780559D02*
D03*
X00759559Y00335000D02*
D03*
X00780559D02*
D03*
X00552080Y00365680D02*
D03*
X00531080D02*
D03*
X00261840Y00241220D02*
D03*
X00282840D02*
D03*
X00261840Y00261540D02*
D03*
X00282840D02*
D03*
X00261840Y00281860D02*
D03*
X00282840D02*
D03*
X00181240Y00261540D02*
D03*
X00160240D02*
D03*
X00140600D02*
D03*
X00119600D02*
D03*
D64*
X00233639Y00588280D02*
D03*
Y00569780D02*
D03*
X00914960Y00435170D02*
D03*
Y00453670D02*
D03*
X00892100Y00435070D02*
D03*
Y00453570D02*
D03*
X00800059Y00334250D02*
D03*
Y00315750D02*
D03*
X00226620Y00242130D02*
D03*
Y00260630D02*
D03*
D65*
X00210889Y00510930D02*
D03*
Y00523630D02*
D03*
Y00536330D02*
D03*
Y00549030D02*
D03*
Y00561730D02*
D03*
Y00574430D02*
D03*
Y00587130D02*
D03*
X00156389Y00510930D02*
D03*
Y00523630D02*
D03*
Y00536330D02*
D03*
Y00549030D02*
D03*
Y00561730D02*
D03*
Y00574430D02*
D03*
Y00587130D02*
D03*
D66*
X00673000Y00578650D02*
D03*
X00654000D02*
D03*
X00663500Y00555150D02*
D03*
X00436780Y00578090D02*
D03*
X00417780D02*
D03*
X00427280Y00554590D02*
D03*
D67*
X00709379Y00530000D02*
D03*
X00739379D02*
D03*
X00710059Y00445000D02*
D03*
X00740059D02*
D03*
X00589600Y00528240D02*
D03*
X00559600D02*
D03*
X00589379Y00445000D02*
D03*
X00559379D02*
D03*
X00473240Y00528240D02*
D03*
X00503240D02*
D03*
X00473240Y00445000D02*
D03*
X00503240D02*
D03*
X00350840Y00446960D02*
D03*
X00320840D02*
D03*
X00350840Y00525700D02*
D03*
X00320840D02*
D03*
X00778040Y00380920D02*
D03*
X00808040D02*
D03*
X00198920Y00218360D02*
D03*
X00228920D02*
D03*
D68*
X00733710Y00502840D02*
D03*
X00715210D02*
D03*
X00734309Y00470000D02*
D03*
X00715809D02*
D03*
X00565350Y00502840D02*
D03*
X00583850D02*
D03*
X00565350Y00470250D02*
D03*
X00583850D02*
D03*
X00497490Y00502750D02*
D03*
X00478990D02*
D03*
X00497490Y00470000D02*
D03*
X00478990D02*
D03*
X00326590Y00470250D02*
D03*
X00345090D02*
D03*
X00326590Y00500300D02*
D03*
X00345090D02*
D03*
X00783790Y00355520D02*
D03*
X00802290D02*
D03*
X00136810Y00327380D02*
D03*
X00118310D02*
D03*
X00305059Y00309800D02*
D03*
X00323559D02*
D03*
X00349450Y00205000D02*
D03*
X00367950D02*
D03*
X00263090D02*
D03*
X00281590D02*
D03*
D69*
X00685629Y00450750D02*
D03*
Y00457250D02*
D03*
Y00463750D02*
D03*
Y00470250D02*
D03*
Y00476750D02*
D03*
Y00483250D02*
D03*
Y00489750D02*
D03*
Y00496250D02*
D03*
Y00502750D02*
D03*
Y00509250D02*
D03*
X00613129Y00450750D02*
D03*
Y00457250D02*
D03*
Y00463750D02*
D03*
Y00470250D02*
D03*
Y00476750D02*
D03*
Y00483250D02*
D03*
Y00489750D02*
D03*
Y00496250D02*
D03*
Y00502750D02*
D03*
Y00509250D02*
D03*
X00375909D02*
D03*
Y00502750D02*
D03*
Y00496250D02*
D03*
Y00489750D02*
D03*
Y00483250D02*
D03*
Y00476750D02*
D03*
Y00470250D02*
D03*
Y00463750D02*
D03*
Y00457250D02*
D03*
Y00450750D02*
D03*
X00448409Y00509250D02*
D03*
Y00502750D02*
D03*
Y00496250D02*
D03*
Y00489750D02*
D03*
Y00483250D02*
D03*
Y00476750D02*
D03*
Y00470250D02*
D03*
Y00463750D02*
D03*
Y00457250D02*
D03*
Y00450750D02*
D03*
D70*
X00869240Y00436800D02*
D03*
Y00413940D02*
D03*
Y00425370D02*
D03*
D71*
X00896470Y00419110D02*
D03*
X00889970D02*
D03*
Y00398610D02*
D03*
X00896470D02*
D03*
X00902970D02*
D03*
X00909470D02*
D03*
X00902970Y00419110D02*
D03*
X00909470D02*
D03*
D72*
X00720059Y00294000D02*
D03*
Y00356000D02*
D03*
D73*
X00872079Y00302180D02*
D03*
X00849219D02*
D03*
X00860649D02*
D03*
X00872079Y00279320D02*
D03*
X00849219D02*
D03*
X00860649D02*
D03*
X00302879Y00215820D02*
D03*
X00325739D02*
D03*
X00314309D02*
D03*
D74*
X00728809Y00220000D02*
D03*
X00821309D02*
D03*
D75*
X00813360Y00130648D02*
D03*
Y00088648D02*
D03*
D76*
X00324309Y00283540D02*
D03*
X00319309D02*
D03*
X00314309D02*
D03*
X00309309D02*
D03*
X00304309D02*
D03*
X00324309Y00239540D02*
D03*
X00319309D02*
D03*
X00314309D02*
D03*
X00309309D02*
D03*
X00304309D02*
D03*
D77*
X00372450Y00162960D02*
D03*
Y00172460D02*
D03*
Y00181960D02*
D03*
X00344950D02*
D03*
Y00162960D02*
D03*
X00286090D02*
D03*
Y00172460D02*
D03*
Y00181960D02*
D03*
X00258590D02*
D03*
Y00162960D02*
D03*
X00176870Y00216480D02*
D03*
Y00225980D02*
D03*
Y00235480D02*
D03*
X00149370D02*
D03*
Y00216480D02*
D03*
D78*
X00208840Y00195510D02*
D03*
Y00165010D02*
D03*
D79*
X00143870Y00175180D02*
D03*
X00182370D02*
D03*
D80*
X00125020Y00213520D02*
D03*
Y00243520D02*
D03*
D81*
X00050000Y00250000D02*
D03*
X00890000D02*
D03*
X00050000Y00840000D02*
D03*
D82*
X00225489Y00722280D02*
D03*
Y00900080D02*
D03*
D83*
X00644589Y00912780D02*
D03*
X00619189D02*
D03*
X00593789D02*
D03*
X00568389D02*
D03*
X00542989D02*
D03*
X00517589D02*
D03*
X00492189D02*
D03*
X00466789D02*
D03*
X00441389D02*
D03*
X00415989D02*
D03*
X00390589D02*
D03*
X00365189D02*
D03*
X00339789D02*
D03*
X00314389D02*
D03*
X00288989D02*
D03*
X00263589D02*
D03*
Y00709580D02*
D03*
X00288989D02*
D03*
X00314389D02*
D03*
X00339789D02*
D03*
X00365189D02*
D03*
X00390589D02*
D03*
X00415989D02*
D03*
X00441389D02*
D03*
X00466789D02*
D03*
X00492189D02*
D03*
X00517589D02*
D03*
X00542989D02*
D03*
D84*
X00709220Y00642540D02*
D03*
X00684220D02*
D03*
X00659220D02*
D03*
X00709220Y00675540D02*
D03*
X00684220D02*
D03*
X00659220D02*
D03*
D85*
X00577460Y00665400D02*
D03*
D86*
X00597460D02*
D03*
D87*
X00526340Y00647620D02*
D03*
X00358430Y00236140D02*
D03*
Y00261540D02*
D03*
X00150420Y00848280D02*
D03*
Y00822880D02*
D03*
Y00797480D02*
D03*
D88*
X00526340Y00673020D02*
D03*
X00358430Y00286940D02*
D03*
X00150420Y00873680D02*
D03*
D89*
X00238189Y00665400D02*
D03*
X00263589D02*
D03*
X00288989D02*
D03*
X00645859Y00155000D02*
D03*
X00620459D02*
D03*
X00645859Y00335000D02*
D03*
X00620459D02*
D03*
X00490859D02*
D03*
X00465459D02*
D03*
X00490859Y00155000D02*
D03*
X00465459D02*
D03*
D90*
X00314389Y00665400D02*
D03*
X00595059Y00155000D02*
D03*
Y00335000D02*
D03*
X00440059D02*
D03*
Y00155000D02*
D03*
D91*
X00901399Y00112679D02*
D03*
D92*
X00873399Y00088679D02*
D03*
Y00137679D02*
D03*
D93*
X00705279Y00070640D02*
D03*
X00590979D02*
D03*
X00461439D02*
D03*
X00347139D02*
D03*
X00065199D02*
D03*
D94*
X00756079D02*
D03*
X00641779D02*
D03*
X00512239D02*
D03*
X00397939D02*
D03*
X00166799D02*
D03*
X00115999D02*
D03*
X00217599D02*
D03*
X00268399D02*
D03*
D95*
X00050000Y00910000D02*
D03*
X00890000D02*
D03*
Y00195000D02*
D03*
X00050000Y00185000D02*
D03*
D96*
X00840303Y00337740D02*
D03*
X00463880Y00460676D02*
D03*
X00456431Y00441584D02*
D03*
X00685629Y00441686D02*
D03*
X00696675Y00441960D02*
D03*
X00851000Y00311000D02*
D03*
M02*
