G04*
G04 #@! TF.GenerationSoftware,Altium Limited,Altium Designer,19.0.12 (326)*
G04*
G04 Layer_Color=8388736*
%FSAX44Y44*%
%MOMM*%
G71*
G01*
G75*
%ADD12C,0.2000*%
D12*
X00008464Y01132746D02*
X00006348Y01134862D01*
X00002116D01*
X00000000Y01132746D01*
Y01124282D01*
X00002116Y01122166D01*
X00006348D01*
X00008464Y01124282D01*
Y01128514D01*
X00004232D01*
X00012696Y01122166D02*
Y01134862D01*
X00019044D01*
X00021160Y01132746D01*
Y01128514D01*
X00019044Y01126398D01*
X00012696D01*
X00016928D02*
X00021160Y01122166D01*
X00031740Y01134862D02*
X00027508D01*
X00025392Y01132746D01*
Y01124282D01*
X00027508Y01122166D01*
X00031740D01*
X00033856Y01124282D01*
Y01132746D01*
X00031740Y01134862D01*
X00038088D02*
Y01124282D01*
X00040204Y01122166D01*
X00044436D01*
X00046552Y01124282D01*
Y01134862D01*
X00050784Y01122166D02*
Y01134862D01*
X00059247Y01122166D01*
Y01134862D01*
X00063479D02*
Y01122166D01*
X00069827D01*
X00071943Y01124282D01*
Y01132746D01*
X00069827Y01134862D01*
X00063479D01*
X00088871D02*
Y01122166D01*
X00093103Y01126398D01*
X00097335Y01122166D01*
Y01134862D01*
X00101567Y01122166D02*
Y01130630D01*
X00105799Y01134862D01*
X00110031Y01130630D01*
Y01122166D01*
Y01128514D01*
X00101567D01*
X00114263Y01134862D02*
X00122727D01*
X00118495D01*
Y01122166D01*
X00135423Y01134862D02*
X00126959D01*
Y01122166D01*
X00135423D01*
X00126959Y01128514D02*
X00131191D01*
X00139655Y01122166D02*
Y01134862D01*
X00146003D01*
X00148119Y01132746D01*
Y01128514D01*
X00146003Y01126398D01*
X00139655D01*
X00143887D02*
X00148119Y01122166D01*
X00165047D02*
Y01134862D01*
X00169279Y01130630D01*
X00173510Y01134862D01*
Y01122166D01*
X00184090Y01134862D02*
X00179858D01*
X00177742Y01132746D01*
Y01124282D01*
X00179858Y01122166D01*
X00184090D01*
X00186206Y01124282D01*
Y01132746D01*
X00184090Y01134862D01*
X00190438Y01122166D02*
Y01134862D01*
X00198902Y01122166D01*
Y01134862D01*
X00203134D02*
X00207366D01*
X00205250D01*
Y01122166D01*
X00203134D01*
X00207366D01*
X00213714Y01134862D02*
X00222178D01*
X00217946D01*
Y01122166D01*
X00232758Y01134862D02*
X00228526D01*
X00226410Y01132746D01*
Y01124282D01*
X00228526Y01122166D01*
X00232758D01*
X00234874Y01124282D01*
Y01132746D01*
X00232758Y01134862D01*
X00239106Y01122166D02*
Y01134862D01*
X00245454D01*
X00247570Y01132746D01*
Y01128514D01*
X00245454Y01126398D01*
X00239106D01*
X00243338D02*
X00247570Y01122166D01*
X00251802Y01134862D02*
X00256034D01*
X00253918D01*
Y01122166D01*
X00251802D01*
X00256034D01*
X00262382D02*
Y01134862D01*
X00270846Y01122166D01*
Y01134862D01*
X00283542Y01132746D02*
X00281425Y01134862D01*
X00277194D01*
X00275077Y01132746D01*
Y01124282D01*
X00277194Y01122166D01*
X00281425D01*
X00283542Y01124282D01*
Y01128514D01*
X00279310D01*
X00308933Y01132746D02*
X00306817Y01134862D01*
X00302585D01*
X00300469Y01132746D01*
Y01130630D01*
X00302585Y01128514D01*
X00306817D01*
X00308933Y01126398D01*
Y01124282D01*
X00306817Y01122166D01*
X00302585D01*
X00300469Y01124282D01*
X00313165Y01134862D02*
Y01132746D01*
X00317397Y01128514D01*
X00321629Y01132746D01*
Y01134862D01*
X00317397Y01128514D02*
Y01122166D01*
X00334325Y01132746D02*
X00332209Y01134862D01*
X00327977D01*
X00325861Y01132746D01*
Y01130630D01*
X00327977Y01128514D01*
X00332209D01*
X00334325Y01126398D01*
Y01124282D01*
X00332209Y01122166D01*
X00327977D01*
X00325861Y01124282D01*
X00338557Y01134862D02*
X00347021D01*
X00342789D01*
Y01122166D01*
X00359717Y01134862D02*
X00351253D01*
Y01122166D01*
X00359717D01*
X00351253Y01128514D02*
X00355485D01*
X00363949Y01122166D02*
Y01134862D01*
X00368181Y01130630D01*
X00372413Y01134862D01*
Y01122166D01*
X00389341Y01134862D02*
Y01126398D01*
X00393573Y01122166D01*
X00397804Y01126398D01*
Y01134862D01*
X00402036Y01132746D02*
X00404152Y01134862D01*
X00408384D01*
X00410500Y01132746D01*
Y01124282D01*
X00408384Y01122166D01*
X00404152D01*
X00402036Y01124282D01*
Y01132746D01*
X00414732Y01122166D02*
Y01124282D01*
X00416848D01*
Y01122166D01*
X00414732D01*
X00425312D02*
X00429544D01*
X00427428D01*
Y01134862D01*
X00425312Y01132746D01*
X00000000Y01114827D02*
X00008464D01*
X00004232D01*
Y01102131D01*
X00012696Y01114827D02*
Y01112711D01*
X00016928Y01108479D01*
X00021160Y01112711D01*
Y01114827D01*
X00016928Y01108479D02*
Y01102131D01*
X00025392D02*
Y01114827D01*
X00031740D01*
X00033856Y01112711D01*
Y01108479D01*
X00031740Y01106363D01*
X00025392D01*
X00046552Y01114827D02*
X00038088D01*
Y01102131D01*
X00046552D01*
X00038088Y01108479D02*
X00042320D01*
X00050784Y01110595D02*
X00052899D01*
Y01108479D01*
X00050784D01*
Y01110595D01*
Y01104247D02*
X00052899D01*
Y01102131D01*
X00050784D01*
Y01104247D01*
X00082523Y01114827D02*
X00074059D01*
Y01108479D01*
X00078291D01*
X00074059D01*
Y01102131D01*
X00086755D02*
Y01114827D01*
X00093103D01*
X00095219Y01112711D01*
Y01108479D01*
X00093103Y01106363D01*
X00086755D01*
X00090987D02*
X00095219Y01102131D01*
X00099451Y01108479D02*
X00107915D01*
X00118495Y01102131D02*
Y01114827D01*
X00112147Y01108479D01*
X00120611D01*
X00137539Y01114827D02*
Y01102131D01*
X00143887D01*
X00146003Y01104247D01*
Y01112711D01*
X00143887Y01114827D01*
X00137539D01*
X00150235Y01110595D02*
Y01104247D01*
X00152351Y01102131D01*
X00158699D01*
Y01110595D01*
X00165047D02*
X00169279D01*
X00171395Y01108479D01*
Y01102131D01*
X00165047D01*
X00162931Y01104247D01*
X00165047Y01106363D01*
X00171395D01*
X00175626Y01102131D02*
X00179858D01*
X00177742D01*
Y01114827D01*
X00175626D01*
X00198902D02*
Y01102131D01*
X00207366D01*
X00213714Y01110595D02*
X00217946D01*
X00220062Y01108479D01*
Y01102131D01*
X00213714D01*
X00211598Y01104247D01*
X00213714Y01106363D01*
X00220062D01*
X00224294Y01110595D02*
Y01104247D01*
X00226410Y01102131D01*
X00232758D01*
Y01100015D01*
X00230642Y01097899D01*
X00228526D01*
X00232758Y01102131D02*
Y01110595D01*
X00243338Y01102131D02*
X00239106D01*
X00236990Y01104247D01*
Y01108479D01*
X00239106Y01110595D01*
X00243338D01*
X00245454Y01108479D01*
Y01106363D01*
X00236990D01*
X00249686Y01110595D02*
Y01102131D01*
Y01106363D01*
X00251802Y01108479D01*
X00253918Y01110595D01*
X00256034D01*
X00008464Y01088444D02*
X00006348Y01090560D01*
X00002116D01*
X00000000Y01088444D01*
Y01079980D01*
X00002116Y01077864D01*
X00006348D01*
X00008464Y01079980D01*
X00019044Y01090560D02*
X00014812D01*
X00012696Y01088444D01*
Y01079980D01*
X00014812Y01077864D01*
X00019044D01*
X00021160Y01079980D01*
Y01088444D01*
X00019044Y01090560D01*
X00025392Y01077864D02*
Y01090560D01*
X00031740D01*
X00033856Y01088444D01*
Y01084212D01*
X00031740Y01082096D01*
X00025392D01*
X00038088Y01077864D02*
Y01090560D01*
X00044436D01*
X00046552Y01088444D01*
Y01084212D01*
X00044436Y01082096D01*
X00038088D01*
X00059247Y01090560D02*
X00050784D01*
Y01077864D01*
X00059247D01*
X00050784Y01084212D02*
X00055016D01*
X00063479Y01077864D02*
Y01090560D01*
X00069827D01*
X00071943Y01088444D01*
Y01084212D01*
X00069827Y01082096D01*
X00063479D01*
X00067711D02*
X00071943Y01077864D01*
X00088871Y01090560D02*
X00097335D01*
X00093103D01*
Y01077864D01*
X00101567Y01090560D02*
Y01077864D01*
Y01084212D01*
X00110031D01*
Y01090560D01*
Y01077864D01*
X00114263Y01090560D02*
X00118495D01*
X00116379D01*
Y01077864D01*
X00114263D01*
X00118495D01*
X00133307Y01088444D02*
X00131191Y01090560D01*
X00126959D01*
X00124843Y01088444D01*
Y01079980D01*
X00126959Y01077864D01*
X00131191D01*
X00133307Y01079980D01*
X00137539Y01090560D02*
Y01077864D01*
Y01082096D01*
X00146003Y01090560D01*
X00139655Y01084212D01*
X00146003Y01077864D01*
X00150235D02*
Y01090560D01*
X00158699Y01077864D01*
Y01090560D01*
X00171395D02*
X00162931D01*
Y01077864D01*
X00171395D01*
X00162931Y01084212D02*
X00167162D01*
X00184090Y01088444D02*
X00181974Y01090560D01*
X00177742D01*
X00175626Y01088444D01*
Y01086328D01*
X00177742Y01084212D01*
X00181974D01*
X00184090Y01082096D01*
Y01079980D01*
X00181974Y01077864D01*
X00177742D01*
X00175626Y01079980D01*
X00196786Y01088444D02*
X00194670Y01090560D01*
X00190438D01*
X00188322Y01088444D01*
Y01086328D01*
X00190438Y01084212D01*
X00194670D01*
X00196786Y01082096D01*
Y01079980D01*
X00194670Y01077864D01*
X00190438D01*
X00188322Y01079980D01*
X00201018Y01086328D02*
X00203134D01*
Y01084212D01*
X00201018D01*
Y01086328D01*
Y01079980D02*
X00203134D01*
Y01077864D01*
X00201018D01*
Y01079980D01*
X00224294Y01077864D02*
X00228526D01*
X00226410D01*
Y01090560D01*
X00224294Y01088444D01*
X00234874Y01077864D02*
Y01079980D01*
X00236990D01*
Y01077864D01*
X00234874D01*
X00245454Y01088444D02*
X00247570Y01090560D01*
X00251802D01*
X00253918Y01088444D01*
Y01079980D01*
X00251802Y01077864D01*
X00247570D01*
X00245454Y01079980D01*
Y01088444D01*
X00277194Y01090560D02*
X00272962D01*
X00270846Y01088444D01*
Y01079980D01*
X00272962Y01077864D01*
X00277194D01*
X00279310Y01079980D01*
Y01088444D01*
X00277194Y01090560D01*
X00283542Y01086328D02*
X00292005D01*
X00283542Y01077864D01*
X00292005D01*
X00000000Y01057829D02*
Y01070525D01*
X00006348D01*
X00008464Y01068409D01*
Y01064177D01*
X00006348Y01062061D01*
X00000000D01*
X00021160Y01068409D02*
X00019044Y01070525D01*
X00014812D01*
X00012696Y01068409D01*
Y01059945D01*
X00014812Y01057829D01*
X00019044D01*
X00021160Y01059945D01*
X00025392Y01070525D02*
Y01057829D01*
X00031740D01*
X00033856Y01059945D01*
Y01062061D01*
X00031740Y01064177D01*
X00025392D01*
X00031740D01*
X00033856Y01066293D01*
Y01068409D01*
X00031740Y01070525D01*
X00025392D01*
X00050784D02*
X00059247D01*
X00055016D01*
Y01057829D01*
X00063479Y01070525D02*
Y01057829D01*
Y01064177D01*
X00071943D01*
Y01070525D01*
Y01057829D01*
X00076175Y01070525D02*
X00080407D01*
X00078291D01*
Y01057829D01*
X00076175D01*
X00080407D01*
X00095219Y01068409D02*
X00093103Y01070525D01*
X00088871D01*
X00086755Y01068409D01*
Y01059945D01*
X00088871Y01057829D01*
X00093103D01*
X00095219Y01059945D01*
X00099451Y01070525D02*
Y01057829D01*
Y01062061D01*
X00107915Y01070525D01*
X00101567Y01064177D01*
X00107915Y01057829D01*
X00112147D02*
Y01070525D01*
X00120611Y01057829D01*
Y01070525D01*
X00133307D02*
X00124843D01*
Y01057829D01*
X00133307D01*
X00124843Y01064177D02*
X00129075D01*
X00146003Y01068409D02*
X00143887Y01070525D01*
X00139655D01*
X00137539Y01068409D01*
Y01066293D01*
X00139655Y01064177D01*
X00143887D01*
X00146003Y01062061D01*
Y01059945D01*
X00143887Y01057829D01*
X00139655D01*
X00137539Y01059945D01*
X00158699Y01068409D02*
X00156583Y01070525D01*
X00152351D01*
X00150235Y01068409D01*
Y01066293D01*
X00152351Y01064177D01*
X00156583D01*
X00158699Y01062061D01*
Y01059945D01*
X00156583Y01057829D01*
X00152351D01*
X00150235Y01059945D01*
X00162931Y01066293D02*
X00165047D01*
Y01064177D01*
X00162931D01*
Y01066293D01*
Y01059945D02*
X00165047D01*
Y01057829D01*
X00162931D01*
Y01059945D01*
X00186206Y01057829D02*
X00190438D01*
X00188322D01*
Y01070525D01*
X00186206Y01068409D01*
X00196786Y01057829D02*
Y01059945D01*
X00198902D01*
Y01057829D01*
X00196786D01*
X00215830Y01070525D02*
X00211598Y01068409D01*
X00207366Y01064177D01*
Y01059945D01*
X00209482Y01057829D01*
X00213714D01*
X00215830Y01059945D01*
Y01062061D01*
X00213714Y01064177D01*
X00207366D01*
X00220062Y01057829D02*
Y01066293D01*
X00222178D01*
X00224294Y01064177D01*
Y01057829D01*
Y01064177D01*
X00226410Y01066293D01*
X00228526Y01064177D01*
Y01057829D01*
X00232758D02*
Y01066293D01*
X00234874D01*
X00236990Y01064177D01*
Y01057829D01*
Y01064177D01*
X00239106Y01066293D01*
X00241222Y01064177D01*
Y01057829D01*
X00008464Y01048374D02*
X00006348Y01050490D01*
X00002116D01*
X00000000Y01048374D01*
Y01046258D01*
X00002116Y01044142D01*
X00006348D01*
X00008464Y01042026D01*
Y01039910D01*
X00006348Y01037794D01*
X00002116D01*
X00000000Y01039910D01*
X00019044Y01050490D02*
X00014812D01*
X00012696Y01048374D01*
Y01039910D01*
X00014812Y01037794D01*
X00019044D01*
X00021160Y01039910D01*
Y01048374D01*
X00019044Y01050490D01*
X00025392D02*
Y01037794D01*
X00033856D01*
X00038088Y01050490D02*
Y01037794D01*
X00044436D01*
X00046552Y01039910D01*
Y01048374D01*
X00044436Y01050490D01*
X00038088D01*
X00059247D02*
X00050784D01*
Y01037794D01*
X00059247D01*
X00050784Y01044142D02*
X00055016D01*
X00063479Y01037794D02*
Y01050490D01*
X00069827D01*
X00071943Y01048374D01*
Y01044142D01*
X00069827Y01042026D01*
X00063479D01*
X00067711D02*
X00071943Y01037794D01*
X00088871D02*
Y01050490D01*
X00093103Y01046258D01*
X00097335Y01050490D01*
Y01037794D01*
X00101567D02*
Y01046258D01*
X00105799Y01050490D01*
X00110031Y01046258D01*
Y01037794D01*
Y01044142D01*
X00101567D01*
X00122727Y01048374D02*
X00120611Y01050490D01*
X00116379D01*
X00114263Y01048374D01*
Y01046258D01*
X00116379Y01044142D01*
X00120611D01*
X00122727Y01042026D01*
Y01039910D01*
X00120611Y01037794D01*
X00116379D01*
X00114263Y01039910D01*
X00126959Y01050490D02*
Y01037794D01*
Y01042026D01*
X00135423Y01050490D01*
X00129075Y01044142D01*
X00135423Y01037794D01*
X00139655Y01046258D02*
X00141771D01*
Y01044142D01*
X00139655D01*
Y01046258D01*
Y01039910D02*
X00141771D01*
Y01037794D01*
X00139655D01*
Y01039910D01*
X00171395Y01048374D02*
X00169279Y01050490D01*
X00165047D01*
X00162931Y01048374D01*
Y01039910D01*
X00165047Y01037794D01*
X00169279D01*
X00171395Y01039910D01*
Y01044142D01*
X00167162D01*
X00175626Y01046258D02*
Y01037794D01*
Y01042026D01*
X00177742Y01044142D01*
X00179858Y01046258D01*
X00181974D01*
X00194670Y01037794D02*
X00190438D01*
X00188322Y01039910D01*
Y01044142D01*
X00190438Y01046258D01*
X00194670D01*
X00196786Y01044142D01*
Y01042026D01*
X00188322D01*
X00207366Y01037794D02*
X00203134D01*
X00201018Y01039910D01*
Y01044142D01*
X00203134Y01046258D01*
X00207366D01*
X00209482Y01044142D01*
Y01042026D01*
X00201018D01*
X00213714Y01037794D02*
Y01046258D01*
X00220062D01*
X00222178Y01044142D01*
Y01037794D01*
X00008464Y01028339D02*
X00006348Y01030455D01*
X00002116D01*
X00000000Y01028339D01*
Y01026223D01*
X00002116Y01024107D01*
X00006348D01*
X00008464Y01021991D01*
Y01019875D01*
X00006348Y01017759D01*
X00002116D01*
X00000000Y01019875D01*
X00012696Y01030455D02*
X00016928D01*
X00014812D01*
Y01017759D01*
X00012696D01*
X00016928D01*
X00023276Y01030455D02*
Y01017759D01*
X00031740D01*
X00035972Y01030455D02*
Y01017759D01*
Y01021991D01*
X00044436Y01030455D01*
X00038088Y01024107D01*
X00044436Y01017759D01*
X00057132Y01028339D02*
X00055016Y01030455D01*
X00050784D01*
X00048668Y01028339D01*
Y01026223D01*
X00050784Y01024107D01*
X00055016D01*
X00057132Y01021991D01*
Y01019875D01*
X00055016Y01017759D01*
X00050784D01*
X00048668Y01019875D01*
X00069827Y01028339D02*
X00067711Y01030455D01*
X00063479D01*
X00061364Y01028339D01*
Y01019875D01*
X00063479Y01017759D01*
X00067711D01*
X00069827Y01019875D01*
X00074059Y01017759D02*
Y01030455D01*
X00080407D01*
X00082523Y01028339D01*
Y01024107D01*
X00080407Y01021991D01*
X00074059D01*
X00078291D02*
X00082523Y01017759D01*
X00095219Y01030455D02*
X00086755D01*
Y01017759D01*
X00095219D01*
X00086755Y01024107D02*
X00090987D01*
X00107915Y01030455D02*
X00099451D01*
Y01017759D01*
X00107915D01*
X00099451Y01024107D02*
X00103683D01*
X00112147Y01017759D02*
Y01030455D01*
X00120611Y01017759D01*
Y01030455D01*
X00124843Y01026223D02*
X00126959D01*
Y01024107D01*
X00124843D01*
Y01026223D01*
Y01019875D02*
X00126959D01*
Y01017759D01*
X00124843D01*
Y01019875D01*
X00148119Y01030455D02*
Y01017759D01*
X00152351Y01021991D01*
X00156583Y01017759D01*
Y01030455D01*
X00160815D02*
Y01017759D01*
Y01024107D01*
X00162931Y01026223D01*
X00167162D01*
X00169279Y01024107D01*
Y01017759D01*
X00173510D02*
X00177742D01*
X00175626D01*
Y01026223D01*
X00173510D01*
X00186206Y01028339D02*
Y01026223D01*
X00184090D01*
X00188322D01*
X00186206D01*
Y01019875D01*
X00188322Y01017759D01*
X00201018D02*
X00196786D01*
X00194670Y01019875D01*
Y01024107D01*
X00196786Y01026223D01*
X00201018D01*
X00203134Y01024107D01*
Y01021991D01*
X00194670D01*
X00000000Y01010420D02*
Y00997724D01*
Y01004072D01*
X00008464D01*
Y01010420D01*
Y00997724D01*
X00012696D02*
Y01006188D01*
X00016928Y01010420D01*
X00021160Y01006188D01*
Y00997724D01*
Y01004072D01*
X00012696D01*
X00033856Y01008304D02*
X00031740Y01010420D01*
X00027508D01*
X00025392Y01008304D01*
Y01006188D01*
X00027508Y01004072D01*
X00031740D01*
X00033856Y01001956D01*
Y00999840D01*
X00031740Y00997724D01*
X00027508D01*
X00025392Y00999840D01*
X00038088Y01010420D02*
Y00997724D01*
X00046552D01*
X00050784Y01006188D02*
X00052899D01*
Y01004072D01*
X00050784D01*
Y01006188D01*
Y00999840D02*
X00052899D01*
Y00997724D01*
X00050784D01*
Y00999840D01*
X00074059Y01010420D02*
Y00997724D01*
X00082523D01*
X00093103D02*
X00088871D01*
X00086755Y00999840D01*
Y01004072D01*
X00088871Y01006188D01*
X00093103D01*
X00095219Y01004072D01*
Y01001956D01*
X00086755D01*
X00101567Y01006188D02*
X00105799D01*
X00107915Y01004072D01*
Y00997724D01*
X00101567D01*
X00099451Y00999840D01*
X00101567Y01001956D01*
X00107915D01*
X00120611Y01010420D02*
Y00997724D01*
X00114263D01*
X00112147Y00999840D01*
Y01004072D01*
X00114263Y01006188D01*
X00120611D01*
X00146003Y01010420D02*
X00137539D01*
Y01004072D01*
X00141771D01*
X00137539D01*
Y00997724D01*
X00150235Y01006188D02*
Y00997724D01*
Y01001956D01*
X00152351Y01004072D01*
X00154467Y01006188D01*
X00156583D01*
X00169279Y00997724D02*
X00165047D01*
X00162931Y00999840D01*
Y01004072D01*
X00165047Y01006188D01*
X00169279D01*
X00171395Y01004072D01*
Y01001956D01*
X00162931D01*
X00181974Y00997724D02*
X00177742D01*
X00175626Y00999840D01*
Y01004072D01*
X00177742Y01006188D01*
X00181974D01*
X00184090Y01004072D01*
Y01001956D01*
X00175626D01*
X00000000Y00990385D02*
Y00981921D01*
X00004232Y00977689D01*
X00008464Y00981921D01*
Y00990385D01*
X00012696D02*
X00016928D01*
X00014812D01*
Y00977689D01*
X00012696D01*
X00016928D01*
X00023276D02*
Y00986153D01*
X00027508Y00990385D01*
X00031740Y00986153D01*
Y00977689D01*
Y00984037D01*
X00023276D01*
X00035972Y00986153D02*
X00038088D01*
Y00984037D01*
X00035972D01*
Y00986153D01*
Y00979805D02*
X00038088D01*
Y00977689D01*
X00035972D01*
Y00979805D01*
X00059247Y00990385D02*
X00067711D01*
X00063479D01*
Y00977689D01*
X00078291D02*
X00074059D01*
X00071943Y00979805D01*
Y00984037D01*
X00074059Y00986153D01*
X00078291D01*
X00080407Y00984037D01*
Y00981921D01*
X00071943D01*
X00084639Y00977689D02*
Y00986153D01*
X00090987D01*
X00093103Y00984037D01*
Y00977689D01*
X00099451Y00988269D02*
Y00986153D01*
X00097335D01*
X00101567D01*
X00099451D01*
Y00979805D01*
X00101567Y00977689D01*
X00114263D02*
X00110031D01*
X00107915Y00979805D01*
Y00984037D01*
X00110031Y00986153D01*
X00114263D01*
X00116379Y00984037D01*
Y00981921D01*
X00107915D01*
X00129075Y00990385D02*
Y00977689D01*
X00122727D01*
X00120611Y00979805D01*
Y00984037D01*
X00122727Y00986153D01*
X00129075D01*
M02*
