G04*
G04 #@! TF.GenerationSoftware,Altium Limited,Altium Designer,19.0.12 (326)*
G04*
G04 Layer_Physical_Order=2*
G04 Layer_Color=16711680*
%FSAX44Y44*%
%MOMM*%
G71*
G01*
G75*
%ADD15C,0.3810*%
%ADD22C,0.2540*%
%ADD101C,0.5080*%
%ADD102C,0.7620*%
%ADD107C,3.5000*%
%ADD108O,1.7000X2.5000*%
%ADD109C,1.7000*%
%ADD110R,1.6000X1.6000*%
%ADD111C,1.6000*%
%ADD112O,2.4000X1.7000*%
%ADD113R,2.4000X1.7000*%
%ADD114O,1.7000X2.4000*%
%ADD115R,1.7000X2.4000*%
G04:AMPARAMS|DCode=116|XSize=2mm|YSize=2.6mm|CornerRadius=0.5mm|HoleSize=0mm|Usage=FLASHONLY|Rotation=180.000|XOffset=0mm|YOffset=0mm|HoleType=Round|Shape=RoundedRectangle|*
%AMROUNDEDRECTD116*
21,1,2.0000,1.6000,0,0,180.0*
21,1,1.0000,2.6000,0,0,180.0*
1,1,1.0000,-0.5000,0.8000*
1,1,1.0000,0.5000,0.8000*
1,1,1.0000,0.5000,-0.8000*
1,1,1.0000,-0.5000,-0.8000*
%
%ADD116ROUNDEDRECTD116*%
G04:AMPARAMS|DCode=117|XSize=2.5mm|YSize=2mm|CornerRadius=0.5mm|HoleSize=0mm|Usage=FLASHONLY|Rotation=180.000|XOffset=0mm|YOffset=0mm|HoleType=Round|Shape=RoundedRectangle|*
%AMROUNDEDRECTD117*
21,1,2.5000,1.0000,0,0,180.0*
21,1,1.5000,2.0000,0,0,180.0*
1,1,1.0000,-0.7500,0.5000*
1,1,1.0000,0.7500,0.5000*
1,1,1.0000,0.7500,-0.5000*
1,1,1.0000,-0.7500,-0.5000*
%
%ADD117ROUNDEDRECTD117*%
%ADD118R,2.0000X3.5000*%
%ADD119O,2.0000X3.5000*%
%ADD120C,5.5000*%
%ADD121C,0.7620*%
%ADD122C,1.0160*%
G36*
X00935597Y00004403D02*
X00004403D01*
X00004402Y00955597D01*
X00935597Y00955598D01*
X00935597Y00004403D01*
D02*
G37*
%LPC*%
G36*
X00569913Y00927715D02*
Y00914304D01*
X00579525D01*
Y00916780D01*
X00579145Y00919662D01*
X00578033Y00922348D01*
X00576263Y00924654D01*
X00573957Y00926423D01*
X00571271Y00927536D01*
X00569913Y00927715D01*
D02*
G37*
G36*
X00566865D02*
X00565507Y00927536D01*
X00562822Y00926423D01*
X00560516Y00924654D01*
X00558746Y00922348D01*
X00557634Y00919662D01*
X00557254Y00916780D01*
Y00914304D01*
X00566865D01*
Y00927715D01*
D02*
G37*
G36*
X00579525Y00911256D02*
X00569913D01*
Y00897845D01*
X00571271Y00898024D01*
X00573957Y00899137D01*
X00576263Y00900906D01*
X00578033Y00903212D01*
X00579145Y00905898D01*
X00579525Y00908780D01*
Y00911256D01*
D02*
G37*
G36*
X00566865D02*
X00557254D01*
Y00908780D01*
X00557634Y00905898D01*
X00558746Y00903212D01*
X00560516Y00900906D01*
X00562822Y00899137D01*
X00565507Y00898024D01*
X00566865Y00897845D01*
Y00911256D01*
D02*
G37*
G36*
X00644589Y00928428D02*
X00641575Y00928031D01*
X00638765Y00926867D01*
X00636353Y00925016D01*
X00634502Y00922604D01*
X00633339Y00919795D01*
X00632942Y00916780D01*
Y00908780D01*
X00633339Y00905765D01*
X00634502Y00902956D01*
X00636353Y00900544D01*
X00638765Y00898693D01*
X00641575Y00897529D01*
X00644589Y00897132D01*
X00647604Y00897529D01*
X00650413Y00898693D01*
X00652825Y00900544D01*
X00654677Y00902956D01*
X00655840Y00905765D01*
X00656237Y00908780D01*
Y00916780D01*
X00655840Y00919795D01*
X00654677Y00922604D01*
X00652825Y00925016D01*
X00650413Y00926867D01*
X00647604Y00928031D01*
X00644589Y00928428D01*
D02*
G37*
G36*
X00619189D02*
X00616175Y00928031D01*
X00613366Y00926867D01*
X00610953Y00925016D01*
X00609102Y00922604D01*
X00607939Y00919795D01*
X00607542Y00916780D01*
Y00908780D01*
X00607939Y00905765D01*
X00609102Y00902956D01*
X00610953Y00900544D01*
X00613366Y00898693D01*
X00616175Y00897529D01*
X00619189Y00897132D01*
X00622204Y00897529D01*
X00625013Y00898693D01*
X00627425Y00900544D01*
X00629277Y00902956D01*
X00630440Y00905765D01*
X00630837Y00908780D01*
Y00916780D01*
X00630440Y00919795D01*
X00629277Y00922604D01*
X00627425Y00925016D01*
X00625013Y00926867D01*
X00622204Y00928031D01*
X00619189Y00928428D01*
D02*
G37*
G36*
X00593789D02*
X00590775Y00928031D01*
X00587966Y00926867D01*
X00585553Y00925016D01*
X00583702Y00922604D01*
X00582539Y00919795D01*
X00582142Y00916780D01*
Y00908780D01*
X00582539Y00905765D01*
X00583702Y00902956D01*
X00585553Y00900544D01*
X00587966Y00898693D01*
X00590775Y00897529D01*
X00593789Y00897132D01*
X00596804Y00897529D01*
X00599613Y00898693D01*
X00602025Y00900544D01*
X00603876Y00902956D01*
X00605040Y00905765D01*
X00605437Y00908780D01*
Y00916780D01*
X00605040Y00919795D01*
X00603876Y00922604D01*
X00602025Y00925016D01*
X00599613Y00926867D01*
X00596804Y00928031D01*
X00593789Y00928428D01*
D02*
G37*
G36*
X00492189D02*
X00489175Y00928031D01*
X00486366Y00926867D01*
X00483953Y00925016D01*
X00482102Y00922604D01*
X00480939Y00919795D01*
X00480542Y00916780D01*
Y00908780D01*
X00480939Y00905765D01*
X00482102Y00902956D01*
X00483953Y00900544D01*
X00486366Y00898693D01*
X00489175Y00897529D01*
X00492189Y00897132D01*
X00495204Y00897529D01*
X00498013Y00898693D01*
X00500425Y00900544D01*
X00502276Y00902956D01*
X00503440Y00905765D01*
X00503837Y00908780D01*
Y00916780D01*
X00503440Y00919795D01*
X00502276Y00922604D01*
X00500425Y00925016D01*
X00498013Y00926867D01*
X00495204Y00928031D01*
X00492189Y00928428D01*
D02*
G37*
G36*
X00466789D02*
X00463775Y00928031D01*
X00460966Y00926867D01*
X00458553Y00925016D01*
X00456702Y00922604D01*
X00455539Y00919795D01*
X00455142Y00916780D01*
Y00908780D01*
X00455539Y00905765D01*
X00456702Y00902956D01*
X00458553Y00900544D01*
X00460966Y00898693D01*
X00463775Y00897529D01*
X00466789Y00897132D01*
X00469804Y00897529D01*
X00472613Y00898693D01*
X00475025Y00900544D01*
X00476876Y00902956D01*
X00478040Y00905765D01*
X00478437Y00908780D01*
Y00916780D01*
X00478040Y00919795D01*
X00476876Y00922604D01*
X00475025Y00925016D01*
X00472613Y00926867D01*
X00469804Y00928031D01*
X00466789Y00928428D01*
D02*
G37*
G36*
X00441389D02*
X00438375Y00928031D01*
X00435565Y00926867D01*
X00433153Y00925016D01*
X00431302Y00922604D01*
X00430139Y00919795D01*
X00429742Y00916780D01*
Y00908780D01*
X00430139Y00905765D01*
X00431302Y00902956D01*
X00433153Y00900544D01*
X00435565Y00898693D01*
X00438375Y00897529D01*
X00441389Y00897132D01*
X00444404Y00897529D01*
X00447213Y00898693D01*
X00449626Y00900544D01*
X00451477Y00902956D01*
X00452640Y00905765D01*
X00453037Y00908780D01*
Y00916780D01*
X00452640Y00919795D01*
X00451477Y00922604D01*
X00449626Y00925016D01*
X00447213Y00926867D01*
X00444404Y00928031D01*
X00441389Y00928428D01*
D02*
G37*
G36*
X00415989D02*
X00412975Y00928031D01*
X00410165Y00926867D01*
X00407753Y00925016D01*
X00405902Y00922604D01*
X00404739Y00919795D01*
X00404342Y00916780D01*
Y00908780D01*
X00404739Y00905765D01*
X00405902Y00902956D01*
X00407753Y00900544D01*
X00410165Y00898693D01*
X00412975Y00897529D01*
X00415989Y00897132D01*
X00419004Y00897529D01*
X00421813Y00898693D01*
X00424226Y00900544D01*
X00426077Y00902956D01*
X00427240Y00905765D01*
X00427637Y00908780D01*
Y00916780D01*
X00427240Y00919795D01*
X00426077Y00922604D01*
X00424226Y00925016D01*
X00421813Y00926867D01*
X00419004Y00928031D01*
X00415989Y00928428D01*
D02*
G37*
G36*
X00390589D02*
X00387575Y00928031D01*
X00384766Y00926867D01*
X00382353Y00925016D01*
X00380502Y00922604D01*
X00379339Y00919795D01*
X00378942Y00916780D01*
Y00908780D01*
X00379339Y00905765D01*
X00380502Y00902956D01*
X00382353Y00900544D01*
X00384766Y00898693D01*
X00387575Y00897529D01*
X00390589Y00897132D01*
X00393604Y00897529D01*
X00396413Y00898693D01*
X00398825Y00900544D01*
X00400676Y00902956D01*
X00401840Y00905765D01*
X00402237Y00908780D01*
Y00916780D01*
X00401840Y00919795D01*
X00400676Y00922604D01*
X00398825Y00925016D01*
X00396413Y00926867D01*
X00393604Y00928031D01*
X00390589Y00928428D01*
D02*
G37*
G36*
X00365189D02*
X00362175Y00928031D01*
X00359366Y00926867D01*
X00356953Y00925016D01*
X00355102Y00922604D01*
X00353939Y00919795D01*
X00353542Y00916780D01*
Y00908780D01*
X00353939Y00905765D01*
X00355102Y00902956D01*
X00356953Y00900544D01*
X00359366Y00898693D01*
X00362175Y00897529D01*
X00365189Y00897132D01*
X00368204Y00897529D01*
X00371013Y00898693D01*
X00373425Y00900544D01*
X00375276Y00902956D01*
X00376440Y00905765D01*
X00376837Y00908780D01*
Y00916780D01*
X00376440Y00919795D01*
X00375276Y00922604D01*
X00373425Y00925016D01*
X00371013Y00926867D01*
X00368204Y00928031D01*
X00365189Y00928428D01*
D02*
G37*
G36*
X00339789D02*
X00336775Y00928031D01*
X00333965Y00926867D01*
X00331553Y00925016D01*
X00329702Y00922604D01*
X00328539Y00919795D01*
X00328142Y00916780D01*
Y00908780D01*
X00328539Y00905765D01*
X00329702Y00902956D01*
X00331553Y00900544D01*
X00333965Y00898693D01*
X00336775Y00897529D01*
X00339789Y00897132D01*
X00342804Y00897529D01*
X00345613Y00898693D01*
X00348026Y00900544D01*
X00349877Y00902956D01*
X00351040Y00905765D01*
X00351437Y00908780D01*
Y00916780D01*
X00351040Y00919795D01*
X00349877Y00922604D01*
X00348026Y00925016D01*
X00345613Y00926867D01*
X00342804Y00928031D01*
X00339789Y00928428D01*
D02*
G37*
G36*
X00263589D02*
X00260575Y00928031D01*
X00257766Y00926867D01*
X00255353Y00925016D01*
X00253502Y00922604D01*
X00252339Y00919795D01*
X00251942Y00916780D01*
Y00908780D01*
X00252339Y00905765D01*
X00253502Y00902956D01*
X00255353Y00900544D01*
X00257766Y00898693D01*
X00260575Y00897529D01*
X00263589Y00897132D01*
X00266604Y00897529D01*
X00269413Y00898693D01*
X00271826Y00900544D01*
X00273676Y00902956D01*
X00274840Y00905765D01*
X00275237Y00908780D01*
Y00916780D01*
X00274840Y00919795D01*
X00273676Y00922604D01*
X00271826Y00925016D01*
X00269413Y00926867D01*
X00266604Y00928031D01*
X00263589Y00928428D01*
D02*
G37*
G36*
X00314389D02*
X00311375Y00928031D01*
X00308566Y00926867D01*
X00306153Y00925016D01*
X00304302Y00922604D01*
X00303139Y00919795D01*
X00302742Y00916780D01*
Y00908780D01*
X00303139Y00905765D01*
X00304302Y00902956D01*
X00306153Y00900544D01*
X00308566Y00898693D01*
X00309987Y00898104D01*
Y00893284D01*
X00302406Y00885703D01*
X00292660D01*
X00292316Y00885634D01*
X00291691Y00886805D01*
X00292103Y00887216D01*
X00293057Y00888645D01*
X00293392Y00890330D01*
Y00898104D01*
X00294813Y00898693D01*
X00297225Y00900544D01*
X00299076Y00902956D01*
X00300240Y00905765D01*
X00300637Y00908780D01*
Y00916780D01*
X00300240Y00919795D01*
X00299076Y00922604D01*
X00297225Y00925016D01*
X00294813Y00926867D01*
X00292004Y00928031D01*
X00288989Y00928428D01*
X00285975Y00928031D01*
X00283165Y00926867D01*
X00280753Y00925016D01*
X00278902Y00922604D01*
X00277739Y00919795D01*
X00277342Y00916780D01*
Y00908780D01*
X00277739Y00905765D01*
X00278902Y00902956D01*
X00280753Y00900544D01*
X00283165Y00898693D01*
X00284587Y00898104D01*
Y00892153D01*
X00245116Y00852683D01*
X00164596D01*
X00164007Y00854104D01*
X00162156Y00856516D01*
X00159744Y00858367D01*
X00156934Y00859531D01*
X00153920Y00859928D01*
X00146920D01*
X00143905Y00859531D01*
X00141096Y00858367D01*
X00138684Y00856516D01*
X00136833Y00854104D01*
X00135669Y00851295D01*
X00135272Y00848280D01*
X00135669Y00845265D01*
X00136833Y00842456D01*
X00138684Y00840044D01*
X00141096Y00838193D01*
X00143905Y00837029D01*
X00146920Y00836632D01*
X00153920D01*
X00156934Y00837029D01*
X00159744Y00838193D01*
X00162156Y00840044D01*
X00164007Y00842456D01*
X00164596Y00843877D01*
X00246940D01*
X00247283Y00843946D01*
X00247909Y00842775D01*
X00232416Y00827283D01*
X00164596D01*
X00164007Y00828704D01*
X00162156Y00831116D01*
X00159744Y00832967D01*
X00156934Y00834131D01*
X00153920Y00834528D01*
X00146920D01*
X00143905Y00834131D01*
X00141096Y00832967D01*
X00138684Y00831116D01*
X00136833Y00828704D01*
X00135669Y00825895D01*
X00135272Y00822880D01*
X00135669Y00819865D01*
X00136833Y00817056D01*
X00138684Y00814644D01*
X00141096Y00812793D01*
X00143905Y00811629D01*
X00146920Y00811232D01*
X00153920D01*
X00156934Y00811629D01*
X00159744Y00812793D01*
X00162156Y00814644D01*
X00164007Y00817056D01*
X00164596Y00818477D01*
X00234240D01*
X00235925Y00818812D01*
X00237353Y00819767D01*
X00294484Y00876897D01*
X00304229D01*
X00305914Y00877233D01*
X00307342Y00878187D01*
X00317502Y00888347D01*
X00318457Y00889775D01*
X00318792Y00891460D01*
Y00898104D01*
X00320213Y00898693D01*
X00322626Y00900544D01*
X00324477Y00902956D01*
X00325640Y00905765D01*
X00326037Y00908780D01*
Y00916780D01*
X00325640Y00919795D01*
X00324477Y00922604D01*
X00322626Y00925016D01*
X00320213Y00926867D01*
X00317404Y00928031D01*
X00314389Y00928428D01*
D02*
G37*
G36*
X00225489Y00920727D02*
X00221461Y00920331D01*
X00217588Y00919156D01*
X00214018Y00917248D01*
X00210889Y00914680D01*
X00208322Y00911551D01*
X00206414Y00907981D01*
X00205239Y00904108D01*
X00204842Y00900080D01*
X00205239Y00896052D01*
X00206414Y00892179D01*
X00208322Y00888609D01*
X00210889Y00885480D01*
X00214018Y00882912D01*
X00217588Y00881004D01*
X00221461Y00879829D01*
X00225489Y00879433D01*
X00229517Y00879829D01*
X00233391Y00881004D01*
X00236960Y00882912D01*
X00240089Y00885480D01*
X00242657Y00888609D01*
X00244565Y00892179D01*
X00245740Y00896052D01*
X00246137Y00900080D01*
X00245740Y00904108D01*
X00244565Y00907981D01*
X00242657Y00911551D01*
X00240089Y00914680D01*
X00236960Y00917248D01*
X00233391Y00919156D01*
X00229517Y00920331D01*
X00225489Y00920727D01*
D02*
G37*
G36*
X00890000Y00940642D02*
X00885206Y00940265D01*
X00880531Y00939143D01*
X00876088Y00937303D01*
X00871989Y00934790D01*
X00868332Y00931667D01*
X00865210Y00928011D01*
X00862697Y00923911D01*
X00860857Y00919469D01*
X00859735Y00914793D01*
X00859357Y00910000D01*
X00859735Y00905206D01*
X00860857Y00900531D01*
X00862697Y00896089D01*
X00865210Y00891989D01*
X00868332Y00888333D01*
X00871989Y00885210D01*
X00876088Y00882697D01*
X00880531Y00880857D01*
X00885206Y00879735D01*
X00890000Y00879358D01*
X00894793Y00879735D01*
X00899469Y00880857D01*
X00903911Y00882697D01*
X00908011Y00885210D01*
X00911667Y00888333D01*
X00914790Y00891989D01*
X00917302Y00896089D01*
X00919143Y00900531D01*
X00920265Y00905206D01*
X00920642Y00910000D01*
X00920265Y00914793D01*
X00919143Y00919469D01*
X00917302Y00923911D01*
X00914790Y00928011D01*
X00911667Y00931667D01*
X00908011Y00934790D01*
X00903911Y00937303D01*
X00899469Y00939143D01*
X00894793Y00940265D01*
X00890000Y00940642D01*
D02*
G37*
G36*
X00050000D02*
X00045206Y00940265D01*
X00040531Y00939143D01*
X00036089Y00937303D01*
X00031989Y00934790D01*
X00028333Y00931667D01*
X00025210Y00928011D01*
X00022697Y00923911D01*
X00020857Y00919469D01*
X00019735Y00914793D01*
X00019358Y00910000D01*
X00019735Y00905206D01*
X00020857Y00900531D01*
X00022697Y00896089D01*
X00025210Y00891989D01*
X00028333Y00888333D01*
X00031989Y00885210D01*
X00036089Y00882697D01*
X00040531Y00880857D01*
X00045206Y00879735D01*
X00050000Y00879358D01*
X00054794Y00879735D01*
X00059469Y00880857D01*
X00063911Y00882697D01*
X00068011Y00885210D01*
X00071667Y00888333D01*
X00074790Y00891989D01*
X00077303Y00896089D01*
X00079143Y00900531D01*
X00080265Y00905206D01*
X00080642Y00910000D01*
X00080265Y00914793D01*
X00079143Y00919469D01*
X00077303Y00923911D01*
X00074790Y00928011D01*
X00071667Y00931667D01*
X00068011Y00934790D01*
X00063911Y00937303D01*
X00059469Y00939143D01*
X00054794Y00940265D01*
X00050000Y00940642D01*
D02*
G37*
G36*
X00542989Y00928428D02*
X00539975Y00928031D01*
X00537165Y00926867D01*
X00534753Y00925016D01*
X00532902Y00922604D01*
X00531739Y00919795D01*
X00531342Y00916780D01*
Y00908780D01*
X00531739Y00905765D01*
X00532902Y00902956D01*
X00534753Y00900544D01*
X00537165Y00898693D01*
X00538587Y00898104D01*
Y00892589D01*
X00523165Y00877167D01*
X00521992Y00877653D01*
Y00898104D01*
X00523413Y00898693D01*
X00525826Y00900544D01*
X00527677Y00902956D01*
X00528840Y00905765D01*
X00529237Y00908780D01*
Y00916780D01*
X00528840Y00919795D01*
X00527677Y00922604D01*
X00525826Y00925016D01*
X00523413Y00926867D01*
X00520604Y00928031D01*
X00517589Y00928428D01*
X00514575Y00928031D01*
X00511766Y00926867D01*
X00509353Y00925016D01*
X00507502Y00922604D01*
X00506339Y00919795D01*
X00505942Y00916780D01*
Y00908780D01*
X00506339Y00905765D01*
X00507502Y00902956D01*
X00509353Y00900544D01*
X00511766Y00898693D01*
X00513187Y00898104D01*
Y00874373D01*
X00487904Y00849090D01*
X00272776D01*
X00271091Y00848755D01*
X00269663Y00847801D01*
X00083807Y00661945D01*
X00082852Y00660517D01*
X00082517Y00658832D01*
Y00125520D01*
X00082852Y00123835D01*
X00083807Y00122406D01*
X00096648Y00109565D01*
X00098076Y00108611D01*
X00099761Y00108276D01*
X00148498D01*
X00162397Y00094377D01*
Y00090439D01*
X00160219Y00089537D01*
X00157493Y00087446D01*
X00155402Y00084720D01*
X00154087Y00081546D01*
X00153639Y00078140D01*
Y00063140D01*
X00154087Y00059734D01*
X00155402Y00056560D01*
X00157493Y00053834D01*
X00160219Y00051743D01*
X00163393Y00050428D01*
X00166799Y00049979D01*
X00170206Y00050428D01*
X00173380Y00051743D01*
X00176105Y00053834D01*
X00178197Y00056560D01*
X00178327Y00056875D01*
X00179597Y00056622D01*
Y00053544D01*
X00172456Y00046403D01*
X00123824D01*
X00120559Y00049667D01*
X00120708Y00050967D01*
X00122580Y00051743D01*
X00125305Y00053834D01*
X00127397Y00056560D01*
X00128712Y00059734D01*
X00129160Y00063140D01*
Y00078140D01*
X00128712Y00081546D01*
X00127397Y00084720D01*
X00125305Y00087446D01*
X00122580Y00089537D01*
X00119406Y00090852D01*
X00115999Y00091301D01*
X00112593Y00090852D01*
X00109419Y00089537D01*
X00106693Y00087446D01*
X00104602Y00084720D01*
X00103287Y00081546D01*
X00102839Y00078140D01*
Y00063140D01*
X00103287Y00059734D01*
X00104602Y00056560D01*
X00106693Y00053834D01*
X00109419Y00051743D01*
X00111597Y00050841D01*
Y00048001D01*
X00111932Y00046316D01*
X00112886Y00044887D01*
X00118887Y00038887D01*
X00120315Y00037933D01*
X00122000Y00037597D01*
X00174280D01*
X00175965Y00037933D01*
X00177393Y00038887D01*
X00187113Y00048607D01*
X00188067Y00050035D01*
X00188403Y00051720D01*
Y00088260D01*
X00188067Y00089945D01*
X00187113Y00091373D01*
X00156373Y00122113D01*
X00154945Y00123067D01*
X00153260Y00123403D01*
X00102824D01*
X00096402Y00129824D01*
X00096402Y00654904D01*
X00097938Y00656440D01*
X00098925Y00655631D01*
X00098092Y00654385D01*
X00097757Y00652700D01*
Y00155840D01*
X00098092Y00154155D01*
X00099047Y00152727D01*
X00115887Y00135887D01*
X00117315Y00134932D01*
X00119000Y00134597D01*
X00174616D01*
X00213197Y00096017D01*
Y00090439D01*
X00211019Y00089537D01*
X00208293Y00087446D01*
X00206202Y00084720D01*
X00204887Y00081546D01*
X00204439Y00078140D01*
Y00063140D01*
X00204887Y00059734D01*
X00206202Y00056560D01*
X00208293Y00053834D01*
X00211019Y00051743D01*
X00214193Y00050428D01*
X00217599Y00049979D01*
X00221006Y00050428D01*
X00224180Y00051743D01*
X00226905Y00053834D01*
X00228997Y00056560D01*
X00230312Y00059734D01*
X00230760Y00063140D01*
Y00078140D01*
X00230312Y00081546D01*
X00228997Y00084720D01*
X00226905Y00087446D01*
X00224180Y00089537D01*
X00222002Y00090439D01*
Y00097840D01*
X00222002Y00097840D01*
X00221667Y00099525D01*
X00220713Y00100954D01*
X00179553Y00142113D01*
X00178125Y00143068D01*
X00176440Y00143403D01*
X00120824D01*
X00106562Y00157664D01*
Y00594261D01*
X00107832Y00594572D01*
X00109360Y00593400D01*
X00111337Y00592581D01*
X00113459Y00592301D01*
X00115581Y00592581D01*
X00117558Y00593400D01*
X00117796Y00593582D01*
X00128263D01*
Y00583377D01*
X00128080Y00583139D01*
X00127261Y00581162D01*
X00126982Y00579040D01*
X00127261Y00576918D01*
X00128080Y00574941D01*
X00129383Y00573243D01*
X00131081Y00571940D01*
X00133058Y00571121D01*
X00135180Y00570842D01*
X00137302Y00571121D01*
X00139279Y00571940D01*
X00140977Y00573243D01*
X00142280Y00574941D01*
X00143099Y00576918D01*
X00143378Y00579040D01*
X00143099Y00581162D01*
X00142280Y00583139D01*
X00142097Y00583377D01*
Y00599360D01*
Y00604115D01*
X00143125Y00605143D01*
X00168200D01*
X00169990Y00605378D01*
X00171658Y00606069D01*
X00173091Y00607169D01*
X00186305Y00620383D01*
X00197224D01*
X00234218Y00583389D01*
X00235651Y00582290D01*
X00237319Y00581599D01*
X00239109Y00581363D01*
X00247683D01*
X00247921Y00581180D01*
X00249898Y00580361D01*
X00252020Y00580082D01*
X00254142Y00580361D01*
X00256119Y00581180D01*
X00256357Y00581363D01*
X00300879D01*
X00302670Y00581599D01*
X00304338Y00582290D01*
X00305770Y00583389D01*
X00311244Y00588862D01*
X00311541Y00588901D01*
X00313518Y00589720D01*
X00315216Y00591023D01*
X00316519Y00592721D01*
X00317338Y00594698D01*
X00317617Y00596820D01*
X00317338Y00598942D01*
X00316519Y00600919D01*
X00315216Y00602617D01*
X00313518Y00603920D01*
X00311541Y00604739D01*
X00309419Y00605018D01*
X00307297Y00604739D01*
X00305320Y00603920D01*
X00303622Y00602617D01*
X00302320Y00600919D01*
X00301501Y00598942D01*
X00301461Y00598644D01*
X00298014Y00595197D01*
X00256357D01*
X00256119Y00595380D01*
X00254142Y00596199D01*
X00252020Y00596478D01*
X00249898Y00596199D01*
X00247921Y00595380D01*
X00247683Y00595197D01*
X00241975D01*
X00204981Y00632191D01*
X00203548Y00633290D01*
X00201880Y00633982D01*
X00200089Y00634217D01*
X00183440D01*
X00181649Y00633982D01*
X00180387Y00633458D01*
X00179438Y00634407D01*
X00179961Y00635670D01*
X00180197Y00637460D01*
X00179961Y00639250D01*
X00179270Y00640919D01*
X00178171Y00642351D01*
X00176738Y00643450D01*
X00175070Y00644141D01*
X00173280Y00644377D01*
X00171490Y00644141D01*
X00169821Y00643450D01*
X00168389Y00642351D01*
X00167289Y00640919D01*
X00166598Y00639250D01*
X00166373Y00637538D01*
X00166363Y00637494D01*
X00166357Y00637218D01*
X00166343Y00637071D01*
X00166322Y00636949D01*
X00166297Y00636846D01*
X00166268Y00636761D01*
X00166235Y00636686D01*
X00166198Y00636617D01*
X00166173Y00636579D01*
X00161461Y00631867D01*
X00161423Y00631842D01*
X00161354Y00631805D01*
X00161279Y00631772D01*
X00161194Y00631743D01*
X00161091Y00631718D01*
X00160969Y00631697D01*
X00160821Y00631683D01*
X00160546Y00631677D01*
X00160502Y00631667D01*
X00158790Y00631441D01*
X00157121Y00630751D01*
X00155689Y00629651D01*
X00154589Y00628219D01*
X00153898Y00626550D01*
X00153663Y00624760D01*
X00153898Y00622970D01*
X00154589Y00621301D01*
X00155398Y00620247D01*
X00154886Y00618977D01*
X00140260D01*
X00138470Y00618741D01*
X00136801Y00618050D01*
X00135369Y00616951D01*
X00130289Y00611871D01*
X00129189Y00610439D01*
X00128498Y00608770D01*
X00128320Y00607417D01*
X00117796D01*
X00117558Y00607599D01*
X00115581Y00608418D01*
X00113459Y00608698D01*
X00111337Y00608418D01*
X00109360Y00607599D01*
X00107832Y00606427D01*
X00106562Y00606738D01*
Y00650876D01*
X00281784Y00826097D01*
X00435616D01*
X00462387Y00799327D01*
Y00724256D01*
X00460966Y00723667D01*
X00458553Y00721816D01*
X00456702Y00719404D01*
X00455539Y00716595D01*
X00455142Y00713580D01*
Y00705580D01*
X00455539Y00702565D01*
X00456702Y00699756D01*
X00458553Y00697344D01*
X00460966Y00695493D01*
X00463775Y00694329D01*
X00466789Y00693932D01*
X00469804Y00694329D01*
X00472613Y00695493D01*
X00475025Y00697344D01*
X00476876Y00699756D01*
X00478040Y00702565D01*
X00478437Y00705580D01*
Y00713580D01*
X00478040Y00716595D01*
X00476876Y00719404D01*
X00475025Y00721816D01*
X00472613Y00723667D01*
X00471192Y00724256D01*
Y00801151D01*
X00470857Y00802835D01*
X00469902Y00804264D01*
X00469902Y00804264D01*
X00440553Y00833613D01*
X00440071Y00833935D01*
X00440456Y00835205D01*
X00491832D01*
X00493517Y00835540D01*
X00494945Y00836495D01*
X00546102Y00887652D01*
X00547057Y00889081D01*
X00547392Y00890765D01*
Y00898104D01*
X00548813Y00898693D01*
X00551226Y00900544D01*
X00553077Y00902956D01*
X00554240Y00905765D01*
X00554637Y00908780D01*
Y00916780D01*
X00554240Y00919795D01*
X00553077Y00922604D01*
X00551226Y00925016D01*
X00548813Y00926867D01*
X00546004Y00928031D01*
X00542989Y00928428D01*
D02*
G37*
G36*
X00165468Y00885228D02*
X00135372D01*
Y00862132D01*
X00165468D01*
Y00885228D01*
D02*
G37*
G36*
X00153920Y00808615D02*
X00151944D01*
Y00799004D01*
X00164855D01*
X00164676Y00800362D01*
X00163563Y00803048D01*
X00161794Y00805354D01*
X00159487Y00807123D01*
X00156802Y00808236D01*
X00153920Y00808615D01*
D02*
G37*
G36*
X00148896D02*
X00146920D01*
X00144038Y00808236D01*
X00141352Y00807123D01*
X00139046Y00805354D01*
X00137276Y00803048D01*
X00136164Y00800362D01*
X00135985Y00799004D01*
X00148896D01*
Y00808615D01*
D02*
G37*
G36*
X00164855Y00795956D02*
X00151944D01*
Y00786345D01*
X00153920D01*
X00156802Y00786724D01*
X00159487Y00787837D01*
X00161794Y00789606D01*
X00163563Y00791912D01*
X00164676Y00794598D01*
X00164855Y00795956D01*
D02*
G37*
G36*
X00148896D02*
X00135985D01*
X00136164Y00794598D01*
X00137276Y00791912D01*
X00139046Y00789606D01*
X00141352Y00787837D01*
X00144038Y00786724D01*
X00146920Y00786345D01*
X00148896D01*
Y00795956D01*
D02*
G37*
G36*
X00225489Y00742927D02*
X00221461Y00742531D01*
X00217588Y00741356D01*
X00214018Y00739448D01*
X00210889Y00736880D01*
X00208322Y00733751D01*
X00206414Y00730181D01*
X00205239Y00726308D01*
X00204842Y00722280D01*
X00205239Y00718252D01*
X00206414Y00714379D01*
X00208322Y00710809D01*
X00210889Y00707680D01*
X00214018Y00705112D01*
X00217588Y00703204D01*
X00221461Y00702029D01*
X00225489Y00701633D01*
X00229517Y00702029D01*
X00233391Y00703204D01*
X00236960Y00705112D01*
X00240089Y00707680D01*
X00242657Y00710809D01*
X00244565Y00714379D01*
X00245740Y00718252D01*
X00246137Y00722280D01*
X00245740Y00726308D01*
X00244565Y00730181D01*
X00242657Y00733751D01*
X00240089Y00736880D01*
X00236960Y00739448D01*
X00233391Y00741356D01*
X00229517Y00742531D01*
X00225489Y00742927D01*
D02*
G37*
G36*
X00542989Y00725228D02*
X00539975Y00724831D01*
X00537165Y00723667D01*
X00534753Y00721816D01*
X00532902Y00719404D01*
X00531739Y00716595D01*
X00531342Y00713580D01*
Y00705580D01*
X00531739Y00702565D01*
X00532902Y00699756D01*
X00534753Y00697344D01*
X00537165Y00695493D01*
X00539975Y00694329D01*
X00542989Y00693932D01*
X00546004Y00694329D01*
X00548813Y00695493D01*
X00551226Y00697344D01*
X00553077Y00699756D01*
X00554240Y00702565D01*
X00554637Y00705580D01*
Y00713580D01*
X00554240Y00716595D01*
X00553077Y00719404D01*
X00551226Y00721816D01*
X00548813Y00723667D01*
X00546004Y00724831D01*
X00542989Y00725228D01*
D02*
G37*
G36*
X00517589D02*
X00514575Y00724831D01*
X00511766Y00723667D01*
X00509353Y00721816D01*
X00507502Y00719404D01*
X00506339Y00716595D01*
X00505942Y00713580D01*
Y00705580D01*
X00506339Y00702565D01*
X00507502Y00699756D01*
X00509353Y00697344D01*
X00511766Y00695493D01*
X00514575Y00694329D01*
X00517589Y00693932D01*
X00520604Y00694329D01*
X00523413Y00695493D01*
X00525826Y00697344D01*
X00527677Y00699756D01*
X00528840Y00702565D01*
X00529237Y00705580D01*
Y00713580D01*
X00528840Y00716595D01*
X00527677Y00719404D01*
X00525826Y00721816D01*
X00523413Y00723667D01*
X00520604Y00724831D01*
X00517589Y00725228D01*
D02*
G37*
G36*
X00492189D02*
X00489175Y00724831D01*
X00486366Y00723667D01*
X00483953Y00721816D01*
X00482102Y00719404D01*
X00480939Y00716595D01*
X00480542Y00713580D01*
Y00705580D01*
X00480939Y00702565D01*
X00482102Y00699756D01*
X00483953Y00697344D01*
X00486366Y00695493D01*
X00489175Y00694329D01*
X00492189Y00693932D01*
X00495204Y00694329D01*
X00498013Y00695493D01*
X00500425Y00697344D01*
X00502276Y00699756D01*
X00503440Y00702565D01*
X00503837Y00705580D01*
Y00713580D01*
X00503440Y00716595D01*
X00502276Y00719404D01*
X00500425Y00721816D01*
X00498013Y00723667D01*
X00495204Y00724831D01*
X00492189Y00725228D01*
D02*
G37*
G36*
X00441389D02*
X00438375Y00724831D01*
X00435565Y00723667D01*
X00433153Y00721816D01*
X00431302Y00719404D01*
X00430139Y00716595D01*
X00429742Y00713580D01*
Y00705580D01*
X00430139Y00702565D01*
X00431302Y00699756D01*
X00433153Y00697344D01*
X00435565Y00695493D01*
X00438375Y00694329D01*
X00441389Y00693932D01*
X00444404Y00694329D01*
X00447213Y00695493D01*
X00449626Y00697344D01*
X00451477Y00699756D01*
X00452640Y00702565D01*
X00453037Y00705580D01*
Y00713580D01*
X00452640Y00716595D01*
X00451477Y00719404D01*
X00449626Y00721816D01*
X00447213Y00723667D01*
X00444404Y00724831D01*
X00441389Y00725228D01*
D02*
G37*
G36*
X00314389D02*
X00311375Y00724831D01*
X00308566Y00723667D01*
X00306153Y00721816D01*
X00304302Y00719404D01*
X00303139Y00716595D01*
X00302742Y00713580D01*
Y00705580D01*
X00303139Y00702565D01*
X00304302Y00699756D01*
X00306153Y00697344D01*
X00308566Y00695493D01*
X00311375Y00694329D01*
X00314389Y00693932D01*
X00317404Y00694329D01*
X00320213Y00695493D01*
X00322626Y00697344D01*
X00324477Y00699756D01*
X00325640Y00702565D01*
X00326037Y00705580D01*
Y00713580D01*
X00325640Y00716595D01*
X00324477Y00719404D01*
X00322626Y00721816D01*
X00320213Y00723667D01*
X00317404Y00724831D01*
X00314389Y00725228D01*
D02*
G37*
G36*
X00288989D02*
X00285975Y00724831D01*
X00283165Y00723667D01*
X00280753Y00721816D01*
X00278902Y00719404D01*
X00277739Y00716595D01*
X00277342Y00713580D01*
Y00705580D01*
X00277739Y00702565D01*
X00278902Y00699756D01*
X00280753Y00697344D01*
X00283165Y00695493D01*
X00285975Y00694329D01*
X00288989Y00693932D01*
X00292004Y00694329D01*
X00294813Y00695493D01*
X00297225Y00697344D01*
X00299076Y00699756D01*
X00300240Y00702565D01*
X00300637Y00705580D01*
Y00713580D01*
X00300240Y00716595D01*
X00299076Y00719404D01*
X00297225Y00721816D01*
X00294813Y00723667D01*
X00292004Y00724831D01*
X00288989Y00725228D01*
D02*
G37*
G36*
X00263589D02*
X00260575Y00724831D01*
X00257766Y00723667D01*
X00255353Y00721816D01*
X00253502Y00719404D01*
X00252339Y00716595D01*
X00251942Y00713580D01*
Y00705580D01*
X00252339Y00702565D01*
X00253502Y00699756D01*
X00255353Y00697344D01*
X00257766Y00695493D01*
X00260575Y00694329D01*
X00263589Y00693932D01*
X00266604Y00694329D01*
X00269413Y00695493D01*
X00271826Y00697344D01*
X00273676Y00699756D01*
X00274840Y00702565D01*
X00275237Y00705580D01*
Y00713580D01*
X00274840Y00716595D01*
X00273676Y00719404D01*
X00271826Y00721816D01*
X00269413Y00723667D01*
X00266604Y00724831D01*
X00263589Y00725228D01*
D02*
G37*
G36*
X00660744Y00686475D02*
Y00677064D01*
X00670154D01*
X00669976Y00678422D01*
X00668863Y00681108D01*
X00667094Y00683414D01*
X00664788Y00685183D01*
X00662102Y00686296D01*
X00660744Y00686475D01*
D02*
G37*
G36*
X00657696Y00686475D02*
X00656338Y00686296D01*
X00653652Y00685183D01*
X00651346Y00683414D01*
X00649576Y00681108D01*
X00648464Y00678422D01*
X00648285Y00677064D01*
X00657696D01*
Y00686475D01*
D02*
G37*
G36*
X00598984Y00675830D02*
Y00666924D01*
X00607890D01*
X00607729Y00668151D01*
X00606666Y00670715D01*
X00604977Y00672917D01*
X00602775Y00674607D01*
X00600211Y00675669D01*
X00598984Y00675830D01*
D02*
G37*
G36*
X00239713Y00679835D02*
Y00666924D01*
X00249325D01*
Y00668900D01*
X00248945Y00671782D01*
X00247833Y00674468D01*
X00246063Y00676774D01*
X00243757Y00678543D01*
X00241071Y00679656D01*
X00239713Y00679835D01*
D02*
G37*
G36*
X00236665D02*
X00235307Y00679656D01*
X00232622Y00678543D01*
X00230315Y00676774D01*
X00228546Y00674468D01*
X00227433Y00671782D01*
X00227054Y00668900D01*
Y00666924D01*
X00236665D01*
Y00679835D01*
D02*
G37*
G36*
X00657696Y00674016D02*
X00648285D01*
X00648464Y00672658D01*
X00649576Y00669972D01*
X00651346Y00667666D01*
X00653652Y00665897D01*
X00656338Y00664784D01*
X00657696Y00664605D01*
Y00674016D01*
D02*
G37*
G36*
X00670154D02*
X00660744D01*
Y00664605D01*
X00662102Y00664784D01*
X00664788Y00665897D01*
X00667094Y00667666D01*
X00668863Y00669972D01*
X00669976Y00672658D01*
X00670154Y00674016D01*
D02*
G37*
G36*
X00709220Y00687188D02*
X00706205Y00686791D01*
X00703396Y00685627D01*
X00700984Y00683776D01*
X00699133Y00681364D01*
X00697969Y00678555D01*
X00697572Y00675540D01*
X00697969Y00672525D01*
X00699133Y00669716D01*
X00700984Y00667304D01*
X00703396Y00665453D01*
X00706205Y00664289D01*
X00709220Y00663892D01*
X00712234Y00664289D01*
X00715044Y00665453D01*
X00717456Y00667304D01*
X00719307Y00669716D01*
X00720471Y00672525D01*
X00720867Y00675540D01*
X00720471Y00678555D01*
X00719307Y00681364D01*
X00717456Y00683776D01*
X00715044Y00685627D01*
X00712234Y00686791D01*
X00709220Y00687188D01*
D02*
G37*
G36*
X00684220D02*
X00681205Y00686791D01*
X00678396Y00685627D01*
X00675984Y00683776D01*
X00674133Y00681364D01*
X00672969Y00678555D01*
X00672572Y00675540D01*
X00672969Y00672525D01*
X00674133Y00669716D01*
X00675984Y00667304D01*
X00678396Y00665453D01*
X00681205Y00664289D01*
X00684220Y00663892D01*
X00687234Y00664289D01*
X00690044Y00665453D01*
X00692456Y00667304D01*
X00694307Y00669716D01*
X00695471Y00672525D01*
X00695867Y00675540D01*
X00695471Y00678555D01*
X00694307Y00681364D01*
X00692456Y00683776D01*
X00690044Y00685627D01*
X00687234Y00686791D01*
X00684220Y00687188D01*
D02*
G37*
G36*
X00541388Y00684568D02*
X00511292D01*
Y00661472D01*
X00541388D01*
Y00684568D01*
D02*
G37*
G36*
X00607890Y00663876D02*
X00598984D01*
Y00654970D01*
X00600211Y00655131D01*
X00602775Y00656193D01*
X00604977Y00657883D01*
X00606666Y00660085D01*
X00607729Y00662648D01*
X00607890Y00663876D01*
D02*
G37*
G36*
X00588508Y00676448D02*
X00566412D01*
Y00654352D01*
X00588508D01*
Y00657777D01*
X00589711Y00658185D01*
X00589943Y00657883D01*
X00592144Y00656193D01*
X00594708Y00655131D01*
X00595936Y00654970D01*
Y00665400D01*
Y00675830D01*
X00594708Y00675669D01*
X00592144Y00674607D01*
X00589943Y00672917D01*
X00589711Y00672615D01*
X00588508Y00673023D01*
Y00676448D01*
D02*
G37*
G36*
X00249325Y00663876D02*
X00239713D01*
Y00650965D01*
X00241071Y00651144D01*
X00243757Y00652257D01*
X00246063Y00654026D01*
X00247833Y00656332D01*
X00248945Y00659018D01*
X00249325Y00661900D01*
Y00663876D01*
D02*
G37*
G36*
X00236665D02*
X00227054D01*
Y00661900D01*
X00227433Y00659018D01*
X00228546Y00656332D01*
X00230315Y00654026D01*
X00232622Y00652257D01*
X00235307Y00651144D01*
X00236665Y00650965D01*
Y00663876D01*
D02*
G37*
G36*
X00325937Y00680448D02*
X00302841D01*
Y00650352D01*
X00325937D01*
Y00680448D01*
D02*
G37*
G36*
X00529840Y00658755D02*
X00527864D01*
Y00649144D01*
X00540774D01*
X00540596Y00650502D01*
X00539483Y00653188D01*
X00537714Y00655494D01*
X00535407Y00657263D01*
X00532722Y00658376D01*
X00529840Y00658755D01*
D02*
G37*
G36*
X00524816D02*
X00522840D01*
X00519958Y00658376D01*
X00517272Y00657263D01*
X00514966Y00655494D01*
X00513196Y00653188D01*
X00512084Y00650502D01*
X00511905Y00649144D01*
X00524816D01*
Y00658755D01*
D02*
G37*
G36*
X00660744Y00653475D02*
Y00644064D01*
X00670154D01*
X00669976Y00645422D01*
X00668863Y00648108D01*
X00667094Y00650414D01*
X00664788Y00652183D01*
X00662102Y00653296D01*
X00660744Y00653475D01*
D02*
G37*
G36*
X00657696Y00653475D02*
X00656338Y00653296D01*
X00653652Y00652183D01*
X00651346Y00650414D01*
X00649576Y00648108D01*
X00648464Y00645422D01*
X00648285Y00644064D01*
X00657696D01*
Y00653475D01*
D02*
G37*
G36*
X00540774Y00646096D02*
X00527864D01*
Y00636485D01*
X00529840D01*
X00532722Y00636864D01*
X00535407Y00637977D01*
X00537714Y00639746D01*
X00539483Y00642052D01*
X00540596Y00644738D01*
X00540774Y00646096D01*
D02*
G37*
G36*
X00524816D02*
X00511905D01*
X00512084Y00644738D01*
X00513196Y00642052D01*
X00514966Y00639746D01*
X00517272Y00637977D01*
X00519958Y00636864D01*
X00522840Y00636485D01*
X00524816D01*
Y00646096D01*
D02*
G37*
G36*
X00657696Y00641016D02*
X00648285D01*
X00648464Y00639658D01*
X00649576Y00636972D01*
X00651346Y00634666D01*
X00653652Y00632897D01*
X00656338Y00631784D01*
X00657696Y00631605D01*
Y00641016D01*
D02*
G37*
G36*
X00670154D02*
X00660744D01*
Y00631605D01*
X00662102Y00631784D01*
X00664788Y00632897D01*
X00667094Y00634666D01*
X00668863Y00636972D01*
X00669976Y00639658D01*
X00670154Y00641016D01*
D02*
G37*
G36*
X00709220Y00654188D02*
X00706205Y00653791D01*
X00703396Y00652627D01*
X00700984Y00650776D01*
X00699133Y00648364D01*
X00697969Y00645555D01*
X00697572Y00642540D01*
X00697969Y00639525D01*
X00699133Y00636716D01*
X00700984Y00634304D01*
X00703396Y00632453D01*
X00706205Y00631289D01*
X00709220Y00630892D01*
X00712234Y00631289D01*
X00715044Y00632453D01*
X00717456Y00634304D01*
X00719307Y00636716D01*
X00720471Y00639525D01*
X00720867Y00642540D01*
X00720471Y00645555D01*
X00719307Y00648364D01*
X00717456Y00650776D01*
X00715044Y00652627D01*
X00712234Y00653791D01*
X00709220Y00654188D01*
D02*
G37*
G36*
X00684220D02*
X00681205Y00653791D01*
X00678396Y00652627D01*
X00675984Y00650776D01*
X00674133Y00648364D01*
X00672969Y00645555D01*
X00672572Y00642540D01*
X00672969Y00639525D01*
X00674133Y00636716D01*
X00675984Y00634304D01*
X00678396Y00632453D01*
X00681205Y00631289D01*
X00684220Y00630892D01*
X00687234Y00631289D01*
X00690044Y00632453D01*
X00692456Y00634304D01*
X00694307Y00636716D01*
X00695471Y00639525D01*
X00695867Y00642540D01*
X00695471Y00645555D01*
X00694307Y00648364D01*
X00692456Y00650776D01*
X00690044Y00652627D01*
X00687234Y00653791D01*
X00684220Y00654188D01*
D02*
G37*
G36*
X00339789Y00725228D02*
X00336775Y00724831D01*
X00333965Y00723667D01*
X00331553Y00721816D01*
X00329702Y00719404D01*
X00328539Y00716595D01*
X00328142Y00713580D01*
Y00705580D01*
X00328539Y00702565D01*
X00329702Y00699756D01*
X00331553Y00697344D01*
X00333965Y00695493D01*
X00335387Y00694904D01*
Y00643108D01*
X00335378Y00643064D01*
X00335355Y00642988D01*
X00335326Y00642913D01*
X00335285Y00642832D01*
X00335231Y00642742D01*
X00335159Y00642640D01*
X00335065Y00642526D01*
X00334874Y00642327D01*
X00334850Y00642289D01*
X00333799Y00640919D01*
X00333108Y00639250D01*
X00332872Y00637460D01*
X00333108Y00635670D01*
X00333799Y00634001D01*
X00334898Y00632569D01*
X00335696Y00631957D01*
X00335265Y00630687D01*
X00300579D01*
X00293392Y00637874D01*
Y00651224D01*
X00294813Y00651813D01*
X00297225Y00653664D01*
X00299076Y00656076D01*
X00300240Y00658885D01*
X00300637Y00661900D01*
Y00668900D01*
X00300240Y00671915D01*
X00299076Y00674724D01*
X00297225Y00677136D01*
X00294813Y00678987D01*
X00292004Y00680151D01*
X00288989Y00680548D01*
X00285975Y00680151D01*
X00283165Y00678987D01*
X00280753Y00677136D01*
X00278902Y00674724D01*
X00277739Y00671915D01*
X00277342Y00668900D01*
Y00661900D01*
X00277739Y00658885D01*
X00278902Y00656076D01*
X00280753Y00653664D01*
X00283165Y00651813D01*
X00284587Y00651224D01*
Y00636050D01*
X00284655Y00635707D01*
X00283485Y00635081D01*
X00268504Y00650062D01*
X00268740Y00651534D01*
X00269413Y00651813D01*
X00271826Y00653664D01*
X00273676Y00656076D01*
X00274840Y00658885D01*
X00275237Y00661900D01*
Y00668900D01*
X00274840Y00671915D01*
X00273676Y00674724D01*
X00271826Y00677136D01*
X00269413Y00678987D01*
X00266604Y00680151D01*
X00263589Y00680548D01*
X00260575Y00680151D01*
X00257766Y00678987D01*
X00255353Y00677136D01*
X00253502Y00674724D01*
X00252339Y00671915D01*
X00251942Y00668900D01*
Y00661900D01*
X00252339Y00658885D01*
X00253502Y00656076D01*
X00255353Y00653664D01*
X00257766Y00651813D01*
X00259187Y00651224D01*
Y00648751D01*
X00259522Y00647066D01*
X00260476Y00645637D01*
X00287007Y00619107D01*
X00288435Y00618153D01*
X00290120Y00617817D01*
X00374656D01*
X00407637Y00584836D01*
Y00424100D01*
X00407972Y00422415D01*
X00408927Y00420987D01*
X00410013Y00419901D01*
X00410038Y00419863D01*
X00410075Y00419794D01*
X00410107Y00419719D01*
X00410136Y00419634D01*
X00410162Y00419532D01*
X00410183Y00419409D01*
X00410196Y00419262D01*
X00410203Y00418986D01*
X00410213Y00418942D01*
X00410438Y00417230D01*
X00411129Y00415561D01*
X00412229Y00414129D01*
X00413661Y00413030D01*
X00415329Y00412338D01*
X00417042Y00412113D01*
X00417085Y00412103D01*
X00417361Y00412097D01*
X00417509Y00412083D01*
X00417631Y00412062D01*
X00417733Y00412037D01*
X00417819Y00412008D01*
X00417893Y00411975D01*
X00417962Y00411938D01*
X00418000Y00411913D01*
X00435413Y00394501D01*
X00435438Y00394463D01*
X00435475Y00394394D01*
X00435507Y00394319D01*
X00435536Y00394234D01*
X00435562Y00394132D01*
X00435583Y00394009D01*
X00435597Y00393862D01*
X00435603Y00393586D01*
X00435613Y00393542D01*
X00435838Y00391830D01*
X00436529Y00390161D01*
X00437629Y00388729D01*
X00439061Y00387630D01*
X00440729Y00386939D01*
X00442520Y00386703D01*
X00444310Y00386939D01*
X00445978Y00387630D01*
X00447411Y00388729D01*
X00448510Y00390161D01*
X00449201Y00391830D01*
X00449437Y00393620D01*
X00449201Y00395410D01*
X00448510Y00397079D01*
X00447411Y00398511D01*
X00445978Y00399610D01*
X00444310Y00400302D01*
X00442597Y00400527D01*
X00442554Y00400537D01*
X00442278Y00400543D01*
X00442131Y00400557D01*
X00442008Y00400578D01*
X00441906Y00400603D01*
X00441820Y00400632D01*
X00441746Y00400665D01*
X00441677Y00400702D01*
X00441639Y00400727D01*
X00424226Y00418139D01*
X00424202Y00418177D01*
X00424164Y00418246D01*
X00424132Y00418321D01*
X00424103Y00418406D01*
X00424077Y00418508D01*
X00424057Y00418631D01*
X00424043Y00418778D01*
X00424036Y00419054D01*
X00424027Y00419098D01*
X00423801Y00420810D01*
X00423110Y00422479D01*
X00422011Y00423911D01*
X00420578Y00425010D01*
X00418910Y00425701D01*
X00417197Y00425927D01*
X00417154Y00425937D01*
X00416878Y00425943D01*
X00416731Y00425957D01*
X00416608Y00425978D01*
X00416506Y00426003D01*
X00416442Y00426025D01*
Y00434672D01*
X00417616Y00435158D01*
X00435413Y00417361D01*
X00435438Y00417323D01*
X00435475Y00417254D01*
X00435508Y00417179D01*
X00435537Y00417094D01*
X00435562Y00416992D01*
X00435583Y00416869D01*
X00435597Y00416722D01*
X00435603Y00416446D01*
X00435613Y00416402D01*
X00435838Y00414690D01*
X00436529Y00413021D01*
X00437629Y00411589D01*
X00439061Y00410490D01*
X00440730Y00409799D01*
X00442520Y00409563D01*
X00444310Y00409799D01*
X00445979Y00410490D01*
X00447411Y00411589D01*
X00448510Y00413021D01*
X00449201Y00414690D01*
X00449437Y00416480D01*
X00449201Y00418270D01*
X00448510Y00419939D01*
X00447411Y00421371D01*
X00445979Y00422471D01*
X00444310Y00423162D01*
X00442598Y00423387D01*
X00442554Y00423397D01*
X00442278Y00423403D01*
X00442131Y00423417D01*
X00442008Y00423438D01*
X00441906Y00423463D01*
X00441821Y00423492D01*
X00441746Y00423525D01*
X00441677Y00423562D01*
X00441639Y00423587D01*
X00421522Y00443704D01*
Y00588764D01*
X00421187Y00590449D01*
X00420233Y00591877D01*
X00382713Y00629397D01*
X00381285Y00630351D01*
X00379600Y00630687D01*
X00344314D01*
X00343883Y00631957D01*
X00344680Y00632569D01*
X00345780Y00634001D01*
X00346471Y00635670D01*
X00346707Y00637460D01*
X00346471Y00639250D01*
X00345780Y00640919D01*
X00344728Y00642289D01*
X00344704Y00642327D01*
X00344514Y00642526D01*
X00344420Y00642640D01*
X00344347Y00642741D01*
X00344293Y00642832D01*
X00344253Y00642913D01*
X00344224Y00642988D01*
X00344201Y00643064D01*
X00344192Y00643108D01*
Y00694904D01*
X00345613Y00695493D01*
X00348026Y00697344D01*
X00349877Y00699756D01*
X00351040Y00702565D01*
X00351437Y00705580D01*
Y00713580D01*
X00351040Y00716595D01*
X00349877Y00719404D01*
X00348026Y00721816D01*
X00345613Y00723667D01*
X00342804Y00724831D01*
X00339789Y00725228D01*
D02*
G37*
G36*
X00365189D02*
X00362175Y00724831D01*
X00359366Y00723667D01*
X00356953Y00721816D01*
X00355102Y00719404D01*
X00353939Y00716595D01*
X00353542Y00713580D01*
Y00705580D01*
X00353939Y00702565D01*
X00355102Y00699756D01*
X00356953Y00697344D01*
X00359366Y00695493D01*
X00360787Y00694904D01*
Y00686851D01*
X00361122Y00685166D01*
X00362076Y00683737D01*
X00432707Y00613106D01*
Y00597388D01*
X00432698Y00597344D01*
X00432676Y00597268D01*
X00432646Y00597193D01*
X00432606Y00597112D01*
X00432552Y00597022D01*
X00432480Y00596920D01*
X00432385Y00596806D01*
X00432195Y00596607D01*
X00432171Y00596569D01*
X00431119Y00595199D01*
X00430428Y00593530D01*
X00430193Y00591740D01*
X00430428Y00589950D01*
X00431119Y00588281D01*
X00432219Y00586849D01*
X00433651Y00585750D01*
X00435320Y00585059D01*
X00437110Y00584823D01*
X00438900Y00585059D01*
X00440568Y00585750D01*
X00442001Y00586849D01*
X00443100Y00588281D01*
X00443791Y00589950D01*
X00444027Y00591740D01*
X00443791Y00593530D01*
X00443100Y00595199D01*
X00442049Y00596569D01*
X00442025Y00596607D01*
X00441834Y00596806D01*
X00441740Y00596920D01*
X00441668Y00597021D01*
X00441614Y00597112D01*
X00441574Y00597193D01*
X00441544Y00597268D01*
X00441521Y00597344D01*
X00441512Y00597388D01*
Y00614930D01*
X00441177Y00616615D01*
X00440223Y00618043D01*
X00369592Y00688674D01*
Y00694904D01*
X00371013Y00695493D01*
X00373425Y00697344D01*
X00375276Y00699756D01*
X00376440Y00702565D01*
X00376837Y00705580D01*
Y00713580D01*
X00376440Y00716595D01*
X00375276Y00719404D01*
X00373425Y00721816D01*
X00371013Y00723667D01*
X00368204Y00724831D01*
X00365189Y00725228D01*
D02*
G37*
G36*
X00390589D02*
X00387575Y00724831D01*
X00384766Y00723667D01*
X00382353Y00721816D01*
X00380502Y00719404D01*
X00379339Y00716595D01*
X00378942Y00713580D01*
Y00705580D01*
X00379339Y00702565D01*
X00380502Y00699756D01*
X00382353Y00697344D01*
X00384766Y00695493D01*
X00386187Y00694904D01*
Y00689470D01*
X00386522Y00687785D01*
X00387476Y00686357D01*
X00487746Y00586087D01*
X00489175Y00585132D01*
X00490859Y00584797D01*
X00657852D01*
X00657896Y00584788D01*
X00657971Y00584766D01*
X00658047Y00584736D01*
X00658128Y00584696D01*
X00658218Y00584642D01*
X00658320Y00584570D01*
X00658434Y00584476D01*
X00658633Y00584285D01*
X00658671Y00584261D01*
X00660041Y00583209D01*
X00661710Y00582519D01*
X00663500Y00582283D01*
X00665290Y00582519D01*
X00666958Y00583209D01*
X00668391Y00584309D01*
X00669490Y00585741D01*
X00670181Y00587410D01*
X00670417Y00589200D01*
X00670181Y00590990D01*
X00669490Y00592659D01*
X00668391Y00594091D01*
X00666958Y00595191D01*
X00665290Y00595882D01*
X00663500Y00596117D01*
X00661710Y00595882D01*
X00660041Y00595191D01*
X00658671Y00594139D01*
X00658633Y00594115D01*
X00658434Y00593924D01*
X00658320Y00593830D01*
X00658218Y00593758D01*
X00658128Y00593704D01*
X00658047Y00593664D01*
X00657971Y00593634D01*
X00657896Y00593612D01*
X00657852Y00593603D01*
X00492683D01*
X00394992Y00691294D01*
Y00694904D01*
X00396413Y00695493D01*
X00398825Y00697344D01*
X00400676Y00699756D01*
X00401840Y00702565D01*
X00402237Y00705580D01*
Y00713580D01*
X00401840Y00716595D01*
X00400676Y00719404D01*
X00398825Y00721816D01*
X00396413Y00723667D01*
X00393604Y00724831D01*
X00390589Y00725228D01*
D02*
G37*
G36*
X00375909Y00525707D02*
X00373787Y00525428D01*
X00371810Y00524609D01*
X00370112Y00523306D01*
X00368809Y00521608D01*
X00367990Y00519631D01*
X00367711Y00517509D01*
X00367720Y00517442D01*
X00367713Y00517218D01*
X00367692Y00517025D01*
X00367657Y00516846D01*
X00367608Y00516675D01*
X00367544Y00516506D01*
X00367462Y00516334D01*
X00367358Y00516157D01*
X00367229Y00515971D01*
X00354859Y00503601D01*
X00353764Y00501962D01*
X00353380Y00500030D01*
Y00492286D01*
X00353339Y00492063D01*
X00353287Y00491864D01*
X00353224Y00491685D01*
X00353150Y00491520D01*
X00353063Y00491364D01*
X00352961Y00491213D01*
X00352840Y00491061D01*
X00352686Y00490898D01*
X00352633Y00490857D01*
X00352592Y00490803D01*
X00352428Y00490649D01*
X00352277Y00490528D01*
X00352126Y00490426D01*
X00351970Y00490340D01*
X00351805Y00490266D01*
X00351626Y00490202D01*
X00351427Y00490150D01*
X00351204Y00490110D01*
X00333913D01*
X00333912Y00490110D01*
X00333701Y00490150D01*
X00333518Y00490200D01*
X00333357Y00490259D01*
X00333212Y00490328D01*
X00333076Y00490409D01*
X00332944Y00490503D01*
X00332811Y00490617D01*
X00332586Y00490847D01*
X00332529Y00490887D01*
X00332387Y00491072D01*
X00330689Y00492375D01*
X00328712Y00493194D01*
X00326590Y00493473D01*
X00324468Y00493194D01*
X00322491Y00492375D01*
X00320793Y00491072D01*
X00319490Y00489374D01*
X00318671Y00487397D01*
X00318391Y00485275D01*
X00318671Y00483153D01*
X00319490Y00481176D01*
X00320793Y00479478D01*
X00322491Y00478175D01*
X00324468Y00477356D01*
X00326590Y00477077D01*
X00328712Y00477356D01*
X00330689Y00478175D01*
X00331915Y00479116D01*
X00332103Y00479224D01*
X00332360Y00479447D01*
X00332529Y00479573D01*
X00332700Y00479680D01*
X00332875Y00479772D01*
X00333059Y00479850D01*
X00333256Y00479916D01*
X00333471Y00479970D01*
X00333705Y00480010D01*
X00351204D01*
X00351427Y00479970D01*
X00351626Y00479917D01*
X00351805Y00479854D01*
X00351970Y00479780D01*
X00352126Y00479694D01*
X00352277Y00479592D01*
X00352428Y00479471D01*
X00352592Y00479317D01*
X00352633Y00479263D01*
X00352686Y00479222D01*
X00352840Y00479058D01*
X00352961Y00478908D01*
X00353063Y00478756D01*
X00353150Y00478600D01*
X00353224Y00478435D01*
X00353287Y00478256D01*
X00353339Y00478057D01*
X00353380Y00477834D01*
Y00449770D01*
X00353764Y00447838D01*
X00354859Y00446199D01*
X00357559Y00443499D01*
X00357688Y00443313D01*
X00357792Y00443135D01*
X00357874Y00442963D01*
X00357938Y00442795D01*
X00357987Y00442623D01*
X00358022Y00442444D01*
X00358044Y00442251D01*
X00358050Y00442028D01*
X00358041Y00441960D01*
X00358321Y00439838D01*
X00359140Y00437861D01*
X00360443Y00436163D01*
X00362141Y00434860D01*
X00364118Y00434041D01*
X00366240Y00433762D01*
X00366307Y00433771D01*
X00366531Y00433764D01*
X00366724Y00433743D01*
X00366903Y00433708D01*
X00367074Y00433659D01*
X00367243Y00433595D01*
X00367414Y00433513D01*
X00367592Y00433409D01*
X00367778Y00433280D01*
X00435009Y00366049D01*
Y00350048D01*
X00428511D01*
Y00319952D01*
X00451607D01*
Y00350048D01*
X00445109D01*
Y00368140D01*
X00444725Y00370073D01*
X00443630Y00371711D01*
X00374920Y00440422D01*
X00374791Y00440608D01*
X00374687Y00440786D01*
X00374605Y00440957D01*
X00374541Y00441126D01*
X00374492Y00441297D01*
X00374457Y00441476D01*
X00374435Y00441669D01*
X00374429Y00441893D01*
X00374438Y00441960D01*
X00374158Y00444082D01*
X00373339Y00446059D01*
X00372037Y00447757D01*
X00370339Y00449060D01*
X00368361Y00449879D01*
X00366240Y00450158D01*
X00366172Y00450149D01*
X00365948Y00450156D01*
X00365756Y00450177D01*
X00365577Y00450212D01*
X00365405Y00450261D01*
X00365236Y00450326D01*
X00365065Y00450408D01*
X00364887Y00450511D01*
X00364701Y00450641D01*
X00363480Y00451862D01*
Y00477834D01*
X00363520Y00478057D01*
X00363572Y00478256D01*
X00363635Y00478435D01*
X00363709Y00478600D01*
X00363796Y00478756D01*
X00363898Y00478908D01*
X00364019Y00479059D01*
X00364173Y00479222D01*
X00364227Y00479263D01*
X00365529Y00480961D01*
X00366348Y00482938D01*
X00366628Y00485060D01*
X00366348Y00487182D01*
X00365529Y00489159D01*
X00364227Y00490857D01*
X00364173Y00490898D01*
X00364019Y00491062D01*
X00363898Y00491212D01*
X00363796Y00491364D01*
X00363709Y00491520D01*
X00363635Y00491685D01*
X00363572Y00491864D01*
X00363520Y00492062D01*
X00363480Y00492286D01*
Y00497938D01*
X00374370Y00508829D01*
X00374557Y00508958D01*
X00374734Y00509062D01*
X00374906Y00509144D01*
X00375075Y00509208D01*
X00375246Y00509257D01*
X00375425Y00509292D01*
X00375618Y00509313D01*
X00375842Y00509320D01*
X00375909Y00509311D01*
X00378031Y00509590D01*
X00380008Y00510409D01*
X00381706Y00511712D01*
X00383009Y00513410D01*
X00383828Y00515387D01*
X00384107Y00517509D01*
X00383828Y00519631D01*
X00383009Y00521608D01*
X00381706Y00523306D01*
X00380008Y00524609D01*
X00378031Y00525428D01*
X00375909Y00525707D01*
D02*
G37*
G36*
X00613129Y00525278D02*
X00611007Y00524999D01*
X00609030Y00524180D01*
X00607332Y00522877D01*
X00606029Y00521179D01*
X00605210Y00519202D01*
X00604931Y00517080D01*
X00604940Y00517013D01*
X00604933Y00516789D01*
X00604912Y00516596D01*
X00604877Y00516417D01*
X00604828Y00516246D01*
X00604764Y00516077D01*
X00604682Y00515905D01*
X00604578Y00515728D01*
X00604449Y00515541D01*
X00593889Y00504982D01*
X00592794Y00503343D01*
X00592410Y00501411D01*
Y00492501D01*
X00592370Y00492278D01*
X00592317Y00492079D01*
X00592254Y00491900D01*
X00592180Y00491735D01*
X00592094Y00491579D01*
X00591992Y00491427D01*
X00591870Y00491276D01*
X00591717Y00491113D01*
X00591663Y00491072D01*
X00591521Y00490887D01*
X00591463Y00490847D01*
X00591238Y00490618D01*
X00591106Y00490503D01*
X00590974Y00490409D01*
X00590838Y00490328D01*
X00590692Y00490260D01*
X00590531Y00490200D01*
X00590348Y00490150D01*
X00590138Y00490110D01*
X00590136Y00490110D01*
X00572575D01*
X00572352Y00490150D01*
X00572154Y00490202D01*
X00571974Y00490266D01*
X00571809Y00490340D01*
X00571654Y00490426D01*
X00571502Y00490528D01*
X00571351Y00490649D01*
X00571188Y00490803D01*
X00571147Y00490857D01*
X00569449Y00492160D01*
X00567472Y00492979D01*
X00565350Y00493258D01*
X00563228Y00492979D01*
X00561251Y00492160D01*
X00559553Y00490857D01*
X00558250Y00489159D01*
X00557431Y00487182D01*
X00557151Y00485060D01*
X00557431Y00482938D01*
X00558250Y00480961D01*
X00559553Y00479263D01*
X00561251Y00477960D01*
X00563228Y00477141D01*
X00565350Y00476862D01*
X00567472Y00477141D01*
X00569449Y00477960D01*
X00571147Y00479263D01*
X00571188Y00479317D01*
X00571351Y00479471D01*
X00571502Y00479592D01*
X00571654Y00479694D01*
X00571809Y00479780D01*
X00571974Y00479854D01*
X00572154Y00479917D01*
X00572352Y00479970D01*
X00572576Y00480010D01*
X00590345D01*
X00590579Y00479970D01*
X00590793Y00479916D01*
X00590990Y00479850D01*
X00591174Y00479772D01*
X00591349Y00479680D01*
X00591520Y00479573D01*
X00591689Y00479447D01*
X00591786Y00479363D01*
X00591871Y00479273D01*
X00591992Y00479123D01*
X00592094Y00478971D01*
X00592180Y00478815D01*
X00592254Y00478650D01*
X00592317Y00478471D01*
X00592369Y00478272D01*
X00592410Y00478049D01*
Y00449580D01*
X00592794Y00447648D01*
X00593889Y00446009D01*
X00596399Y00443499D01*
X00596529Y00443313D01*
X00596632Y00443135D01*
X00596715Y00442963D01*
X00596779Y00442795D01*
X00596828Y00442623D01*
X00596863Y00442444D01*
X00596884Y00442251D01*
X00596891Y00442028D01*
X00596882Y00441960D01*
X00597161Y00439838D01*
X00597980Y00437861D01*
X00599283Y00436163D01*
X00600981Y00434860D01*
X00602958Y00434041D01*
X00605080Y00433762D01*
X00607202Y00434041D01*
X00609179Y00434860D01*
X00610877Y00436163D01*
X00612180Y00437861D01*
X00612999Y00439838D01*
X00613278Y00441960D01*
X00612999Y00444082D01*
X00612180Y00446059D01*
X00610877Y00447757D01*
X00609179Y00449060D01*
X00607202Y00449879D01*
X00605080Y00450158D01*
X00605013Y00450149D01*
X00604789Y00450156D01*
X00604596Y00450177D01*
X00604417Y00450212D01*
X00604245Y00450261D01*
X00604077Y00450326D01*
X00603905Y00450408D01*
X00603727Y00450511D01*
X00603541Y00450641D01*
X00602510Y00451672D01*
Y00478049D01*
X00602550Y00478272D01*
X00602602Y00478471D01*
X00602665Y00478650D01*
X00602740Y00478815D01*
X00602826Y00478971D01*
X00602928Y00479123D01*
X00603049Y00479274D01*
X00603203Y00479437D01*
X00603257Y00479478D01*
X00604560Y00481176D01*
X00605379Y00483153D01*
X00605658Y00485275D01*
X00605379Y00487397D01*
X00604560Y00489374D01*
X00603257Y00491072D01*
X00603203Y00491113D01*
X00603049Y00491277D01*
X00602928Y00491427D01*
X00602826Y00491579D01*
X00602740Y00491735D01*
X00602665Y00491900D01*
X00602602Y00492079D01*
X00602550Y00492278D01*
X00602510Y00492501D01*
Y00499319D01*
X00611590Y00508400D01*
X00611777Y00508529D01*
X00611954Y00508633D01*
X00612126Y00508715D01*
X00612295Y00508779D01*
X00612466Y00508828D01*
X00612645Y00508863D01*
X00612838Y00508884D01*
X00613062Y00508891D01*
X00613129Y00508882D01*
X00615251Y00509161D01*
X00617228Y00509980D01*
X00618926Y00511283D01*
X00620229Y00512981D01*
X00621048Y00514958D01*
X00621327Y00517080D01*
X00621048Y00519202D01*
X00620229Y00521179D01*
X00618926Y00522877D01*
X00617228Y00524180D01*
X00615251Y00524999D01*
X00613129Y00525278D01*
D02*
G37*
G36*
X00704140Y00474197D02*
X00702350Y00473961D01*
X00700681Y00473270D01*
X00699249Y00472171D01*
X00698149Y00470739D01*
X00697458Y00469070D01*
X00697223Y00467280D01*
X00697458Y00465490D01*
X00697672Y00464975D01*
X00696854Y00463629D01*
X00695601Y00463111D01*
X00694169Y00462011D01*
X00693069Y00460579D01*
X00692378Y00458910D01*
X00692143Y00457120D01*
X00692378Y00455330D01*
X00693069Y00453661D01*
X00694169Y00452229D01*
X00695601Y00451129D01*
X00697270Y00450438D01*
X00699060Y00450203D01*
X00700663Y00450414D01*
X00703594Y00450597D01*
X00792472D01*
X00792516Y00450588D01*
X00792591Y00450566D01*
X00792667Y00450536D01*
X00792748Y00450496D01*
X00792838Y00450442D01*
X00792940Y00450370D01*
X00793054Y00450275D01*
X00793253Y00450085D01*
X00793291Y00450061D01*
X00794661Y00449010D01*
X00796330Y00448318D01*
X00798120Y00448083D01*
X00799910Y00448318D01*
X00801579Y00449010D01*
X00803011Y00450109D01*
X00804110Y00451541D01*
X00804801Y00453210D01*
X00805037Y00455000D01*
X00804801Y00456790D01*
X00804110Y00458459D01*
X00803011Y00459891D01*
X00802542Y00460251D01*
Y00461521D01*
X00803011Y00461881D01*
X00804110Y00463313D01*
X00804801Y00464982D01*
X00805037Y00466772D01*
X00804801Y00468562D01*
X00804110Y00470231D01*
X00803011Y00471663D01*
X00801579Y00472762D01*
X00799910Y00473453D01*
X00798120Y00473689D01*
X00796330Y00473453D01*
X00794661Y00472762D01*
X00793229Y00471663D01*
X00792854Y00471175D01*
X00792532D01*
X00790847Y00470839D01*
X00789419Y00469885D01*
X00786136Y00466603D01*
X00720113D01*
X00718525Y00466657D01*
X00717834Y00466723D01*
X00713249Y00471309D01*
X00711400Y00472544D01*
X00709220Y00472977D01*
X00707980D01*
X00707598Y00473270D01*
X00705930Y00473961D01*
X00704140Y00474197D01*
D02*
G37*
G36*
X00846380Y00444998D02*
X00844258Y00444719D01*
X00842281Y00443900D01*
X00840699Y00442686D01*
X00840689Y00442680D01*
X00840674Y00442667D01*
X00840650Y00442648D01*
X00840623Y00442637D01*
X00840496Y00442598D01*
X00840303Y00442554D01*
X00840084Y00442519D01*
X00839830Y00442497D01*
X00833680D01*
X00831499Y00442064D01*
X00829651Y00440829D01*
X00805521Y00416699D01*
X00800840Y00412018D01*
X00742060D01*
X00733065Y00421012D01*
X00732978Y00421121D01*
X00732826Y00421331D01*
X00732721Y00421499D01*
X00732658Y00421617D01*
X00732647Y00421643D01*
X00732643Y00421674D01*
X00732642Y00421694D01*
X00732639Y00421705D01*
X00732379Y00423682D01*
X00731560Y00425659D01*
X00730257Y00427357D01*
X00728559Y00428660D01*
X00726582Y00429479D01*
X00724460Y00429758D01*
X00722338Y00429479D01*
X00720361Y00428660D01*
X00718663Y00427357D01*
X00717360Y00425659D01*
X00716541Y00423682D01*
X00716262Y00421560D01*
X00716541Y00419438D01*
X00717360Y00417461D01*
X00718663Y00415763D01*
X00720361Y00414460D01*
X00722338Y00413641D01*
X00724315Y00413381D01*
X00724326Y00413378D01*
X00724346Y00413377D01*
X00724377Y00413373D01*
X00724403Y00413361D01*
X00724521Y00413299D01*
X00724688Y00413194D01*
X00724868Y00413064D01*
X00725063Y00412900D01*
X00735671Y00402291D01*
X00737520Y00401056D01*
X00739700Y00400622D01*
X00803200D01*
X00805380Y00401056D01*
X00807229Y00402291D01*
X00810820Y00405883D01*
X00814914Y00401788D01*
X00815002Y00401679D01*
X00815154Y00401469D01*
X00815259Y00401301D01*
X00815321Y00401183D01*
X00815333Y00401157D01*
X00815337Y00401126D01*
X00815338Y00401106D01*
X00815341Y00401095D01*
X00815601Y00399118D01*
X00816420Y00397141D01*
X00817723Y00395443D01*
X00819421Y00394140D01*
X00821398Y00393321D01*
X00823520Y00393042D01*
X00825642Y00393321D01*
X00827619Y00394140D01*
X00829317Y00395443D01*
X00830620Y00397141D01*
X00831439Y00399118D01*
X00831718Y00401240D01*
X00831439Y00403362D01*
X00830620Y00405339D01*
X00829317Y00407037D01*
X00827619Y00408340D01*
X00825642Y00409159D01*
X00823665Y00409419D01*
X00823654Y00409422D01*
X00823633Y00409423D01*
X00823603Y00409427D01*
X00823576Y00409439D01*
X00823459Y00409501D01*
X00823291Y00409606D01*
X00823111Y00409735D01*
X00822917Y00409900D01*
X00818877Y00413940D01*
X00836040Y00431102D01*
X00839908D01*
X00840046Y00431088D01*
X00840303Y00431046D01*
X00840496Y00431002D01*
X00840623Y00430963D01*
X00840650Y00430952D01*
X00840674Y00430933D01*
X00840689Y00430920D01*
X00840699Y00430914D01*
X00842281Y00429700D01*
X00844258Y00428881D01*
X00846380Y00428602D01*
X00848502Y00428881D01*
X00850479Y00429700D01*
X00852177Y00431003D01*
X00853480Y00432701D01*
X00854299Y00434678D01*
X00854578Y00436800D01*
X00854299Y00438922D01*
X00853480Y00440899D01*
X00852177Y00442597D01*
X00850479Y00443900D01*
X00848502Y00444719D01*
X00846380Y00444998D01*
D02*
G37*
G36*
X00191060Y00618977D02*
X00189270Y00618741D01*
X00187601Y00618050D01*
X00186169Y00616951D01*
X00185069Y00615519D01*
X00184378Y00613850D01*
X00184143Y00612060D01*
X00184378Y00610270D01*
X00185069Y00608601D01*
X00186121Y00607231D01*
X00186145Y00607193D01*
X00186335Y00606994D01*
X00186430Y00606880D01*
X00186502Y00606778D01*
X00186556Y00606688D01*
X00186596Y00606607D01*
X00186626Y00606532D01*
X00186648Y00606456D01*
X00186657Y00606412D01*
Y00596574D01*
X00171621Y00581537D01*
X00171583Y00581512D01*
X00171514Y00581475D01*
X00171439Y00581442D01*
X00171354Y00581413D01*
X00171251Y00581388D01*
X00171129Y00581367D01*
X00170981Y00581353D01*
X00170706Y00581347D01*
X00170662Y00581337D01*
X00168950Y00581111D01*
X00167281Y00580420D01*
X00165849Y00579321D01*
X00164749Y00577889D01*
X00164058Y00576220D01*
X00163823Y00574430D01*
X00164058Y00572640D01*
X00164749Y00570971D01*
X00165849Y00569539D01*
X00166942Y00568700D01*
X00167108Y00567556D01*
X00167032Y00567168D01*
X00166319Y00566621D01*
X00165219Y00565189D01*
X00164528Y00563520D01*
X00164293Y00561730D01*
X00164528Y00559940D01*
X00165219Y00558271D01*
X00166271Y00556901D01*
X00166295Y00556863D01*
X00166485Y00556664D01*
X00166580Y00556550D01*
X00166652Y00556449D01*
X00166706Y00556358D01*
X00166746Y00556277D01*
X00166776Y00556202D01*
X00166798Y00556126D01*
X00166807Y00556082D01*
Y00434014D01*
X00139154Y00406360D01*
X00139143Y00406355D01*
X00139132Y00406351D01*
X00139117Y00406347D01*
X00139089Y00406343D01*
X00139040Y00406340D01*
X00138962Y00406343D01*
X00138729Y00406372D01*
X00138445Y00406351D01*
X00137720Y00406447D01*
X00135930Y00406211D01*
X00134261Y00405520D01*
X00132829Y00404421D01*
X00131729Y00402988D01*
X00131038Y00401320D01*
X00130803Y00399530D01*
X00131038Y00397739D01*
X00131729Y00396071D01*
X00132829Y00394638D01*
X00134261Y00393539D01*
X00135930Y00392848D01*
X00137720Y00392612D01*
X00139510Y00392848D01*
X00141179Y00393539D01*
X00142611Y00394638D01*
X00143710Y00396071D01*
X00144401Y00397739D01*
X00144465Y00398226D01*
X00144553Y00398452D01*
X00144605Y00398757D01*
X00144652Y00398960D01*
X00144705Y00399142D01*
X00144762Y00399303D01*
X00144824Y00399446D01*
X00144890Y00399574D01*
X00144959Y00399689D01*
X00145016Y00399770D01*
X00174323Y00429077D01*
X00175277Y00430505D01*
X00175613Y00432190D01*
Y00556082D01*
X00175622Y00556126D01*
X00175644Y00556202D01*
X00175674Y00556277D01*
X00175714Y00556358D01*
X00175768Y00556448D01*
X00175840Y00556550D01*
X00175934Y00556664D01*
X00176125Y00556863D01*
X00176149Y00556901D01*
X00177200Y00558271D01*
X00177891Y00559940D01*
X00178127Y00561730D01*
X00177891Y00563520D01*
X00177200Y00565189D01*
X00176101Y00566621D01*
X00175008Y00567460D01*
X00174842Y00568604D01*
X00174918Y00568992D01*
X00175631Y00569539D01*
X00176730Y00570971D01*
X00177421Y00572640D01*
X00177647Y00574352D01*
X00177656Y00574396D01*
X00177663Y00574672D01*
X00177677Y00574819D01*
X00177697Y00574941D01*
X00177723Y00575044D01*
X00177752Y00575129D01*
X00177785Y00575204D01*
X00177822Y00575273D01*
X00177847Y00575311D01*
X00194173Y00591637D01*
X00195127Y00593065D01*
X00195462Y00594750D01*
Y00606412D01*
X00195472Y00606456D01*
X00195494Y00606532D01*
X00195524Y00606607D01*
X00195564Y00606688D01*
X00195618Y00606778D01*
X00195690Y00606880D01*
X00195784Y00606994D01*
X00195975Y00607193D01*
X00195999Y00607231D01*
X00197050Y00608601D01*
X00197741Y00610270D01*
X00197977Y00612060D01*
X00197741Y00613850D01*
X00197050Y00615519D01*
X00195951Y00616951D01*
X00194519Y00618050D01*
X00192850Y00618741D01*
X00191060Y00618977D01*
D02*
G37*
G36*
X00593789Y00414518D02*
X00591668Y00414239D01*
X00589690Y00413420D01*
X00588108Y00412206D01*
X00588098Y00412200D01*
X00588083Y00412187D01*
X00588059Y00412168D01*
X00588032Y00412157D01*
X00587905Y00412118D01*
X00587712Y00412074D01*
X00587493Y00412038D01*
X00587239Y00412018D01*
X00582220D01*
X00580039Y00411584D01*
X00578191Y00410349D01*
X00562951Y00395109D01*
X00561716Y00393260D01*
X00561282Y00391080D01*
Y00279320D01*
X00561716Y00277140D01*
X00562951Y00275291D01*
X00589362Y00248880D01*
Y00170937D01*
X00589332Y00170600D01*
X00589250Y00170100D01*
X00589235Y00170048D01*
X00583511D01*
Y00139952D01*
X00606607D01*
Y00170048D01*
X00600883D01*
X00600869Y00170100D01*
X00600786Y00170600D01*
X00600757Y00170937D01*
Y00251240D01*
X00600323Y00253421D01*
X00599088Y00255269D01*
X00572677Y00281680D01*
Y00388720D01*
X00584580Y00400622D01*
X00587317D01*
X00587455Y00400608D01*
X00587712Y00400566D01*
X00587905Y00400522D01*
X00588032Y00400483D01*
X00588059Y00400472D01*
X00588083Y00400453D01*
X00588098Y00400440D01*
X00588108Y00400434D01*
X00589690Y00399220D01*
X00591668Y00398401D01*
X00593789Y00398122D01*
X00595911Y00398401D01*
X00597888Y00399220D01*
X00599586Y00400523D01*
X00600889Y00402221D01*
X00601708Y00404198D01*
X00601987Y00406320D01*
X00601708Y00408442D01*
X00600889Y00410419D01*
X00599586Y00412117D01*
X00597888Y00413420D01*
X00595911Y00414239D01*
X00593789Y00414518D01*
D02*
G37*
G36*
X00651460Y00441203D02*
X00643180D01*
X00641495Y00440867D01*
X00640067Y00439913D01*
X00637527Y00437373D01*
X00636572Y00435945D01*
X00636237Y00434260D01*
Y00424668D01*
X00636228Y00424624D01*
X00636205Y00424548D01*
X00636176Y00424473D01*
X00636136Y00424392D01*
X00636082Y00424301D01*
X00636010Y00424200D01*
X00635915Y00424086D01*
X00635725Y00423887D01*
X00635701Y00423849D01*
X00634649Y00422479D01*
X00633958Y00420810D01*
X00633722Y00419020D01*
X00633958Y00417230D01*
X00634649Y00415561D01*
X00635748Y00414129D01*
X00637181Y00413030D01*
X00638849Y00412338D01*
X00640640Y00412103D01*
X00642430Y00412338D01*
X00644098Y00413030D01*
X00645531Y00414129D01*
X00646630Y00415561D01*
X00647321Y00417230D01*
X00647557Y00419020D01*
X00647441Y00419899D01*
X00648236Y00421039D01*
X00648494Y00421103D01*
X00650050Y00421308D01*
X00650754Y00421600D01*
X00651985Y00420368D01*
Y00387038D01*
X00628014Y00363067D01*
X00627060Y00361639D01*
X00626725Y00359954D01*
Y00349779D01*
X00625455Y00348930D01*
X00623474Y00349751D01*
X00620459Y00350148D01*
X00617445Y00349751D01*
X00614636Y00348587D01*
X00612223Y00346736D01*
X00610372Y00344324D01*
X00609209Y00341515D01*
X00608812Y00338500D01*
Y00331500D01*
X00609209Y00328485D01*
X00610372Y00325676D01*
X00612223Y00323264D01*
X00614636Y00321413D01*
X00617445Y00320249D01*
X00620459Y00319852D01*
X00623474Y00320249D01*
X00626283Y00321413D01*
X00628695Y00323264D01*
X00630546Y00325676D01*
X00631710Y00328485D01*
X00632107Y00331500D01*
Y00338500D01*
X00631909Y00340006D01*
X00631911Y00340025D01*
X00631902Y00340057D01*
X00631890Y00340149D01*
X00632128Y00340443D01*
X00633159Y00341474D01*
X00634257Y00340376D01*
X00634342Y00340278D01*
X00634430Y00340161D01*
X00634417Y00340057D01*
X00634408Y00340025D01*
X00634410Y00340006D01*
X00634212Y00338500D01*
Y00331500D01*
X00634609Y00328485D01*
X00635772Y00325676D01*
X00637623Y00323264D01*
X00640035Y00321413D01*
X00642845Y00320249D01*
X00645859Y00319852D01*
X00648874Y00320249D01*
X00651683Y00321413D01*
X00654096Y00323264D01*
X00655947Y00325676D01*
X00657110Y00328485D01*
X00657507Y00331500D01*
Y00338500D01*
X00657110Y00341515D01*
X00655947Y00344324D01*
X00654096Y00346736D01*
X00651683Y00348587D01*
X00648874Y00349751D01*
X00645859Y00350148D01*
X00642845Y00349751D01*
X00641158Y00349052D01*
X00640102Y00349758D01*
Y00356236D01*
X00664073Y00380207D01*
X00665027Y00381636D01*
X00665362Y00383320D01*
Y00427300D01*
X00665027Y00428985D01*
X00664073Y00430413D01*
X00664073Y00430413D01*
X00654573Y00439913D01*
X00653145Y00440867D01*
X00651460Y00441203D01*
D02*
G37*
G36*
X00302820Y00338318D02*
X00300698Y00338039D01*
X00298721Y00337220D01*
X00297023Y00335917D01*
X00296982Y00335863D01*
X00296818Y00335709D01*
X00296667Y00335588D01*
X00296516Y00335486D01*
X00296360Y00335400D01*
X00296195Y00335326D01*
X00296016Y00335262D01*
X00295817Y00335210D01*
X00295594Y00335170D01*
X00282106D01*
X00281882Y00335210D01*
X00281684Y00335262D01*
X00281504Y00335326D01*
X00281340Y00335400D01*
X00281184Y00335486D01*
X00281032Y00335588D01*
X00280881Y00335709D01*
X00280718Y00335863D01*
X00280677Y00335917D01*
X00278979Y00337220D01*
X00277002Y00338039D01*
X00274880Y00338318D01*
X00272758Y00338039D01*
X00270781Y00337220D01*
X00269083Y00335917D01*
X00267780Y00334219D01*
X00266961Y00332242D01*
X00266682Y00330120D01*
X00266961Y00327998D01*
X00267780Y00326021D01*
X00269083Y00324323D01*
X00270781Y00323020D01*
X00272758Y00322201D01*
X00274880Y00321922D01*
X00277002Y00322201D01*
X00278979Y00323020D01*
X00280677Y00324323D01*
X00280718Y00324377D01*
X00280881Y00324531D01*
X00281032Y00324652D01*
X00281184Y00324754D01*
X00281339Y00324840D01*
X00281505Y00324914D01*
X00281684Y00324977D01*
X00281882Y00325030D01*
X00282106Y00325070D01*
X00295594D01*
X00295817Y00325030D01*
X00296016Y00324977D01*
X00296195Y00324914D01*
X00296360Y00324840D01*
X00296516Y00324754D01*
X00296667Y00324652D01*
X00296819Y00324531D01*
X00296982Y00324377D01*
X00297023Y00324323D01*
X00298721Y00323020D01*
X00300698Y00322201D01*
X00302820Y00321922D01*
X00304942Y00322201D01*
X00306919Y00323020D01*
X00308617Y00324323D01*
X00309920Y00326021D01*
X00310739Y00327998D01*
X00311018Y00330120D01*
X00310739Y00332242D01*
X00309920Y00334219D01*
X00308617Y00335917D01*
X00306919Y00337220D01*
X00304942Y00338039D01*
X00302820Y00338318D01*
D02*
G37*
G36*
X00415989Y00725228D02*
X00412975Y00724831D01*
X00410165Y00723667D01*
X00407753Y00721816D01*
X00405902Y00719404D01*
X00404739Y00716595D01*
X00404342Y00713580D01*
Y00705580D01*
X00404739Y00702565D01*
X00405902Y00699756D01*
X00407753Y00697344D01*
X00410165Y00695493D01*
X00411587Y00694904D01*
Y00684311D01*
X00411922Y00682626D01*
X00412876Y00681197D01*
X00492747Y00601327D01*
X00494175Y00600373D01*
X00495860Y00600037D01*
X00697236D01*
X00890237Y00407036D01*
Y00339564D01*
X00889523Y00338849D01*
X00889485Y00338825D01*
X00889416Y00338787D01*
X00889342Y00338755D01*
X00889256Y00338726D01*
X00889154Y00338700D01*
X00889032Y00338680D01*
X00888884Y00338666D01*
X00888608Y00338659D01*
X00888565Y00338650D01*
X00886852Y00338424D01*
X00885184Y00337733D01*
X00883751Y00336634D01*
X00882652Y00335201D01*
X00881961Y00333533D01*
X00881725Y00331743D01*
X00881961Y00329952D01*
X00882652Y00328284D01*
X00883751Y00326852D01*
X00885184Y00325752D01*
X00886852Y00325061D01*
X00888643Y00324826D01*
X00890433Y00325061D01*
X00892101Y00325752D01*
X00893534Y00326852D01*
X00894633Y00328284D01*
X00895324Y00329952D01*
X00895549Y00331665D01*
X00895559Y00331708D01*
X00895566Y00331984D01*
X00895579Y00332132D01*
X00895600Y00332254D01*
X00895626Y00332356D01*
X00895655Y00332442D01*
X00895687Y00332516D01*
X00895725Y00332585D01*
X00895749Y00332623D01*
X00897753Y00334627D01*
X00898707Y00336055D01*
X00899042Y00337740D01*
Y00408860D01*
X00898707Y00410545D01*
X00897753Y00411973D01*
X00702173Y00607553D01*
X00700745Y00608507D01*
X00699060Y00608843D01*
X00497683D01*
X00420392Y00686134D01*
Y00694904D01*
X00421813Y00695493D01*
X00424226Y00697344D01*
X00426077Y00699756D01*
X00427240Y00702565D01*
X00427637Y00705580D01*
Y00713580D01*
X00427240Y00716595D01*
X00426077Y00719404D01*
X00424226Y00721816D01*
X00421813Y00723667D01*
X00419004Y00724831D01*
X00415989Y00725228D01*
D02*
G37*
G36*
X00572060Y00432298D02*
X00569938Y00432019D01*
X00567961Y00431200D01*
X00566263Y00429897D01*
X00564960Y00428199D01*
X00564141Y00426222D01*
X00563862Y00424100D01*
X00564141Y00421978D01*
X00564960Y00420001D01*
X00566263Y00418303D01*
X00567961Y00417000D01*
X00569938Y00416181D01*
X00572060Y00415902D01*
X00574182Y00416181D01*
X00576159Y00417000D01*
X00577857Y00418303D01*
X00577898Y00418357D01*
X00578061Y00418511D01*
X00578212Y00418632D01*
X00578364Y00418734D01*
X00578520Y00418820D01*
X00578685Y00418894D01*
X00578864Y00418957D01*
X00579062Y00419010D01*
X00579286Y00419050D01*
X00597908D01*
X00607650Y00409308D01*
Y00380472D01*
X00591488Y00364310D01*
X00590394Y00362672D01*
X00590009Y00360740D01*
Y00350048D01*
X00583511D01*
Y00319952D01*
X00606607D01*
Y00350048D01*
X00600109D01*
Y00358648D01*
X00616271Y00374809D01*
X00617365Y00376447D01*
X00617750Y00378380D01*
Y00411400D01*
X00617365Y00413332D01*
X00616271Y00414971D01*
X00603571Y00427671D01*
X00601932Y00428766D01*
X00600000Y00429150D01*
X00579286D01*
X00579062Y00429190D01*
X00578864Y00429243D01*
X00578685Y00429306D01*
X00578520Y00429380D01*
X00578364Y00429466D01*
X00578212Y00429568D01*
X00578061Y00429689D01*
X00577898Y00429843D01*
X00577857Y00429897D01*
X00576159Y00431200D01*
X00574182Y00432019D01*
X00572060Y00432298D01*
D02*
G37*
G36*
X00490859Y00350148D02*
X00487845Y00349751D01*
X00485036Y00348587D01*
X00482623Y00346736D01*
X00480772Y00344324D01*
X00479609Y00341515D01*
X00479212Y00338500D01*
Y00331500D01*
X00479609Y00328485D01*
X00480772Y00325676D01*
X00482623Y00323264D01*
X00485036Y00321413D01*
X00487845Y00320249D01*
X00490859Y00319852D01*
X00493874Y00320249D01*
X00496683Y00321413D01*
X00499095Y00323264D01*
X00500947Y00325676D01*
X00502110Y00328485D01*
X00502507Y00331500D01*
Y00338500D01*
X00502110Y00341515D01*
X00500947Y00344324D01*
X00499095Y00346736D01*
X00496683Y00348587D01*
X00493874Y00349751D01*
X00490859Y00350148D01*
D02*
G37*
G36*
X00465459D02*
X00462445Y00349751D01*
X00459636Y00348587D01*
X00457223Y00346736D01*
X00455372Y00344324D01*
X00454209Y00341515D01*
X00453812Y00338500D01*
Y00331500D01*
X00454209Y00328485D01*
X00455372Y00325676D01*
X00457223Y00323264D01*
X00459636Y00321413D01*
X00462445Y00320249D01*
X00465459Y00319852D01*
X00468474Y00320249D01*
X00471283Y00321413D01*
X00473695Y00323264D01*
X00475546Y00325676D01*
X00476710Y00328485D01*
X00477107Y00331500D01*
Y00338500D01*
X00476710Y00341515D01*
X00475546Y00344324D01*
X00473695Y00346736D01*
X00471283Y00348587D01*
X00468474Y00349751D01*
X00465459Y00350148D01*
D02*
G37*
G36*
X00373478Y00298488D02*
X00343382D01*
Y00275392D01*
X00373478D01*
Y00298488D01*
D02*
G37*
G36*
X00160580Y00324337D02*
X00158790Y00324101D01*
X00157121Y00323410D01*
X00155689Y00322311D01*
X00154589Y00320879D01*
X00153898Y00319210D01*
X00153673Y00317498D01*
X00153663Y00317454D01*
X00153657Y00317178D01*
X00153643Y00317031D01*
X00153622Y00316908D01*
X00153597Y00316806D01*
X00153568Y00316721D01*
X00153535Y00316646D01*
X00153498Y00316577D01*
X00153473Y00316539D01*
X00137147Y00300213D01*
X00136192Y00298785D01*
X00135857Y00297100D01*
Y00284968D01*
X00135848Y00284924D01*
X00135826Y00284848D01*
X00135796Y00284773D01*
X00135756Y00284692D01*
X00135702Y00284602D01*
X00135630Y00284500D01*
X00135535Y00284386D01*
X00135345Y00284187D01*
X00135321Y00284149D01*
X00134269Y00282779D01*
X00133578Y00281110D01*
X00133343Y00279320D01*
X00133578Y00277530D01*
X00134269Y00275861D01*
X00135369Y00274429D01*
X00136801Y00273330D01*
X00138470Y00272638D01*
X00140260Y00272403D01*
X00142050Y00272638D01*
X00143719Y00273330D01*
X00145151Y00274429D01*
X00146250Y00275861D01*
X00146941Y00277530D01*
X00147177Y00279320D01*
X00146941Y00281110D01*
X00146250Y00282779D01*
X00145199Y00284149D01*
X00145175Y00284187D01*
X00144984Y00284386D01*
X00144890Y00284500D01*
X00144818Y00284601D01*
X00144764Y00284692D01*
X00144724Y00284773D01*
X00144694Y00284848D01*
X00144672Y00284924D01*
X00144662Y00284968D01*
Y00295276D01*
X00159699Y00310313D01*
X00159737Y00310338D01*
X00159806Y00310375D01*
X00159881Y00310408D01*
X00159966Y00310437D01*
X00160068Y00310462D01*
X00160191Y00310483D01*
X00160338Y00310497D01*
X00160614Y00310503D01*
X00160658Y00310513D01*
X00162370Y00310739D01*
X00164039Y00311430D01*
X00165471Y00312529D01*
X00166570Y00313961D01*
X00167261Y00315630D01*
X00167497Y00317420D01*
X00167261Y00319210D01*
X00166570Y00320879D01*
X00165471Y00322311D01*
X00164039Y00323410D01*
X00162370Y00324101D01*
X00160580Y00324337D01*
D02*
G37*
G36*
X00318060Y00349737D02*
X00316270Y00349501D01*
X00314601Y00348811D01*
X00313169Y00347711D01*
X00312069Y00346279D01*
X00311378Y00344610D01*
X00311143Y00342820D01*
X00311378Y00341030D01*
X00312069Y00339361D01*
X00313121Y00337991D01*
X00313145Y00337953D01*
X00313335Y00337754D01*
X00313430Y00337640D01*
X00313502Y00337538D01*
X00313556Y00337448D01*
X00313596Y00337367D01*
X00313626Y00337292D01*
X00313648Y00337216D01*
X00313657Y00337172D01*
Y00308396D01*
X00293226Y00287965D01*
X00292272Y00286537D01*
X00291937Y00284852D01*
Y00254488D01*
X00291928Y00254444D01*
X00291905Y00254368D01*
X00291875Y00254293D01*
X00291835Y00254212D01*
X00291781Y00254122D01*
X00291709Y00254020D01*
X00291615Y00253906D01*
X00291424Y00253707D01*
X00291400Y00253669D01*
X00290349Y00252299D01*
X00289658Y00250630D01*
X00289422Y00248840D01*
X00289658Y00247050D01*
X00290349Y00245381D01*
X00291448Y00243949D01*
X00292881Y00242850D01*
X00294549Y00242159D01*
X00296339Y00241923D01*
X00298130Y00242159D01*
X00299687Y00242804D01*
X00300617Y00242471D01*
X00300957Y00242303D01*
Y00171224D01*
X00299800Y00170067D01*
X00299762Y00170042D01*
X00299693Y00170005D01*
X00299619Y00169972D01*
X00299533Y00169943D01*
X00299431Y00169918D01*
X00299308Y00169897D01*
X00299161Y00169883D01*
X00298885Y00169877D01*
X00298841Y00169867D01*
X00297129Y00169641D01*
X00295461Y00168950D01*
X00294028Y00167851D01*
X00292929Y00166419D01*
X00292238Y00164750D01*
X00292002Y00162960D01*
X00292238Y00161170D01*
X00292929Y00159501D01*
X00294028Y00158069D01*
X00295461Y00156969D01*
X00297129Y00156278D01*
X00298919Y00156043D01*
X00300710Y00156278D01*
X00302378Y00156969D01*
X00303811Y00158069D01*
X00304910Y00159501D01*
X00305601Y00161170D01*
X00305826Y00162882D01*
X00305836Y00162926D01*
X00305842Y00163202D01*
X00305856Y00163349D01*
X00305877Y00163472D01*
X00305903Y00163574D01*
X00305931Y00163659D01*
X00305964Y00163734D01*
X00306001Y00163803D01*
X00306026Y00163841D01*
X00308473Y00166287D01*
X00309427Y00167715D01*
X00309762Y00169400D01*
Y00250838D01*
X00311032Y00251686D01*
X00311189Y00251621D01*
X00312980Y00251385D01*
X00314770Y00251621D01*
X00316438Y00252312D01*
X00317871Y00253412D01*
X00318970Y00254844D01*
X00319661Y00256512D01*
X00319897Y00258303D01*
X00319661Y00260093D01*
X00318970Y00261761D01*
X00317871Y00263194D01*
X00316438Y00264293D01*
X00314770Y00264984D01*
X00312980Y00265220D01*
X00311189Y00264984D01*
X00309521Y00264293D01*
X00308088Y00263194D01*
X00307514Y00262445D01*
X00307454Y00262402D01*
X00304995Y00259782D01*
X00302246Y00257033D01*
X00302012Y00256682D01*
X00300742Y00257067D01*
Y00283029D01*
X00321173Y00303460D01*
X00322127Y00304888D01*
X00322462Y00306573D01*
Y00337172D01*
X00322472Y00337216D01*
X00322494Y00337292D01*
X00322524Y00337367D01*
X00322564Y00337448D01*
X00322618Y00337538D01*
X00322690Y00337640D01*
X00322784Y00337754D01*
X00322975Y00337953D01*
X00322999Y00337991D01*
X00324050Y00339361D01*
X00324741Y00341030D01*
X00324977Y00342820D01*
X00324741Y00344610D01*
X00324050Y00346279D01*
X00322951Y00347711D01*
X00321519Y00348811D01*
X00319850Y00349501D01*
X00318060Y00349737D01*
D02*
G37*
G36*
X00361930Y00273188D02*
X00354930D01*
X00351915Y00272791D01*
X00349106Y00271627D01*
X00346693Y00269776D01*
X00344842Y00267364D01*
X00343679Y00264555D01*
X00343282Y00261540D01*
X00343679Y00258525D01*
X00344842Y00255716D01*
X00346693Y00253304D01*
X00349106Y00251453D01*
X00351915Y00250289D01*
X00354930Y00249892D01*
X00361930D01*
X00364944Y00250289D01*
X00367753Y00251453D01*
X00370166Y00253304D01*
X00372017Y00255716D01*
X00373180Y00258525D01*
X00373577Y00261540D01*
X00373180Y00264555D01*
X00372017Y00267364D01*
X00370166Y00269776D01*
X00367753Y00271627D01*
X00364944Y00272791D01*
X00361930Y00273188D01*
D02*
G37*
G36*
Y00247275D02*
X00359954D01*
Y00237664D01*
X00372864D01*
X00372686Y00239022D01*
X00371573Y00241708D01*
X00369804Y00244014D01*
X00367497Y00245783D01*
X00364812Y00246896D01*
X00361930Y00247275D01*
D02*
G37*
G36*
X00356906D02*
X00354930D01*
X00352048Y00246896D01*
X00349362Y00245783D01*
X00347056Y00244014D01*
X00345286Y00241708D01*
X00344174Y00239022D01*
X00343995Y00237664D01*
X00356906D01*
Y00247275D01*
D02*
G37*
G36*
X00372864Y00234616D02*
X00359954D01*
Y00225005D01*
X00361930D01*
X00364812Y00225384D01*
X00367497Y00226497D01*
X00369804Y00228266D01*
X00371573Y00230572D01*
X00372686Y00233258D01*
X00372864Y00234616D01*
D02*
G37*
G36*
X00338380Y00235437D02*
X00336589Y00235201D01*
X00334921Y00234510D01*
X00333489Y00233411D01*
X00332389Y00231979D01*
X00331698Y00230310D01*
X00331463Y00228520D01*
X00331698Y00226730D01*
X00332389Y00225061D01*
X00333441Y00223691D01*
X00333465Y00223653D01*
X00333655Y00223454D01*
X00333750Y00223340D01*
X00333822Y00223239D01*
X00333876Y00223148D01*
X00333916Y00223067D01*
X00333945Y00222992D01*
X00333968Y00222916D01*
X00333977Y00222872D01*
Y00175180D01*
X00334312Y00173495D01*
X00335266Y00172067D01*
X00347966Y00159367D01*
X00349395Y00158413D01*
X00351080Y00158077D01*
X00352781D01*
X00352826Y00158068D01*
X00352901Y00158046D01*
X00352977Y00158016D01*
X00353058Y00157976D01*
X00353148Y00157922D01*
X00353250Y00157850D01*
X00353363Y00157755D01*
X00353563Y00157565D01*
X00353601Y00157541D01*
X00354971Y00156489D01*
X00356639Y00155799D01*
X00358430Y00155563D01*
X00360220Y00155799D01*
X00361888Y00156489D01*
X00363321Y00157589D01*
X00364420Y00159021D01*
X00365111Y00160690D01*
X00365347Y00162480D01*
X00365111Y00164270D01*
X00364420Y00165939D01*
X00363321Y00167371D01*
X00361888Y00168470D01*
X00360220Y00169161D01*
X00358430Y00169397D01*
X00356639Y00169161D01*
X00354971Y00168470D01*
X00353601Y00167419D01*
X00353563Y00167395D01*
X00353363Y00167204D01*
X00353250Y00167110D01*
X00353148Y00167038D01*
X00353058Y00166984D01*
X00352977Y00166944D01*
X00352901Y00166914D01*
X00352878Y00166907D01*
X00342782Y00177004D01*
Y00222872D01*
X00342791Y00222916D01*
X00342814Y00222992D01*
X00342844Y00223067D01*
X00342884Y00223148D01*
X00342938Y00223238D01*
X00343010Y00223340D01*
X00343104Y00223454D01*
X00343295Y00223653D01*
X00343319Y00223691D01*
X00344370Y00225061D01*
X00345061Y00226730D01*
X00345291Y00228479D01*
X00345401Y00228558D01*
X00346519Y00228966D01*
X00347056Y00228266D01*
X00349362Y00226497D01*
X00352048Y00225384D01*
X00354930Y00225005D01*
X00356906D01*
Y00234616D01*
X00343995D01*
X00344018Y00234438D01*
X00342828Y00233751D01*
X00341838Y00234510D01*
X00340170Y00235201D01*
X00338380Y00235437D01*
D02*
G37*
G36*
X00890000Y00225642D02*
X00885206Y00225265D01*
X00880531Y00224143D01*
X00876088Y00222303D01*
X00871989Y00219790D01*
X00868332Y00216667D01*
X00865210Y00213011D01*
X00862697Y00208911D01*
X00860857Y00204469D01*
X00859735Y00199793D01*
X00859357Y00195000D01*
X00859735Y00190207D01*
X00860857Y00185531D01*
X00862697Y00181089D01*
X00865210Y00176989D01*
X00868332Y00173333D01*
X00871989Y00170210D01*
X00876088Y00167697D01*
X00880531Y00165857D01*
X00885206Y00164735D01*
X00890000Y00164357D01*
X00894793Y00164735D01*
X00899469Y00165857D01*
X00903911Y00167697D01*
X00908011Y00170210D01*
X00911667Y00173333D01*
X00914790Y00176989D01*
X00917302Y00181089D01*
X00919143Y00185531D01*
X00920265Y00190207D01*
X00920642Y00195000D01*
X00920265Y00199793D01*
X00919143Y00204469D01*
X00917302Y00208911D01*
X00914790Y00213011D01*
X00911667Y00216667D01*
X00908011Y00219790D01*
X00903911Y00222303D01*
X00899469Y00224143D01*
X00894793Y00225265D01*
X00890000Y00225642D01*
D02*
G37*
G36*
X00050000Y00215642D02*
X00045206Y00215265D01*
X00040531Y00214143D01*
X00036089Y00212303D01*
X00031989Y00209790D01*
X00028333Y00206667D01*
X00025210Y00203011D01*
X00022697Y00198911D01*
X00020857Y00194469D01*
X00019735Y00189793D01*
X00019358Y00185000D01*
X00019735Y00180206D01*
X00020857Y00175531D01*
X00022697Y00171089D01*
X00025210Y00166989D01*
X00028333Y00163333D01*
X00031989Y00160210D01*
X00036089Y00157697D01*
X00040531Y00155857D01*
X00045206Y00154735D01*
X00050000Y00154358D01*
X00054794Y00154735D01*
X00059469Y00155857D01*
X00063911Y00157697D01*
X00068011Y00160210D01*
X00071667Y00163333D01*
X00074790Y00166989D01*
X00077303Y00171089D01*
X00079143Y00175531D01*
X00080265Y00180206D01*
X00080642Y00185000D01*
X00080265Y00189793D01*
X00079143Y00194469D01*
X00077303Y00198911D01*
X00074790Y00203011D01*
X00071667Y00206667D01*
X00068011Y00209790D01*
X00063911Y00212303D01*
X00059469Y00214143D01*
X00054794Y00215265D01*
X00050000Y00215642D01*
D02*
G37*
G36*
X00381560Y00384038D02*
X00379438Y00383759D01*
X00377461Y00382940D01*
X00375763Y00381637D01*
X00374460Y00379939D01*
X00373641Y00377962D01*
X00373362Y00375840D01*
X00373641Y00373718D01*
X00374460Y00371741D01*
X00375674Y00370159D01*
X00375680Y00370149D01*
X00375693Y00370134D01*
X00375712Y00370110D01*
X00375723Y00370083D01*
X00375762Y00369956D01*
X00375806Y00369763D01*
X00375841Y00369544D01*
X00375862Y00369290D01*
Y00337740D01*
X00376296Y00335560D01*
X00377531Y00333711D01*
X00434362Y00276880D01*
Y00170937D01*
X00434332Y00170600D01*
X00434250Y00170100D01*
X00434235Y00170048D01*
X00428511D01*
Y00139952D01*
X00451607D01*
Y00170048D01*
X00445883D01*
X00445869Y00170100D01*
X00445786Y00170600D01*
X00445757Y00170937D01*
Y00279240D01*
X00445323Y00281421D01*
X00444088Y00283269D01*
X00387257Y00340100D01*
Y00369368D01*
X00387272Y00369506D01*
X00387314Y00369763D01*
X00387358Y00369956D01*
X00387397Y00370083D01*
X00387408Y00370110D01*
X00387426Y00370134D01*
X00387440Y00370149D01*
X00387446Y00370159D01*
X00388660Y00371741D01*
X00389479Y00373718D01*
X00389758Y00375840D01*
X00389479Y00377962D01*
X00388660Y00379939D01*
X00387357Y00381637D01*
X00385659Y00382940D01*
X00383682Y00383759D01*
X00381560Y00384038D01*
D02*
G37*
G36*
X00645859Y00170148D02*
X00642845Y00169751D01*
X00640035Y00168587D01*
X00637623Y00166736D01*
X00635772Y00164324D01*
X00634609Y00161515D01*
X00634212Y00158500D01*
Y00151500D01*
X00634609Y00148485D01*
X00635772Y00145676D01*
X00637623Y00143264D01*
X00640035Y00141413D01*
X00642845Y00140249D01*
X00645859Y00139852D01*
X00648874Y00140249D01*
X00651683Y00141413D01*
X00654096Y00143264D01*
X00655947Y00145676D01*
X00657110Y00148485D01*
X00657507Y00151500D01*
Y00158500D01*
X00657110Y00161515D01*
X00655947Y00164324D01*
X00654096Y00166736D01*
X00651683Y00168587D01*
X00648874Y00169751D01*
X00645859Y00170148D01*
D02*
G37*
G36*
X00620459D02*
X00617445Y00169751D01*
X00614636Y00168587D01*
X00612223Y00166736D01*
X00610372Y00164324D01*
X00609209Y00161515D01*
X00608812Y00158500D01*
Y00151500D01*
X00609209Y00148485D01*
X00610372Y00145676D01*
X00612223Y00143264D01*
X00614636Y00141413D01*
X00617445Y00140249D01*
X00620459Y00139852D01*
X00623474Y00140249D01*
X00626283Y00141413D01*
X00628695Y00143264D01*
X00630546Y00145676D01*
X00631710Y00148485D01*
X00632107Y00151500D01*
Y00158500D01*
X00631710Y00161515D01*
X00630546Y00164324D01*
X00628695Y00166736D01*
X00626283Y00168587D01*
X00623474Y00169751D01*
X00620459Y00170148D01*
D02*
G37*
G36*
X00490859D02*
X00487845Y00169751D01*
X00485036Y00168587D01*
X00482623Y00166736D01*
X00480772Y00164324D01*
X00479609Y00161515D01*
X00479212Y00158500D01*
Y00151500D01*
X00479609Y00148485D01*
X00480772Y00145676D01*
X00482623Y00143264D01*
X00485036Y00141413D01*
X00487845Y00140249D01*
X00490859Y00139852D01*
X00493874Y00140249D01*
X00496683Y00141413D01*
X00499095Y00143264D01*
X00500947Y00145676D01*
X00502110Y00148485D01*
X00502507Y00151500D01*
Y00158500D01*
X00502110Y00161515D01*
X00500947Y00164324D01*
X00499095Y00166736D01*
X00496683Y00168587D01*
X00493874Y00169751D01*
X00490859Y00170148D01*
D02*
G37*
G36*
X00465459D02*
X00462445Y00169751D01*
X00459636Y00168587D01*
X00457223Y00166736D01*
X00455372Y00164324D01*
X00454209Y00161515D01*
X00453812Y00158500D01*
Y00151500D01*
X00454209Y00148485D01*
X00455372Y00145676D01*
X00457223Y00143264D01*
X00459636Y00141413D01*
X00462445Y00140249D01*
X00465459Y00139852D01*
X00468474Y00140249D01*
X00471283Y00141413D01*
X00473695Y00143264D01*
X00475546Y00145676D01*
X00476710Y00148485D01*
X00477107Y00151500D01*
Y00158500D01*
X00476710Y00161515D01*
X00475546Y00164324D01*
X00473695Y00166736D01*
X00471283Y00168587D01*
X00468474Y00169751D01*
X00465459Y00170148D01*
D02*
G37*
G36*
X00880899Y00150796D02*
X00865899D01*
X00863798Y00150519D01*
X00861841Y00149708D01*
X00860160Y00148419D01*
X00858869Y00146737D01*
X00858058Y00144780D01*
X00857782Y00142679D01*
Y00132679D01*
X00858058Y00130578D01*
X00858869Y00128620D01*
X00860160Y00126939D01*
X00861841Y00125649D01*
X00863798Y00124838D01*
X00865899Y00124561D01*
X00880899D01*
X00883000Y00124838D01*
X00884958Y00125649D01*
X00886639Y00126939D01*
X00887929Y00128620D01*
X00888740Y00130578D01*
X00889017Y00132679D01*
Y00142679D01*
X00888740Y00144780D01*
X00887929Y00146737D01*
X00886639Y00148419D01*
X00884958Y00149708D01*
X00883000Y00150519D01*
X00880899Y00150796D01*
D02*
G37*
G36*
X00906399Y00128284D02*
X00902670D01*
Y00113948D01*
X00914004D01*
Y00120679D01*
X00913745Y00122647D01*
X00912986Y00124481D01*
X00911777Y00126056D01*
X00910202Y00127265D01*
X00908368Y00128025D01*
X00906399Y00128284D01*
D02*
G37*
G36*
X00900130D02*
X00896399D01*
X00894431Y00128025D01*
X00892597Y00127265D01*
X00891022Y00126056D01*
X00889813Y00124481D01*
X00889053Y00122647D01*
X00888794Y00120679D01*
Y00113948D01*
X00900130D01*
Y00128284D01*
D02*
G37*
G36*
X00914004Y00111409D02*
X00902670D01*
Y00097073D01*
X00906399D01*
X00908368Y00097333D01*
X00910202Y00098092D01*
X00911777Y00099301D01*
X00912986Y00100876D01*
X00913745Y00102710D01*
X00914004Y00104679D01*
Y00111409D01*
D02*
G37*
G36*
X00900130D02*
X00888794D01*
Y00104679D01*
X00889053Y00102710D01*
X00889813Y00100876D01*
X00891022Y00099301D01*
X00892597Y00098092D01*
X00894431Y00097333D01*
X00896399Y00097073D01*
X00900130D01*
Y00111409D01*
D02*
G37*
G36*
X00880899Y00101284D02*
X00874669D01*
Y00089949D01*
X00888504D01*
Y00093679D01*
X00888245Y00095647D01*
X00887486Y00097481D01*
X00886277Y00099056D01*
X00884702Y00100265D01*
X00882868Y00101025D01*
X00880899Y00101284D01*
D02*
G37*
G36*
X00872130D02*
X00865899D01*
X00863931Y00101025D01*
X00862097Y00100265D01*
X00860522Y00099056D01*
X00859313Y00097481D01*
X00858553Y00095647D01*
X00858294Y00093679D01*
Y00089949D01*
X00872130D01*
Y00101284D01*
D02*
G37*
G36*
X00888504Y00087409D02*
X00874669D01*
Y00076073D01*
X00880899D01*
X00882868Y00076333D01*
X00884702Y00077092D01*
X00886277Y00078301D01*
X00887486Y00079876D01*
X00888245Y00081710D01*
X00888504Y00083679D01*
Y00087409D01*
D02*
G37*
G36*
X00872130D02*
X00858294D01*
Y00083679D01*
X00858553Y00081710D01*
X00859313Y00079876D01*
X00860522Y00078301D01*
X00862097Y00077092D01*
X00863931Y00076333D01*
X00865899Y00076073D01*
X00872130D01*
Y00087409D01*
D02*
G37*
G36*
X00513763Y00090588D02*
Y00072164D01*
X00524888D01*
Y00078140D01*
X00524457Y00081414D01*
X00523193Y00084464D01*
X00521183Y00087084D01*
X00518563Y00089094D01*
X00515513Y00090357D01*
X00513763Y00090588D01*
D02*
G37*
G36*
X00510715D02*
X00508966Y00090357D01*
X00505915Y00089094D01*
X00503296Y00087084D01*
X00501286Y00084464D01*
X00500022Y00081414D01*
X00499591Y00078140D01*
Y00072164D01*
X00510715D01*
Y00090588D01*
D02*
G37*
G36*
X00399463D02*
Y00072164D01*
X00410588D01*
Y00078140D01*
X00410157Y00081414D01*
X00408893Y00084464D01*
X00406883Y00087084D01*
X00404263Y00089094D01*
X00401213Y00090357D01*
X00399463Y00090588D01*
D02*
G37*
G36*
X00396415D02*
X00394666Y00090357D01*
X00391615Y00089094D01*
X00388996Y00087084D01*
X00386986Y00084464D01*
X00385722Y00081414D01*
X00385291Y00078140D01*
Y00072164D01*
X00396415D01*
Y00090588D01*
D02*
G37*
G36*
X00269923D02*
Y00072164D01*
X00281048D01*
Y00078140D01*
X00280617Y00081414D01*
X00279353Y00084464D01*
X00277343Y00087084D01*
X00274723Y00089094D01*
X00271673Y00090357D01*
X00269923Y00090588D01*
D02*
G37*
G36*
X00266875D02*
X00265126Y00090357D01*
X00262075Y00089094D01*
X00259456Y00087084D01*
X00257446Y00084464D01*
X00256182Y00081414D01*
X00255751Y00078140D01*
Y00072164D01*
X00266875D01*
Y00090588D01*
D02*
G37*
G36*
X00524888Y00069116D02*
X00513763D01*
Y00050692D01*
X00515513Y00050923D01*
X00518563Y00052186D01*
X00521183Y00054196D01*
X00523193Y00056816D01*
X00524457Y00059866D01*
X00524888Y00063140D01*
Y00069116D01*
D02*
G37*
G36*
X00510715D02*
X00499591D01*
Y00063140D01*
X00500022Y00059866D01*
X00501286Y00056816D01*
X00503296Y00054196D01*
X00505915Y00052186D01*
X00508966Y00050923D01*
X00510715Y00050692D01*
Y00069116D01*
D02*
G37*
G36*
X00410588D02*
X00399463D01*
Y00050692D01*
X00401213Y00050923D01*
X00404263Y00052186D01*
X00406883Y00054196D01*
X00408893Y00056816D01*
X00410157Y00059866D01*
X00410588Y00063140D01*
Y00069116D01*
D02*
G37*
G36*
X00396415D02*
X00385291D01*
Y00063140D01*
X00385722Y00059866D01*
X00386986Y00056816D01*
X00388996Y00054196D01*
X00391615Y00052186D01*
X00394666Y00050923D01*
X00396415Y00050692D01*
Y00069116D01*
D02*
G37*
G36*
X00281048D02*
X00269923D01*
Y00050692D01*
X00271673Y00050923D01*
X00274723Y00052186D01*
X00277343Y00054196D01*
X00279353Y00056816D01*
X00280617Y00059866D01*
X00281048Y00063140D01*
Y00069116D01*
D02*
G37*
G36*
X00266875D02*
X00255751D01*
Y00063140D01*
X00256182Y00059866D01*
X00257446Y00056816D01*
X00259456Y00054196D01*
X00262075Y00052186D01*
X00265126Y00050923D01*
X00266875Y00050692D01*
Y00069116D01*
D02*
G37*
G36*
X00718327Y00091188D02*
X00692231D01*
Y00050092D01*
X00718327D01*
Y00091188D01*
D02*
G37*
G36*
X00604027D02*
X00577931D01*
Y00050092D01*
X00604027D01*
Y00091188D01*
D02*
G37*
G36*
X00474487D02*
X00448391D01*
Y00050092D01*
X00474487D01*
Y00091188D01*
D02*
G37*
G36*
X00360187D02*
X00334091D01*
Y00050092D01*
X00360187D01*
Y00091188D01*
D02*
G37*
G36*
X00078247D02*
X00052151D01*
Y00050092D01*
X00078247D01*
Y00091188D01*
D02*
G37*
G36*
X00756079Y00091301D02*
X00752673Y00090852D01*
X00749499Y00089537D01*
X00746773Y00087446D01*
X00744682Y00084720D01*
X00743367Y00081546D01*
X00742919Y00078140D01*
Y00063140D01*
X00743367Y00059734D01*
X00744682Y00056560D01*
X00746773Y00053834D01*
X00749499Y00051743D01*
X00752673Y00050428D01*
X00756079Y00049979D01*
X00759486Y00050428D01*
X00762660Y00051743D01*
X00765385Y00053834D01*
X00767477Y00056560D01*
X00768792Y00059734D01*
X00769240Y00063140D01*
Y00078140D01*
X00768792Y00081546D01*
X00767477Y00084720D01*
X00765385Y00087446D01*
X00762660Y00089537D01*
X00759486Y00090852D01*
X00756079Y00091301D01*
D02*
G37*
G36*
X00641779D02*
X00638373Y00090852D01*
X00635199Y00089537D01*
X00632473Y00087446D01*
X00630382Y00084720D01*
X00629067Y00081546D01*
X00628619Y00078140D01*
Y00063140D01*
X00629067Y00059734D01*
X00630382Y00056560D01*
X00632473Y00053834D01*
X00635199Y00051743D01*
X00638373Y00050428D01*
X00641779Y00049979D01*
X00645186Y00050428D01*
X00648360Y00051743D01*
X00651085Y00053834D01*
X00653177Y00056560D01*
X00654492Y00059734D01*
X00654940Y00063140D01*
Y00078140D01*
X00654492Y00081546D01*
X00653177Y00084720D01*
X00651085Y00087446D01*
X00648360Y00089537D01*
X00645186Y00090852D01*
X00641779Y00091301D01*
D02*
G37*
%LPD*%
G36*
X00316681Y00900700D02*
X00316467Y00900614D01*
X00316277Y00900470D01*
X00316113Y00900269D01*
X00315975Y00900010D01*
X00315861Y00899694D01*
X00315773Y00899321D01*
X00315710Y00898889D01*
X00315672Y00898401D01*
X00315659Y00897855D01*
X00313119D01*
X00313107Y00898401D01*
X00313069Y00898889D01*
X00313006Y00899321D01*
X00312918Y00899694D01*
X00312804Y00900010D01*
X00312665Y00900269D01*
X00312501Y00900470D01*
X00312312Y00900614D01*
X00312098Y00900700D01*
X00311858Y00900729D01*
X00316921D01*
X00316681Y00900700D01*
D02*
G37*
G36*
X00291281D02*
X00291066Y00900614D01*
X00290877Y00900470D01*
X00290713Y00900269D01*
X00290575Y00900010D01*
X00290461Y00899694D01*
X00290373Y00899321D01*
X00290310Y00898889D01*
X00290272Y00898401D01*
X00290259Y00897855D01*
X00287719D01*
X00287707Y00898401D01*
X00287669Y00898889D01*
X00287606Y00899321D01*
X00287518Y00899694D01*
X00287404Y00900010D01*
X00287265Y00900269D01*
X00287101Y00900470D01*
X00286912Y00900614D01*
X00286698Y00900700D01*
X00286458Y00900729D01*
X00291521D01*
X00291281Y00900700D01*
D02*
G37*
G36*
X00161999Y00850572D02*
X00162086Y00850357D01*
X00162229Y00850168D01*
X00162431Y00850004D01*
X00162689Y00849865D01*
X00163006Y00849752D01*
X00163379Y00849663D01*
X00163811Y00849600D01*
X00164299Y00849563D01*
X00164845Y00849550D01*
Y00847010D01*
X00164299Y00846997D01*
X00163811Y00846960D01*
X00163379Y00846897D01*
X00163006Y00846808D01*
X00162689Y00846695D01*
X00162431Y00846556D01*
X00162229Y00846392D01*
X00162086Y00846203D01*
X00161999Y00845988D01*
X00161971Y00845749D01*
Y00850811D01*
X00161999Y00850572D01*
D02*
G37*
G36*
Y00825172D02*
X00162086Y00824957D01*
X00162229Y00824768D01*
X00162431Y00824604D01*
X00162689Y00824465D01*
X00163006Y00824352D01*
X00163379Y00824264D01*
X00163811Y00824200D01*
X00164299Y00824163D01*
X00164845Y00824150D01*
Y00821610D01*
X00164299Y00821597D01*
X00163811Y00821560D01*
X00163379Y00821497D01*
X00163006Y00821408D01*
X00162689Y00821295D01*
X00162431Y00821156D01*
X00162229Y00820992D01*
X00162086Y00820803D01*
X00161999Y00820589D01*
X00161971Y00820349D01*
Y00825411D01*
X00161999Y00825172D01*
D02*
G37*
G36*
X00545281Y00900700D02*
X00545066Y00900614D01*
X00544877Y00900470D01*
X00544713Y00900269D01*
X00544575Y00900010D01*
X00544461Y00899694D01*
X00544373Y00899321D01*
X00544310Y00898889D01*
X00544272Y00898401D01*
X00544259Y00897855D01*
X00541719D01*
X00541707Y00898401D01*
X00541669Y00898889D01*
X00541606Y00899321D01*
X00541518Y00899694D01*
X00541404Y00900010D01*
X00541265Y00900269D01*
X00541101Y00900470D01*
X00540912Y00900614D01*
X00540698Y00900700D01*
X00540458Y00900729D01*
X00545521D01*
X00545281Y00900700D01*
D02*
G37*
G36*
X00519881D02*
X00519666Y00900614D01*
X00519477Y00900470D01*
X00519313Y00900269D01*
X00519175Y00900010D01*
X00519061Y00899694D01*
X00518973Y00899321D01*
X00518910Y00898889D01*
X00518872Y00898401D01*
X00518859Y00897855D01*
X00516319D01*
X00516307Y00898401D01*
X00516269Y00898889D01*
X00516206Y00899321D01*
X00516118Y00899694D01*
X00516004Y00900010D01*
X00515865Y00900269D01*
X00515701Y00900470D01*
X00515512Y00900614D01*
X00515298Y00900700D01*
X00515058Y00900729D01*
X00520121D01*
X00519881Y00900700D01*
D02*
G37*
G36*
X00468072Y00723959D02*
X00468110Y00723471D01*
X00468173Y00723039D01*
X00468261Y00722666D01*
X00468375Y00722350D01*
X00468513Y00722091D01*
X00468677Y00721890D01*
X00468867Y00721746D01*
X00469081Y00721660D01*
X00469320Y00721631D01*
X00464258D01*
X00464498Y00721660D01*
X00464712Y00721746D01*
X00464901Y00721890D01*
X00465065Y00722091D01*
X00465204Y00722350D01*
X00465318Y00722666D01*
X00465406Y00723039D01*
X00465469Y00723471D01*
X00465507Y00723959D01*
X00465519Y00724505D01*
X00468059D01*
X00468072Y00723959D01*
D02*
G37*
G36*
X00173242Y00633650D02*
X00172857Y00633641D01*
X00172487Y00633607D01*
X00172130Y00633546D01*
X00171788Y00633460D01*
X00171459Y00633349D01*
X00171143Y00633212D01*
X00170842Y00633049D01*
X00170555Y00632860D01*
X00170281Y00632645D01*
X00170021Y00632406D01*
X00168225Y00634202D01*
X00168465Y00634461D01*
X00168680Y00634735D01*
X00168868Y00635022D01*
X00169031Y00635324D01*
X00169169Y00635639D01*
X00169280Y00635968D01*
X00169366Y00636311D01*
X00169426Y00636667D01*
X00169461Y00637038D01*
X00169470Y00637422D01*
X00173242Y00633650D01*
D02*
G37*
G36*
X00165634Y00628018D02*
X00165394Y00627759D01*
X00165180Y00627485D01*
X00164991Y00627198D01*
X00164828Y00626896D01*
X00164691Y00626581D01*
X00164579Y00626252D01*
X00164494Y00625910D01*
X00164433Y00625553D01*
X00164399Y00625182D01*
X00164390Y00624798D01*
X00160618Y00628570D01*
X00161002Y00628579D01*
X00161373Y00628613D01*
X00161729Y00628674D01*
X00162072Y00628760D01*
X00162401Y00628871D01*
X00162716Y00629008D01*
X00163018Y00629171D01*
X00163305Y00629360D01*
X00163578Y00629575D01*
X00163838Y00629814D01*
X00165634Y00628018D01*
D02*
G37*
G36*
X00218882Y00090038D02*
X00218920Y00089559D01*
X00218983Y00089137D01*
X00219071Y00088772D01*
X00219185Y00088462D01*
X00219323Y00088209D01*
X00219487Y00088012D01*
X00219676Y00087871D01*
X00219891Y00087787D01*
X00220131Y00087758D01*
X00215068D01*
X00215308Y00087787D01*
X00215522Y00087871D01*
X00215711Y00088012D01*
X00215875Y00088209D01*
X00216014Y00088462D01*
X00216128Y00088772D01*
X00216216Y00089137D01*
X00216279Y00089559D01*
X00216317Y00090038D01*
X00216329Y00090573D01*
X00218869D01*
X00218882Y00090038D01*
D02*
G37*
G36*
X00168082D02*
X00168120Y00089559D01*
X00168183Y00089137D01*
X00168271Y00088772D01*
X00168385Y00088462D01*
X00168523Y00088209D01*
X00168687Y00088012D01*
X00168876Y00087871D01*
X00169091Y00087787D01*
X00169331Y00087758D01*
X00164268D01*
X00164508Y00087787D01*
X00164722Y00087871D01*
X00164911Y00088012D01*
X00165075Y00088209D01*
X00165214Y00088462D01*
X00165328Y00088772D01*
X00165416Y00089137D01*
X00165479Y00089559D01*
X00165517Y00090038D01*
X00165529Y00090573D01*
X00168069D01*
X00168082Y00090038D01*
D02*
G37*
G36*
X00118291Y00053493D02*
X00118076Y00053409D01*
X00117887Y00053268D01*
X00117723Y00053071D01*
X00117585Y00052818D01*
X00117471Y00052508D01*
X00117383Y00052143D01*
X00117320Y00051720D01*
X00117282Y00051242D01*
X00117269Y00050707D01*
X00114729D01*
X00114717Y00051242D01*
X00114679Y00051720D01*
X00114616Y00052143D01*
X00114528Y00052508D01*
X00114414Y00052818D01*
X00114275Y00053071D01*
X00114111Y00053268D01*
X00113922Y00053409D01*
X00113708Y00053493D01*
X00113468Y00053521D01*
X00118531D01*
X00118291Y00053493D01*
D02*
G37*
G36*
X00342081Y00697500D02*
X00341866Y00697414D01*
X00341677Y00697270D01*
X00341513Y00697069D01*
X00341375Y00696810D01*
X00341261Y00696494D01*
X00341173Y00696121D01*
X00341110Y00695689D01*
X00341072Y00695201D01*
X00341059Y00694655D01*
X00338519D01*
X00338507Y00695201D01*
X00338469Y00695689D01*
X00338406Y00696121D01*
X00338318Y00696494D01*
X00338204Y00696810D01*
X00338065Y00697069D01*
X00337901Y00697270D01*
X00337712Y00697414D01*
X00337498Y00697500D01*
X00337258Y00697529D01*
X00342321D01*
X00342081Y00697500D01*
D02*
G37*
G36*
X00291281Y00653820D02*
X00291066Y00653734D01*
X00290877Y00653590D01*
X00290713Y00653389D01*
X00290575Y00653130D01*
X00290461Y00652814D01*
X00290373Y00652441D01*
X00290310Y00652009D01*
X00290272Y00651521D01*
X00290259Y00650975D01*
X00287719D01*
X00287707Y00651521D01*
X00287669Y00652009D01*
X00287606Y00652441D01*
X00287518Y00652814D01*
X00287404Y00653130D01*
X00287265Y00653389D01*
X00287101Y00653590D01*
X00286912Y00653734D01*
X00286698Y00653820D01*
X00286458Y00653849D01*
X00291521D01*
X00291281Y00653820D01*
D02*
G37*
G36*
X00265881D02*
X00265667Y00653734D01*
X00265477Y00653590D01*
X00265313Y00653389D01*
X00265175Y00653130D01*
X00265061Y00652814D01*
X00264973Y00652441D01*
X00264910Y00652009D01*
X00264872Y00651521D01*
X00264859Y00650975D01*
X00262319D01*
X00262307Y00651521D01*
X00262269Y00652009D01*
X00262206Y00652441D01*
X00262118Y00652814D01*
X00262004Y00653130D01*
X00261865Y00653389D01*
X00261701Y00653590D01*
X00261512Y00653734D01*
X00261298Y00653820D01*
X00261058Y00653849D01*
X00266120D01*
X00265881Y00653820D01*
D02*
G37*
G36*
X00341073Y00642985D02*
X00341115Y00642640D01*
X00341185Y00642303D01*
X00341283Y00641975D01*
X00341409Y00641655D01*
X00341562Y00641343D01*
X00341744Y00641040D01*
X00341953Y00640745D01*
X00342191Y00640459D01*
X00342456Y00640181D01*
X00337122D01*
X00337388Y00640459D01*
X00337625Y00640745D01*
X00337835Y00641040D01*
X00338016Y00641343D01*
X00338170Y00641655D01*
X00338296Y00641975D01*
X00338394Y00642303D01*
X00338464Y00642640D01*
X00338505Y00642985D01*
X00338519Y00643338D01*
X00341059D01*
X00341073Y00642985D01*
D02*
G37*
G36*
X00414121Y00423834D02*
X00414395Y00423620D01*
X00414682Y00423432D01*
X00414983Y00423269D01*
X00415298Y00423131D01*
X00415627Y00423020D01*
X00415970Y00422934D01*
X00416327Y00422873D01*
X00416697Y00422839D01*
X00417081Y00422830D01*
X00413310Y00419058D01*
X00413301Y00419442D01*
X00413266Y00419813D01*
X00413206Y00420169D01*
X00413120Y00420512D01*
X00413008Y00420841D01*
X00412871Y00421156D01*
X00412708Y00421458D01*
X00412519Y00421745D01*
X00412305Y00422019D01*
X00412065Y00422278D01*
X00413861Y00424075D01*
X00414121Y00423834D01*
D02*
G37*
G36*
X00439521Y00421295D02*
X00439795Y00421080D01*
X00440082Y00420891D01*
X00440383Y00420728D01*
X00440699Y00420591D01*
X00441028Y00420480D01*
X00441370Y00420394D01*
X00441727Y00420333D01*
X00442098Y00420299D01*
X00442482Y00420290D01*
X00438710Y00416518D01*
X00438701Y00416902D01*
X00438666Y00417273D01*
X00438606Y00417630D01*
X00438520Y00417972D01*
X00438409Y00418301D01*
X00438271Y00418616D01*
X00438108Y00418918D01*
X00437920Y00419205D01*
X00437705Y00419479D01*
X00437465Y00419738D01*
X00439262Y00421535D01*
X00439521Y00421295D01*
D02*
G37*
G36*
X00420938Y00418598D02*
X00420973Y00418227D01*
X00421033Y00417870D01*
X00421119Y00417528D01*
X00421231Y00417199D01*
X00421368Y00416884D01*
X00421531Y00416582D01*
X00421720Y00416295D01*
X00421934Y00416021D01*
X00422174Y00415762D01*
X00420378Y00413965D01*
X00420118Y00414206D01*
X00419845Y00414420D01*
X00419557Y00414608D01*
X00419256Y00414771D01*
X00418941Y00414909D01*
X00418612Y00415020D01*
X00418269Y00415106D01*
X00417912Y00415167D01*
X00417542Y00415201D01*
X00417158Y00415210D01*
X00420929Y00418982D01*
X00420938Y00418598D01*
D02*
G37*
G36*
X00439521Y00398434D02*
X00439795Y00398220D01*
X00440082Y00398032D01*
X00440383Y00397868D01*
X00440698Y00397731D01*
X00441027Y00397620D01*
X00441370Y00397534D01*
X00441727Y00397473D01*
X00442097Y00397439D01*
X00442481Y00397430D01*
X00438710Y00393658D01*
X00438701Y00394042D01*
X00438666Y00394413D01*
X00438606Y00394770D01*
X00438520Y00395112D01*
X00438408Y00395441D01*
X00438271Y00395756D01*
X00438108Y00396058D01*
X00437920Y00396345D01*
X00437705Y00396619D01*
X00437465Y00396878D01*
X00439261Y00398675D01*
X00439521Y00398434D01*
D02*
G37*
G36*
X00367481Y00697500D02*
X00367267Y00697414D01*
X00367077Y00697270D01*
X00366913Y00697069D01*
X00366775Y00696810D01*
X00366661Y00696494D01*
X00366573Y00696121D01*
X00366510Y00695689D01*
X00366472Y00695201D01*
X00366459Y00694655D01*
X00363919D01*
X00363907Y00695201D01*
X00363869Y00695689D01*
X00363806Y00696121D01*
X00363718Y00696494D01*
X00363604Y00696810D01*
X00363465Y00697069D01*
X00363301Y00697270D01*
X00363112Y00697414D01*
X00362898Y00697500D01*
X00362658Y00697529D01*
X00367720D01*
X00367481Y00697500D01*
D02*
G37*
G36*
X00438394Y00597265D02*
X00438436Y00596920D01*
X00438506Y00596583D01*
X00438603Y00596255D01*
X00438729Y00595935D01*
X00438883Y00595623D01*
X00439064Y00595320D01*
X00439274Y00595025D01*
X00439511Y00594739D01*
X00439777Y00594461D01*
X00434443D01*
X00434708Y00594739D01*
X00434946Y00595025D01*
X00435155Y00595320D01*
X00435337Y00595623D01*
X00435490Y00595935D01*
X00435616Y00596255D01*
X00435714Y00596583D01*
X00435784Y00596920D01*
X00435826Y00597265D01*
X00435840Y00597618D01*
X00438380D01*
X00438394Y00597265D01*
D02*
G37*
G36*
X00392881Y00697500D02*
X00392667Y00697414D01*
X00392477Y00697270D01*
X00392313Y00697069D01*
X00392175Y00696810D01*
X00392061Y00696494D01*
X00391973Y00696121D01*
X00391910Y00695689D01*
X00391872Y00695201D01*
X00391859Y00694655D01*
X00389319D01*
X00389307Y00695201D01*
X00389269Y00695689D01*
X00389206Y00696121D01*
X00389118Y00696494D01*
X00389004Y00696810D01*
X00388865Y00697069D01*
X00388701Y00697270D01*
X00388512Y00697414D01*
X00388298Y00697500D01*
X00388058Y00697529D01*
X00393120D01*
X00392881Y00697500D01*
D02*
G37*
G36*
X00660779Y00586533D02*
X00660501Y00586798D01*
X00660214Y00587036D01*
X00659920Y00587245D01*
X00659616Y00587427D01*
X00659305Y00587581D01*
X00658985Y00587706D01*
X00658657Y00587804D01*
X00658320Y00587874D01*
X00657975Y00587916D01*
X00657622Y00587930D01*
Y00590470D01*
X00657975Y00590484D01*
X00658320Y00590526D01*
X00658657Y00590596D01*
X00658985Y00590694D01*
X00659305Y00590819D01*
X00659616Y00590973D01*
X00659920Y00591155D01*
X00660214Y00591364D01*
X00660501Y00591602D01*
X00660779Y00591867D01*
Y00586533D01*
D02*
G37*
G36*
X00375858Y00512430D02*
X00375401Y00512416D01*
X00374955Y00512367D01*
X00374520Y00512281D01*
X00374095Y00512160D01*
X00373681Y00512003D01*
X00373277Y00511810D01*
X00372884Y00511580D01*
X00372503Y00511315D01*
X00372131Y00511014D01*
X00371771Y00510677D01*
X00369077Y00513371D01*
X00369414Y00513731D01*
X00369715Y00514103D01*
X00369980Y00514485D01*
X00370210Y00514877D01*
X00370403Y00515281D01*
X00370560Y00515695D01*
X00370681Y00516120D01*
X00370767Y00516555D01*
X00370816Y00517001D01*
X00370829Y00517458D01*
X00375858Y00512430D01*
D02*
G37*
G36*
X00360351Y00492324D02*
X00360401Y00491848D01*
X00360483Y00491391D01*
X00360599Y00490951D01*
X00360747Y00490529D01*
X00360929Y00490125D01*
X00361144Y00489739D01*
X00361391Y00489371D01*
X00361672Y00489020D01*
X00361986Y00488688D01*
X00354874D01*
X00355187Y00489020D01*
X00355468Y00489371D01*
X00355716Y00489739D01*
X00355930Y00490125D01*
X00356112Y00490529D01*
X00356260Y00490951D01*
X00356376Y00491391D01*
X00356459Y00491848D01*
X00356508Y00492324D01*
X00356525Y00492817D01*
X00360335D01*
X00360351Y00492324D01*
D02*
G37*
G36*
X00330682Y00488349D02*
X00331020Y00488059D01*
X00331377Y00487803D01*
X00331754Y00487580D01*
X00332150Y00487392D01*
X00332566Y00487239D01*
X00333002Y00487119D01*
X00333458Y00487033D01*
X00333933Y00486982D01*
X00334428Y00486965D01*
X00334254Y00483155D01*
X00333763Y00483139D01*
X00333287Y00483092D01*
X00332828Y00483012D01*
X00332385Y00482901D01*
X00331958Y00482758D01*
X00331547Y00482584D01*
X00331152Y00482378D01*
X00330773Y00482140D01*
X00330410Y00481870D01*
X00330064Y00481569D01*
X00330365Y00488674D01*
X00330682Y00488349D01*
D02*
G37*
G36*
X00354802Y00481504D02*
X00354469Y00481818D01*
X00354119Y00482098D01*
X00353750Y00482346D01*
X00353364Y00482561D01*
X00352960Y00482742D01*
X00352538Y00482891D01*
X00352099Y00483006D01*
X00351641Y00483089D01*
X00351166Y00483139D01*
X00350672Y00483155D01*
Y00486965D01*
X00351166Y00486982D01*
X00351641Y00487031D01*
X00352099Y00487114D01*
X00352538Y00487229D01*
X00352960Y00487378D01*
X00353364Y00487559D01*
X00353750Y00487774D01*
X00354119Y00488022D01*
X00354469Y00488302D01*
X00354802Y00488616D01*
Y00481504D01*
D02*
G37*
G36*
X00361672Y00481100D02*
X00361391Y00480749D01*
X00361144Y00480381D01*
X00360929Y00479995D01*
X00360747Y00479591D01*
X00360599Y00479169D01*
X00360483Y00478729D01*
X00360401Y00478271D01*
X00360351Y00477796D01*
X00360335Y00477303D01*
X00356525D01*
X00356508Y00477796D01*
X00356459Y00478271D01*
X00356376Y00478729D01*
X00356260Y00479169D01*
X00356112Y00479591D01*
X00355930Y00479995D01*
X00355716Y00480381D01*
X00355468Y00480749D01*
X00355187Y00481100D01*
X00354874Y00481432D01*
X00361986D01*
X00361672Y00481100D01*
D02*
G37*
G36*
X00362462Y00448455D02*
X00362833Y00448154D01*
X00363215Y00447889D01*
X00363608Y00447660D01*
X00364011Y00447467D01*
X00364425Y00447309D01*
X00364850Y00447188D01*
X00365286Y00447103D01*
X00365732Y00447053D01*
X00366189Y00447040D01*
X00361160Y00442011D01*
X00361147Y00442468D01*
X00361097Y00442914D01*
X00361012Y00443350D01*
X00360891Y00443775D01*
X00360733Y00444189D01*
X00360540Y00444592D01*
X00360311Y00444985D01*
X00360046Y00445367D01*
X00359744Y00445738D01*
X00359407Y00446098D01*
X00362101Y00448792D01*
X00362462Y00448455D01*
D02*
G37*
G36*
X00371333Y00441452D02*
X00371382Y00441006D01*
X00371467Y00440571D01*
X00371589Y00440146D01*
X00371746Y00439732D01*
X00371939Y00439328D01*
X00372168Y00438936D01*
X00372434Y00438554D01*
X00372735Y00438183D01*
X00373072Y00437822D01*
X00370378Y00435128D01*
X00370017Y00435465D01*
X00369646Y00435766D01*
X00369264Y00436031D01*
X00368871Y00436261D01*
X00368468Y00436454D01*
X00368054Y00436611D01*
X00367629Y00436732D01*
X00367194Y00436818D01*
X00366747Y00436867D01*
X00366290Y00436880D01*
X00371319Y00441909D01*
X00371333Y00441452D01*
D02*
G37*
G36*
X00441983Y00350050D02*
X00442041Y00349397D01*
X00442136Y00348821D01*
X00442269Y00348322D01*
X00442441Y00347899D01*
X00442650Y00347553D01*
X00442898Y00347285D01*
X00443184Y00347093D01*
X00443507Y00346977D01*
X00443869Y00346939D01*
X00436249D01*
X00436611Y00346977D01*
X00436935Y00347093D01*
X00437221Y00347285D01*
X00437469Y00347553D01*
X00437678Y00347899D01*
X00437850Y00348322D01*
X00437983Y00348821D01*
X00438078Y00349397D01*
X00438135Y00350050D01*
X00438154Y00350779D01*
X00441964D01*
X00441983Y00350050D01*
D02*
G37*
G36*
X00613078Y00512000D02*
X00612621Y00511987D01*
X00612175Y00511937D01*
X00611740Y00511852D01*
X00611315Y00511731D01*
X00610901Y00511574D01*
X00610497Y00511380D01*
X00610104Y00511151D01*
X00609723Y00510886D01*
X00609351Y00510585D01*
X00608991Y00510248D01*
X00606297Y00512942D01*
X00606634Y00513302D01*
X00606935Y00513674D01*
X00607200Y00514055D01*
X00607430Y00514448D01*
X00607623Y00514851D01*
X00607780Y00515266D01*
X00607901Y00515690D01*
X00607987Y00516126D01*
X00608036Y00516572D01*
X00608049Y00517029D01*
X00613078Y00512000D01*
D02*
G37*
G36*
X00599381Y00492539D02*
X00599431Y00492064D01*
X00599514Y00491606D01*
X00599629Y00491166D01*
X00599778Y00490744D01*
X00599959Y00490340D01*
X00600174Y00489954D01*
X00600421Y00489586D01*
X00600702Y00489235D01*
X00601016Y00488903D01*
X00593904D01*
X00594218Y00489235D01*
X00594498Y00489586D01*
X00594746Y00489954D01*
X00594961Y00490340D01*
X00595142Y00490744D01*
X00595291Y00491166D01*
X00595406Y00491606D01*
X00595489Y00492064D01*
X00595538Y00492539D01*
X00595555Y00493032D01*
X00599365D01*
X00599381Y00492539D01*
D02*
G37*
G36*
X00569310Y00488302D02*
X00569660Y00488022D01*
X00570029Y00487774D01*
X00570415Y00487559D01*
X00570819Y00487378D01*
X00571241Y00487229D01*
X00571681Y00487114D01*
X00572138Y00487031D01*
X00572614Y00486982D01*
X00573107Y00486965D01*
Y00483155D01*
X00572614Y00483139D01*
X00572138Y00483089D01*
X00571681Y00483006D01*
X00571241Y00482891D01*
X00570819Y00482742D01*
X00570415Y00482561D01*
X00570029Y00482346D01*
X00569660Y00482098D01*
X00569310Y00481818D01*
X00568978Y00481504D01*
Y00488616D01*
X00569310Y00488302D01*
D02*
G37*
G36*
X00593983Y00481647D02*
X00601016D01*
X00600702Y00481315D01*
X00600421Y00480964D01*
X00600174Y00480596D01*
X00599959Y00480210D01*
X00599778Y00479806D01*
X00599629Y00479384D01*
X00599514Y00478944D01*
X00599431Y00478486D01*
X00599381Y00478011D01*
X00599365Y00477518D01*
X00595555D01*
X00595538Y00478011D01*
X00595489Y00478486D01*
X00595406Y00478944D01*
X00595291Y00479384D01*
X00595142Y00479806D01*
X00594961Y00480210D01*
X00594746Y00480596D01*
X00594498Y00480964D01*
X00594218Y00481315D01*
X00593942Y00481607D01*
X00593639Y00481870D01*
X00593277Y00482140D01*
X00592898Y00482378D01*
X00592503Y00482584D01*
X00592092Y00482758D01*
X00591665Y00482901D01*
X00591222Y00483012D01*
X00590762Y00483092D01*
X00590287Y00483139D01*
X00589795Y00483155D01*
X00589621Y00486965D01*
X00590116Y00486982D01*
X00590592Y00487033D01*
X00591047Y00487119D01*
X00591483Y00487239D01*
X00591899Y00487392D01*
X00592296Y00487580D01*
X00592673Y00487803D01*
X00593030Y00488059D01*
X00593367Y00488349D01*
X00593685Y00488674D01*
X00593983Y00481647D01*
D02*
G37*
G36*
X00601302Y00448455D02*
X00601673Y00448154D01*
X00602055Y00447889D01*
X00602448Y00447660D01*
X00602851Y00447467D01*
X00603265Y00447309D01*
X00603690Y00447188D01*
X00604126Y00447103D01*
X00604572Y00447053D01*
X00605029Y00447040D01*
X00600000Y00442011D01*
X00599987Y00442468D01*
X00599937Y00442914D01*
X00599852Y00443350D01*
X00599731Y00443775D01*
X00599574Y00444189D01*
X00599380Y00444592D01*
X00599151Y00444985D01*
X00598886Y00445367D01*
X00598585Y00445738D01*
X00598248Y00446098D01*
X00600942Y00448792D01*
X00601302Y00448455D01*
D02*
G37*
G36*
X00794924Y00464698D02*
X00794806Y00464851D01*
X00794661Y00464987D01*
X00794490Y00465108D01*
X00794291Y00465212D01*
X00794065Y00465301D01*
X00793812Y00465373D01*
X00793533Y00465430D01*
X00793226Y00465470D01*
X00792892Y00465494D01*
X00792532Y00465502D01*
Y00468042D01*
X00792892Y00468050D01*
X00793533Y00468114D01*
X00793812Y00468171D01*
X00794065Y00468243D01*
X00794291Y00468331D01*
X00794490Y00468436D01*
X00794661Y00468557D01*
X00794806Y00468694D01*
X00794924Y00468846D01*
Y00464698D01*
D02*
G37*
G36*
X00716245Y00463897D02*
X00716483Y00463807D01*
X00716810Y00463728D01*
X00717226Y00463660D01*
X00718323Y00463554D01*
X00720632Y00463475D01*
X00721580Y00463470D01*
Y00460930D01*
X00720632Y00460925D01*
X00716810Y00460672D01*
X00716483Y00460593D01*
X00716245Y00460503D01*
X00716095Y00460403D01*
Y00463997D01*
X00716245Y00463897D01*
D02*
G37*
G36*
X00702880Y00457527D02*
X00702988Y00457263D01*
X00703130Y00457030D01*
X00703305Y00456829D01*
X00703514Y00456658D01*
X00703756Y00456518D01*
X00704032Y00456410D01*
X00704341Y00456332D01*
X00704684Y00456286D01*
X00705060Y00456270D01*
X00704512Y00453730D01*
X00703849Y00453727D01*
X00700316Y00453506D01*
X00700095Y00453453D01*
X00702805Y00457822D01*
X00702880Y00457527D01*
D02*
G37*
G36*
X00795399Y00452333D02*
X00795121Y00452598D01*
X00794835Y00452836D01*
X00794540Y00453045D01*
X00794237Y00453227D01*
X00793925Y00453381D01*
X00793605Y00453507D01*
X00793277Y00453604D01*
X00792940Y00453674D01*
X00792595Y00453716D01*
X00792242Y00453730D01*
Y00456270D01*
X00792595Y00456284D01*
X00792940Y00456326D01*
X00793277Y00456396D01*
X00793605Y00456493D01*
X00793925Y00456619D01*
X00794237Y00456773D01*
X00794540Y00456954D01*
X00794835Y00457164D01*
X00795121Y00457402D01*
X00795399Y00457667D01*
Y00452333D01*
D02*
G37*
G36*
X00842752Y00433244D02*
X00842535Y00433437D01*
X00842281Y00433610D01*
X00841990Y00433762D01*
X00841663Y00433894D01*
X00841299Y00434006D01*
X00840899Y00434097D01*
X00840462Y00434169D01*
X00839989Y00434219D01*
X00838932Y00434260D01*
Y00439340D01*
X00839479Y00439350D01*
X00840462Y00439431D01*
X00840899Y00439502D01*
X00841299Y00439594D01*
X00841663Y00439706D01*
X00841990Y00439838D01*
X00842281Y00439990D01*
X00842535Y00440163D01*
X00842752Y00440356D01*
Y00433244D01*
D02*
G37*
G36*
X00729557Y00421219D02*
X00729614Y00420917D01*
X00729712Y00420604D01*
X00729850Y00420279D01*
X00730028Y00419943D01*
X00730246Y00419595D01*
X00730505Y00419236D01*
X00730804Y00418866D01*
X00731522Y00418090D01*
X00727930Y00414498D01*
X00727536Y00414877D01*
X00726784Y00415515D01*
X00726424Y00415773D01*
X00726077Y00415992D01*
X00725741Y00416170D01*
X00725416Y00416308D01*
X00725103Y00416405D01*
X00724801Y00416463D01*
X00724511Y00416480D01*
X00729540Y00421509D01*
X00729557Y00421219D01*
D02*
G37*
G36*
X00820443Y00407923D02*
X00821196Y00407285D01*
X00821555Y00407027D01*
X00821903Y00406808D01*
X00822239Y00406630D01*
X00822564Y00406492D01*
X00822877Y00406395D01*
X00823179Y00406337D01*
X00823469Y00406320D01*
X00818440Y00401291D01*
X00818423Y00401581D01*
X00818365Y00401883D01*
X00818268Y00402196D01*
X00818130Y00402521D01*
X00817952Y00402857D01*
X00817733Y00403205D01*
X00817475Y00403564D01*
X00817176Y00403934D01*
X00816458Y00404710D01*
X00820050Y00408302D01*
X00820443Y00407923D01*
D02*
G37*
G36*
X00193461Y00609061D02*
X00193224Y00608775D01*
X00193014Y00608480D01*
X00192833Y00608177D01*
X00192679Y00607865D01*
X00192553Y00607545D01*
X00192456Y00607217D01*
X00192386Y00606880D01*
X00192344Y00606535D01*
X00192330Y00606182D01*
X00189790D01*
X00189776Y00606535D01*
X00189734Y00606880D01*
X00189664Y00607217D01*
X00189566Y00607545D01*
X00189441Y00607865D01*
X00189287Y00608177D01*
X00189105Y00608480D01*
X00188896Y00608775D01*
X00188658Y00609061D01*
X00188393Y00609339D01*
X00193727D01*
X00193461Y00609061D01*
D02*
G37*
G36*
X00175794Y00577688D02*
X00175554Y00577429D01*
X00175340Y00577155D01*
X00175151Y00576868D01*
X00174988Y00576566D01*
X00174851Y00576251D01*
X00174739Y00575922D01*
X00174653Y00575579D01*
X00174593Y00575223D01*
X00174559Y00574852D01*
X00174550Y00574468D01*
X00170778Y00578240D01*
X00171162Y00578249D01*
X00171533Y00578283D01*
X00171889Y00578344D01*
X00172232Y00578430D01*
X00172561Y00578541D01*
X00172876Y00578679D01*
X00173178Y00578842D01*
X00173465Y00579030D01*
X00173738Y00579244D01*
X00173998Y00579484D01*
X00175794Y00577688D01*
D02*
G37*
G36*
X00173611Y00558731D02*
X00173374Y00558445D01*
X00173164Y00558150D01*
X00172983Y00557847D01*
X00172829Y00557535D01*
X00172703Y00557215D01*
X00172606Y00556887D01*
X00172536Y00556550D01*
X00172494Y00556205D01*
X00172480Y00555852D01*
X00169940D01*
X00169926Y00556205D01*
X00169884Y00556550D01*
X00169814Y00556887D01*
X00169716Y00557215D01*
X00169591Y00557535D01*
X00169437Y00557847D01*
X00169255Y00558150D01*
X00169046Y00558445D01*
X00168808Y00558731D01*
X00168543Y00559009D01*
X00173877D01*
X00173611Y00558731D01*
D02*
G37*
G36*
X00143002Y00402186D02*
X00142767Y00401934D01*
X00142550Y00401666D01*
X00142352Y00401384D01*
X00142173Y00401086D01*
X00142012Y00400773D01*
X00141870Y00400445D01*
X00141747Y00400102D01*
X00141643Y00399743D01*
X00141557Y00399370D01*
X00141490Y00398981D01*
X00138344Y00403288D01*
X00138710Y00403242D01*
X00139065Y00403229D01*
X00139409Y00403248D01*
X00139742Y00403299D01*
X00140063Y00403382D01*
X00140374Y00403497D01*
X00140673Y00403644D01*
X00140961Y00403824D01*
X00141238Y00404036D01*
X00141503Y00404280D01*
X00143002Y00402186D01*
D02*
G37*
G36*
X00590162Y00402764D02*
X00589944Y00402957D01*
X00589690Y00403130D01*
X00589399Y00403282D01*
X00589072Y00403414D01*
X00588709Y00403526D01*
X00588308Y00403617D01*
X00587872Y00403689D01*
X00587398Y00403739D01*
X00586342Y00403780D01*
Y00408860D01*
X00586888Y00408870D01*
X00587872Y00408951D01*
X00588308Y00409022D01*
X00588709Y00409114D01*
X00589072Y00409226D01*
X00589399Y00409358D01*
X00589690Y00409510D01*
X00589944Y00409683D01*
X00590162Y00409876D01*
Y00402764D01*
D02*
G37*
G36*
X00597625Y00171078D02*
X00597701Y00170210D01*
X00597828Y00169443D01*
X00598006Y00168779D01*
X00598234Y00168217D01*
X00598514Y00167757D01*
X00598844Y00167399D01*
X00599225Y00167143D01*
X00599657Y00166990D01*
X00600139Y00166939D01*
X00589979D01*
X00590462Y00166990D01*
X00590894Y00167143D01*
X00591275Y00167399D01*
X00591605Y00167757D01*
X00591884Y00168217D01*
X00592113Y00168779D01*
X00592291Y00169443D01*
X00592418Y00170210D01*
X00592494Y00171078D01*
X00592519Y00172050D01*
X00597599D01*
X00597625Y00171078D01*
D02*
G37*
G36*
X00651896Y00429215D02*
X00652283Y00428537D01*
X00652511Y00428191D01*
X00653037Y00427483D01*
X00653656Y00426755D01*
X00654368Y00426007D01*
X00652824Y00423959D01*
X00652550Y00424210D01*
X00652273Y00424419D01*
X00651993Y00424586D01*
X00651710Y00424710D01*
X00651423Y00424792D01*
X00651133Y00424832D01*
X00650840Y00424830D01*
X00650544Y00424786D01*
X00650244Y00424700D01*
X00649941Y00424571D01*
X00651737Y00429546D01*
X00651896Y00429215D01*
D02*
G37*
G36*
X00641924Y00424545D02*
X00641965Y00424200D01*
X00642035Y00423863D01*
X00642133Y00423535D01*
X00642259Y00423215D01*
X00642413Y00422903D01*
X00642594Y00422600D01*
X00642804Y00422305D01*
X00643041Y00422019D01*
X00643307Y00421741D01*
X00637973Y00421741D01*
X00638238Y00422019D01*
X00638476Y00422305D01*
X00638685Y00422600D01*
X00638867Y00422903D01*
X00639020Y00423215D01*
X00639146Y00423535D01*
X00639244Y00423863D01*
X00639314Y00424200D01*
X00639356Y00424545D01*
X00639370Y00424898D01*
X00641910Y00424898D01*
X00641924Y00424545D01*
D02*
G37*
G36*
X00630279Y00343023D02*
X00629893Y00342620D01*
X00629281Y00341866D01*
X00629055Y00341516D01*
X00628882Y00341184D01*
X00628761Y00340869D01*
X00628694Y00340572D01*
X00628681Y00340293D01*
X00628720Y00340032D01*
X00628812Y00339788D01*
X00626407Y00344536D01*
X00626542Y00344330D01*
X00626705Y00344189D01*
X00626897Y00344112D01*
X00627118Y00344100D01*
X00627367Y00344152D01*
X00627645Y00344268D01*
X00627951Y00344449D01*
X00628286Y00344694D01*
X00628649Y00345004D01*
X00629041Y00345378D01*
X00630279Y00343023D01*
D02*
G37*
G36*
X00637669Y00345004D02*
X00638033Y00344694D01*
X00638368Y00344449D01*
X00638674Y00344268D01*
X00638952Y00344152D01*
X00639201Y00344100D01*
X00639421Y00344112D01*
X00639613Y00344189D01*
X00639777Y00344330D01*
X00639911Y00344536D01*
X00637506Y00339788D01*
X00637599Y00340032D01*
X00637638Y00340293D01*
X00637624Y00340572D01*
X00637557Y00340869D01*
X00637437Y00341184D01*
X00637264Y00341516D01*
X00637038Y00341866D01*
X00636758Y00342234D01*
X00636426Y00342620D01*
X00636040Y00343023D01*
X00637277Y00345378D01*
X00637669Y00345004D01*
D02*
G37*
G36*
X00299192Y00326564D02*
X00298859Y00326878D01*
X00298509Y00327158D01*
X00298141Y00327406D01*
X00297754Y00327621D01*
X00297351Y00327802D01*
X00296929Y00327951D01*
X00296489Y00328066D01*
X00296031Y00328149D01*
X00295556Y00328199D01*
X00295063Y00328215D01*
Y00332025D01*
X00295556Y00332042D01*
X00296031Y00332091D01*
X00296489Y00332174D01*
X00296929Y00332289D01*
X00297351Y00332438D01*
X00297754Y00332619D01*
X00298141Y00332834D01*
X00298509Y00333082D01*
X00298859Y00333362D01*
X00299192Y00333676D01*
Y00326564D01*
D02*
G37*
G36*
X00278840Y00333362D02*
X00279191Y00333082D01*
X00279559Y00332834D01*
X00279945Y00332619D01*
X00280349Y00332438D01*
X00280771Y00332289D01*
X00281211Y00332174D01*
X00281668Y00332091D01*
X00282144Y00332042D01*
X00282637Y00332025D01*
Y00328215D01*
X00282144Y00328199D01*
X00281668Y00328149D01*
X00281211Y00328066D01*
X00280771Y00327951D01*
X00280349Y00327802D01*
X00279945Y00327621D01*
X00279559Y00327406D01*
X00279191Y00327158D01*
X00278840Y00326878D01*
X00278508Y00326564D01*
Y00333676D01*
X00278840Y00333362D01*
D02*
G37*
G36*
X00418281Y00697500D02*
X00418066Y00697414D01*
X00417877Y00697270D01*
X00417713Y00697069D01*
X00417575Y00696810D01*
X00417461Y00696494D01*
X00417373Y00696121D01*
X00417310Y00695689D01*
X00417272Y00695201D01*
X00417259Y00694655D01*
X00414719D01*
X00414707Y00695201D01*
X00414669Y00695689D01*
X00414606Y00696121D01*
X00414518Y00696494D01*
X00414404Y00696810D01*
X00414265Y00697069D01*
X00414101Y00697270D01*
X00413912Y00697414D01*
X00413698Y00697500D01*
X00413458Y00697529D01*
X00418521D01*
X00418281Y00697500D01*
D02*
G37*
G36*
X00893697Y00335001D02*
X00893457Y00334741D01*
X00893243Y00334468D01*
X00893054Y00334180D01*
X00892891Y00333879D01*
X00892754Y00333564D01*
X00892642Y00333235D01*
X00892556Y00332892D01*
X00892496Y00332536D01*
X00892461Y00332165D01*
X00892452Y00331781D01*
X00888681Y00335552D01*
X00889065Y00335561D01*
X00889435Y00335596D01*
X00889792Y00335656D01*
X00890135Y00335742D01*
X00890464Y00335854D01*
X00890779Y00335991D01*
X00891080Y00336154D01*
X00891368Y00336343D01*
X00891641Y00336557D01*
X00891901Y00336797D01*
X00893697Y00335001D01*
D02*
G37*
G36*
X00576020Y00427342D02*
X00576371Y00427062D01*
X00576739Y00426814D01*
X00577125Y00426599D01*
X00577529Y00426418D01*
X00577951Y00426269D01*
X00578391Y00426154D01*
X00578848Y00426071D01*
X00579324Y00426021D01*
X00579817Y00426005D01*
Y00422195D01*
X00579324Y00422178D01*
X00578848Y00422129D01*
X00578391Y00422046D01*
X00577951Y00421931D01*
X00577529Y00421782D01*
X00577125Y00421601D01*
X00576739Y00421386D01*
X00576371Y00421138D01*
X00576020Y00420858D01*
X00575688Y00420544D01*
Y00427656D01*
X00576020Y00427342D01*
D02*
G37*
G36*
X00596983Y00350050D02*
X00597041Y00349397D01*
X00597136Y00348821D01*
X00597269Y00348322D01*
X00597441Y00347899D01*
X00597650Y00347553D01*
X00597898Y00347285D01*
X00598184Y00347093D01*
X00598507Y00346977D01*
X00598869Y00346939D01*
X00591249D01*
X00591611Y00346977D01*
X00591935Y00347093D01*
X00592221Y00347285D01*
X00592469Y00347553D01*
X00592678Y00347899D01*
X00592850Y00348322D01*
X00592983Y00348821D01*
X00593078Y00349397D01*
X00593135Y00350050D01*
X00593154Y00350779D01*
X00596964D01*
X00596983Y00350050D01*
D02*
G37*
G36*
X00160542Y00313610D02*
X00160158Y00313601D01*
X00159787Y00313567D01*
X00159430Y00313506D01*
X00159088Y00313420D01*
X00158759Y00313309D01*
X00158443Y00313172D01*
X00158142Y00313008D01*
X00157855Y00312820D01*
X00157581Y00312605D01*
X00157322Y00312365D01*
X00155525Y00314162D01*
X00155765Y00314421D01*
X00155980Y00314695D01*
X00156168Y00314982D01*
X00156331Y00315284D01*
X00156469Y00315599D01*
X00156580Y00315928D01*
X00156666Y00316271D01*
X00156727Y00316627D01*
X00156761Y00316998D01*
X00156770Y00317382D01*
X00160542Y00313610D01*
D02*
G37*
G36*
X00141544Y00284845D02*
X00141586Y00284500D01*
X00141656Y00284163D01*
X00141753Y00283835D01*
X00141879Y00283515D01*
X00142033Y00283203D01*
X00142214Y00282900D01*
X00142424Y00282605D01*
X00142661Y00282319D01*
X00142927Y00282041D01*
X00137593D01*
X00137858Y00282319D01*
X00138096Y00282605D01*
X00138305Y00282900D01*
X00138487Y00283203D01*
X00138641Y00283515D01*
X00138766Y00283835D01*
X00138864Y00284163D01*
X00138934Y00284500D01*
X00138976Y00284845D01*
X00138990Y00285198D01*
X00141530D01*
X00141544Y00284845D01*
D02*
G37*
G36*
X00320461Y00339821D02*
X00320224Y00339535D01*
X00320014Y00339240D01*
X00319833Y00338937D01*
X00319679Y00338625D01*
X00319553Y00338305D01*
X00319456Y00337977D01*
X00319386Y00337640D01*
X00319344Y00337295D01*
X00319330Y00336942D01*
X00316790D01*
X00316776Y00337295D01*
X00316734Y00337640D01*
X00316664Y00337977D01*
X00316566Y00338305D01*
X00316441Y00338625D01*
X00316287Y00338937D01*
X00316105Y00339240D01*
X00315896Y00339535D01*
X00315658Y00339821D01*
X00315393Y00340099D01*
X00320727D01*
X00320461Y00339821D01*
D02*
G37*
G36*
X00310660Y00255280D02*
X00310416Y00255443D01*
X00310167Y00255559D01*
X00309915Y00255629D01*
X00309660Y00255652D01*
X00309400Y00255628D01*
X00309137Y00255558D01*
X00308870Y00255441D01*
X00308599Y00255278D01*
X00308325Y00255068D01*
X00308047Y00254811D01*
X00306693Y00257049D01*
X00309720Y00260276D01*
X00310660Y00255280D01*
D02*
G37*
G36*
X00297623Y00254365D02*
X00297665Y00254020D01*
X00297735Y00253683D01*
X00297833Y00253355D01*
X00297959Y00253035D01*
X00298112Y00252723D01*
X00298294Y00252420D01*
X00298503Y00252125D01*
X00298741Y00251839D01*
X00299006Y00251561D01*
X00293672D01*
X00293938Y00251839D01*
X00294175Y00252125D01*
X00294385Y00252420D01*
X00294566Y00252723D01*
X00294720Y00253035D01*
X00294846Y00253355D01*
X00294944Y00253683D01*
X00295014Y00254020D01*
X00295055Y00254365D01*
X00295069Y00254718D01*
X00297609D01*
X00297623Y00254365D01*
D02*
G37*
G36*
X00303974Y00166218D02*
X00303734Y00165959D01*
X00303519Y00165685D01*
X00303331Y00165398D01*
X00303168Y00165096D01*
X00303030Y00164781D01*
X00302919Y00164452D01*
X00302833Y00164109D01*
X00302773Y00163753D01*
X00302738Y00163382D01*
X00302729Y00162998D01*
X00298957Y00166770D01*
X00299342Y00166779D01*
X00299712Y00166813D01*
X00300069Y00166874D01*
X00300412Y00166959D01*
X00300741Y00167071D01*
X00301056Y00167208D01*
X00301357Y00167371D01*
X00301644Y00167560D01*
X00301918Y00167774D01*
X00302178Y00168014D01*
X00303974Y00166218D01*
D02*
G37*
G36*
X00340781Y00225521D02*
X00340544Y00225235D01*
X00340334Y00224940D01*
X00340153Y00224637D01*
X00339999Y00224325D01*
X00339873Y00224005D01*
X00339775Y00223677D01*
X00339706Y00223340D01*
X00339664Y00222995D01*
X00339650Y00222642D01*
X00337110D01*
X00337096Y00222995D01*
X00337054Y00223340D01*
X00336984Y00223677D01*
X00336886Y00224005D01*
X00336760Y00224325D01*
X00336607Y00224637D01*
X00336425Y00224940D01*
X00336216Y00225235D01*
X00335978Y00225521D01*
X00335713Y00225799D01*
X00341047D01*
X00340781Y00225521D01*
D02*
G37*
G36*
X00355709Y00159813D02*
X00355431Y00160078D01*
X00355144Y00160316D01*
X00354850Y00160525D01*
X00354546Y00160707D01*
X00354235Y00160861D01*
X00353915Y00160986D01*
X00353587Y00161084D01*
X00353250Y00161154D01*
X00352905Y00161196D01*
X00352551Y00161210D01*
Y00163750D01*
X00352905Y00163764D01*
X00353250Y00163806D01*
X00353587Y00163876D01*
X00353915Y00163974D01*
X00354235Y00164099D01*
X00354546Y00164253D01*
X00354850Y00164435D01*
X00355144Y00164644D01*
X00355431Y00164882D01*
X00355709Y00165147D01*
Y00159813D01*
D02*
G37*
G36*
X00384923Y00371995D02*
X00384750Y00371741D01*
X00384598Y00371450D01*
X00384466Y00371123D01*
X00384354Y00370759D01*
X00384262Y00370359D01*
X00384191Y00369922D01*
X00384141Y00369449D01*
X00384100Y00368393D01*
X00379020D01*
X00379010Y00368939D01*
X00378928Y00369922D01*
X00378857Y00370359D01*
X00378766Y00370759D01*
X00378654Y00371123D01*
X00378522Y00371450D01*
X00378370Y00371741D01*
X00378197Y00371995D01*
X00378004Y00372212D01*
X00385116D01*
X00384923Y00371995D01*
D02*
G37*
G36*
X00442625Y00171078D02*
X00442701Y00170210D01*
X00442828Y00169443D01*
X00443006Y00168779D01*
X00443234Y00168217D01*
X00443514Y00167757D01*
X00443844Y00167399D01*
X00444225Y00167143D01*
X00444657Y00166990D01*
X00445139Y00166939D01*
X00434979D01*
X00435462Y00166990D01*
X00435894Y00167143D01*
X00436275Y00167399D01*
X00436605Y00167757D01*
X00436884Y00168217D01*
X00437113Y00168779D01*
X00437291Y00169443D01*
X00437418Y00170210D01*
X00437494Y00171078D01*
X00437519Y00172050D01*
X00442599D01*
X00442625Y00171078D01*
D02*
G37*
D15*
X00572060Y00424100D02*
X00600000D01*
X00612700Y00411400D01*
Y00378380D02*
Y00411400D01*
X00595059Y00360740D02*
X00612700Y00378380D01*
X00595059Y00335000D02*
Y00360740D01*
X00440059Y00335000D02*
Y00368140D01*
X00366240Y00441960D02*
X00440059Y00368140D01*
X00274880Y00330120D02*
X00302820D01*
X00358430Y00449770D02*
Y00485060D01*
X00565350D02*
X00597460D01*
Y00485275D02*
Y00501411D01*
Y00485060D02*
Y00485275D01*
Y00449580D02*
Y00485060D01*
Y00501411D02*
X00613129Y00517080D01*
X00597460Y00449580D02*
X00605080Y00441960D01*
X00326805Y00485060D02*
X00358430D01*
X00326590Y00485275D02*
X00326805Y00485060D01*
X00358430Y00449770D02*
X00366240Y00441960D01*
X00358430Y00485060D02*
Y00500030D01*
X00375909Y00517509D01*
D22*
X00166799Y00070640D02*
Y00096201D01*
X00150321Y00112679D02*
X00166799Y00096201D01*
X00099761Y00112679D02*
X00150321D01*
X00153260Y00119000D02*
X00184000Y00088260D01*
Y00051720D02*
Y00088260D01*
X00174280Y00042000D02*
X00184000Y00051720D01*
X00122000Y00042000D02*
X00174280D01*
X00115999Y00048001D02*
X00122000Y00042000D01*
X00115999Y00048001D02*
Y00070640D01*
X00101000Y00119000D02*
X00153260D01*
X00092000Y00128000D02*
X00101000Y00119000D01*
X00086920Y00125520D02*
X00099761Y00112679D01*
X00102160Y00155840D02*
X00119000Y00139000D01*
X00176440D01*
X00701180Y00455000D02*
X00798120D01*
X00699060Y00457120D02*
X00701180Y00455000D01*
X00160580Y00624760D02*
X00173280Y00637460D01*
X00140260Y00279320D02*
Y00297100D01*
X00160580Y00317420D01*
X00296339Y00284852D02*
X00318060Y00306573D01*
X00296339Y00248840D02*
Y00284852D01*
X00318060Y00306573D02*
Y00342820D01*
X00339789Y00637460D02*
Y00709580D01*
X00298756Y00626284D02*
X00379600D01*
X00288989Y00636050D02*
X00298756Y00626284D01*
X00288989Y00636050D02*
Y00665400D01*
X00290120Y00622220D02*
X00376480D01*
X00263589Y00648751D02*
X00290120Y00622220D01*
X00263589Y00648751D02*
Y00665400D01*
X00417120Y00441880D02*
Y00588764D01*
Y00441880D02*
X00442520Y00416480D01*
X00792532Y00466772D02*
X00798120D01*
X00714300Y00462200D02*
X00787960D01*
X00792532Y00466772D01*
X00417120Y00419020D02*
X00442520Y00393620D01*
X00412040Y00424100D02*
X00417120Y00419020D01*
X00379600Y00626284D02*
X00417120Y00588764D01*
X00376480Y00622220D02*
X00412040Y00586660D01*
Y00424100D02*
Y00586660D01*
X00437110Y00591740D02*
Y00614930D01*
X00365189Y00686851D02*
X00437110Y00614930D01*
X00888643Y00331743D02*
X00894640Y00337740D01*
Y00408860D01*
X00699060Y00604440D02*
X00894640Y00408860D01*
X00495860Y00604440D02*
X00699060D01*
X00415989Y00684311D02*
X00495860Y00604440D01*
X00415989Y00684311D02*
Y00709580D01*
X00490859Y00589200D02*
X00663500D01*
X00390589Y00689470D02*
X00490859Y00589200D01*
X00390589Y00689470D02*
Y00709580D01*
X00365189Y00686851D02*
Y00709580D01*
X00102160Y00652700D02*
X00279960Y00830500D01*
X00437440D01*
X00102160Y00155840D02*
Y00652700D01*
X00304229Y00881300D02*
X00314389Y00891460D01*
Y00912780D01*
X00292660Y00881300D02*
X00304229D01*
X00234240Y00822880D02*
X00292660Y00881300D01*
X00150420Y00822880D02*
X00234240D01*
X00246940Y00848280D02*
X00288989Y00890330D01*
Y00912780D01*
X00150420Y00848280D02*
X00246940D01*
X00217599Y00070640D02*
Y00097840D01*
X00176440Y00139000D02*
X00217599Y00097840D01*
X00437440Y00830500D02*
X00466789Y00801151D01*
Y00709580D02*
Y00801151D01*
X00086920Y00125520D02*
Y00658832D01*
X00272776Y00844688D01*
X00092000Y00128000D02*
X00092000Y00656728D01*
X00274880Y00839608D01*
X00138549Y00399530D02*
X00171210Y00432190D01*
Y00561730D01*
X00137720Y00399530D02*
X00138549D01*
X00170740Y00574430D02*
X00191060Y00594750D01*
Y00612060D01*
X00274880Y00839608D02*
X00491832D01*
X00272776Y00844688D02*
X00489728D01*
X00491832Y00839608D02*
X00542989Y00890765D01*
Y00912780D01*
X00489728Y00844688D02*
X00517589Y00872550D01*
Y00912780D01*
X00351080Y00162480D02*
X00358430D01*
X00338380Y00175180D02*
X00351080Y00162480D01*
X00338380Y00175180D02*
Y00228520D01*
X00309742Y00258303D02*
X00312980D01*
X00305360Y00253920D02*
X00309742Y00258303D01*
X00305360Y00169400D02*
Y00253920D01*
X00298919Y00162960D02*
X00305360Y00169400D01*
X00640640Y00434260D02*
X00643180Y00436800D01*
X00640640Y00419020D02*
Y00434260D01*
Y00419020D02*
X00640640D01*
X00643180Y00436800D02*
X00651460D01*
X00660960Y00383320D02*
Y00427300D01*
X00651460Y00436800D02*
X00660960Y00427300D01*
X00651562Y00427018D02*
X00656388Y00422192D01*
X00649232Y00427018D02*
X00651562D01*
X00648260Y00427990D02*
X00649232Y00427018D01*
X00656388Y00385214D02*
Y00422192D01*
X00631127Y00359954D02*
X00656388Y00385214D01*
X00631127Y00345668D02*
Y00359954D01*
X00635699Y00358060D02*
X00660960Y00383320D01*
X00635699Y00345160D02*
Y00358060D01*
Y00345160D02*
X00645859Y00335000D01*
X00620459D02*
X00631127Y00345668D01*
D101*
X00704140Y00467280D02*
X00709220D01*
X00714300Y00462200D01*
X00809550Y00412670D02*
X00833680Y00436800D01*
X00803200Y00406320D02*
X00809550Y00412670D01*
X00812090D01*
X00823520Y00401240D01*
X00833680Y00436800D02*
X00846380D01*
X00739700Y00406320D02*
X00803200D01*
X00724460Y00421560D02*
X00739700Y00406320D01*
X00440059Y00155000D02*
Y00279240D01*
X00381560Y00337740D02*
X00440059Y00279240D01*
X00381560Y00337740D02*
Y00375840D01*
X00582220Y00406320D02*
X00593789D01*
X00566980Y00391080D02*
X00582220Y00406320D01*
X00566980Y00279320D02*
Y00391080D01*
Y00279320D02*
X00595059Y00251240D01*
Y00155000D02*
Y00251240D01*
D102*
X00239109Y00588280D02*
X00252020D01*
X00200089Y00627300D02*
X00239109Y00588280D01*
X00183440Y00627300D02*
X00200089D01*
X00140260Y00612060D02*
X00168200D01*
X00135180Y00606980D02*
X00140260Y00612060D01*
X00135180Y00599360D02*
Y00606980D01*
Y00579040D02*
Y00599360D01*
X00134040Y00600499D02*
X00135180Y00599360D01*
X00113459Y00600499D02*
X00134040D01*
X00168200Y00612060D02*
X00183440Y00627300D01*
X00300879Y00588280D02*
X00309419Y00596820D01*
X00252020Y00588280D02*
X00300879D01*
X00134919Y00579040D02*
X00135180D01*
D107*
X00225489Y00722280D02*
D03*
Y00900080D02*
D03*
D108*
X00644589Y00912780D02*
D03*
X00619189D02*
D03*
X00593789D02*
D03*
X00568389D02*
D03*
X00542989D02*
D03*
X00517589D02*
D03*
X00492189D02*
D03*
X00466789D02*
D03*
X00441389D02*
D03*
X00415989D02*
D03*
X00390589D02*
D03*
X00365189D02*
D03*
X00339789D02*
D03*
X00314389D02*
D03*
X00288989D02*
D03*
X00263589D02*
D03*
Y00709580D02*
D03*
X00288989D02*
D03*
X00314389D02*
D03*
X00339789D02*
D03*
X00365189D02*
D03*
X00390589D02*
D03*
X00415989D02*
D03*
X00441389D02*
D03*
X00466789D02*
D03*
X00492189D02*
D03*
X00517589D02*
D03*
X00542989D02*
D03*
D109*
X00709220Y00642540D02*
D03*
X00684220D02*
D03*
X00659220D02*
D03*
X00709220Y00675540D02*
D03*
X00684220D02*
D03*
X00659220D02*
D03*
D110*
X00577460Y00665400D02*
D03*
D111*
X00597460D02*
D03*
D112*
X00526340Y00647620D02*
D03*
X00358430Y00236140D02*
D03*
Y00261540D02*
D03*
X00150420Y00848280D02*
D03*
Y00822880D02*
D03*
Y00797480D02*
D03*
D113*
X00526340Y00673020D02*
D03*
X00358430Y00286940D02*
D03*
X00150420Y00873680D02*
D03*
D114*
X00238189Y00665400D02*
D03*
X00263589D02*
D03*
X00288989D02*
D03*
X00645859Y00155000D02*
D03*
X00620459D02*
D03*
X00645859Y00335000D02*
D03*
X00620459D02*
D03*
X00490859D02*
D03*
X00465459D02*
D03*
X00490859Y00155000D02*
D03*
X00465459D02*
D03*
D115*
X00314389Y00665400D02*
D03*
X00595059Y00155000D02*
D03*
Y00335000D02*
D03*
X00440059D02*
D03*
Y00155000D02*
D03*
D116*
X00901399Y00112679D02*
D03*
D117*
X00873399Y00088679D02*
D03*
Y00137679D02*
D03*
D118*
X00705279Y00070640D02*
D03*
X00590979D02*
D03*
X00461439D02*
D03*
X00347139D02*
D03*
X00065199D02*
D03*
D119*
X00756079D02*
D03*
X00641779D02*
D03*
X00512239D02*
D03*
X00397939D02*
D03*
X00166799D02*
D03*
X00115999D02*
D03*
X00217599D02*
D03*
X00268399D02*
D03*
D120*
X00050000Y00910000D02*
D03*
X00890000D02*
D03*
Y00195000D02*
D03*
X00050000Y00185000D02*
D03*
D121*
X00840303Y00337740D02*
D03*
X00463880Y00460676D02*
D03*
X00456431Y00441584D02*
D03*
X00685629Y00441686D02*
D03*
X00696675Y00441960D02*
D03*
X00851000Y00311000D02*
D03*
X00909685Y00875026D02*
D03*
X00922385Y00849626D02*
D03*
X00909685Y00824226D02*
D03*
X00922385Y00798826D02*
D03*
X00909685Y00773426D02*
D03*
X00922385Y00748026D02*
D03*
X00909685Y00722626D02*
D03*
X00922385Y00697226D02*
D03*
X00909685Y00671826D02*
D03*
X00922385Y00646426D02*
D03*
X00909685Y00621026D02*
D03*
X00922385Y00595626D02*
D03*
X00909685Y00570226D02*
D03*
X00922385Y00544826D02*
D03*
X00909685Y00519426D02*
D03*
X00922385Y00494026D02*
D03*
X00909685Y00468626D02*
D03*
X00922385Y00341626D02*
D03*
X00909685Y00316226D02*
D03*
X00922385Y00290826D02*
D03*
X00909685Y00265426D02*
D03*
X00922385Y00240026D02*
D03*
X00909685Y00163826D02*
D03*
X00922385Y00138426D02*
D03*
Y00087626D02*
D03*
X00909685Y00062226D02*
D03*
X00922385Y00036826D02*
D03*
X00909685Y00011426D02*
D03*
X00884285Y00875026D02*
D03*
X00896985Y00849626D02*
D03*
X00884285Y00824226D02*
D03*
X00896985Y00798826D02*
D03*
X00884285Y00773426D02*
D03*
X00896985Y00748026D02*
D03*
X00884285Y00722626D02*
D03*
X00896985Y00697226D02*
D03*
X00884285Y00671826D02*
D03*
X00896985Y00646426D02*
D03*
X00884285Y00621026D02*
D03*
X00896985Y00595626D02*
D03*
X00884285Y00570226D02*
D03*
X00896985Y00544826D02*
D03*
X00884285Y00519426D02*
D03*
X00896985Y00494026D02*
D03*
X00884285Y00468626D02*
D03*
X00896985Y00290826D02*
D03*
X00884285Y00265426D02*
D03*
X00896985Y00240026D02*
D03*
Y00138426D02*
D03*
X00884285Y00113026D02*
D03*
X00896985Y00087626D02*
D03*
X00884285Y00062226D02*
D03*
X00896985Y00036826D02*
D03*
X00884285Y00011426D02*
D03*
X00858885Y00925826D02*
D03*
Y00875026D02*
D03*
X00871585Y00849626D02*
D03*
X00858885Y00824226D02*
D03*
X00871585Y00798826D02*
D03*
X00858885Y00773426D02*
D03*
X00871585Y00748026D02*
D03*
X00858885Y00722626D02*
D03*
X00871585Y00697226D02*
D03*
X00858885Y00671826D02*
D03*
X00871585Y00646426D02*
D03*
X00858885Y00621026D02*
D03*
X00871585Y00595626D02*
D03*
X00858885Y00570226D02*
D03*
X00871585Y00544826D02*
D03*
X00858885Y00519426D02*
D03*
X00871585Y00494026D02*
D03*
X00858885Y00468626D02*
D03*
Y00265426D02*
D03*
X00871585Y00240026D02*
D03*
X00858885Y00214626D02*
D03*
Y00163826D02*
D03*
Y00062226D02*
D03*
X00871585Y00036826D02*
D03*
X00858885Y00011426D02*
D03*
X00833485Y00925826D02*
D03*
X00846185Y00900426D02*
D03*
X00833485Y00875026D02*
D03*
X00846185Y00849626D02*
D03*
X00833485Y00824226D02*
D03*
X00846185Y00798826D02*
D03*
X00833485Y00773426D02*
D03*
X00846185Y00748026D02*
D03*
X00833485Y00722626D02*
D03*
X00846185Y00697226D02*
D03*
X00833485Y00671826D02*
D03*
X00846185Y00646426D02*
D03*
X00833485Y00621026D02*
D03*
X00846185Y00595626D02*
D03*
X00833485Y00570226D02*
D03*
X00846185Y00544826D02*
D03*
X00833485Y00519426D02*
D03*
X00846185Y00494026D02*
D03*
X00833485Y00265426D02*
D03*
X00846185Y00240026D02*
D03*
Y00189226D02*
D03*
X00833485Y00163826D02*
D03*
X00846185Y00138426D02*
D03*
X00833485Y00113026D02*
D03*
Y00062226D02*
D03*
X00846185Y00036826D02*
D03*
X00833485Y00011426D02*
D03*
X00808085Y00925826D02*
D03*
X00820785Y00900426D02*
D03*
X00808085Y00875026D02*
D03*
X00820785Y00849626D02*
D03*
X00808085Y00824226D02*
D03*
X00820785Y00798826D02*
D03*
X00808085Y00773426D02*
D03*
X00820785Y00748026D02*
D03*
X00808085Y00722626D02*
D03*
X00820785Y00697226D02*
D03*
X00808085Y00671826D02*
D03*
X00820785Y00646426D02*
D03*
X00808085Y00621026D02*
D03*
X00820785Y00595626D02*
D03*
X00808085Y00570226D02*
D03*
X00820785Y00544826D02*
D03*
X00808085Y00519426D02*
D03*
Y00265426D02*
D03*
X00820785Y00240026D02*
D03*
Y00189226D02*
D03*
X00808085Y00163826D02*
D03*
Y00062226D02*
D03*
X00820785Y00036826D02*
D03*
X00808085Y00011426D02*
D03*
X00782685Y00925826D02*
D03*
X00795385Y00900426D02*
D03*
X00782685Y00875026D02*
D03*
X00795385Y00849626D02*
D03*
X00782685Y00824226D02*
D03*
X00795385Y00798826D02*
D03*
X00782685Y00773426D02*
D03*
X00795385Y00748026D02*
D03*
X00782685Y00722626D02*
D03*
X00795385Y00697226D02*
D03*
X00782685Y00671826D02*
D03*
X00795385Y00646426D02*
D03*
X00782685Y00621026D02*
D03*
X00795385Y00595626D02*
D03*
Y00544826D02*
D03*
Y00494026D02*
D03*
Y00443226D02*
D03*
X00782685Y00417826D02*
D03*
X00795385Y00392426D02*
D03*
X00782685Y00265426D02*
D03*
X00795385Y00240026D02*
D03*
X00782685Y00214626D02*
D03*
X00795385Y00189226D02*
D03*
X00782685Y00163826D02*
D03*
Y00113026D02*
D03*
X00795385Y00087626D02*
D03*
X00782685Y00062226D02*
D03*
X00795385Y00036826D02*
D03*
X00782685Y00011426D02*
D03*
X00757285Y00925826D02*
D03*
X00769985Y00900426D02*
D03*
X00757285Y00875026D02*
D03*
X00769985Y00849626D02*
D03*
X00757285Y00824226D02*
D03*
X00769985Y00798826D02*
D03*
X00757285Y00773426D02*
D03*
X00769985Y00748026D02*
D03*
X00757285Y00722626D02*
D03*
X00769985Y00697226D02*
D03*
X00757285Y00671826D02*
D03*
X00769985Y00646426D02*
D03*
X00757285Y00621026D02*
D03*
X00769985Y00595626D02*
D03*
X00757285Y00519426D02*
D03*
Y00367026D02*
D03*
Y00265426D02*
D03*
X00769985Y00240026D02*
D03*
Y00189226D02*
D03*
X00757285Y00113026D02*
D03*
X00769985Y00036826D02*
D03*
X00757285Y00011426D02*
D03*
X00731885Y00925826D02*
D03*
X00744585Y00900426D02*
D03*
X00731885Y00875026D02*
D03*
X00744585Y00849626D02*
D03*
X00731885Y00824226D02*
D03*
X00744585Y00798826D02*
D03*
Y00748026D02*
D03*
Y00697226D02*
D03*
X00731885Y00671826D02*
D03*
X00744585Y00646426D02*
D03*
Y00341626D02*
D03*
Y00240026D02*
D03*
Y00189226D02*
D03*
Y00138426D02*
D03*
X00731885Y00062226D02*
D03*
X00744585Y00036826D02*
D03*
X00731885Y00011426D02*
D03*
X00706485Y00925826D02*
D03*
X00719185Y00900426D02*
D03*
X00706485Y00875026D02*
D03*
X00719185Y00849626D02*
D03*
X00706485Y00824226D02*
D03*
X00719185Y00798826D02*
D03*
X00706485Y00773426D02*
D03*
Y00722626D02*
D03*
Y00417826D02*
D03*
Y00316226D02*
D03*
Y00163826D02*
D03*
X00719185Y00138426D02*
D03*
Y00036826D02*
D03*
X00706485Y00011426D02*
D03*
X00681085Y00925826D02*
D03*
X00693785Y00900426D02*
D03*
X00681085Y00875026D02*
D03*
X00693785Y00849626D02*
D03*
X00681085Y00773426D02*
D03*
X00693785Y00748026D02*
D03*
X00681085Y00722626D02*
D03*
Y00519426D02*
D03*
X00693785Y00392426D02*
D03*
X00681085Y00367026D02*
D03*
X00693785Y00341626D02*
D03*
X00681085Y00316226D02*
D03*
X00693785Y00290826D02*
D03*
X00681085Y00265426D02*
D03*
X00693785Y00240026D02*
D03*
X00681085Y00214626D02*
D03*
X00693785Y00189226D02*
D03*
X00681085Y00163826D02*
D03*
X00693785Y00138426D02*
D03*
X00681085Y00062226D02*
D03*
X00693785Y00036826D02*
D03*
X00681085Y00011426D02*
D03*
X00668385Y00900426D02*
D03*
X00655685Y00875026D02*
D03*
X00668385Y00849626D02*
D03*
X00655685Y00824226D02*
D03*
X00668385Y00798826D02*
D03*
X00655685Y00773426D02*
D03*
X00668385Y00748026D02*
D03*
X00655685Y00722626D02*
D03*
Y00519426D02*
D03*
Y00468626D02*
D03*
X00668385Y00341626D02*
D03*
X00655685Y00316226D02*
D03*
X00668385Y00290826D02*
D03*
X00655685Y00265426D02*
D03*
X00668385Y00240026D02*
D03*
X00655685Y00214626D02*
D03*
X00668385Y00189226D02*
D03*
Y00138426D02*
D03*
Y00087626D02*
D03*
Y00036826D02*
D03*
X00655685Y00011426D02*
D03*
X00630285Y00824226D02*
D03*
X00642985Y00798826D02*
D03*
X00630285Y00773426D02*
D03*
X00642985Y00748026D02*
D03*
X00630285Y00722626D02*
D03*
Y00671826D02*
D03*
X00642985Y00646426D02*
D03*
X00630285Y00570226D02*
D03*
X00642985Y00544826D02*
D03*
Y00494026D02*
D03*
X00630285Y00316226D02*
D03*
X00642985Y00290826D02*
D03*
X00630285Y00265426D02*
D03*
X00642985Y00240026D02*
D03*
X00630285Y00214626D02*
D03*
X00642985Y00189226D02*
D03*
X00630285Y00113026D02*
D03*
X00642985Y00036826D02*
D03*
X00630285Y00011426D02*
D03*
X00604885Y00875026D02*
D03*
X00617585Y00849626D02*
D03*
X00604885Y00824226D02*
D03*
X00617585Y00798826D02*
D03*
X00604885Y00773426D02*
D03*
X00617585Y00748026D02*
D03*
X00604885Y00722626D02*
D03*
X00617585Y00646426D02*
D03*
X00604885Y00570226D02*
D03*
X00617585Y00290826D02*
D03*
X00604885Y00265426D02*
D03*
X00617585Y00240026D02*
D03*
Y00189226D02*
D03*
Y00036826D02*
D03*
X00604885Y00011426D02*
D03*
X00579485Y00875026D02*
D03*
X00592185Y00849626D02*
D03*
X00579485Y00824226D02*
D03*
X00592185Y00798826D02*
D03*
X00579485Y00773426D02*
D03*
X00592185Y00748026D02*
D03*
Y00646426D02*
D03*
X00579485Y00570226D02*
D03*
Y00367026D02*
D03*
Y00316226D02*
D03*
X00592185Y00290826D02*
D03*
X00579485Y00214626D02*
D03*
X00592185Y00036826D02*
D03*
X00579485Y00011426D02*
D03*
X00554085Y00875026D02*
D03*
X00566785Y00849626D02*
D03*
X00554085Y00824226D02*
D03*
X00566785Y00798826D02*
D03*
X00554085Y00773426D02*
D03*
X00566785Y00748026D02*
D03*
X00554085Y00671826D02*
D03*
X00566785Y00646426D02*
D03*
X00554085Y00570226D02*
D03*
Y00417826D02*
D03*
Y00316226D02*
D03*
Y00265426D02*
D03*
X00566785Y00240026D02*
D03*
X00554085Y00214626D02*
D03*
X00566785Y00189226D02*
D03*
X00554085Y00163826D02*
D03*
X00566785Y00138426D02*
D03*
Y00087626D02*
D03*
X00554085Y00062226D02*
D03*
X00566785Y00036826D02*
D03*
X00554085Y00011426D02*
D03*
X00541385Y00849626D02*
D03*
X00528685Y00824226D02*
D03*
X00541385Y00798826D02*
D03*
X00528685Y00773426D02*
D03*
X00541385Y00748026D02*
D03*
X00528685Y00570226D02*
D03*
X00541385Y00544826D02*
D03*
X00528685Y00519426D02*
D03*
X00541385Y00494026D02*
D03*
X00528685Y00468626D02*
D03*
X00541385Y00443226D02*
D03*
X00528685Y00417826D02*
D03*
X00541385Y00341626D02*
D03*
X00528685Y00316226D02*
D03*
X00541385Y00290826D02*
D03*
X00528685Y00265426D02*
D03*
X00541385Y00240026D02*
D03*
X00528685Y00214626D02*
D03*
X00541385Y00189226D02*
D03*
X00528685Y00163826D02*
D03*
X00541385Y00138426D02*
D03*
Y00087626D02*
D03*
Y00036826D02*
D03*
X00528685Y00011426D02*
D03*
X00503285Y00875026D02*
D03*
X00515985Y00849626D02*
D03*
X00503285Y00824226D02*
D03*
X00515985Y00798826D02*
D03*
X00503285Y00773426D02*
D03*
X00515985Y00748026D02*
D03*
X00503285Y00570226D02*
D03*
X00515985Y00544826D02*
D03*
Y00494026D02*
D03*
Y00443226D02*
D03*
X00503285Y00417826D02*
D03*
Y00367026D02*
D03*
X00515985Y00341626D02*
D03*
Y00290826D02*
D03*
X00503285Y00265426D02*
D03*
X00515985Y00240026D02*
D03*
X00503285Y00214626D02*
D03*
X00515985Y00189226D02*
D03*
Y00138426D02*
D03*
Y00036826D02*
D03*
X00503285Y00011426D02*
D03*
X00477885Y00875026D02*
D03*
Y00824226D02*
D03*
X00490585Y00798826D02*
D03*
X00477885Y00773426D02*
D03*
X00490585Y00748026D02*
D03*
X00477885Y00671826D02*
D03*
X00490585Y00443226D02*
D03*
X00477885Y00417826D02*
D03*
X00490585Y00290826D02*
D03*
X00477885Y00265426D02*
D03*
X00490585Y00240026D02*
D03*
X00477885Y00214626D02*
D03*
X00490585Y00189226D02*
D03*
Y00087626D02*
D03*
Y00036826D02*
D03*
X00477885Y00011426D02*
D03*
X00452485Y00875026D02*
D03*
Y00773426D02*
D03*
Y00671826D02*
D03*
Y00519426D02*
D03*
X00465185Y00290826D02*
D03*
X00452485Y00265426D02*
D03*
X00465185Y00240026D02*
D03*
X00452485Y00214626D02*
D03*
X00465185Y00189226D02*
D03*
Y00036826D02*
D03*
X00452485Y00011426D02*
D03*
X00427085Y00875026D02*
D03*
X00439785Y00798826D02*
D03*
X00427085Y00773426D02*
D03*
X00439785Y00748026D02*
D03*
Y00544826D02*
D03*
X00427085Y00468626D02*
D03*
Y00265426D02*
D03*
Y00214626D02*
D03*
Y00113026D02*
D03*
X00439785Y00087626D02*
D03*
X00427085Y00062226D02*
D03*
X00439785Y00036826D02*
D03*
X00427085Y00011426D02*
D03*
X00414385Y00798826D02*
D03*
X00401685Y00773426D02*
D03*
X00414385Y00748026D02*
D03*
X00401685Y00621026D02*
D03*
Y00570226D02*
D03*
Y00519426D02*
D03*
Y00468626D02*
D03*
Y00367026D02*
D03*
X00414385Y00341626D02*
D03*
X00401685Y00265426D02*
D03*
X00414385Y00240026D02*
D03*
X00401685Y00214626D02*
D03*
X00414385Y00189226D02*
D03*
X00401685Y00163826D02*
D03*
Y00113026D02*
D03*
X00414385Y00087626D02*
D03*
Y00036826D02*
D03*
X00401685Y00011426D02*
D03*
X00388985Y00798826D02*
D03*
X00376285Y00773426D02*
D03*
X00388985Y00748026D02*
D03*
Y00646426D02*
D03*
Y00595626D02*
D03*
X00376285Y00570226D02*
D03*
Y00316226D02*
D03*
X00388985Y00290826D02*
D03*
Y00240026D02*
D03*
Y00189226D02*
D03*
X00376285Y00113026D02*
D03*
Y00062226D02*
D03*
X00388985Y00036826D02*
D03*
X00376285Y00011426D02*
D03*
X00363585Y00798826D02*
D03*
X00350885Y00773426D02*
D03*
X00363585Y00748026D02*
D03*
Y00646426D02*
D03*
Y00595626D02*
D03*
X00350885Y00570226D02*
D03*
Y00417826D02*
D03*
Y00367026D02*
D03*
X00363585Y00341626D02*
D03*
X00350885Y00316226D02*
D03*
X00363585Y00036826D02*
D03*
X00350885Y00011426D02*
D03*
X00338185Y00798826D02*
D03*
X00325485Y00773426D02*
D03*
X00338185Y00748026D02*
D03*
X00325485Y00570226D02*
D03*
X00338185Y00443226D02*
D03*
X00325485Y00417826D02*
D03*
X00338185Y00392426D02*
D03*
X00325485Y00367026D02*
D03*
X00338185Y00341626D02*
D03*
Y00138426D02*
D03*
X00325485Y00113026D02*
D03*
Y00062226D02*
D03*
X00338185Y00036826D02*
D03*
X00325485Y00011426D02*
D03*
X00312785Y00798826D02*
D03*
X00300085Y00773426D02*
D03*
X00312785Y00748026D02*
D03*
Y00544826D02*
D03*
Y00494026D02*
D03*
Y00392426D02*
D03*
Y00138426D02*
D03*
X00300085Y00113026D02*
D03*
X00312785Y00087626D02*
D03*
X00300085Y00062226D02*
D03*
X00312785Y00036826D02*
D03*
X00300085Y00011426D02*
D03*
X00287385Y00798826D02*
D03*
X00274685Y00773426D02*
D03*
X00287385Y00138426D02*
D03*
X00274685Y00113026D02*
D03*
X00287385Y00087626D02*
D03*
Y00036826D02*
D03*
X00274685Y00011426D02*
D03*
X00249285Y00925826D02*
D03*
X00261985Y00798826D02*
D03*
X00249285Y00773426D02*
D03*
X00261985Y00748026D02*
D03*
X00249285Y00570226D02*
D03*
X00261985Y00544826D02*
D03*
X00249285Y00519426D02*
D03*
X00261985Y00494026D02*
D03*
Y00443226D02*
D03*
Y00392426D02*
D03*
X00249285Y00316226D02*
D03*
Y00265426D02*
D03*
Y00214626D02*
D03*
Y00113026D02*
D03*
Y00062226D02*
D03*
X00261985Y00036826D02*
D03*
X00249285Y00011426D02*
D03*
X00223885Y00925826D02*
D03*
Y00875026D02*
D03*
X00236585Y00748026D02*
D03*
Y00697226D02*
D03*
Y00646426D02*
D03*
X00223885Y00621026D02*
D03*
X00236585Y00544826D02*
D03*
Y00494026D02*
D03*
X00223885Y00468626D02*
D03*
Y00417826D02*
D03*
Y00367026D02*
D03*
X00236585Y00341626D02*
D03*
X00223885Y00316226D02*
D03*
X00236585Y00290826D02*
D03*
Y00138426D02*
D03*
X00223885Y00113026D02*
D03*
X00236585Y00087626D02*
D03*
Y00036826D02*
D03*
X00223885Y00011426D02*
D03*
X00198485Y00925826D02*
D03*
Y00875026D02*
D03*
X00211185Y00798826D02*
D03*
Y00697226D02*
D03*
Y00443226D02*
D03*
X00198485Y00417826D02*
D03*
X00211185Y00392426D02*
D03*
X00198485Y00367026D02*
D03*
X00211185Y00341626D02*
D03*
X00198485Y00316226D02*
D03*
X00211185Y00290826D02*
D03*
Y00138426D02*
D03*
X00198485Y00062226D02*
D03*
X00211185Y00036826D02*
D03*
X00198485Y00011426D02*
D03*
X00173085Y00925826D02*
D03*
X00185785Y00900426D02*
D03*
X00173085Y00875026D02*
D03*
X00185785Y00494026D02*
D03*
Y00443226D02*
D03*
X00173085Y00417826D02*
D03*
X00185785Y00392426D02*
D03*
X00173085Y00367026D02*
D03*
X00185785Y00341626D02*
D03*
X00173085Y00316226D02*
D03*
X00185785Y00290826D02*
D03*
X00173085Y00113026D02*
D03*
X00185785Y00036826D02*
D03*
X00173085Y00011426D02*
D03*
X00160385Y00900426D02*
D03*
X00147685Y00773426D02*
D03*
X00160385Y00748026D02*
D03*
Y00697226D02*
D03*
X00147685Y00671826D02*
D03*
X00160385Y00494026D02*
D03*
X00147685Y00468626D02*
D03*
X00160385Y00392426D02*
D03*
X00147685Y00367026D02*
D03*
X00160385Y00341626D02*
D03*
Y00290826D02*
D03*
Y00189226D02*
D03*
X00147685Y00062226D02*
D03*
Y00011426D02*
D03*
X00122285Y00925826D02*
D03*
X00134985Y00748026D02*
D03*
Y00646426D02*
D03*
X00122285Y00570226D02*
D03*
Y00519426D02*
D03*
Y00163826D02*
D03*
X00134985Y00087626D02*
D03*
X00122285Y00011426D02*
D03*
X00096885Y00925826D02*
D03*
Y00875026D02*
D03*
Y00824226D02*
D03*
Y00773426D02*
D03*
Y00722626D02*
D03*
Y00062226D02*
D03*
X00109585Y00036826D02*
D03*
X00096885Y00011426D02*
D03*
X00084185Y00900426D02*
D03*
X00071485Y00875026D02*
D03*
X00084185Y00849626D02*
D03*
X00071485Y00824226D02*
D03*
X00084185Y00798826D02*
D03*
X00071485Y00773426D02*
D03*
X00084185Y00748026D02*
D03*
X00071485Y00722626D02*
D03*
X00084185Y00697226D02*
D03*
X00071485Y00671826D02*
D03*
Y00621026D02*
D03*
Y00570226D02*
D03*
Y00519426D02*
D03*
Y00468626D02*
D03*
Y00417826D02*
D03*
Y00367026D02*
D03*
Y00316226D02*
D03*
Y00265426D02*
D03*
Y00214626D02*
D03*
X00084185Y00087626D02*
D03*
Y00036826D02*
D03*
X00071485Y00011426D02*
D03*
X00046085Y00875026D02*
D03*
X00058785Y00849626D02*
D03*
X00046085Y00824226D02*
D03*
X00058785Y00798826D02*
D03*
X00046085Y00773426D02*
D03*
X00058785Y00748026D02*
D03*
X00046085Y00722626D02*
D03*
X00058785Y00697226D02*
D03*
X00046085Y00671826D02*
D03*
X00058785Y00646426D02*
D03*
X00046085Y00621026D02*
D03*
X00058785Y00595626D02*
D03*
X00046085Y00570226D02*
D03*
X00058785Y00544826D02*
D03*
X00046085Y00519426D02*
D03*
X00058785Y00494026D02*
D03*
X00046085Y00468626D02*
D03*
X00058785Y00443226D02*
D03*
X00046085Y00417826D02*
D03*
X00058785Y00392426D02*
D03*
X00046085Y00367026D02*
D03*
X00058785Y00341626D02*
D03*
X00046085Y00316226D02*
D03*
X00058785Y00290826D02*
D03*
X00046085Y00265426D02*
D03*
X00058785Y00240026D02*
D03*
Y00138426D02*
D03*
X00046085Y00113026D02*
D03*
Y00062226D02*
D03*
X00058785Y00036826D02*
D03*
X00046085Y00011426D02*
D03*
X00020685Y00875026D02*
D03*
X00033385Y00849626D02*
D03*
X00020685Y00824226D02*
D03*
X00033385Y00798826D02*
D03*
X00020685Y00773426D02*
D03*
X00033385Y00748026D02*
D03*
X00020685Y00722626D02*
D03*
X00033385Y00697226D02*
D03*
X00020685Y00671826D02*
D03*
X00033385Y00646426D02*
D03*
X00020685Y00621026D02*
D03*
X00033385Y00595626D02*
D03*
X00020685Y00570226D02*
D03*
X00033385Y00544826D02*
D03*
X00020685Y00519426D02*
D03*
X00033385Y00494026D02*
D03*
X00020685Y00468626D02*
D03*
X00033385Y00443226D02*
D03*
X00020685Y00417826D02*
D03*
X00033385Y00392426D02*
D03*
X00020685Y00367026D02*
D03*
X00033385Y00341626D02*
D03*
X00020685Y00316226D02*
D03*
X00033385Y00290826D02*
D03*
X00020685Y00265426D02*
D03*
X00033385Y00240026D02*
D03*
X00020685Y00214626D02*
D03*
Y00163826D02*
D03*
X00033385Y00138426D02*
D03*
X00020685Y00113026D02*
D03*
X00033385Y00087626D02*
D03*
X00020685Y00062226D02*
D03*
X00033385Y00036826D02*
D03*
X00020685Y00011426D02*
D03*
X00160580Y00624760D02*
D03*
X00140260Y00279320D02*
D03*
X00160580Y00317420D02*
D03*
X00296339Y00248840D02*
D03*
X00318060Y00342820D02*
D03*
X00339789Y00637460D02*
D03*
X00798120Y00455000D02*
D03*
X00699060Y00457120D02*
D03*
X00442520Y00416480D02*
D03*
X00798120Y00466772D02*
D03*
X00704140Y00467280D02*
D03*
X00417120Y00419020D02*
D03*
X00442520Y00393620D02*
D03*
X00437110Y00591740D02*
D03*
X00888643Y00331743D02*
D03*
X00663500Y00589200D02*
D03*
X00171210Y00561730D02*
D03*
X00170740Y00574430D02*
D03*
X00173280Y00637460D02*
D03*
X00191060Y00612060D02*
D03*
X00137720Y00399530D02*
D03*
X00312980Y00258303D02*
D03*
X00298919Y00162960D02*
D03*
X00338380Y00228520D02*
D03*
X00358430Y00162480D02*
D03*
X00640640Y00419020D02*
D03*
X00648260Y00427990D02*
D03*
D122*
X00309419Y00596820D02*
D03*
X00572060Y00424100D02*
D03*
X00302820Y00330120D02*
D03*
X00274880D02*
D03*
X00823520Y00401240D02*
D03*
X00846380Y00436800D02*
D03*
X00724460Y00421560D02*
D03*
X00252020Y00588280D02*
D03*
X00135180Y00579040D02*
D03*
X00113459Y00600499D02*
D03*
X00597460Y00485275D02*
D03*
X00565350Y00485060D02*
D03*
X00605080Y00441960D02*
D03*
X00613129Y00517080D02*
D03*
X00326590Y00485275D02*
D03*
X00375909Y00517509D02*
D03*
X00358430Y00485060D02*
D03*
X00366240Y00441960D02*
D03*
X00381560Y00375840D02*
D03*
X00593789Y00406320D02*
D03*
M02*
